<?xml version="1.0" standalone="no"?>
<!DOCTYPE svg PUBLIC "-//W3C//DTD SVG 1.1//EN" "http://www.w3.org/Graphics/SVG/1.1/DTD/svg11.dtd" >
<svg xmlns="http://www.w3.org/2000/svg">
<metadata></metadata>
<defs>
<font id="pbs_kids_headline_condensedRg" horiz-adv-x="993" >
<font-face units-per-em="2048" ascent="1536" descent="-512" />
<missing-glyph horiz-adv-x="425" />
<glyph horiz-adv-x="2048" />
<glyph horiz-adv-x="2048" />
<glyph unicode="&#xd;" horiz-adv-x="2048" />
<glyph unicode=" "  horiz-adv-x="425" />
<glyph unicode="&#x09;" horiz-adv-x="425" />
<glyph unicode="&#xa0;" horiz-adv-x="425" />
<glyph unicode="!" horiz-adv-x="583" d="M49 1450l406 20l-49 -1048l-281 24zM102 117q0 74 47.5 130t112.5 56q66 0 114 -56t48 -130q0 -72 -48 -122t-114 -50t-113 50t-47 122z" />
<glyph unicode="&#x22;" horiz-adv-x="878" d="M49 1456l318 17l-39 -705l-219 18zM469 1456l315 17l-36 -705l-222 18z" />
<glyph unicode="#" horiz-adv-x="1091" d="M59 399l11 217h196l17 277h-199l10 215h199l14 285h154l-17 -285h205q1 23 6.5 127.5t6.5 157.5h153l-16 -285h188l-10 -215h-186q-16 -261 -17 -277h189l-11 -217h-188l-12 -305h-152l12 305h-202q-1 -16 -6.5 -131.5t-6.5 -173.5h-153l14 305h-199zM420 616h203l14 277 h-201q-12 -178 -16 -277z" />
<glyph unicode="$" horiz-adv-x="843" d="M61 164l33 291q178 -76 234 -76q84 0 84 74q0 31 -25 63t-63 58.5t-82 65t-82 81t-63 109t-25 145.5q0 167 72 260t188 117q0 30 1 91.5t1 92.5q30 0 90 1t90 1q0 -30 -1 -91t-1 -91q127 -15 250 -78l-47 -270q-127 69 -242 69q-90 0 -90 -80q0 -31 21 -61t54.5 -57 t73.5 -56t80.5 -66t74 -79.5t54.5 -103.5t21 -132q0 -134 -75 -220t-185 -113v-195h-183q0 92 3 184q-158 15 -261 66z" />
<glyph unicode="%" horiz-adv-x="1136" d="M27 1104q0 140 70.5 236t170.5 96q102 0 173 -96t71 -236q0 -142 -71 -240t-173 -98q-100 0 -170.5 98t-70.5 240zM41 0l829 1434l164 2l-833 -1436h-160zM190 1104q0 -58 22.5 -94.5t55.5 -36.5q32 0 56 37t24 94q0 55 -24 91t-56 36q-33 0 -55.5 -35.5t-22.5 -91.5z M582 336q0 142 71.5 240t171.5 98t172 -98t72 -240q0 -140 -71.5 -236t-172.5 -96t-172 96t-71 236zM745 336q0 -55 24 -91t56 -36q33 0 55.5 35.5t22.5 91.5q0 58 -22.5 94.5t-55.5 36.5q-32 0 -56 -37t-24 -94z" />
<glyph unicode="&#x26;" horiz-adv-x="1159" d="M23 391q0 257 210 432q-34 65 -50.5 101.5t-31 95.5t-14.5 121q0 78 34 141t89 100t117 56.5t125 19.5q74 0 148.5 -42.5t125.5 -120.5t51 -167q0 -104 -59.5 -206.5t-149.5 -176.5q50 -105 121 -237q50 85 80 156l236 -129q-49 -133 -140 -252l160 -222l-262 -110 l-92 151q-155 -135 -289 -135q-173 0 -291 119.5t-118 304.5zM317 438q0 -83 30 -118t95 -35q47 0 99 49q-147 269 -148 272q-31 -28 -53.5 -73.5t-22.5 -94.5zM416 1120q0 -38 57 -164q45 41 67.5 78.5t22.5 83.5q0 47 -18 80t-45 33q-34 0 -59 -25t-25 -86z" />
<glyph unicode="'" horiz-adv-x="425" d="M49 1450l311 8l-36 -696l-218 4z" />
<glyph unicode="(" horiz-adv-x="626" d="M70 711q0 146 31.5 281.5t86 242t120 189.5t141.5 145l124 -113q-110 -138 -161.5 -233.5t-74 -211t-22.5 -302.5q0 -209 52.5 -369.5t201.5 -364.5l-120 -125q-178 175 -278.5 392t-100.5 469z" />
<glyph unicode=")" horiz-adv-x="612" d="M53 1456l123 113q76 -62 141.5 -145t120.5 -189.5t87 -242t32 -281.5q0 -252 -101 -469.5t-280 -391.5l-119 125q149 204 201.5 364.5t52.5 369.5q0 186 -23 302.5t-74 211t-161 233.5z" />
<glyph unicode="*" horiz-adv-x="804" d="M35 1006l65 280l232 -164q-4 59 -9 127.5t-12 150.5t-10 126h211l-41 -406q37 24 114.5 74t114.5 74l66 -281l-240 -57q35 -58 164 -260l-172 -172l-121 342l-131 -332l-170 172l176 256z" />
<glyph unicode="+" horiz-adv-x="753" d="M47 561v244h240v373h174v-373h241v-244h-241v-371h-174v371h-240z" />
<glyph unicode="," horiz-adv-x="528" d="M55 150q0 80 50 139t120 59q71 0 124.5 -59.5t53.5 -138.5q0 -80 -21 -157t-77 -190q-29 -51 -71 -88t-76 -37l-82 125q0 1 11.5 9t28 22.5t32 33t25 44.5t5.5 53q-61 9 -92 58.5t-31 126.5z" />
<glyph unicode="-" horiz-adv-x="569" d="M29 526v273l458 2l2 -273z" />
<glyph unicode="." horiz-adv-x="446" d="M47 168q0 80 50 139.5t120 59.5t121 -59.5t51 -139.5q0 -79 -50.5 -132.5t-121.5 -53.5t-120.5 53.5t-49.5 132.5z" />
<glyph unicode="/" horiz-adv-x="882" d="M25 -137l522 1708l246 -10l-525 -1708z" />
<glyph unicode="0" horiz-adv-x="1040" d="M68 709q0 177 27 313t69.5 218t103.5 134t121 71t129 19t128.5 -18t120.5 -68.5t103.5 -132t69.5 -218.5t27 -318q0 -166 -27 -295.5t-70 -209t-103 -130.5t-120.5 -70.5t-128.5 -19.5q-56 0 -107.5 13.5t-103.5 44.5t-94 86.5t-75.5 133t-51.5 192t-18 255.5zM379 709 q0 -105 12.5 -186t44.5 -136t82 -55q47 0 79 57.5t44 139t12 180.5q0 81 -7.5 150.5t-22.5 128t-42 92.5t-63 34q-70 0 -104.5 -116t-34.5 -289z" />
<glyph unicode="1" horiz-adv-x="768" d="M39 805q79 117 171 309.5t157 366.5l266 -37l16 -1444h-338l17 899q-27 -119 -76 -262q-81 45 -122.5 77t-90.5 91z" />
<glyph unicode="2" horiz-adv-x="962" d="M41 1237q15 24 51 59.5t91 75t131 67t153 27.5q172 0 289.5 -128t117.5 -318q0 -108 -49.5 -221t-122.5 -201q-43 -55 -115.5 -160.5t-101.5 -144.5l379 35q15 -140 -10 -328l-721 -20q-1 24 -27.5 103.5t-29.5 111.5q58 106 144.5 235.5t164.5 236t86 119.5 q16 25 34.5 62t34 89t15.5 94.5t-31 73t-96 30.5q-93 0 -178 -61.5t-107 -112.5z" />
<glyph unicode="3" horiz-adv-x="991" d="M59 1303q4 17 37 43t83.5 53t124 49.5t147.5 28.5q83 9 160 -10t141 -63.5t102.5 -125t38.5 -186.5q0 -77 -17.5 -142.5t-43.5 -105.5t-48.5 -63.5t-40.5 -32.5l23 -20q22 -19 29 -27.5t27.5 -32.5t29.5 -47t22 -57.5t18 -78t5 -94.5q0 -87 -26 -160t-68.5 -121 t-97 -81.5t-111 -48.5t-111.5 -15q-164 0 -407 131l82 269q23 -23 121 -51t153 -25q54 4 76.5 48.5t17.5 115.5q-10 91 -52.5 129.5t-98.5 35.5l-139 -6q0 41 -2.5 129.5t-2.5 128.5q13 -1 49.5 -0.5t89 1.5t56.5 1q52 0 79.5 63t22.5 126q-5 60 -46.5 90.5t-123.5 11.5 q-79 -13 -150 -47t-77 -57z" />
<glyph unicode="4" horiz-adv-x="1042" d="M23 483q62 134 242 504.5t222 464.5l363 -31v-897l158 2l-7 -260l-151 2v-278h-330v282h-436zM317 514h209v461q-13 -21 -60.5 -127t-95 -214.5t-53.5 -119.5z" />
<glyph unicode="5" horiz-adv-x="956" d="M39 150l98 272q102 -76 151 -98.5t111 -22.5q51 0 90 58.5t39 119.5q0 84 -28.5 136.5t-83.5 52.5q-64 0 -110.5 -12t-108.5 -42l-125 82l14 738h741l-30 -312h-443l-4 -254q71 64 178 64q74 -2 136 -30.5t112 -84t78.5 -148.5t28.5 -216q0 -92 -22 -167t-60 -124.5 t-83.5 -85.5t-98 -54.5t-97.5 -27t-88 -8.5q-91 0 -200.5 42t-194.5 122z" />
<glyph unicode="6" horiz-adv-x="1005" d="M45 719q0 176 37.5 318.5t102.5 235t150.5 142t182.5 49.5q111 0 215 -32.5t170 -92.5l-72 -249q-87 45 -146 62t-126 17q-21 0 -45.5 -10.5t-53 -37.5t-51.5 -68t-40 -109t-19 -153q81 143 199 143q83 0 155 -29t128.5 -86t89 -149t32.5 -209q0 -104 -26 -188 t-68 -137.5t-97.5 -89t-111 -50t-112.5 -14.5q-104 0 -192.5 45t-156.5 133.5t-106.5 231.5t-38.5 327zM401 463q0 -80 33 -119t88 -39q38 0 70.5 45t36.5 111q2 79 -31.5 132.5t-91.5 53.5q-41 0 -73 -52.5t-32 -131.5z" />
<glyph unicode="7" horiz-adv-x="962" d="M59 1079v363q382 -20 779 0l75 -223q-117 -272 -234 -631t-175 -619l-363 39q57 235 149.5 535.5t186.5 548.5q-89 -13 -418 -13z" />
<glyph unicode="8" horiz-adv-x="997" d="M43 410q0 106 47 205.5t111 144.5q-64 38 -103 118t-39 160q0 198 112.5 311t307.5 113q192 0 313 -118.5t121 -290.5q0 -122 -118 -283q61 -52 96 -151t35 -203q0 -127 -61 -227.5t-158 -152.5t-209 -52q-123 0 -226 50.5t-166 149t-63 226.5zM387 451 q-4 -82 27.5 -142.5t70.5 -60.5q41 0 73 51.5t32 138.5q0 79 -27 138t-76 59q-45 0 -70 -50t-30 -134zM387 1040q-4 -83 27 -142.5t71 -59.5q41 0 73 51.5t32 138.5q0 79 -27 137t-78 58q-44 0 -69.5 -50.5t-28.5 -132.5z" />
<glyph unicode="9" horiz-adv-x="1038" d="M66 981q0 105 25.5 189.5t66.5 138t95.5 89t109.5 50t112 14.5q104 0 192.5 -45t157 -133.5t107.5 -231.5t39 -327q0 -176 -38 -319.5t-104 -235t-151.5 -141t-183.5 -49.5q-113 0 -223 33t-175 93l74 246q157 -78 285 -78q20 0 44 10t52.5 37.5t51.5 68.5t40.5 109.5 t20.5 153.5q-79 -143 -199 -143q-173 0 -286 120.5t-113 350.5zM389 981q-2 -78 31 -130t88 -52q40 0 71.5 50.5t32.5 129.5q3 162 -120 162q-39 0 -70.5 -46.5t-32.5 -113.5z" />
<glyph unicode=":" horiz-adv-x="514" d="M76 150q0 80 49.5 139t118.5 59q71 0 121.5 -59t50.5 -139q0 -79 -50 -133t-122 -54q-70 0 -119 54t-49 133zM76 944q0 80 50 139.5t120 59.5t120 -59.5t50 -139.5q0 -79 -49.5 -131.5t-120.5 -52.5t-120.5 52.5t-49.5 131.5z" />
<glyph unicode=";" horiz-adv-x="530" d="M59 150q0 80 50 139t120 59q71 0 124 -59.5t53 -138.5q0 -81 -21 -158t-78 -189q-27 -51 -69 -88t-78 -37l-80 125q0 1 11 9t27.5 22.5t32 33t24.5 44.5t5 53q-60 9 -90.5 59t-30.5 126zM76 944q0 80 50 139.5t120 59.5t120 -59.5t50 -139.5q0 -79 -49.5 -131.5 t-120.5 -52.5t-120.5 52.5t-49.5 131.5z" />
<glyph unicode="&#x3c;" horiz-adv-x="937" d="M74 610v95l583 528l166 -307l-352 -269l354 -303l-141 -313z" />
<glyph unicode="=" horiz-adv-x="788" d="M66 276v279l630 -8v-262zM66 799v278l630 -8v-262z" />
<glyph unicode="&#x3e;" horiz-adv-x="935" d="M76 354l352 303l-352 269l168 307l581 -528v-95l-608 -569z" />
<glyph unicode="?" horiz-adv-x="1001" d="M70 1356q31 14 80.5 34t159.5 53.5t169 33.5q39 0 79 -6t92 -20.5t96.5 -45t83 -74.5t61 -115.5t22.5 -160.5q0 -82 -22 -148t-55.5 -106.5t-75.5 -77t-79.5 -61t-70 -56.5t-45.5 -65q-11 -27 -14 -55.5t-1 -43.5l3 -14l-266 -35q-3 25 -6.5 64t-1 122.5t19.5 122.5 q15 33 48 66t66.5 60.5t66 58t53 69.5t20.5 84q0 58 -30 76.5t-91 18.5q-56 0 -141 -39.5t-164 -98.5zM281 121q0 74 47 129t112 55q67 0 114.5 -55t47.5 -129q0 -73 -47 -121.5t-115 -48.5q-67 0 -113 48.5t-46 121.5z" />
<glyph unicode="@" horiz-adv-x="1277" d="M84 635q0 136 31.5 248t85 187t126 126.5t152 74.5t166.5 23q98 0 186 -40.5t155.5 -115t107 -189t39.5 -253.5q0 -211 -84.5 -353t-206.5 -142q-50 0 -96 42.5t-70 104.5q-32 -42 -75 -72t-75 -30q-77 0 -129.5 62.5t-72 150.5t-13.5 184q10 154 92.5 265.5t212.5 111.5 q64 0 123 -100l15 61l131 -61l-74 -379q-8 -46 -8 -58q0 -44 19.5 -70t43.5 -26q51 0 94.5 87t43.5 222q0 108 -29.5 194t-80 138.5t-114 79.5t-135.5 27q-65 0 -127.5 -19.5t-118.5 -60t-98.5 -98t-67 -139.5t-24.5 -179q0 -263 100 -389.5t287 -126.5q37 0 53.5 0.5 t48 8.5t54.5 24l30 -156q-64 -37 -186 -37q-124 0 -215.5 34t-159.5 111t-102.5 208.5t-34.5 318.5zM469 580q0 -72 21 -101.5t51 -29.5q27 0 66 26t59 68l30 166q-11 71 -37 106t-55 35q-38 0 -80.5 -64.5t-52.5 -152.5q-2 -23 -2 -53z" />
<glyph unicode="A" horiz-adv-x="1157" d="M4 31q47 180 204 703.5t202 705.5q237 0 327 -4q25 -97 178.5 -639.5t204.5 -778.5q-10 -10 -93.5 -21.5t-187.5 -21t-108 -10.5q-2 47 -6.5 90.5t-12.5 101.5t-12 89l-288 4q-4 0 -14.5 -62t-22 -137.5t-17.5 -95.5zM465 553h201l-86 602z" />
<glyph unicode="B" horiz-adv-x="1036" d="M78 1409q172 61 452 61q60 0 112.5 -8.5t105 -31.5t89.5 -59.5t60 -97.5t23 -140q0 -97 -23 -172.5t-55.5 -123t-91.5 -110.5q89 -27 147.5 -139.5t58.5 -249.5q0 -96 -25 -166.5t-63.5 -110.5t-96.5 -64t-112.5 -31t-123.5 -7q-286 0 -451 45q-6 1403 -6 1405zM385 254 q35 -6 70 -6t61 7.5t49 27t35 58.5t12 97q0 150 -176 164q-16 2 -49 2q-3 -97 -3 -209q0 -68 1 -141zM385 852q91 4 127 18q90 37 90 181q0 129 -131 129q-6 0 -86 -11v-317z" />
<glyph unicode="C" horiz-adv-x="1013" d="M51 762q0 147 44.5 279t119 225t176.5 147.5t213 54.5q180 0 336 -51q-8 -62 -32.5 -188t-37.5 -152q-129 56 -194 56q-103 0 -175.5 -100.5t-72.5 -268.5q0 -181 55.5 -286t147.5 -105q95 0 203 61l127 -334q-57 -42 -149 -82.5t-159 -40.5q-139 0 -247.5 45t-189 138 t-123 245t-42.5 357z" />
<glyph unicode="D" horiz-adv-x="1067" d="M78 1442q135 12 272 12q316 0 479.5 -179.5t163.5 -567.5q0 -136 -39 -254.5t-106 -203t-155 -145.5t-186.5 -90.5t-199.5 -29.5q-119 0 -227 10q8 213 8 481q0 420 -10 967zM420 1065l6 -674q109 0 171 92t62 260t-51.5 247t-169.5 79q-6 0 -18 -4z" />
<glyph unicode="E" horiz-adv-x="942" d="M74 1430q36 5 401 12q196 4 385 4v-334q-22 3 -92 3q-58 0 -148 -2q-198 -5 -235 -5q0 -39 1 -112.5t1 -112.5q33 1 163 7q99 5 147 5h24q8 -70 8 -98q1 -23 1 -52q0 -58 -3 -143q-33 -12 -141 -17q-78 -4 -134 -4q-23 0 -42 1v-213q60 -2 100 -2q20 1 36 1 q46 2 160.5 8.5t153.5 8.5v-391q-16 2 -192 4q-105 1 -173 0h-73q-36 -1 -120.5 -2t-144 -2t-69.5 -2q2 121 2 218v91q-2 127 -8 511t-8 618z" />
<glyph unicode="F" horiz-adv-x="903" d="M68 1427l790 11l-14 -310q-42 3 -97 3q-74 0 -172 -5q-86 -8 -202 -8l6 -291q16 0 34 -1q26 0 56 2q50 2 86.5 4t100.5 6t100 6q12 -228 12 -320q-32 -3 -82 -6.5t-149 -8.5q-55 -3 -90 -3q-28 0 -44 2v-45q0 -157 11 -467q-30 -2 -338 -23q-1 20 -1 49t0.5 65t0.5 52 q-6 921 -6 924q0 39 -1 180t-1 184z" />
<glyph unicode="G" horiz-adv-x="1071" d="M49 739q0 156 47 293.5t126.5 232.5t186 150t222.5 55q130 0 338 -55q-25 -185 -78 -346q-133 76 -223 76q-108 0 -183 -117t-75 -280q0 -96 12.5 -173t40 -138t76 -94.5t114.5 -33.5q15 0 33 6l-2 246q-19 0 -59.5 1t-61.5 1l4 271h117q141 0 285 -9l14 -729 q-62 -54 -149.5 -86.5t-165.5 -32.5q-316 0 -467.5 188.5t-151.5 573.5z" />
<glyph unicode="H" horiz-adv-x="1099" d="M66 1442q56 6 166 9q37 1 70 1q65 0 112 -4q-2 -204 -2 -346t2 -223l258 -11q-8 380 -8 576q31 2 78.5 4t143.5 6q75 3 113 2h19q0 -188 -6 -299q-6 -238 -8 -516.5t-4 -432t-9 -218.5q-7 -2 -49 -2q-35 0 -95 2q-132 2 -183 8q6 116 6 282t-6 257h-246q-2 -39 -2 -121 q0 -68 2 -167q1 -121 1 -181q0 -48 -1 -58q-13 -4 -150 -9q-98 -4 -149 -4q-20 0 -33 1v33q0 120 -6 404q-6 327 -8 595q-2 362 -6 412z" />
<glyph unicode="I" horiz-adv-x="532" d="M72 1442q59 0 175 1t177 1q5 -124 5 -231q0 -46 -1 -89q-3 -282 -3 -563t3 -561h-332q-3 293 -9.5 630t-10.5 549t-4 263z" />
<glyph unicode="J" horiz-adv-x="927" d="M39 350q33 9 123 36t147 40q27 -78 48 -104q31 -39 77 -39q49 0 68.5 68.5t19.5 219.5q0 276 -6.5 572.5t-13.5 302.5h332q14 -109 14 -367q0 -389 -6 -485q-20 -274 -103 -463q-54 -103 -139.5 -136.5t-222.5 -33.5q-132 0 -228 117t-110 272z" />
<glyph unicode="K" horiz-adv-x="1118" d="M78 4l12 1426l305 22l-2 -522l297 553l342 -131l-377 -557l435 -772l-390 -43q-2 0 -55 129t-113.5 273t-76.5 173l8 -551q-8 -3 -75.5 -6.5t-119.5 -3.5t-118 3.5t-72 6.5z" />
<glyph unicode="L" horiz-adv-x="944" d="M68 1440l368 8l-8 -201q-19 -603 -19 -785q0 -40 1 -59q37 5 122.5 8t190.5 5t151 4q0 -78 -4 -184l-8 -242q-140 10 -248 10q-256 0 -534 -12q1 70 1 151q0 244 -7 588q-6 708 -6 709z" />
<glyph unicode="M" horiz-adv-x="1476" d="M74 2q2 188 16.5 712t24.5 728q35 0 127 2q66 2 111 2h34q13 -41 163.5 -400.5t170.5 -422.5l362 819l273 -6q1 -66 9 -368q7 -301 13 -606q3 -177 4 -306q0 -94 -2 -164q-6 1 -76 2t-151.5 2.5t-110.5 3.5q0 49 -1 303t-1 414q-196 -558 -237 -697l-156 -4 q-17 53 -73 212t-99 290.5t-57 198.5v-60q0 -119 -2 -333q-4 -274 -4 -316q-10 -1 -147.5 -3.5t-190.5 -2.5z" />
<glyph unicode="N" horiz-adv-x="1216" d="M78 -6q14 560 14 760l-10 641q142 37 307 51q63 -95 131.5 -223t129 -250.5t71.5 -143.5q1 0 3 74.5t3 210.5v71q0 112 -2 253l373 12q-6 -93 -21 -674.5t-16 -763.5q-33 -14 -73 -22.5t-91 -15t-68 -9.5l-84 144q-16 38 -73 158t-131 275.5t-107 225.5q21 -325 21 -758 q-78 -4 -377 -16z" />
<glyph unicode="O" horiz-adv-x="1142" d="M55 668q0 238 67 420t188 280t278 98q133 0 231 -57t156 -163t85 -244.5t27 -313.5q0 -209 -61.5 -366t-188.5 -248.5t-305 -91.5q-120 0 -213.5 56t-150 152.5t-85 217.5t-28.5 260zM395 791q0 -193 48.5 -294t125.5 -106q52 0 91.5 55t59 136.5t21.5 175.5 q0 151 -44 260.5t-111 109.5q-76 0 -132 -89t-59 -248z" />
<glyph unicode="P" horiz-adv-x="960" d="M70 -10q0 799 8 1440q77 0 232 6t233 6q161 0 266.5 -124.5t105.5 -324.5q0 -259 -98.5 -412t-279.5 -153q-87 0 -134 14v-134.5t2.5 -167t8.5 -134.5q-92 -18 -267 -18q-52 0 -77 2zM399 881q0 -22 1 -74t1 -76q19 -14 78 -14q63 0 94 51.5t31 181.5q0 98 -30.5 149.5 t-81.5 51.5q-4 0 -91 -6q0 -41 -1 -130t-1 -134z" />
<glyph unicode="Q" horiz-adv-x="1175" d="M49 690q0 214 68 390t194.5 280t286.5 104q134 0 232.5 -59.5t156.5 -169t85.5 -249.5t27.5 -314q0 -214 -47.5 -368t-134.5 -226q33 -70 97.5 -182.5t76.5 -135.5q-54 -27 -160.5 -68.5t-161.5 -58.5q-65 87 -139 367q-44 -8 -99 -8q-122 0 -217 59t-152 159t-85.5 222 t-28.5 258zM414 776q0 -193 42 -290.5t117 -102.5q52 0 90 54t55 133.5t17 172.5q0 152 -42 261.5t-105 109.5q-62 0 -118 -93.5t-56 -244.5z" />
<glyph unicode="R" horiz-adv-x="1032" d="M74 1034q0 38 1 194.5t1 207.5q75 0 227 5t225 5q167 0 285.5 -127t118.5 -320q0 -80 -13 -155t-55 -155.5t-110 -123.5q141 -341 243 -528q-109 -51 -317 -100q-32 64 -113 282t-112 287l-47 6v-63v-99v-74q0 -71 1 -128q2 -85 9 -146q-71 -5 -176 -8h-35h-48h-48h-35 q-2 209 -2 1040zM406 907q0 -93 4 -125q27 -6 51 -6q55 0 93 33q54 48 54 156q0 103 -56 157q-42 40 -102 40q-21 0 -44 -5v-250z" />
<glyph unicode="S" horiz-adv-x="976" d="M59 59l39 342q196 -90 283 -90q102 0 102 88q0 31 -23 61.5t-59 59.5t-80.5 61t-88.5 74t-80 91.5t-59 119t-23 150.5q0 118 38.5 207.5t104 141.5t144 77.5t167.5 25.5q213 0 385 -88l-59 -327q-161 84 -291 84q-110 0 -110 -99q0 -37 25.5 -72.5t66 -66.5t89.5 -65 t98 -77t89.5 -93t66 -121.5t25.5 -155.5q0 -98 -40 -178.5t-104.5 -128.5t-139 -74t-150.5 -26q-246 0 -416 79z" />
<glyph unicode="T" d="M8 1085l6 359q50 -4 109 -5.5t98.5 -1.5t112 0.5t102.5 0.5q266 0 539 12v-356q-27 -7 -309 -15v-352q0 -563 4 -723l-355 -16q3 206 5.5 578t3.5 509q-241 0 -316 10z" />
<glyph unicode="U" horiz-adv-x="1091" d="M66 1434q215 10 251 10h115q0 -364 -8 -653q-2 -25 -2 -55t2 -66q3 -71 9.5 -136.5t31 -112t63.5 -46.5q25 0 44.5 9.5t33.5 32t24 44t16 60.5t9.5 65.5t4.5 76.5t1.5 75.5t0.5 78.5q0 159 -15 619l363 14q6 -284 6 -507q0 -261 -8 -439q-5 -107 -52.5 -206.5 t-119 -168.5t-158.5 -110.5t-170 -41.5q-194 0 -313.5 150t-122.5 414v85q0 118 1 362v123q0 258 -7 323z" />
<glyph unicode="V" horiz-adv-x="1130" d="M-6 1432q32 1 118 5.5t154 6.5q34 1 65.5 1t59.5 -1q12 -128 31.5 -270.5t37 -242t46.5 -264.5t45 -257q26 149 89.5 483.5t96.5 556.5q27 -1 112.5 -3t147 -5t109.5 -8q-33 -176 -92 -404.5t-101 -372t-115 -380t-83 -269.5q-18 -10 -156 -12h-52q-96 0 -136 8 q-278 941 -377 1428z" />
<glyph unicode="W" horiz-adv-x="1558" d="M0 1432q86 12 258 12q47 0 141 -4q13 -156 45 -436t43 -394q21 76 59.5 225t67 257.5t37.5 134.5q38 0 115 1t115 1q23 -113 85.5 -327.5t84.5 -305.5l112 860q24 -1 88.5 -2.5t98 -2.5t84.5 -5.5t94 -11.5q-22 -208 -92.5 -564.5t-130.5 -609.5l-60 -252 q-43 -10 -86 -10q-165 0 -250 6q-48 171 -143 590q-32 -125 -88 -334.5t-70 -263.5q-12 -2 -48 -2t-97 2q-122 4 -187 14q-2 9 -33 156t-38 179t-34.5 166.5t-38.5 190t-34.5 174t-36.5 194.5t-30.5 175t-30.5 187z" />
<glyph unicode="X" horiz-adv-x="1116" d="M2 14q9 107 125 329.5t205 344.5q-82 136 -189 371.5t-118 339.5l342 59q16 -65 65 -195t105 -251q48 85 102 229t72 217q5 -3 78 -10.5t166 -16t130 -14.5q-58 -177 -171.5 -383t-211.5 -321q9 -20 53 -112.5t71 -148.5t69 -142t80 -157t72 -128l-400 -54 q-16 68 -57 187.5t-90 230.5q-50 -116 -91 -241.5t-44 -165.5z" />
<glyph unicode="Y" horiz-adv-x="1097" d="M-6 1438q7 0 151 4q118 4 185 4h28q36 -147 92 -328t95 -282q36 95 114.5 332.5t96.5 281.5q38 -1 165 -4t183 -6q-46 -129 -183.5 -458.5t-209.5 -459.5l12 -524q-177 -6 -178 -6l-183 6l19 518q-42 75 -176 396.5t-211 525.5z" />
<glyph unicode="Z" horiz-adv-x="1060" d="M51 182q58 123 236 451t241 469l-460 -27l4 369h819l104 -166q-67 -104 -242.5 -470.5t-215.5 -475.5q211 12 327 12q70 0 105 -4l-15 -342q-12 8 -145 8q-86 0 -382.5 -5.5t-313.5 -8.5z" />
<glyph unicode="[" horiz-adv-x="567" d="M55 -186v1806h426v-250h-139v-1304h154v-252h-441z" />
<glyph unicode="\" horiz-adv-x="739" d="M2 1569h256l473 -1704h-254z" />
<glyph unicode="]" horiz-adv-x="563" d="M59 66h154q0 108 -1 325t-1 326v653h-139v250h428q0 -301 -1 -903t-1 -903h-439v252z" />
<glyph unicode="^" horiz-adv-x="827" d="M14 907l293 613h170l287 -613h-275l-98 287l-104 -287h-273z" />
<glyph unicode="_" horiz-adv-x="524" d="M-27 -143h578v-162h-578v162z" />
<glyph unicode="`" horiz-adv-x="712" d="M94 1556h285l217 -339h-240z" />
<glyph unicode="a" d="M51 547v16q1 161 39 286q40 131 130 210.5t220 79.5q57 0 106 -19t79 -47l237 70q3 -55 30 -528t32 -603l-314 -22l-10 184q-41 -82 -97.5 -135t-109.5 -53q-79 0 -138 28t-97 76t-62 121t-34 153.5t-11 182.5zM356 582q0 -69 10.5 -128t37.5 -101t67 -42q50 0 79.5 69 t35.5 185q1 14 1 29q0 56 -13 110q-16 68 -44 108t-57 40q-46 0 -81.5 -76t-35.5 -194z" />
<glyph unicode="b" horiz-adv-x="1021" d="M57 1526l314 18l8 -545q85 140 203 140q68 0 123 -20t92.5 -52.5t66.5 -81.5t45.5 -98t27 -111t14.5 -112.5t5 -110.5v-24q0 -63 -8 -127q-10 -76 -36.5 -153t-66.5 -135.5t-102 -95t-139 -36.5q-112 0 -205 135l2 -117l-295 -14zM424 594q0 -122 29.5 -206.5t83.5 -84.5 q114 0 114 275q0 280 -112 280q-34 0 -57 -20t-35 -58.5t-17 -82t-6 -103.5z" />
<glyph unicode="c" horiz-adv-x="860" d="M53 551q0 133 23 239t71 188q49 83 131 127q79 42 183 42h10q90 -1 180 -42.5t146 -105.5q-57 -79 -211 -204q-18 36 -52 53q-28 14 -57 14h-10q-110 -20 -113 -258q0 -80 10 -143.5t36.5 -107.5t66.5 -44q48 0 80 17.5t65 68.5q23 -28 93 -99t98 -110q-22 -34 -55 -68.5 t-77 -68.5t-100.5 -55t-113.5 -21q-102 0 -181 48.5t-127 130.5t-72 183.5t-24 215.5z" />
<glyph unicode="d" horiz-adv-x="1026" d="M53 575v25q0 62 8 126q10 76 36.5 153t66.5 136t102.5 95.5t139.5 36.5q58 0 111 -37.5t87 -101.5l-12 516l328 20l16 -1538l-295 -14l-4 160q-89 -162 -211 -162q-68 0 -123 20t-93 52.5t-66.5 81t-45 98t-27 111.5t-14 112.5t-4.5 109.5zM356 610q0 -69 10.5 -129.5 t37 -105.5t65.5 -45q54 0 82 73t33 191v22q0 98 -32 178q-36 89 -79 89q-46 0 -81.5 -76.5t-35.5 -196.5z" />
<glyph unicode="e" horiz-adv-x="925" d="M51 563q0 104 25.5 205.5t73 186.5t123.5 137.5t167 52.5q130 0 228 -78q96 -78 144 -209q44 -121 44 -268v-25l-516 -135q7 -66 49 -103.5t96 -37.5q63 0 121 22.5t94 63.5l121 -221q-127 -174 -334 -174q-220 0 -328 156.5t-108 426.5zM334 676l244 72q-8 63 -39 105 t-74 42q-46 0 -87 -66t-44 -153z" />
<glyph unicode="f" horiz-adv-x="835" d="M33 891q0 126 2 194h162q0 17 -1 49t-1 48q0 174 88 280.5t239 106.5q109 0 287 -60l-66 -266q-90 37 -137 37q-57 0 -82 -29t-28 -96q-2 -23 -2 -70h274v-282l-260 -4l8 -807q-94 -4 -139 -4q-54 0 -180 4q4 528 4 801h-164q-4 35 -4 98z" />
<glyph unicode="g" horiz-adv-x="1042" d="M53 582v12q0 68 11 138q11 77 38.5 153t67.5 134.5t102 95t136 36.5q115 0 206 -147q-4 99 -6 122l328 -4l29 -1026v-30q0 -284 -129 -414q-125 -126 -366 -126q-20 0 -40 1q-69 2 -256 57l64 283q148 -45 235 -47h9q74 0 116 64q43 68 45 173q0 12 1 51.5t1 65.5 q-89 -164 -215 -164q-363 0 -377 572zM358 596q0 -69 10.5 -127.5t37.5 -100.5t67 -42q101 0 115 254v22q0 97 -32 176q-36 88 -81 88q-46 0 -81.5 -76t-35.5 -194z" />
<glyph unicode="h" horiz-adv-x="972" d="M82 1536l295 -6l8 -557q27 64 85 110.5t116 46.5q88 0 154.5 -56.5t99 -144t34.5 -190.5q7 -205 11 -741l-303 8q2 52 2 477q0 6 0.5 32t0 40t-1.5 41.5t-3.5 44t-6.5 40t-11 37.5t-16.5 28.5t-23 21t-30.5 6.5q-37 0 -60.5 -26t-42.5 -76l10 -672h-309z" />
<glyph unicode="i" horiz-adv-x="507" d="M86 1391q0 66 47.5 117t116.5 51q66 0 114 -51t48 -117q0 -63 -47.5 -109.5t-114.5 -46.5q-70 0 -117 46t-47 110zM88 1122l318 -10l22 -1116l-338 -4z" />
<glyph unicode="j" horiz-adv-x="495" d="M-94 -500l28 285q45 -6 73 -7t48.5 4t30.5 13.5t15 28t6.5 41t1.5 57.5v21v21q0 117 -9 541q-9 469 -10 615l338 6q-4 -139 -4 -358q0 -275 6 -674v-53q0 -199 -27 -322q-8 -31 -32 -67.5t-66.5 -75.5t-100 -63.5t-132.5 -32.5q-17 -1 -34 -1q-62 0 -132 21zM92 1399 q0 66 48 117t116 51t116 -51t48 -117q0 -63 -48.5 -109.5t-115.5 -46.5q-68 0 -116 46t-48 110z" />
<glyph unicode="k" horiz-adv-x="972" d="M82 -10v1552l317 -10l7 -725q33 64 88 147.5t93.5 137t41.5 53.5q17 0 157.5 -22t151.5 -33l-358 -443l385 -616q-158 -60 -367 -70l-197 457l5 -422z" />
<glyph unicode="l" horiz-adv-x="514" d="M98 -6v1548l303 -12l23 -1532z" />
<glyph unicode="m" horiz-adv-x="1488" d="M78 1130l297 -12l2 -155q38 87 104 131.5t142 44.5q177 0 247 -234q44 88 105 142.5t129 54.5q88 0 156 -59t101.5 -147.5t35.5 -188.5q3 -129 3 -367.5t3 -339.5l-305 6q4 119 4 500v14q0 33 -0.5 51t-2 49t-6 48.5t-12.5 37t-21 28.5t-30 9q-32 0 -66.5 -24.5 t-56.5 -67.5q9 -143 9 -438q0 -98 -1 -213h-315q5 179 5 347q0 126 -3 247q-2 82 -27 134t-75 52q-66 0 -113 -106l10 -674h-311z" />
<glyph unicode="n" horiz-adv-x="978" d="M82 1130l297 -12l2 -155q39 88 105 135t141 47q66 0 117 -34t82 -93t48.5 -125t24.5 -143q15 -163 17 -375v-112q0 -144 -3 -263h-309q2 39 2 173v73q0 197 -4 327q-2 86 -25.5 143.5t-72.5 57.5q-66 0 -113 -106l12 -668h-313z" />
<glyph unicode="o" horiz-adv-x="927" d="M47 535q0 90 13 175t44 166t77 141t117 96q67 34 150 34h9q87 -2 159 -41t118 -100t78 -140t46.5 -156t15.5 -153v-26q0 -64 -8 -127q-10 -76 -38 -155.5t-71.5 -139.5t-116 -98t-165.5 -38t-168.5 35.5t-122.5 92t-79 131.5t-45 150.5t-13 152.5zM334 598q-1 -14 -1 -28 q1 -102 33 -178q36 -88 91 -87q56 0 90.5 75.5t34.5 201.5q0 70 -13 133t-42 107t-68 44q-55 0 -87.5 -74.5t-37.5 -193.5z" />
<glyph unicode="p" horiz-adv-x="1001" d="M57 1104l314 20l2 -131q86 152 202 152q68 0 123 -20t93 -52.5t66.5 -81t45 -97.5t27.5 -111t15 -112.5t5 -109.5v-13q0 -69 -10 -138q-10 -76 -36 -152t-65.5 -134.5t-101.5 -95t-139 -36.5q-126 0 -207 127l12 -627l-301 -14zM418 598v-22q0 -99 32 -178q35 -89 80 -89 q46 0 80.5 76.5t34.5 196.5q0 109 -28.5 194.5t-84.5 85.5q-99 0 -114 -264z" />
<glyph unicode="q" horiz-adv-x="1009" d="M47 559v13q0 69 9 138q11 76 37 152t65.5 134.5t101.5 95t139 36.5q136 0 226 -165l4 178l315 2l-51 -1655l-297 2l10 616q-73 -131 -184 -131q-68 0 -123 20t-93 52.5t-66.5 81t-45 97.5t-27.5 111t-15 112.5t-5 109.5zM350 551q0 -68 11 -129t38 -106.5t66 -45.5 q102 0 113 265q1 15 1 30q0 57 -13 111q-15 68 -42.5 107.5t-56.5 39.5q-46 0 -81.5 -76t-35.5 -196z" />
<glyph unicode="r" horiz-adv-x="778" d="M61 1122l328 19q0 -33 -4 -103v-61q85 114 205 131q20 2 42 2q24 0 50 -2q48 -4 53 -10l-55 -381q-15 6 -51 12t-58 6q-47 0 -95.5 -40.5t-80.5 -88.5q-1 -25 -1 -77v-58q1 -97 3 -261t2 -210h-317q-12 414 -21 1122z" />
<glyph unicode="s" horiz-adv-x="808" d="M49 84l51 307q44 -39 114.5 -72.5t119.5 -33.5q25 0 36.5 11.5t8.5 47.5q-9 30 -45.5 66.5t-80.5 75t-87.5 85t-73 114.5t-29.5 146q0 95 49.5 171.5t125 115.5t157.5 39q176 0 346 -70l-53 -266q-135 64 -207 64q-14 0 -26 -3.5t-24.5 -19.5t-12.5 -43q0 -19 24.5 -44.5 t61.5 -52.5t80 -68t80 -87.5t61.5 -115t24.5 -146.5q0 -130 -92 -230t-203 -100q-108 0 -203.5 27t-202.5 82z" />
<glyph unicode="t" horiz-adv-x="870" d="M29 1085h184q0 49 1 144.5t1 144.5l330 105l-8 -394h254q-2 -47 -3.5 -149.5t-1.5 -124.5h-256q-6 -300 -6 -303q0 -144 64 -184q27 -17 55 -17q53 0 109 49l63 -311q-145 -74 -291 -74q-32 0 -73 13q-64 15 -111 52t-73.5 83t-42 110.5t-20.5 123t-5 132.5q0 60 4.5 170 t5.5 154l-174 -6q-6 156 -6 282z" />
<glyph unicode="u" horiz-adv-x="1003" d="M76 750q0 58 -1 111q0 144 3 263h313q-3 -126 -3 -264t3 -289q1 -55 11.5 -103t34.5 -83t57 -35q65 0 112 107l-16 667h317l8 -1130l-297 12l-2 156q-39 -88 -104.5 -135t-140.5 -47q-66 0 -118 34t-84 93t-51 125.5t-26 142.5q-14 163 -16 375z" />
<glyph unicode="v" horiz-adv-x="968" d="M14 1092q44 10 126.5 20.5t142.5 18t65 10.5q5 -97 55 -355q10 -72 46 -218t47 -146q32 103 64 317.5t48 390.5l322 -20q-6 -122 -113 -492q-37 -137 -105.5 -362t-76.5 -260l-289 4q-75 166 -191.5 533t-140.5 559z" />
<glyph unicode="w" horiz-adv-x="1499" d="M18 1069q42 12 125.5 28t144.5 27.5t66 16.5q23 -259 133 -701q33 133 72.5 350.5t50.5 342.5q119 -9 262 -9q96 -484 156 -690q29 112 63 339t44 360l321 -15q-3 -62 -34.5 -209.5t-75.5 -304.5q-36 -132 -103 -353t-76 -253q-49 0 -146.5 1t-146.5 1q-25 84 -131 528 q-108 -462 -112 -530q-49 0 -147.5 -1t-147.5 -1q-85 221 -191.5 556t-126.5 517z" />
<glyph unicode="x" horiz-adv-x="991" d="M12 29l275 512q-165 334 -267 575l361 19q24 -105 92 -295l121 284h334l-289 -557q140 -266 305 -540l-356 -43q-37 74 -131 286l-125 -288q-50 13 -150 26z" />
<glyph unicode="y" horiz-adv-x="1046" d="M25 1122l342 6q6 -85 60.5 -337.5t86.5 -331.5q33 65 80.5 301.5t56.5 374.5l348 -15q-4 -80 -36.5 -243t-83.5 -299q-57 -172 -242 -574.5t-256 -540.5l-348 70q57 83 153.5 260.5t130.5 247.5q-46 90 -150 459t-142 622z" />
<glyph unicode="z" horiz-adv-x="950" d="M74 170q18 41 164.5 294t195.5 361l-358 -8q0 51 -1 154.5t-1 154.5q127 0 379 -1t378 -1l50 -168q-2 -16 -66.5 -142.5t-140 -276t-96.5 -207.5q38 0 151.5 4t163.5 4l-14 -342q-6 4 -71 8t-132 4q-542 0 -578 -4z" />
<glyph unicode="{" horiz-adv-x="696" d="M41 639v164q18 1 47 1q57 1 66.5 14t9.5 88v12q0 50 -7 150.5t-7 150.5q0 79 14 142.5t43.5 114.5t81 79t121.5 28q105 0 200 -65l-37 -175q-86 21 -106 21q-8 0 -14.5 -1.5t-11 -5t-7.5 -6.5t-5 -10.5t-3.5 -13t-2 -16.5t-0.5 -17.5t-0.5 -21t-0.5 -23.5q0 -50 7 -150.5 t7 -150.5q0 -64 -20.5 -125t-55.5 -104q74 -69 74 -256q0 -43 -5 -129t-5 -129q0 -12 -1 -34t-0.5 -31.5t2.5 -23.5t7.5 -19.5t16 -10t26.5 -4.5q17 0 98 18l43 -172q-105 -88 -206 -88q-69 0 -120.5 30.5t-81 84t-44 118.5t-14.5 140q0 54 9 163t9 165v41t-4.5 26.5 t-7 16.5t-15.5 8t-21.5 4t-34 0.5t-44.5 1.5z" />
<glyph unicode="|" horiz-adv-x="450" d="M82 -135v1710h258v-1710h-258z" />
<glyph unicode="}" horiz-adv-x="694" d="M51 -72l43 172q85 -18 99 -18q10 0 17.5 1.5t13 5.5t9 8t6 12t3.5 14t1.5 17.5t0.5 18.5v22.5v23.5q0 43 -5.5 129t-5.5 129q0 187 74 256q-35 44 -55.5 105t-20.5 124q0 50 8.5 150.5t8.5 150.5q0 13 0.5 33.5t0.5 29.5t-1.5 21.5t-6.5 17.5t-14.5 9t-23.5 4 q-23 0 -109 -21l-37 175q95 65 201 65q136 0 199 -100t63 -264q0 -50 -8 -150.5t-8 -150.5q0 -17 -0.5 -34t-2.5 -27t-1 -19.5t0 -14t4.5 -9t8 -5.5t16 -2.5t22.5 -1.5t33 -0.5t43 -1.5v-164q-13 -1 -36 -1.5t-32 -1.5t-23 -6t-19.5 -15t-10 -28t-4.5 -46q0 -56 9 -165 t9 -163q0 -75 -14.5 -140t-44 -118.5t-81 -84t-120.5 -30.5q-99 0 -209 88z" />
<glyph unicode="~" horiz-adv-x="915" d="M59 1085q4 30 22 81.5t47.5 110.5t76.5 101.5t98 42.5q35 0 76.5 -24t73 -52.5t68.5 -52.5t63 -24q44 0 88 37.5t71 95.5l107 -80q-7 -30 -28.5 -76.5t-54.5 -98.5t-80.5 -88t-96.5 -36q-40 0 -84 23.5t-75 51t-63.5 51t-52.5 23.5q-46 0 -83.5 -38t-61.5 -105z" />
<glyph unicode="&#xa1;" horiz-adv-x="583" d="M78 -98l49 1048l281 -24l75 -1004zM109 1255q0 72 47.5 122t113.5 50t113 -50t47 -122q0 -74 -47.5 -130t-112.5 -56t-113 56t-48 130z" />
<glyph unicode="&#xa2;" horiz-adv-x="804" d="M47 776q0 154 77.5 275t197.5 161v236h196v-234q71 -13 131.5 -63t85.5 -131l-164 -146q-11 49 -55 83t-84 34q-73 0 -113 -61t-40 -154q0 -88 43.5 -148.5t109.5 -60.5q52 0 93.5 27t54.5 72l139 -156q-48 -71 -95.5 -110t-105.5 -60v-227h-196v229 q-120 39 -197.5 159.5t-77.5 274.5z" />
<glyph unicode="&#xa3;" horiz-adv-x="985" d="M23 610v172l145 -4q3 16 0.5 99.5t-2.5 99.5q0 203 91.5 330t260.5 127q110 0 186.5 -28.5t133.5 -88.5l-90 -230q-29 40 -75.5 69.5t-84.5 29.5q-35 0 -61.5 -12t-42.5 -30t-26 -47.5t-14 -56.5t-4.5 -66.5t1.5 -67t4.5 -68t3.5 -60.5l159 4v-172h-162q-4 -81 9 -317 h446v-293h-770q43 190 43 418q0 98 -6 192h-145z" />
<glyph unicode="&#xa7;" horiz-adv-x="856" d="M18 674q-9 163 80 274l15 17q-23 67 -23 127q0 240 219 329q81 34 181 21.5t169 -66.5l11 -274q-23 35 -110 81.5t-142 28.5q-38 -14 -55 -41.5t-12.5 -54t22.5 -43.5q61 -5 172 -53t145 -92q27 -30 49 -83.5t23 -103.5q12 -159 -78 -268l-14 -16q20 -59 20 -127 q0 -242 -217 -332q-82 -34 -181.5 -21t-170.5 66l-8 276q19 -35 108 -77.5t144 -22.5q39 13 55.5 38t11.5 49t-24 40q-59 5 -170 53.5t-150 92.5q-24 29 -45 81t-25 101zM232.5 731.5q8.5 -63.5 52.5 -84.5q27 -14 59 -23.5t53.5 -13t61.5 -9t55 -7.5q32 32 19 96t-56 86 q-54 27 -102.5 37.5t-116.5 13.5q-34 -32 -25.5 -95.5z" />
<glyph unicode="&#xa8;" horiz-adv-x="835" d="M100 1350q0 63 42 110t102 47q59 0 101 -47t42 -110q0 -59 -42 -102.5t-101 -43.5q-61 0 -102.5 43.5t-41.5 102.5zM451 1350q0 63 41.5 110t101.5 47t101.5 -47t41.5 -110q0 -59 -42 -102.5t-101 -43.5t-101 43.5t-42 102.5z" />
<glyph unicode="&#xa9;" horiz-adv-x="1400" d="M23 735q0 155 53 296t143 243t214 162.5t261 60.5t262 -60.5t215 -162.5t143.5 -243t53.5 -296t-53.5 -296t-143.5 -243t-215 -162.5t-262 -60.5t-261 60.5t-214 162.5t-143 243t-53 296zM133 735q0 -173 75.5 -320t204.5 -232t281 -85q153 0 282.5 85t205 232t75.5 320 q0 172 -75.5 318.5t-205 231.5t-282.5 85q-114 0 -218 -50.5t-179 -135.5t-119.5 -202.5t-44.5 -246.5zM340 731q0 175 102.5 298.5t247.5 123.5q102 0 195.5 -63t115.5 -177l-188 -94q-10 46 -43 71t-72 25q-53 0 -80.5 -50t-27.5 -134t27.5 -131t80.5 -47q28 0 65 22.5 t50 55.5l174 -117q-117 -203 -297 -203q-145 0 -247.5 123.5t-102.5 296.5z" />
<glyph unicode="&#xaa;" horiz-adv-x="704" d="M59 1049q-2 177 65.5 288t197.5 111q79 0 124 -45l162 47q3 -60 20.5 -371t20.5 -393l-213 -14l-6 125q-27 -56 -65.5 -92.5t-73.5 -36.5q-66 0 -112.5 28t-71.5 81.5t-36 119t-12 152.5zM276 1075q0 -64 17.5 -109.5t52.5 -45.5q30 0 47.5 40t20.5 107q3 64 -18.5 114 t-49.5 50t-49 -44t-21 -112z" />
<glyph unicode="&#xab;" horiz-adv-x="880" d="M45 469v178l383 406v-275l-207 -223l207 -223v-281zM434 469v178l383 406v-275l-207 -223l207 -223v-281z" />
<glyph unicode="&#xad;" horiz-adv-x="569" d="M29 526v273l458 2l2 -273z" />
<glyph unicode="&#xae;" horiz-adv-x="1400" d="M23 735q0 155 53 296t143 243t214 162.5t261 60.5t262 -60.5t215 -162.5t143.5 -243t53.5 -296t-53.5 -296t-143.5 -243t-215 -162.5t-262 -60.5t-261 60.5t-214 162.5t-143 243t-53 296zM133 735q0 -173 75.5 -320t204.5 -232t281 -85q153 0 282.5 85t205 232t75.5 320 q0 172 -75.5 318.5t-205 231.5t-282.5 85q-114 0 -218 -50.5t-179 -135.5t-119.5 -202.5t-44.5 -246.5zM414 330q8 164 8.5 400.5t-8.5 426.5h272q114 0 210.5 -90.5t96.5 -214.5q0 -70 -32.5 -126t-88.5 -93q82 -157 119 -303h-219q-11 136 -74 250l-73 -5q0 -33 8 -245 h-219zM625 743q44 0 78.5 9t58.5 34t22 64q-1 61 -41.5 88.5t-109.5 24.5q-16 -144 -8 -220z" />
<glyph unicode="&#xaf;" horiz-adv-x="985" d="M121 1354v162h741v-162h-741z" />
<glyph unicode="&#xb0;" horiz-adv-x="802" d="M51 1081q0 167 97.5 284.5t234.5 117.5q136 0 233 -117.5t97 -284.5q0 -165 -97.5 -283t-232.5 -118q-137 0 -234.5 117.5t-97.5 283.5zM217 1081q0 -83 48.5 -141.5t117.5 -58.5q68 0 116 58.5t48 141.5t-48 142t-116 59q-69 0 -117.5 -59t-48.5 -142z" />
<glyph unicode="&#xb4;" horiz-adv-x="712" d="M166 1210l217 349h285l-262 -349h-240z" />
<glyph unicode="&#xb6;" horiz-adv-x="1073" d="M47 891q0 106 36.5 203.5t95 166t132.5 109.5t148 41h499q-9 -350 -9 -750.5t9 -660.5h-438q18 217 8 387h-71q-74 0 -147.5 38.5t-131.5 104t-94.5 161t-36.5 200.5zM324 889q2 -105 59.5 -167.5t146.5 -53.5q0 187 -10 465q-89 3 -142.5 -66.5t-53.5 -177.5zM702 68h91 q14 558 0 1243h-91q-19 -711 0 -1243z" />
<glyph unicode="&#xb7;" horiz-adv-x="497" d="M57 582q0 80 50 139t120 59t121 -59t51 -139q0 -79 -50.5 -133t-121.5 -54t-120.5 54t-49.5 133z" />
<glyph unicode="&#xb8;" horiz-adv-x="929" d="M229 -332l35 92q91 -65 150 -65q30 0 45.5 17t15.5 46q0 30 -35.5 47t-81.5 7l-39 47l134 190h102l-119 -149q90 7 148.5 -26.5t58.5 -117.5q0 -86 -62 -126t-165 -40q-44 0 -90.5 19.5t-71.5 38.5z" />
<glyph unicode="&#xba;" horiz-adv-x="669" d="M61 1038q0 77 15 147t45.5 131t85.5 97t127 35t128 -39.5t87 -99.5t46.5 -126t16.5 -130q2 -67 -10 -131t-40 -125.5t-84 -99.5t-132 -38q-61 0 -111 24t-81.5 62t-53 89t-30.5 101.5t-9 102.5zM258 1079q-3 -70 20 -123t56 -53q35 0 56.5 45t21.5 123q0 66 -20 118 t-56 52q-33 0 -53 -45t-25 -117z" />
<glyph unicode="&#xbb;" horiz-adv-x="880" d="M45 51v281l207 223l-207 223v275l383 -406v-178zM434 51v281l207 223l-207 223v275l383 -406v-178z" />
<glyph unicode="&#xbf;" horiz-adv-x="1001" d="M63 332q0 82 22 148t55.5 106.5t75.5 77t80 61t70.5 56.5t45.5 65q11 27 14 55t0 43l-2 14l266 35q3 -25 6.5 -64t1 -122.5t-19.5 -122.5q-15 -33 -48 -66t-66.5 -60.5t-66 -58t-53 -69.5t-20.5 -84q0 -58 30 -76t91 -18q56 0 141 39.5t164 97.5l57 -358 q-31 -14 -80.5 -34t-159.5 -53.5t-169 -33.5q-33 0 -66.5 3.5t-77.5 15t-83 30t-78 51t-67 75.5t-45.5 106.5t-17.5 140.5zM375 1266q0 73 47 121.5t115 48.5q67 0 113 -48.5t46 -121.5q0 -74 -47 -129.5t-112 -55.5q-67 0 -114.5 55.5t-47.5 129.5z" />
<glyph unicode="&#xc0;" horiz-adv-x="1157" d="M4 31q47 180 204 703.5t202 705.5q237 0 327 -4q25 -97 178.5 -639.5t204.5 -778.5q-10 -10 -93.5 -21.5t-187.5 -21t-108 -10.5q-2 47 -6.5 90.5t-12.5 101.5t-12 89l-288 4q-4 0 -14.5 -62t-22 -137.5t-17.5 -95.5zM236 1870h284l217 -340h-239zM465 553h201l-86 602z " />
<glyph unicode="&#xc1;" horiz-adv-x="1157" d="M4 31q47 180 204 703.5t202 705.5q237 0 327 -4q25 -97 178.5 -639.5t204.5 -778.5q-10 -10 -93.5 -21.5t-187.5 -21t-108 -10.5q-2 47 -6.5 90.5t-12.5 101.5t-12 89l-288 4q-4 0 -14.5 -62t-22 -137.5t-17.5 -95.5zM416 1520l217 348h285l-263 -348h-239zM465 553h201 l-86 602z" />
<glyph unicode="&#xc2;" horiz-adv-x="1157" d="M4 31q47 180 204 703.5t202 705.5q237 0 327 -4q25 -97 178.5 -639.5t204.5 -778.5q-10 -10 -93.5 -21.5t-187.5 -21t-108 -10.5q-2 47 -6.5 90.5t-12.5 101.5t-12 89l-288 4q-4 0 -14.5 -62t-22 -137.5t-17.5 -95.5zM262 1511l248 355h143l242 -355h-231l-84 166 l-88 -166h-230zM465 553h201l-86 602z" />
<glyph unicode="&#xc3;" horiz-adv-x="1157" d="M4 31q47 180 204 703.5t202 705.5q237 0 327 -4q25 -97 178.5 -639.5t204.5 -778.5q-10 -10 -93.5 -21.5t-187.5 -21t-108 -10.5q-2 47 -6.5 90.5t-12.5 101.5t-12 89l-288 4q-4 0 -14.5 -62t-22 -137.5t-17.5 -95.5zM195 1579q4 25 20 67.5t42 92t68.5 84.5t88.5 35 q32 0 69 -20t65.5 -43.5t61 -43.5t56.5 -20q40 0 80 31t65 79l94 -65q-6 -26 -25.5 -65t-49 -82t-72 -73t-86.5 -30q-35 0 -74.5 19.5t-67 43t-57 43t-47.5 19.5q-42 0 -76 -32t-55 -87zM465 553h201l-86 602z" />
<glyph unicode="&#xc4;" horiz-adv-x="1157" d="M4 31q47 180 204 703.5t202 705.5q237 0 327 -4q25 -97 178.5 -639.5t204.5 -778.5q-10 -10 -93.5 -21.5t-187.5 -21t-108 -10.5q-2 47 -6.5 90.5t-12.5 101.5t-12 89l-288 4q-4 0 -14.5 -62t-22 -137.5t-17.5 -95.5zM260 1659q0 63 41.5 110.5t101.5 47.5 q59 0 101.5 -47.5t42.5 -110.5q0 -59 -42.5 -102.5t-101.5 -43.5q-61 0 -102 43t-41 103zM465 553h201l-86 602zM610 1659q0 63 42 110.5t102 47.5t101.5 -47.5t41.5 -110.5q0 -59 -42 -102.5t-101 -43.5t-101.5 43.5t-42.5 102.5z" />
<glyph unicode="&#xc5;" horiz-adv-x="1157" d="M4 31q47 180 204 703.5t202 705.5q237 0 327 -4q25 -97 178.5 -639.5t204.5 -778.5q-10 -10 -93.5 -21.5t-187.5 -21t-108 -10.5q-2 47 -6.5 90.5t-12.5 101.5t-12 89l-288 4q-4 0 -14.5 -62t-22 -137.5t-17.5 -95.5zM342 1745q0 99 69 168t169 69q97 0 166 -69.5 t69 -167.5q0 -100 -69 -170t-166 -70q-100 0 -169 70t-69 170zM465 553h201l-86 602zM492 1745q0 -46 25.5 -76.5t62.5 -30.5q33 0 58.5 31t25.5 76q0 42 -25.5 72t-58.5 30q-37 0 -62.5 -29.5t-25.5 -72.5z" />
<glyph unicode="&#xc7;" horiz-adv-x="1013" d="M51 762q0 147 44.5 279t119 225t176.5 147.5t213 54.5q180 0 336 -51q-8 -62 -32.5 -188t-37.5 -152q-129 56 -194 56q-103 0 -175.5 -100.5t-72.5 -268.5q0 -181 55.5 -286t147.5 -105q95 0 203 61l127 -334q-57 -42 -149 -82.5t-159 -40.5q-8 0 -24.5 1.5t-24.5 1.5 l-53 -68q90 7 148.5 -26t58.5 -117q0 -86 -62.5 -126t-165.5 -40q-44 0 -90.5 19.5t-71.5 39.5l-24 19l35 92q90 -66 149 -66q30 0 46 17.5t16 46.5q0 30 -35.5 46.5t-81.5 6.5l-39 47l82 119q-222 41 -343.5 230.5t-121.5 541.5z" />
<glyph unicode="&#xc8;" horiz-adv-x="942" d="M74 1430q36 5 401 12q196 4 385 4v-334q-41 6 -239.5 1t-235.5 -5q0 -39 1 -112.5t1 -112.5q33 1 163 7.5t171 4.5q8 -70 8 -98q2 -68 -2 -195q-33 -12 -141.5 -17t-175.5 -3v-213q90 -3 136 -1.5t160.5 8.5t153.5 9v-391q-17 2 -192.5 3.5t-245.5 0.5q-36 -1 -120.5 -2 t-144 -2t-69.5 -2q3 182 1.5 309t-7.5 511t-8 618zM164 1864h285l217 -340h-240z" />
<glyph unicode="&#xc9;" horiz-adv-x="942" d="M74 1430q36 5 401 12q196 4 385 4v-334q-41 6 -239.5 1t-235.5 -5q0 -39 1 -112.5t1 -112.5q33 1 163 7.5t171 4.5q8 -70 8 -98q2 -68 -2 -195q-33 -12 -141.5 -17t-175.5 -3v-213q90 -3 136 -1.5t160.5 8.5t153.5 9v-391q-17 2 -192.5 3.5t-245.5 0.5q-36 -1 -120.5 -2 t-144 -2t-69.5 -2q3 182 1.5 309t-7.5 511t-8 618zM305 1505l217 348h285l-262 -348h-240z" />
<glyph unicode="&#xca;" horiz-adv-x="942" d="M74 1430q36 5 401 12q196 4 385 4v-334q-41 6 -239.5 1t-235.5 -5q0 -39 1 -112.5t1 -112.5q33 1 163 7.5t171 4.5q8 -70 8 -98q2 -68 -2 -195q-33 -12 -141.5 -17t-175.5 -3v-213q90 -3 136 -1.5t160.5 8.5t153.5 9v-391q-17 2 -192.5 3.5t-245.5 0.5q-36 -1 -120.5 -2 t-144 -2t-69.5 -2q3 182 1.5 309t-7.5 511t-8 618zM154 1511l247 355h144l241 -355h-231l-84 166l-88 -166h-229z" />
<glyph unicode="&#xcb;" horiz-adv-x="942" d="M74 1430q36 5 401 12q196 4 385 4v-334q-41 6 -239.5 1t-235.5 -5q0 -39 1 -112.5t1 -112.5q33 1 163 7.5t171 4.5q8 -70 8 -98q2 -68 -2 -195q-33 -12 -141.5 -17t-175.5 -3v-213q90 -3 136 -1.5t160.5 8.5t153.5 9v-391q-17 2 -192.5 3.5t-245.5 0.5q-36 -1 -120.5 -2 t-144 -2t-69.5 -2q3 182 1.5 309t-7.5 511t-8 618zM152 1659q0 63 41.5 110.5t101.5 47.5q59 0 101 -47.5t42 -110.5q0 -59 -42 -102.5t-101 -43.5q-61 0 -102 43t-41 103zM502 1659q0 63 41.5 110.5t101.5 47.5t101.5 -47.5t41.5 -110.5q0 -59 -42 -102.5t-101 -43.5 t-101 43.5t-42 102.5z" />
<glyph unicode="&#xcc;" horiz-adv-x="532" d="M-76 1870h285l217 -340h-240zM72 1442q59 0 175 1t177 1q7 -177 4 -320q-6 -563 0 -1124h-332q-3 293 -9.5 630t-10.5 549t-4 263z" />
<glyph unicode="&#xcd;" horiz-adv-x="532" d="M72 1442q59 0 175 1t177 1q7 -177 4 -320q-6 -563 0 -1124h-332q-3 293 -9.5 630t-10.5 549t-4 263zM100 1513l217 349h285l-262 -349h-240z" />
<glyph unicode="&#xce;" horiz-adv-x="532" d="M-55 1530l248 354h143l242 -354h-232l-84 166l-88 -166h-229zM72 1442q59 0 175 1t177 1q7 -177 4 -320q-6 -563 0 -1124h-332q-3 293 -9.5 630t-10.5 549t-4 263z" />
<glyph unicode="&#xcf;" horiz-adv-x="532" d="M-51 1659q0 63 41.5 110.5t101.5 47.5q59 0 101.5 -47.5t42.5 -110.5q0 -59 -42.5 -102.5t-101.5 -43.5q-61 0 -102 43t-41 103zM72 1442q59 0 175 1t177 1q7 -177 4 -320q-6 -563 0 -1124h-332q-3 293 -9.5 630t-10.5 549t-4 263zM299 1659q0 63 41.5 110.5t101.5 47.5 t102 -47.5t42 -110.5q0 -59 -42.5 -102.5t-101.5 -43.5t-101 43.5t-42 102.5z" />
<glyph unicode="&#xd1;" horiz-adv-x="1216" d="M78 -6q14 560 14 760l-10 641q142 37 307 51q63 -95 131.5 -223t129 -250.5t71.5 -143.5q1 0 3 74.5t3 210t-2 324.5l373 12q-6 -93 -21.5 -674.5t-15.5 -763.5q-33 -14 -73 -22.5t-91 -15t-68 -9.5l-84 144q-16 38 -73 158t-131 275.5t-107 225.5q21 -325 21 -758 q-78 -4 -377 -16zM229 1595q4 25 20 67.5t42.5 92t69 84.5t88.5 35q40 0 87.5 -32t91 -63.5t72.5 -31.5q40 0 80.5 31.5t65.5 79.5l94 -66q-6 -26 -25.5 -65t-49 -82t-72 -73t-86.5 -30q-35 0 -74.5 19.5t-67 43t-57 43t-47.5 19.5q-42 0 -76 -32t-55 -87z" />
<glyph unicode="&#xd2;" horiz-adv-x="1142" d="M55 668q0 238 67 420t188 280t278 98q133 0 231 -57t156 -163t85 -244.5t27 -313.5q0 -209 -61.5 -366t-188.5 -248.5t-305 -91.5q-120 0 -213.5 56t-150 152.5t-85 217.5t-28.5 260zM291 1872h284l218 -340h-240zM395 791q0 -193 48.5 -294t125.5 -106q52 0 91.5 55 t59 136.5t21.5 175.5q0 151 -44 260.5t-111 109.5q-76 0 -132 -89t-59 -248z" />
<glyph unicode="&#xd3;" horiz-adv-x="1142" d="M55 668q0 238 67 420t188 280t278 98q133 0 231 -57t156 -163t85 -244.5t27 -313.5q0 -209 -61.5 -366t-188.5 -248.5t-305 -91.5q-120 0 -213.5 56t-150 152.5t-85 217.5t-28.5 260zM395 791q0 -193 48.5 -294t125.5 -106q52 0 91.5 55t59 136.5t21.5 175.5 q0 151 -44 260.5t-111 109.5q-76 0 -132 -89t-59 -248zM442 1528l217 348h285l-262 -348h-240z" />
<glyph unicode="&#xd4;" horiz-adv-x="1142" d="M55 668q0 238 67 420t188 280t278 98q133 0 231 -57t156 -163t85 -244.5t27 -313.5q0 -209 -61.5 -366t-188.5 -248.5t-305 -91.5q-120 0 -213.5 56t-150 152.5t-85 217.5t-28.5 260zM254 1534l248 354h143l242 -354h-232l-84 166l-88 -166h-229zM395 791 q0 -193 48.5 -294t125.5 -106q52 0 91.5 55t59 136.5t21.5 175.5q0 151 -44 260.5t-111 109.5q-76 0 -132 -89t-59 -248z" />
<glyph unicode="&#xd5;" horiz-adv-x="1142" d="M55 668q0 238 67 420t188 280t278 98q133 0 231 -57t156 -163t85 -244.5t27 -313.5q0 -209 -61.5 -366t-188.5 -248.5t-305 -91.5q-120 0 -213.5 56t-150 152.5t-85 217.5t-28.5 260zM178 1591q4 25 20 67.5t42 92t68.5 84.5t88.5 35q32 0 69 -20t65.5 -43.5t61 -43.5 t56.5 -20q40 0 80.5 31t65.5 79l94 -65q-5 -19 -17.5 -48.5t-35 -65t-49 -65.5t-62 -50.5t-70.5 -20.5t-74 19.5t-67 43t-57 43t-47 19.5q-42 0 -76 -32t-55 -87zM395 791q0 -193 48.5 -294t125.5 -106q52 0 91.5 55t59 136.5t21.5 175.5q0 151 -44 260.5t-111 109.5 q-76 0 -132 -89t-59 -248z" />
<glyph unicode="&#xd6;" horiz-adv-x="1142" d="M55 668q0 238 67 420t188 280t278 98q133 0 231 -57t156 -163t85 -244.5t27 -313.5q0 -209 -61.5 -366t-188.5 -248.5t-305 -91.5q-120 0 -213.5 56t-150 152.5t-85 217.5t-28.5 260zM252 1659q0 63 41.5 110.5t101.5 47.5q59 0 101.5 -47.5t42.5 -110.5 q0 -59 -42.5 -102.5t-101.5 -43.5q-61 0 -102 43t-41 103zM395 791q0 -193 48.5 -294t125.5 -106q52 0 91.5 55t59 136.5t21.5 175.5q0 151 -44 260.5t-111 109.5q-76 0 -132 -89t-59 -248zM602 1659q0 63 41.5 110.5t101.5 47.5t102 -47.5t42 -110.5q0 -59 -42.5 -102.5 t-101.5 -43.5t-101 43.5t-42 102.5z" />
<glyph unicode="&#xd8;" horiz-adv-x="1142" d="M55 664q0 238 67 420t188 280t278 98q57 0 98 -8l43 133l246 -10l-76 -236q188 -188 188 -657q0 -155 -36 -284t-104.5 -223.5t-174.5 -147t-240 -52.5q-29 0 -73 7l-49 -156l-244 10l80 250q-95 92 -143 244t-48 332zM395 786q0 -193 48.5 -293.5t125.5 -105.5 q52 0 91.5 55t59 136.5t21.5 175.5q0 151 -44 260.5t-111 109.5q-76 0 -132 -89.5t-59 -248.5z" />
<glyph unicode="&#xd9;" horiz-adv-x="1091" d="M66 1434q215 10 251 10h115q0 -364 -8 -653q-3 -50 0 -121t9.5 -136.5t31 -112t63.5 -46.5q25 0 44.5 9.5t33.5 32t24 44t16 60.5t9.5 65.5t4.5 76.5t1.5 75.5t0.5 78.5q0 159 -15 619l363 14q12 -615 -2 -946q-5 -107 -52.5 -206.5t-119 -168.5t-158.5 -110.5 t-170 -41.5q-194 0 -313.5 150t-122.5 414q-1 80 1 446.5t-7 446.5zM223 1862h285l217 -340h-240z" />
<glyph unicode="&#xda;" horiz-adv-x="1091" d="M66 1434q215 10 251 10h115q0 -364 -8 -653q-3 -50 0 -121t9.5 -136.5t31 -112t63.5 -46.5q25 0 44.5 9.5t33.5 32t24 44t16 60.5t9.5 65.5t4.5 76.5t1.5 75.5t0.5 78.5q0 159 -15 619l363 14q12 -615 -2 -946q-5 -107 -52.5 -206.5t-119 -168.5t-158.5 -110.5 t-170 -41.5q-194 0 -313.5 150t-122.5 414q-1 80 1 446.5t-7 446.5zM377 1522l217 348h285l-263 -348h-239z" />
<glyph unicode="&#xdb;" horiz-adv-x="1091" d="M66 1434q215 10 251 10h115q0 -364 -8 -653q-3 -50 0 -121t9.5 -136.5t31 -112t63.5 -46.5q25 0 44.5 9.5t33.5 32t24 44t16 60.5t9.5 65.5t4.5 76.5t1.5 75.5t0.5 78.5q0 159 -15 619l363 14q12 -615 -2 -946q-5 -107 -52.5 -206.5t-119 -168.5t-158.5 -110.5 t-170 -41.5q-194 0 -313.5 150t-122.5 414q-1 80 1 446.5t-7 446.5zM231 1526l248 354h144l241 -354h-231l-84 166l-88 -166h-230z" />
<glyph unicode="&#xdc;" horiz-adv-x="1091" d="M66 1434q215 10 251 10h115q0 -364 -8 -653q-3 -50 0 -121t9.5 -136.5t31 -112t63.5 -46.5q25 0 44.5 9.5t33.5 32t24 44t16 60.5t9.5 65.5t4.5 76.5t1.5 75.5t0.5 78.5q0 159 -15 619l363 14q12 -615 -2 -946q-5 -107 -52.5 -206.5t-119 -168.5t-158.5 -110.5 t-170 -41.5q-194 0 -313.5 150t-122.5 414q-1 80 1 446.5t-7 446.5zM227 1659q0 63 42 110.5t102 47.5q59 0 101 -47.5t42 -110.5q0 -59 -42 -102.5t-101 -43.5q-61 0 -102.5 43.5t-41.5 102.5zM578 1659q0 63 41.5 110.5t101.5 47.5t101.5 -47.5t41.5 -110.5 q0 -59 -42 -102.5t-101 -43.5t-101 43.5t-42 102.5z" />
<glyph unicode="&#xe0;" d="M51 547q-2 171 38.5 302t130.5 210.5t220 79.5q57 0 106 -19t79 -47l237 70q3 -55 30 -528t32 -603l-314 -22l-10 184q-41 -82 -97.5 -135t-109.5 -53q-79 0 -138 28t-97 76t-62 121t-34 153.5t-11 182.5zM186 1563h285l217 -340h-239zM356 582q0 -69 10.5 -128 t37.5 -101t67 -42q50 0 79.5 69t35.5 185q4 72 -12 139.5t-44 107.5t-57 40q-46 0 -81.5 -76t-35.5 -194z" />
<glyph unicode="&#xe1;" d="M51 547q-2 171 38.5 302t130.5 210.5t220 79.5q57 0 106 -19t79 -47l237 70q3 -55 30 -528t32 -603l-314 -22l-10 184q-41 -82 -97.5 -135t-109.5 -53q-79 0 -138 28t-97 76t-62 121t-34 153.5t-11 182.5zM317 1227l218 348h284l-262 -348h-240zM356 582q0 -69 10.5 -128 t37.5 -101t67 -42q50 0 79.5 69t35.5 185q4 72 -12 139.5t-44 107.5t-57 40q-46 0 -81.5 -76t-35.5 -194z" />
<glyph unicode="&#xe2;" d="M51 547q-2 171 38.5 302t130.5 210.5t220 79.5q57 0 106 -19t79 -47l237 70q3 -55 30 -528t32 -603l-314 -22l-10 184q-41 -82 -97.5 -135t-109.5 -53q-79 0 -138 28t-97 76t-62 121t-34 153.5t-11 182.5zM182 1233l248 354h143l242 -354h-231l-84 166l-88 -166h-230z M356 582q0 -69 10.5 -128t37.5 -101t67 -42q50 0 79.5 69t35.5 185q4 72 -12 139.5t-44 107.5t-57 40q-46 0 -81.5 -76t-35.5 -194z" />
<glyph unicode="&#xe3;" d="M51 547q-2 171 38.5 302t130.5 210.5t220 79.5q57 0 106 -19t79 -47l237 70q3 -55 30 -528t32 -603l-314 -22l-10 184q-41 -82 -97.5 -135t-109.5 -53q-79 0 -138 28t-97 76t-62 121t-34 153.5t-11 182.5zM137 1296q4 25 20 67.5t42 92t68.5 84.5t88.5 35q32 0 69 -20 t65.5 -43.5t61 -43.5t56.5 -20q40 0 80.5 31.5t65.5 79.5l94 -66q-5 -19 -17.5 -48.5t-35 -65t-49 -65.5t-62 -50.5t-70.5 -20.5q-45 0 -94.5 31.5t-89 62.5t-61.5 31q-42 0 -76 -32t-55 -87zM356 582q0 -69 10.5 -128t37.5 -101t67 -42q50 0 79.5 69t35.5 185 q4 72 -12 139.5t-44 107.5t-57 40q-46 0 -81.5 -76t-35.5 -194z" />
<glyph unicode="&#xe4;" d="M51 547q-2 171 38.5 302t130.5 210.5t220 79.5q57 0 106 -19t79 -47l237 70q3 -55 30 -528t32 -603l-314 -22l-10 184q-41 -82 -97.5 -135t-109.5 -53q-79 0 -138 28t-97 76t-62 121t-34 153.5t-11 182.5zM180 1370q0 63 42 110.5t102 47.5q59 0 101 -47.5t42 -110.5 q0 -59 -42 -102t-101 -43q-61 0 -102.5 43t-41.5 102zM356 582q0 -69 10.5 -128t37.5 -101t67 -42q50 0 79.5 69t35.5 185q4 72 -12 139.5t-44 107.5t-57 40q-46 0 -81.5 -76t-35.5 -194zM530 1370q0 63 42 110.5t102 47.5t101.5 -47.5t41.5 -110.5q0 -59 -42 -102t-101 -43 q-60 0 -102 43t-42 102z" />
<glyph unicode="&#xe5;" d="M51 547q-2 171 38.5 302t130.5 210.5t220 79.5q57 0 106 -19t79 -47l237 70q3 -55 30 -528t32 -603l-314 -22l-10 184q-41 -82 -97.5 -135t-109.5 -53q-79 0 -138 28t-97 76t-62 121t-34 153.5t-11 182.5zM260 1452q0 99 69.5 168.5t168.5 69.5q97 0 166 -70t69 -168 q0 -100 -69 -170t-166 -70q-100 0 -169 70t-69 170zM356 582q0 -69 10.5 -128t37.5 -101t67 -42q50 0 79.5 69t35.5 185q4 72 -12 139.5t-44 107.5t-57 40q-46 0 -81.5 -76t-35.5 -194zM410 1452q0 -45 25.5 -75.5t62.5 -30.5q33 0 58.5 30.5t25.5 75.5q0 42 -25.5 72 t-58.5 30q-37 0 -62.5 -29.5t-25.5 -72.5z" />
<glyph unicode="&#xe7;" horiz-adv-x="860" d="M53 551q0 133 23 239t71 188.5t130.5 126.5t193.5 42q90 -1 180 -42.5t146 -105.5q-57 -79 -211 -204q-18 36 -51.5 53t-67.5 14q-110 -20 -113 -258q0 -80 10 -143.5t36.5 -107.5t66.5 -44q48 0 80 17.5t65 68.5q23 -28 93 -99t98 -110q-43 -65 -118.5 -125.5 t-164.5 -78.5l-71 -93q90 7 148 -26t58 -117q0 -86 -62 -126t-165 -40q-44 0 -90.5 19.5t-71.5 38.5l-24 20l34 92q91 -65 150 -65q30 0 45.5 17t15.5 46q0 30 -35 46.5t-81 6.5l-39 47l88 127q-92 9 -164 60t-115.5 131.5t-65.5 178t-22 206.5z" />
<glyph unicode="&#xe8;" horiz-adv-x="925" d="M51 563q0 104 25.5 205.5t73 186.5t123.5 137.5t167 52.5q130 0 227.5 -78t145 -209t43.5 -293l-516 -135q7 -66 49 -103.5t96 -37.5q63 0 121 22.5t94 63.5l121 -221q-127 -174 -334 -174q-220 0 -328 156.5t-108 426.5zM125 1565h285l217 -340h-240zM334 676l244 72 q-8 63 -39 105t-74 42q-46 0 -87 -66t-44 -153z" />
<glyph unicode="&#xe9;" horiz-adv-x="925" d="M51 563q0 104 25.5 205.5t73 186.5t123.5 137.5t167 52.5q130 0 227.5 -78t145 -209t43.5 -293l-516 -135q7 -66 49 -103.5t96 -37.5q63 0 121 22.5t94 63.5l121 -221q-127 -174 -334 -174q-220 0 -328 156.5t-108 426.5zM248 1217l217 348h285l-263 -348h-239zM334 676 l244 72q-8 63 -39 105t-74 42q-46 0 -87 -66t-44 -153z" />
<glyph unicode="&#xea;" horiz-adv-x="925" d="M51 563q0 104 25.5 205.5t73 186.5t123.5 137.5t167 52.5q130 0 227.5 -78t145 -209t43.5 -293l-516 -135q7 -66 49 -103.5t96 -37.5q63 0 121 22.5t94 63.5l121 -221q-127 -174 -334 -174q-220 0 -328 156.5t-108 426.5zM131 1229l248 354h143l242 -354h-232l-83 166 l-89 -166h-229zM334 676l244 72q-8 63 -39 105t-74 42q-46 0 -87 -66t-44 -153z" />
<glyph unicode="&#xeb;" horiz-adv-x="925" d="M51 563q0 104 25.5 205.5t73 186.5t123.5 137.5t167 52.5q130 0 227.5 -78t145 -209t43.5 -293l-516 -135q7 -66 49 -103.5t96 -37.5q63 0 121 22.5t94 63.5l121 -221q-127 -174 -334 -174q-220 0 -328 156.5t-108 426.5zM131 1401q0 63 41.5 110.5t101.5 47.5 q59 0 101.5 -47.5t42.5 -110.5q0 -59 -42.5 -102.5t-101.5 -43.5q-61 0 -102 43t-41 103zM334 676l244 72q-8 63 -39 105t-74 42q-46 0 -87 -66t-44 -153zM481 1401q0 63 42 110.5t102 47.5t101.5 -47.5t41.5 -110.5q0 -59 -42 -102.5t-101 -43.5t-101.5 43.5t-42.5 102.5z " />
<glyph unicode="&#xec;" horiz-adv-x="489" d="M-63 1561h284l217 -340h-239zM88 1102l318 -10l22 -1096l-338 -4z" />
<glyph unicode="&#xed;" horiz-adv-x="489" d="M70 1245l217 348h284l-262 -348h-239zM88 1102l318 -10l22 -1096l-338 -4z" />
<glyph unicode="&#xee;" horiz-adv-x="489" d="M-72 1225l248 354h143l242 -354h-231l-84 166l-88 -166h-230zM88 1102l318 -10l22 -1096l-338 -4z" />
<glyph unicode="&#xef;" horiz-adv-x="489" d="M-74 1368q0 63 42 110.5t102 47.5q59 0 101 -47.5t42 -110.5q0 -59 -42 -102t-101 -43q-61 0 -102.5 43t-41.5 102zM88 1102l318 -10l22 -1096l-338 -4zM276 1368q0 63 42 110.5t102 47.5t101.5 -47.5t41.5 -110.5q0 -59 -42 -102t-101 -43q-60 0 -102 43t-42 102z" />
<glyph unicode="&#xf1;" horiz-adv-x="978" d="M82 1130l297 -12l2 -155q39 88 105 135t141 47q66 0 117 -34t82 -93t48.5 -125t24.5 -143q15 -163 16.5 -375t-2.5 -375h-309q2 49 1.5 246t-3.5 327q-2 86 -25.5 143.5t-72.5 57.5q-66 0 -113 -106l12 -668h-313zM117 1290q4 25 20 67.5t42 92t68.5 84.5t88.5 35 q32 0 69 -20t65.5 -43.5t61 -43.5t56.5 -20q40 0 80 31t65 79l94 -65q-6 -26 -25.5 -65t-49 -82t-72 -73t-86.5 -30q-45 0 -94.5 31.5t-89.5 62.5t-62 31q-42 0 -76 -32t-55 -87z" />
<glyph unicode="&#xf2;" horiz-adv-x="927" d="M47 535q0 90 13 175t44 166t77 141t117 96t159 34q87 -2 159 -41t118 -100t78 -140t46.5 -156t15.5 -153q2 -77 -8 -153t-38 -155.5t-71.5 -139.5t-116 -98t-165.5 -38t-168.5 35.5t-122.5 92t-79 131.5t-45 150.5t-13 152.5zM80 1563h285l217 -340h-240zM334 598 q-5 -118 31.5 -205.5t91.5 -87.5q56 0 90.5 75.5t34.5 201.5q0 70 -13 133t-42 107t-68 44q-55 0 -87.5 -74.5t-37.5 -193.5z" />
<glyph unicode="&#xf3;" horiz-adv-x="927" d="M47 535q0 90 13 175t44 166t77 141t117 96t159 34q87 -2 159 -41t118 -100t78 -140t46.5 -156t15.5 -153q2 -77 -8 -153t-38 -155.5t-71.5 -139.5t-116 -98t-165.5 -38t-168.5 35.5t-122.5 92t-79 131.5t-45 150.5t-13 152.5zM268 1221l217 348h285l-262 -348h-240z M334 598q-5 -118 31.5 -205.5t91.5 -87.5q56 0 90.5 75.5t34.5 201.5q0 70 -13 133t-42 107t-68 44q-55 0 -87.5 -74.5t-37.5 -193.5z" />
<glyph unicode="&#xf4;" horiz-adv-x="927" d="M47 535q0 90 13 175t44 166t77 141t117 96t159 34q87 -2 159 -41t118 -100t78 -140t46.5 -156t15.5 -153q2 -77 -8 -153t-38 -155.5t-71.5 -139.5t-116 -98t-165.5 -38t-168.5 35.5t-122.5 92t-79 131.5t-45 150.5t-13 152.5zM139 1225l248 354h143l242 -354h-231 l-84 166l-88 -166h-230zM334 598q-5 -118 31.5 -205.5t91.5 -87.5q56 0 90.5 75.5t34.5 201.5q0 70 -13 133t-42 107t-68 44q-55 0 -87.5 -74.5t-37.5 -193.5z" />
<glyph unicode="&#xf5;" horiz-adv-x="927" d="M47 535q0 90 13 175t44 166t77 141t117 96t159 34q87 -2 159 -41t118 -100t78 -140t46.5 -156t15.5 -153q2 -77 -8 -153t-38 -155.5t-71.5 -139.5t-116 -98t-165.5 -38t-168.5 35.5t-122.5 92t-79 131.5t-45 150.5t-13 152.5zM88 1286q4 25 20 67.5t42 92t68.5 84.5 t88.5 35q32 0 69 -20t65.5 -43.5t61 -43.5t56.5 -20q40 0 80.5 31t65.5 79l94 -65q-5 -19 -17.5 -48.5t-35 -65t-49 -65.5t-62 -50.5t-70.5 -20.5q-45 0 -94.5 31.5t-89.5 62.5t-62 31q-42 0 -76 -32t-55 -87zM334 598q-5 -118 31.5 -205.5t91.5 -87.5q56 0 90.5 75.5 t34.5 201.5q0 70 -13 133t-42 107t-68 44q-55 0 -87.5 -74.5t-37.5 -193.5z" />
<glyph unicode="&#xf6;" horiz-adv-x="927" d="M47 535q0 90 13 175t44 166t77 141t117 96t159 34q87 -2 159 -41t118 -100t78 -140t46.5 -156t15.5 -153q2 -77 -8 -153t-38 -155.5t-71.5 -139.5t-116 -98t-165.5 -38t-168.5 35.5t-122.5 92t-79 131.5t-45 150.5t-13 152.5zM135 1378q0 63 42 110.5t102 47.5 q59 0 101 -47.5t42 -110.5q0 -59 -42 -102t-101 -43q-61 0 -102.5 43t-41.5 102zM334 598q-5 -118 31.5 -205.5t91.5 -87.5q56 0 90.5 75.5t34.5 201.5q0 70 -13 133t-42 107t-68 44q-55 0 -87.5 -74.5t-37.5 -193.5zM485 1378q0 63 42 110.5t102 47.5t101.5 -47.5 t41.5 -110.5q0 -59 -42 -102t-101 -43q-60 0 -102 43t-42 102z" />
<glyph unicode="&#xf8;" horiz-adv-x="927" d="M47 535q0 90 13 175t44 166t77 141t117 96t159 34q26 0 53 -6l84 274l246 -10l-119 -385q75 -87 113 -213.5t40 -249.5q2 -77 -8 -153t-38 -155.5t-71.5 -139.5t-116 -98t-165.5 -38q-34 0 -74 7l-86 -283l-243 10l118 387q-73 81 -108 199.5t-35 241.5zM334 598 q-5 -118 31.5 -205.5t91.5 -87.5q56 0 90.5 75.5t34.5 201.5q0 70 -13 133t-42 107t-68 44q-55 0 -87.5 -74.5t-37.5 -193.5z" />
<glyph unicode="&#xf9;" horiz-adv-x="1003" d="M75.5 749.5q-1.5 211.5 2.5 374.5h313q-6 -252 0 -553q1 -55 11.5 -103t34.5 -83t57 -35q65 0 112 107l-16 667h317l8 -1130l-297 12l-2 156q-39 -88 -104.5 -135t-140.5 -47q-66 0 -118 34t-84 93t-51 125.5t-26 142.5q-15 163 -16.5 374.5zM182 1569h285l217 -340h-240 z" />
<glyph unicode="&#xfa;" horiz-adv-x="1003" d="M75.5 749.5q-1.5 211.5 2.5 374.5h313q-6 -252 0 -553q1 -55 11.5 -103t34.5 -83t57 -35q65 0 112 107l-16 667h317l8 -1130l-297 12l-2 156q-39 -88 -104.5 -135t-140.5 -47q-66 0 -118 34t-84 93t-51 125.5t-26 142.5q-15 163 -16.5 374.5zM297 1219l217 348h285 l-262 -348h-240z" />
<glyph unicode="&#xfb;" horiz-adv-x="1003" d="M75.5 749.5q-1.5 211.5 2.5 374.5h313q-6 -252 0 -553q1 -55 11.5 -103t34.5 -83t57 -35q65 0 112 107l-16 667h317l8 -1130l-297 12l-2 156q-39 -88 -104.5 -135t-140.5 -47q-66 0 -118 34t-84 93t-51 125.5t-26 142.5q-15 163 -16.5 374.5zM190 1225l248 354h144 l241 -354h-231l-84 166l-88 -166h-230z" />
<glyph unicode="&#xfc;" horiz-adv-x="1003" d="M75.5 749.5q-1.5 211.5 2.5 374.5h313q-6 -252 0 -553q1 -55 11.5 -103t34.5 -83t57 -35q65 0 112 107l-16 667h317l8 -1130l-297 12l-2 156q-39 -88 -104.5 -135t-140.5 -47q-66 0 -118 34t-84 93t-51 125.5t-26 142.5q-15 163 -16.5 374.5zM182 1386q0 63 42 110.5 t102 47.5q59 0 101 -47.5t42 -110.5q0 -59 -42 -102t-101 -43q-61 0 -102.5 43t-41.5 102zM532 1386q0 63 42 110.5t102 47.5t101.5 -47.5t41.5 -110.5q0 -59 -42 -102t-101 -43q-60 0 -102 43t-42 102z" />
<glyph unicode="&#xff;" horiz-adv-x="1046" d="M25 1122l342 6q6 -85 60.5 -337.5t86.5 -331.5q33 65 80.5 301.5t56.5 374.5l348 -15q-4 -80 -36.5 -243t-83.5 -299q-57 -172 -242 -574.5t-256 -540.5l-348 70q57 83 153.5 260.5t130.5 247.5q-46 90 -150 459t-142 622zM205 1350q0 63 41.5 110t101.5 47 q59 0 101.5 -47.5t42.5 -109.5q0 -59 -42.5 -102.5t-101.5 -43.5q-61 0 -102 43t-41 103zM555 1350q0 63 41.5 110t101.5 47t102 -47t42 -110q0 -59 -42.5 -102.5t-101.5 -43.5t-101 43.5t-42 102.5z" />
<glyph unicode="&#x178;" horiz-adv-x="1097" d="M-6 1438q7 0 151 4.5t213 3.5q36 -147 92 -328t95 -282q36 95 114.5 332.5t96.5 281.5q38 -1 165 -4t183 -6q-46 -129 -183.5 -458.5t-209.5 -459.5l12 -524q-177 -6 -178 -6l-183 6l19 518q-42 75 -176 396.5t-211 525.5zM229 1659q0 63 42 110.5t102 47.5 q59 0 101 -47.5t42 -110.5q0 -59 -42 -102.5t-101 -43.5q-61 0 -102.5 43.5t-41.5 102.5zM580 1659q0 63 41.5 110.5t101.5 47.5t101.5 -47.5t41.5 -110.5q0 -59 -42 -102.5t-101 -43.5t-101 43.5t-42 102.5z" />
<glyph unicode="&#x2c6;" horiz-adv-x="829" d="M100 1202l248 354h144l241 -354h-231l-84 166l-88 -166h-230z" />
<glyph unicode="&#x2dc;" horiz-adv-x="974" d="M131 1282q4 25 20 67.5t42 92t68.5 84.5t88.5 35q32 0 69 -20t65.5 -43.5t61 -43.5t56.5 -20q40 0 80.5 31t65.5 79l94 -65q-5 -19 -17.5 -48.5t-35 -65t-49 -65.5t-62 -50.5t-70.5 -20.5q-45 0 -94.5 31.5t-89.5 62.5t-62 31q-42 0 -76 -32t-55 -87z" />
<glyph unicode="&#x2000;" horiz-adv-x="991" />
<glyph unicode="&#x2001;" horiz-adv-x="1982" />
<glyph unicode="&#x2002;" horiz-adv-x="991" />
<glyph unicode="&#x2003;" horiz-adv-x="1982" />
<glyph unicode="&#x2004;" horiz-adv-x="660" />
<glyph unicode="&#x2005;" horiz-adv-x="495" />
<glyph unicode="&#x2006;" horiz-adv-x="330" />
<glyph unicode="&#x2007;" horiz-adv-x="330" />
<glyph unicode="&#x2008;" horiz-adv-x="247" />
<glyph unicode="&#x2009;" horiz-adv-x="396" />
<glyph unicode="&#x200a;" horiz-adv-x="110" />
<glyph unicode="&#x2010;" horiz-adv-x="569" d="M29 526v273l458 2l2 -273z" />
<glyph unicode="&#x2011;" horiz-adv-x="569" d="M29 526v273l458 2l2 -273z" />
<glyph unicode="&#x2012;" horiz-adv-x="569" d="M29 526v273l458 2l2 -273z" />
<glyph unicode="&#x2013;" horiz-adv-x="942" d="M23 506v190h878v-190h-878z" />
<glyph unicode="&#x2014;" horiz-adv-x="1206" d="M8 506v190h1155v-190h-1155z" />
<glyph unicode="&#x2018;" horiz-adv-x="368" d="M39 1155q0 136 66.5 245t158.5 159l37 -107q-42 -37 -92.5 -107.5t-44.5 -117.5q10 6 31 6q40 0 69 -47.5t29 -104.5q0 -65 -40 -103t-87 -38q-58 0 -92.5 60.5t-34.5 154.5z" />
<glyph unicode="&#x2019;" horiz-adv-x="368" d="M57 1034q46 43 100 115t44 113q-21 -9 -37 -9q-40 0 -70.5 47.5t-30.5 104.5q0 65 41.5 103t90.5 38q56 0 88 -50.5t32 -141.5q0 -139 -65.5 -258.5t-155.5 -167.5z" />
<glyph unicode="&#x201a;" horiz-adv-x="368" d="M57 78q46 43 100 114.5t44 112.5q-19 -8 -37 -8q-40 0 -70.5 47.5t-30.5 104.5q0 65 41.5 103t90.5 38q56 0 88 -50.5t32 -142.5q0 -139 -65.5 -258.5t-155.5 -167.5z" />
<glyph unicode="&#x201c;" horiz-adv-x="702" d="M39 1159q0 136 66 243t159 157l37 -107q-23 -21 -56.5 -58t-63.5 -88.5t-21 -80.5q13 8 35 8q41 0 69.5 -41.5t28.5 -97.5q0 -66 -40.5 -108t-86.5 -42q-58 0 -92.5 60.5t-34.5 154.5zM360 1157q0 135 68 243t162 159l37 -107q-45 -40 -100 -113t-42 -114q13 8 37 8 q39 0 66.5 -42.5t27.5 -98.5q0 -66 -39.5 -108t-84.5 -42q-58 0 -95 61t-37 154z" />
<glyph unicode="&#x201d;" horiz-adv-x="686" d="M45 1038q52 38 102.5 112.5t38.5 117.5q-16 -11 -36 -11q-40 0 -68.5 47t-28.5 105q0 65 40 104t87 39q57 0 89 -61t32 -156q0 -135 -64.5 -243.5t-156.5 -157.5zM369 1038q25 23 57 59.5t62.5 89.5t21.5 81q-14 -11 -35 -11q-40 0 -69 47.5t-29 104.5q0 65 41.5 104 t89.5 39q55 0 89 -61.5t34 -155.5q0 -135 -66 -243.5t-159 -157.5z" />
<glyph unicode="&#x201e;" horiz-adv-x="686" d="M45 74q52 38 102.5 112t38.5 117q-15 -10 -36 -10q-40 0 -68.5 46.5t-28.5 104.5q0 65 40.5 104.5t86.5 39.5q57 0 89 -61t32 -156q0 -135 -64.5 -244t-156.5 -158zM369 74q25 24 57 60t62.5 88.5t21.5 80.5q-12 -10 -35 -10q-40 0 -69 47t-29 104q0 65 41.5 104.5 t89.5 39.5q55 0 89 -61.5t34 -155.5q0 -135 -66 -244t-159 -158z" />
<glyph unicode="&#x2022;" horiz-adv-x="630" d="M92 659q0 123 64 210t153 87t153 -87t64 -210t-63.5 -208.5t-153.5 -85.5t-153.5 85.5t-63.5 208.5z" />
<glyph unicode="&#x2026;" horiz-adv-x="1492" d="M57 150q0 80 50 139t120 59t121 -59t51 -139q0 -79 -50.5 -133t-121.5 -54t-120.5 54t-49.5 133zM555 150q0 80 50 139t120 59t121 -59t51 -139q0 -79 -50.5 -133t-121.5 -54t-120.5 54t-49.5 133zM1053 150q0 80 50 139t120 59t121 -59t51 -139q0 -79 -50.5 -133 t-121.5 -54t-120.5 54t-49.5 133z" />
<glyph unicode="&#x202f;" horiz-adv-x="396" />
<glyph unicode="&#x2039;" horiz-adv-x="489" d="M45 469v178l383 406v-275l-207 -223l207 -223v-281z" />
<glyph unicode="&#x203a;" horiz-adv-x="473" d="M45 51v281l207 223l-207 223v275l383 -406v-178z" />
<glyph unicode="&#x205f;" horiz-adv-x="495" />
<glyph unicode="&#x20ac;" horiz-adv-x="1077" d="M25 455l36 194h99q-2 23 -2 64q0 31 2 47h-131l37 192h127q25 147 109 261.5t203 175.5t251 61q130 0 258 -78l-82 -330q-61 41 -158 41q-74 0 -145.5 -34.5t-98.5 -96.5h207l-37 -192h-219q-4 -32 -4 -47q0 -34 6 -64h250l-37 -194h-151q36 -60 100 -94.5t129 -34.5 q100 0 152 36l96 -288q-39 -30 -122.5 -59.5t-143.5 -30.5q-128 -4 -245.5 54t-201.5 167.5t-114 249.5h-170z" />
<glyph unicode="&#x2122;" horiz-adv-x="1390" d="M41 1247v187h561v-187h-188q-10 -240 0 -600h-189q11 380 0 600h-184zM672 647q8 172 8 400.5t-8 386.5h98q139 -273 215 -367q51 71 115.5 179t105.5 188h82q-14 -401 0 -787h-168q7 150 0 299l-147 -219q-73 131 -133 219v-299h-168z" />
<glyph unicode="&#xe000;" horiz-adv-x="1136" d="M0 0v1137h1137v-1137h-1137z" />
</font>
</defs>
</svg>
