<svg width="132" height="68" viewBox="0 0 132 68" fill="none" xmlns="http://www.w3.org/2000/svg">
<path d="M0 0V38.9L40.2 57.3L40.4 0.2L0 0Z" fill="#8C00EF"/>
<path d="M132 0.600024L88.0001 0.400024L87.6001 57.6L132 38.3V0.600024Z" fill="#FFE000"/>
<path d="M40.4 0.200012L40.2 57.3L63.4 68L87.5999 57.6L88 0.400012L40.4 0.200012Z" fill="#231F20"/>
<path d="M122.3 13.1H94.3V18.8H122.3V13.1Z" fill="white"/>
<path d="M105.4 38.9L106 16.6H111.2V38.3L105.4 38.9Z" fill="white"/>
<path d="M14.3001 36.6V9.09998H9.1001L8.6001 35.9L14.3001 36.6Z" fill="white"/>
<path d="M30 11.3L12 20.2V25.3L28.3 40L32 35.7L16.6 23.7L33.1 15.2L30 11.3Z" fill="white"/>
<path d="M49.3 10.9L49.9001 43.1L55.6 44.6L55.1 16.3H71.5V25.6L53.5 26L53.8 31.8L77.3001 31.4V10.9H49.3Z" fill="white"/>
<path d="M62.3 31L73.3001 46.9L79.2 44.9L67.5 29.4L62.3 31Z" fill="white"/>
</svg>
