<svg width="326" height="313" viewBox="0 0 326 313" fill="none" xmlns="http://www.w3.org/2000/svg">
<path d="M162.985 313C249.208 313 319.106 242.933 319.106 156.5C319.106 70.0674 249.208 0 162.985 0C76.7623 0 6.86475 70.0674 6.86475 156.5C6.86475 242.933 76.7623 313 162.985 313Z" fill="white"/>
<path d="M162.985 298.796C241.383 298.796 304.937 235.088 304.937 156.5C304.937 77.9118 241.383 14.2035 162.985 14.2035C84.5877 14.2035 21.0339 77.9118 21.0339 156.5C21.0339 235.088 84.5877 298.796 162.985 298.796Z" fill="#7200EA"/>
<path d="M99.5287 120.163L104.31 119.989V113.715H90.4883V120.599L95.7039 120.338L95.3562 131.056L90.4883 131.317V137.591H104.31V130.707L99.5287 130.881V120.163Z" fill="white"/>
<path d="M127.693 104.827L128.041 135.151L115.088 109.968H109.786V145.172H116.653L115.088 119.728L127.78 144.823L134.56 145.172L134.299 104.827H127.693Z" fill="white"/>
<path d="M231.483 101.255L231.223 146.305H236.786L236.612 100.906L231.483 101.255Z" fill="white"/>
<path d="M259.213 101.952L259.821 145.347H265.385L264.342 101.691L259.213 101.952Z" fill="white"/>
<path d="M54.8482 99.8606L54.4136 107.093L72.5813 106.57V99.2506L54.8482 99.8606Z" fill="white"/>
<path d="M55.8914 142.906L55.9783 149.79H71.712L71.5382 142.906H55.8914Z" fill="white"/>
<path d="M225.659 141.774L225.312 149.093H243.74L243.566 141.774H225.659Z" fill="white"/>
<path d="M253.041 140.902L253.215 148.222H271.47L271.296 140.902H253.041Z" fill="white"/>
<path d="M77.1885 142.645L77.3623 150.139L95.6169 149.878L95.2692 142.471L77.1885 142.645Z" fill="white"/>
<path d="M60.4985 105.437L61.107 144.388H66.4965L66.3226 105.176L60.4985 105.437Z" fill="white"/>
<path d="M69.4519 121.645L83.7079 144.039L88.9235 143.516L72.3205 119.031L69.4519 121.645Z" fill="white"/>
<path d="M224.79 99.2503L224.877 108.226L236.612 107.877L247.304 123.388L259.561 105.873L270.948 105.96L270.687 97.769L257.04 97.8561L247.565 113.715L237.568 99.1632L224.79 99.2503Z" fill="white"/>
<path d="M172.721 106.918L173.764 144.649C173.764 144.649 198.19 147.699 198.625 126.612C199.06 105.437 172.721 106.918 172.721 106.918ZM179.849 137.504L179.327 113.802C179.327 113.802 193.062 113.977 192.801 125.74C192.627 139.072 179.849 137.504 179.849 137.504Z" fill="white"/>
<path d="M161.681 137.765C161.681 137.765 144.991 138.027 145.426 126.089C145.86 113.367 164.202 113.889 164.202 113.889L164.376 106.657C164.376 106.657 138.993 105.176 139.341 126.35C139.689 147.96 167.418 144.301 167.418 144.301L166.81 123.475H153.075L152.815 131.491H162.029L161.681 137.765Z" fill="white"/>
<path d="M214.533 111.624C207.839 111.362 202.189 117.288 201.928 124.695C201.668 132.101 206.883 138.375 213.576 138.549C220.27 138.811 225.92 132.886 226.181 125.479C226.442 118.072 221.226 111.798 214.533 111.624ZM213.75 132.973C210.36 132.886 207.665 129.139 207.839 124.607C208.013 120.076 210.882 116.504 214.272 116.678C217.662 116.765 220.357 120.512 220.183 125.043C220.009 129.574 217.14 133.147 213.75 132.973Z" fill="white"/>
<path d="M86.3158 99.8607C78.0577 114.674 65.6272 121.297 65.6272 121.297L66.0618 126.612C85.8811 116.765 92.7483 102.823 94.4 99.8607H86.3158Z" fill="white"/>
<path d="M164.985 67.1837L166.028 96.8978L171.417 96.7236L170.113 72.4992C170.113 72.4992 181.066 70.9307 181.761 76.9432C182.283 81.3001 169.07 82.52 169.07 82.52L168.809 87.6612C168.809 87.6612 187.586 87.4869 187.759 77.466C188.02 63.8725 164.985 67.1837 164.985 67.1837Z" fill="white"/>
<path d="M175.068 85.8311L181.501 101.69H187.672L179.849 85.2211L175.068 85.8311Z" fill="white"/>
<path d="M160.291 90.0138C159.769 66.9222 158.726 60.2126 150.642 60.2126C141.862 60.2126 142.471 87.5739 142.471 87.5739H147.426C147.426 87.5739 146.904 67.0093 151.511 66.5736C155.423 66.2251 154.554 90.1881 154.554 90.1881L160.291 90.0138Z" fill="white"/>
<path d="M157.335 76.1588L144.905 76.4202L144.644 80.3414L156.727 80.7771" fill="white"/>
<path d="M105.788 51.8475L105.527 59.1671L123.695 59.08L123.434 51.8475H105.788Z" fill="white"/>
<path d="M104.918 95.5034L104.657 103.172L123.694 103.084L123.434 95.5034H104.918Z" fill="white"/>
<path d="M193.323 94.1093V100.732L214.098 100.645L213.577 94.1093H193.323Z" fill="white"/>
<path d="M128.302 92.8893L128.475 100.557L146.904 100.47L146.556 92.8893H128.302Z" fill="white"/>
<path d="M110.569 58.5569L111.177 98.4661H116.567L116.48 58.2955L110.569 58.5569Z" fill="white"/>
<path d="M199.06 54.6364L199.668 95.7656H205.058L204.015 54.375L199.06 54.6364Z" fill="white"/>
<path d="M123.694 74.416L135.777 94.8934L140.993 94.632L126.563 71.9761L123.694 74.416Z" fill="white"/>
<path d="M182.196 50.7144L182.805 62.9138H189.063V55.9427L212.794 55.4199V62.8266H219.401L218.879 50.6273L182.196 50.7144Z" fill="white"/>
<path d="M112.742 77.5531L113.176 82.2585C138.994 67.8807 145.252 50.976 145.252 50.976H137.081C137.081 50.976 127.954 68.4907 113.437 75.4618" fill="white"/>
<path d="M269.508 158.022L221.271 199.085L274.213 261.25L322.45 220.186L269.508 158.022Z" fill="black"/>
<path d="M244.71 179.11L233.127 188.996L243.045 200.673L254.628 190.787L244.71 179.11Z" fill="white"/>
<path d="M269.403 158.034L257.82 167.92L267.739 179.597L279.321 169.711L269.403 158.034Z" fill="white"/>
<path d="M243.165 202.401L232.046 211.891L241.908 223.502L253.027 214.011L243.165 202.401Z" fill="white"/>
<path d="M267.853 181.293L256.271 191.179L266.133 202.79L277.715 192.904L267.853 181.293Z" fill="white"/>
<path d="M266.278 204.431L254.696 214.317L264.558 225.928L276.14 216.042L266.278 204.431Z" fill="white"/>
<path d="M290.971 183.355L279.389 193.241L289.251 204.852L300.833 194.966L290.971 183.355Z" fill="white"/>
<path d="M264.637 227.665L253.518 237.156L263.38 248.766L274.499 239.276L264.637 227.665Z" fill="white"/>
<path d="M289.325 206.558L277.743 216.444L287.605 228.054L299.188 218.168L289.325 206.558Z" fill="white"/>
<path d="M287.746 229.704L276.163 239.59L286.025 251.2L297.608 241.314L287.746 229.704Z" fill="white"/>
<path d="M312.439 208.627L300.857 218.513L310.719 230.124L322.301 220.238L312.439 208.627Z" fill="white"/>
<path d="M57.0128 158.787L4.07129 220.952L52.3082 262.015L105.25 199.85L57.0128 158.787Z" fill="black"/>
<path d="M81.5825 179.849L71.6641 191.526L83.2466 201.412L93.165 189.735L81.5825 179.849Z" fill="white"/>
<path d="M56.8896 158.75L46.9712 170.427L58.5537 180.313L68.4722 168.636L56.8896 158.75Z" fill="white"/>
<path d="M83.1348 203.113L73.2727 214.724L84.392 224.214L94.254 212.604L83.1348 203.113Z" fill="white"/>
<path d="M58.4749 182.008L48.6128 193.618L60.1953 203.504L70.0574 191.894L58.4749 182.008Z" fill="white"/>
<path d="M60.0674 205.23L50.2053 216.84L61.7879 226.726L71.6499 215.116L60.0674 205.23Z" fill="white"/>
<path d="M35.3745 184.13L25.5125 195.741L37.095 205.627L46.9571 194.016L35.3745 184.13Z" fill="white"/>
<path d="M61.6726 228.388L51.8105 239.999L62.9298 249.489L72.7919 237.878L61.6726 228.388Z" fill="white"/>
<path d="M37.0127 207.283L27.1506 218.893L38.7332 228.779L48.5952 217.169L37.0127 207.283Z" fill="white"/>
<path d="M38.5945 230.502L28.7324 242.112L40.315 251.998L50.177 240.388L38.5945 230.502Z" fill="white"/>
<path d="M13.9167 209.415L4.03955 221.013L15.635 230.884L25.5121 219.286L13.9167 209.415Z" fill="white"/>
<path d="M55.8914 158.069C55.8914 158.069 57.2822 155.629 61.107 158.94C64.9317 162.251 140.297 225.078 140.297 225.078C140.297 225.078 141.949 227.866 138.906 227.866L107.091 202.073L55.8914 158.069Z" fill="black"/>
<path d="M270.166 157.197C270.166 157.197 268.775 154.757 264.95 158.068C261.125 161.38 184.63 225.078 184.63 225.078C184.63 225.078 182.978 227.866 186.021 227.866L217.836 202.073L270.166 157.197Z" fill="black"/>
<path d="M192.888 191.965C190.889 189.09 189.237 187.608 186.629 185.43L167.853 203.729L166.462 177.239C164.376 176.803 163.594 176.542 161.247 176.542C159.508 176.542 158.726 176.716 158.03 176.89L156.64 203.729L137.95 185.604C135.169 187.695 134.995 188.828 132.909 191.53L149.859 210.526L125.172 212.617C124.911 212.617 124.824 213.663 124.824 215.318C124.824 217.758 125.085 218.107 125.52 222.202H149.946L133.343 238.323C135.516 241.024 137.603 243.115 140.471 245.032L156.379 228.389V251.132C158.378 251.393 159.769 251.481 161.421 251.481C163.855 251.481 166.462 251.219 168.549 250.783V228.389L184.282 243.987C187.064 241.895 189.672 239.978 191.758 237.19L176.546 222.202H198.886C199.321 218.107 199.581 217.758 199.581 215.318C199.581 213.575 199.408 212.007 199.234 212.007L176.546 210.526L192.888 191.965Z" fill="white"/>
<path d="M162.203 221.854C166.476 221.854 169.939 218.381 169.939 214.098C169.939 209.815 166.476 206.343 162.203 206.343C157.93 206.343 154.466 209.815 154.466 214.098C154.466 218.381 157.93 221.854 162.203 221.854Z" fill="black"/>
<path d="M162.898 144.649C124.651 144.649 93.6177 175.757 93.6177 214.098C93.6177 252.438 124.651 283.547 162.898 283.547C201.146 283.547 232.179 252.438 232.179 214.098C232.179 175.757 201.146 144.649 162.898 144.649ZM162.898 256.708C139.428 256.708 120.391 237.625 120.391 214.098C120.391 190.57 139.428 171.487 162.898 171.487C186.369 171.487 205.405 190.57 205.405 214.098C205.492 237.625 186.455 256.708 162.898 256.708Z" fill="black"/>
<path d="M162.898 166.957C136.907 166.957 115.871 188.044 115.871 214.098C115.871 240.153 136.907 261.24 162.898 261.24C188.889 261.24 209.926 240.153 209.926 214.098C210.013 188.044 188.889 166.957 162.898 166.957ZM162.898 251.219C142.47 251.219 125.867 234.576 125.867 214.098C125.867 193.621 142.47 176.977 162.898 176.977C183.326 176.977 199.929 193.621 199.929 214.098C200.016 234.576 183.413 251.219 162.898 251.219Z" fill="white"/>
<path d="M320.844 247.995C316.237 242.767 281.553 216.626 276.772 213.663C273.643 211.659 271.383 210.875 269.384 210.875C267.384 210.875 265.559 211.746 263.733 213.576C263.125 214.186 256.605 224.032 256.431 223.945C238.264 208.87 180.11 203.904 162.551 203.904H162.377H162.203C144.644 203.904 87.6197 208.87 69.452 223.945C69.2781 224.12 62.7586 214.186 62.1501 213.576C60.3246 211.746 58.4992 210.875 56.4999 210.875C54.4136 210.875 52.2405 211.746 49.1111 213.663C44.3301 216.626 9.64635 242.767 5.03923 247.995C4.77845 248.344 4.69152 248.692 4.77845 249.128C4.86537 249.477 5.21308 249.825 5.64771 249.912L39.4622 257.319L37.5498 290.519C37.5498 290.954 37.7237 291.39 38.1583 291.652C38.3322 291.739 38.506 291.826 38.6799 291.826C38.9407 291.826 39.2014 291.739 39.3753 291.564L65.801 271L74.2329 287.382C74.3199 287.469 74.3199 287.556 74.4068 287.643C74.4937 287.73 76.4061 289.647 79.7962 289.647C81.4479 289.647 83.1864 289.212 84.9249 288.34C85.7073 287.905 86.7504 287.295 88.0543 286.51C96.3993 281.195 118.566 267.166 162.377 266.469C206.275 267.166 229.484 281.282 237.829 286.51C239.133 287.295 240.176 287.992 240.958 288.34C242.697 289.212 244.436 289.647 246.087 289.647C249.477 289.647 251.39 287.73 251.477 287.643C251.564 287.556 251.65 287.469 251.65 287.382L260.082 271L286.508 291.477C286.682 291.652 286.943 291.739 287.203 291.739C287.377 291.739 287.551 291.652 287.725 291.564C288.16 291.39 288.334 290.954 288.334 290.432L286.421 257.232L320.236 249.825C320.67 249.738 320.931 249.477 321.105 249.041C321.192 248.78 321.105 248.344 320.844 247.995ZM162.637 265.162C162.551 265.162 162.464 265.162 162.377 265.162C162.29 265.162 162.203 265.162 162.116 265.162" fill="white"/>
<path d="M258.431 224.904C246.261 213.227 208.969 206.431 162.638 204.252C147.512 203.555 94.4869 205.036 68.5828 224.381C44.7648 242.157 43.4609 235.273 43.4609 235.273L73.7984 287.469C73.7984 287.469 77.1016 290.954 83.0995 287.905C88.7498 285.029 110.829 266.207 162.638 265.423C214.446 266.207 236.525 284.942 242.175 287.905C248.087 290.954 251.477 287.469 251.477 287.469L282.423 235.273C282.423 235.273 280.945 241.373 258.431 224.904Z" fill="white"/>
<path d="M323.539 247.995C318.845 242.68 283.553 216.103 278.772 213.053C275.555 211.049 273.295 210.177 271.209 210.177C269.123 210.177 267.297 211.049 265.472 212.879C264.863 213.489 258.17 223.509 258.083 223.422C239.568 208.086 180.458 203.032 162.551 203.032H162.377H162.203C144.296 203.032 86.3159 208.086 67.8874 223.422C67.7136 223.597 61.1071 213.576 60.4986 212.879C58.6732 211.049 56.7608 210.177 54.7615 210.177C52.6752 210.177 50.4151 211.049 47.1988 213.053C42.3309 216.103 7.03868 242.68 2.43156 247.995C2.17078 248.344 2.08385 248.779 2.17078 249.128C2.25771 249.564 2.60542 249.825 3.04005 249.912L37.3761 257.406L35.4637 291.216C35.4637 291.651 35.7245 292.087 36.0722 292.349C36.2461 292.436 36.4199 292.523 36.5938 292.523C36.8546 292.523 37.1153 292.436 37.2892 292.261L64.1496 271.435L72.7553 288.079C72.8422 288.166 72.8422 288.253 72.9292 288.34C73.0161 288.427 74.9285 290.344 78.4056 290.344C80.0572 290.344 81.7957 289.909 83.6212 288.95C84.4035 288.514 85.4466 287.904 86.7505 287.033C95.2694 281.631 117.783 267.34 162.377 266.643C206.97 267.427 230.701 281.718 239.133 287.033C240.437 287.904 241.48 288.514 242.263 288.95C244.001 289.822 245.74 290.344 247.478 290.344C250.955 290.344 252.868 288.427 252.955 288.34C253.041 288.253 253.128 288.166 253.128 288.079L261.734 271.435L288.594 292.261C288.768 292.436 289.029 292.523 289.29 292.523C289.464 292.523 289.638 292.436 289.811 292.349C290.246 292.174 290.507 291.739 290.42 291.216L288.508 257.406L322.844 249.912C323.278 249.825 323.626 249.564 323.713 249.128C323.8 248.692 323.887 248.344 323.539 247.995ZM162.029 265.51C110.655 266.469 88.7498 285.029 83.0127 287.992C81.1872 288.95 79.6225 289.212 78.4056 289.212C75.45 289.212 73.7984 287.556 73.7984 287.556C61.8895 262.634 43.2002 233.443 43.2002 233.443L42.4179 234.053L63.3672 270.564L36.5069 291.39L38.5062 256.622L3.12698 248.867C7.56024 243.813 42.5917 217.41 47.7204 214.186C50.4151 212.443 52.6752 211.484 54.6745 211.484C56.4131 211.484 57.9778 212.269 59.6294 213.837C60.6725 214.883 60.3248 217.41 56.2392 220.372C49.7197 224.991 37.463 228.738 43.5479 235.447C44.4172 236.406 45.5472 236.754 46.9381 236.754C54.5876 236.754 68.6698 224.468 68.6698 224.468C87.1852 209.045 146.208 204.426 162.116 204.339C162.203 204.339 162.29 204.339 162.377 204.339C162.464 204.339 162.551 204.339 162.638 204.339C178.632 204.339 238.785 209.045 257.301 224.468C257.301 224.468 271.296 236.754 279.033 236.754C280.423 236.754 281.64 236.319 282.423 235.447C288.508 228.738 276.251 225.078 269.731 220.372C265.646 217.41 265.298 214.883 266.341 213.837C267.993 212.181 269.558 211.484 271.296 211.484C273.295 211.484 275.469 212.443 278.25 214.186C283.379 217.41 318.323 243.9 322.844 248.867L287.464 256.622L289.464 291.39L262.69 270.651L283.379 234.14L282.51 233.443L261.213 270.128L251.564 287.556C251.564 287.556 250.521 289.212 247.565 289.212C246.261 289.212 244.696 288.863 242.958 287.992C237.308 285.116 214.185 266.469 162.811 265.51H162.029ZM162.638 265.51C162.551 265.51 162.464 265.51 162.377 265.51C162.29 265.51 162.203 265.51 162.116 265.51" fill="black"/>
<path d="M35.2898 293.83V293.307C34.5944 292.871 34.1598 292.087 34.2467 291.215L36.1591 258.452L2.77923 251.132C1.99689 250.958 1.30147 250.348 1.04069 249.563C0.779911 248.779 0.953764 247.908 1.56225 247.298C6.2563 241.982 41.8093 215.231 46.5903 212.181C49.9805 210.003 52.4144 209.131 54.7614 209.131C57.1085 209.131 59.2816 210.09 61.3679 212.181C61.7156 212.53 62.4979 213.663 65.0188 217.322C66.0619 218.804 67.3658 220.808 68.1481 221.854C87.7936 206.866 144.557 201.986 162.29 201.986H162.464H162.638C180.631 201.986 238.264 206.866 257.996 221.854C258.779 220.808 260.082 218.891 261.126 217.322C263.646 213.663 264.429 212.443 264.776 212.181C266.863 210.09 268.949 209.131 271.383 209.131C273.73 209.131 276.164 210.003 279.554 212.181C284.422 215.231 319.888 241.982 324.582 247.298C325.104 247.908 325.277 248.779 325.104 249.563C324.843 250.348 324.147 250.958 323.365 251.132L289.985 258.452L291.898 291.215C291.985 292.087 291.55 292.871 290.854 293.307V293.83L290.42 293.481C289.638 293.83 288.768 293.655 288.073 293.133L262.342 273.178L254.345 288.601C254.258 288.776 254.084 289.037 253.911 289.124C253.65 289.386 251.477 291.564 247.652 291.564C245.826 291.564 243.914 291.041 241.915 290.083C241.045 289.647 239.915 288.95 238.698 288.166C218.358 275.269 192.714 268.472 162.551 267.95C118.305 268.734 95.9647 282.85 87.6197 288.166C86.3158 288.95 85.1858 289.647 84.4035 290.083C82.4911 291.041 80.5787 291.564 78.6663 291.564C74.7546 291.564 72.5814 289.386 72.4076 289.124C72.2337 288.95 72.1468 288.776 71.9729 288.601L63.9757 273.178L38.2453 293.133C37.5499 293.655 36.6807 293.742 35.8983 293.481L35.2898 293.83ZM264.081 270.215L287.986 288.776L286.074 255.576L320.323 248.082C312.325 240.85 282.249 218.019 277.555 215.057C274.773 213.314 272.861 212.53 271.296 212.53C269.905 212.53 268.601 213.14 267.21 214.534C267.124 214.621 267.037 214.883 267.037 215.144C267.037 215.58 267.384 217.061 270.427 219.239C271.904 220.285 273.817 221.418 275.642 222.376C280.249 224.991 284.596 227.43 285.117 230.916C285.378 232.31 284.943 233.791 283.9 235.186L264.081 270.215ZM5.56088 248.082L39.81 255.576L37.8976 288.776L61.8894 270.215L40.9401 233.704L41.1139 233.617C40.7662 232.746 40.6793 231.874 40.8531 231.003C41.4616 227.43 45.808 224.991 50.4151 222.464C52.2406 221.418 54.1529 220.372 55.6307 219.327C58.6731 217.148 59.0208 215.58 59.0208 215.231C59.0208 214.97 59.0208 214.795 58.847 214.621C57.4562 213.227 56.1523 212.617 54.7614 212.617C53.1967 212.617 51.1974 213.401 48.5027 215.144C43.6348 218.107 13.5581 240.85 5.56088 248.082ZM162.724 264.29C208.1 265.074 231.657 279.713 240.524 285.203C241.741 285.987 242.697 286.51 243.392 286.859C244.87 287.556 246.174 287.991 247.478 287.991C249.651 287.991 250.434 286.946 250.52 286.859L260.169 269.431L278.511 237.8C270.427 237.277 257.127 225.688 256.605 225.165C238.612 210.177 178.197 205.384 162.724 205.384H162.464H162.203C144.557 205.384 87.359 210.351 69.452 225.165C68.9305 225.688 55.5438 237.277 47.4596 237.713C53.2837 247.124 65.975 268.124 74.8415 286.684C75.1892 287.033 76.4931 287.904 78.4924 287.904C79.7963 287.904 81.1872 287.556 82.578 286.771C83.2734 286.423 84.2296 285.813 85.5335 284.942C94.1393 279.452 117.001 264.987 162.029 264.203V265.335V264.116H162.377L162.724 264.29V265.51V264.29ZM258.952 224.206C262.082 226.82 272.948 235.447 279.032 235.447C279.38 235.447 279.641 235.447 279.902 235.36L282.075 231.526L282.857 232.136C282.857 231.874 282.857 231.613 282.857 231.352C282.423 228.912 278.424 226.646 274.512 224.468C272.6 223.422 270.688 222.289 269.036 221.156C266.08 219.065 265.037 217.235 264.69 215.928C264.081 216.712 263.473 217.671 262.864 218.542C260.43 222.202 259.474 223.596 258.952 224.206ZM45.808 235.36C46.1557 235.447 46.5034 235.447 46.8511 235.447C52.4144 235.447 62.4979 227.866 66.9312 224.206C66.4096 223.683 65.4534 222.202 62.9325 218.629C62.3241 217.758 61.7156 216.8 61.1071 216.015C60.8463 217.322 59.7163 219.152 56.7607 221.244C55.1091 222.376 53.1967 223.509 51.2844 224.555C47.3727 226.733 43.374 228.999 42.9394 231.439C42.9394 231.613 42.9394 231.874 42.9394 232.049L43.374 231.7L44.0694 232.746C44.2433 232.833 44.8518 233.791 45.808 235.36Z" fill="black"/>
<path d="M73.4507 237.451L84.4904 268.124L90.0537 266.12L80.5787 241.285C80.5787 241.285 91.5315 235.97 94.2262 241.982C96.2255 246.426 82.7518 252.09 82.7518 252.09L84.2296 257.493C84.2296 257.493 103.788 250.958 100.659 240.501C96.3994 226.385 73.4507 237.451 73.4507 237.451Z" fill="black"/>
<path d="M90.1406 253.572L102.137 267.95L108.569 265.858L95.0085 251.393L90.1406 253.572Z" fill="black"/>
<path d="M127.345 251.22C121.26 226.734 118.566 219.676 109.873 221.68C100.485 223.771 107.613 252.875 107.613 252.875L112.915 251.655C112.915 251.655 107.439 229.784 112.307 228.215C116.392 226.908 121.173 252.788 121.173 252.788L127.345 251.22Z" fill="black"/>
<path d="M120.913 237.103L107.613 240.327L108.308 244.597L121.26 242.244" fill="black"/>
<path d="M172.199 229.087L177.415 228.912V221.941H162.29V229.522L168.027 229.261L167.679 241.024L162.377 241.286V248.17H177.502V240.589L172.286 240.85L172.199 229.087Z" fill="black"/>
<path d="M208.97 219.065L202.972 248.431L195.67 221.418L190.628 220.285L183.326 254.269L189.933 255.663L193.757 230.829L200.798 257.667L207.231 259.41L215.315 220.459L208.97 219.065Z" fill="black"/>
<path d="M234.787 263.07C234.787 263.07 219.574 256.099 225.051 245.381C230.875 234.053 247.304 242.418 247.304 242.418L250.607 235.883C250.607 235.883 228.267 223.509 219.401 242.854C210.447 262.634 237.134 271.348 237.134 271.348L245.566 252.178L233.135 246.252L229.397 253.398L237.742 257.406L234.787 263.07Z" fill="black"/>
<path d="M155.857 246.427C155.857 246.427 136.299 248.344 135.777 237.8C135.169 226.646 151.337 225.775 151.337 225.775L150.989 219.414C150.989 219.414 128.649 219.937 130.475 238.497C132.387 257.406 156.379 252.178 156.379 252.178L155.857 246.427Z" fill="black"/>
</svg>
