<svg width="82" height="78" viewBox="0 0 82 78" fill="none" xmlns="http://www.w3.org/2000/svg">
<path d="M47.8333 0H34.1667C15.3067 0 0 15.193 0 33.913V78H82V33.913C82 15.193 66.6933 0 47.8333 0Z" fill="white"/>
<path d="M46.9449 5.42609H35.0549C18.7232 5.42609 5.46655 18.5844 5.46655 34.7948V72.5739H76.5332V34.7948C76.5332 18.5844 63.2766 5.42609 46.9449 5.42609Z" fill="#5C2BA0"/>
<path d="M13.9832 60.974C14.3911 60.8719 14.8318 60.8009 15.3051 60.7607C15.7816 60.7174 16.23 60.6958 16.6504 60.6958C16.9058 60.6958 17.1611 60.7189 17.4165 60.7653C17.6719 60.8086 17.9023 60.8874 18.1078 61.0018C18.3165 61.1161 18.4862 61.2738 18.617 61.4747C18.7478 61.6725 18.8132 61.926 18.8132 62.2351C18.8132 62.4638 18.7821 62.6678 18.7198 62.8471C18.6606 63.0264 18.5781 63.1887 18.4722 63.334C18.3694 63.4761 18.2464 63.6044 18.1032 63.7188C17.9599 63.8301 17.8011 63.9336 17.6267 64.0294C17.8229 64.0727 18.0066 64.1484 18.1779 64.2566C18.3523 64.3648 18.5018 64.4962 18.6264 64.6507C18.7509 64.8053 18.849 64.9784 18.9206 65.17C18.9954 65.3586 19.0327 65.5549 19.0327 65.7589C19.0327 66.1391 18.9518 66.4466 18.7898 66.6815C18.6279 66.9134 18.4193 67.0957 18.1639 67.2287C17.9085 67.3616 17.6236 67.4512 17.3091 67.4976C16.9977 67.547 16.6956 67.5718 16.4028 67.5718C16.0385 67.5718 15.6461 67.5594 15.2257 67.5347C14.8053 67.5099 14.4222 67.4528 14.0766 67.3631C14.0641 66.2936 14.0548 65.2288 14.0486 64.1685C14.0423 63.1083 14.0205 62.0435 13.9832 60.974ZM15.5247 62.0635L15.5714 63.4591C15.7302 63.453 15.9077 63.4468 16.1039 63.4406C16.3032 63.4344 16.49 63.4081 16.6644 63.3618C16.8419 63.3123 16.9899 63.2304 17.1082 63.116C17.2265 62.9986 17.2857 62.8286 17.2857 62.606C17.2857 62.4793 17.2499 62.3773 17.1783 62.3C17.1066 62.2196 17.0194 62.1594 16.9167 62.1192C16.817 62.0759 16.708 62.0481 16.5897 62.0357C16.4714 62.0234 16.3639 62.0172 16.2674 62.0172C16.1397 62.0172 16.0151 62.0218 15.8937 62.0311C15.7753 62.0404 15.6523 62.0512 15.5247 62.0635ZM15.5807 64.7017L15.6555 66.2225C15.7769 66.2411 15.9015 66.2503 16.0292 66.2503C16.1817 66.2503 16.3297 66.2395 16.4729 66.2179C16.6193 66.1963 16.7485 66.1561 16.8606 66.0973C16.9759 66.0355 17.0677 65.9474 17.1362 65.8331C17.2079 65.7187 17.2437 65.5703 17.2437 65.3879C17.2437 65.2056 17.1845 65.0649 17.0662 64.966C16.9509 64.8671 16.8061 64.7976 16.6317 64.7574C16.4605 64.7141 16.2783 64.6909 16.0852 64.6878C16.0478 64.6878 16.0105 64.6878 15.9731 64.6878C15.8298 64.6878 15.6991 64.6925 15.5807 64.7017Z" fill="white"/>
<path d="M19.2897 67.2379L20.3547 64.2566C20.4108 64.099 20.4746 63.9182 20.5462 63.7142C20.621 63.5071 20.6973 63.2938 20.7751 63.0743C20.8561 62.8518 20.9355 62.6261 21.0133 62.3974C21.0943 62.1686 21.1722 61.9554 21.2469 61.7575C21.3216 61.5566 21.387 61.3758 21.4431 61.2151C21.4992 61.0543 21.5443 60.9291 21.5786 60.8395C21.6689 60.8395 21.7888 60.8395 21.9382 60.8395C22.0877 60.8395 22.2434 60.8395 22.4054 60.8395C22.5673 60.8395 22.7292 60.841 22.8912 60.8441C23.0531 60.8472 23.1917 60.8519 23.3069 60.858C23.391 61.1177 23.4891 61.416 23.6012 61.7529C23.7133 62.0867 23.8285 62.4406 23.9469 62.8147C24.0683 63.1887 24.1945 63.5735 24.3252 63.9692C24.456 64.3648 24.5837 64.7574 24.7083 65.1468C24.8329 65.5363 24.9527 65.915 25.068 66.2828C25.1832 66.6506 25.2891 66.9891 25.3856 67.2982C25.0867 67.3477 24.7877 67.3878 24.4887 67.4188C24.1929 67.4497 23.8955 67.4914 23.5965 67.5439C23.5778 67.3028 23.5467 67.088 23.5031 66.8995C23.4626 66.7078 23.4144 66.4945 23.3583 66.2596L21.2796 66.2411C21.2236 66.4574 21.1691 66.6537 21.1161 66.8299C21.0725 66.9814 21.032 67.1328 20.9947 67.2843C20.9604 67.4327 20.937 67.5347 20.9246 67.5903L19.2897 67.2379ZM21.5972 64.864H23.1668L22.4848 62.1795L21.5972 64.864Z" fill="white"/>
<path d="M25.9415 63.9135C25.9415 63.4591 26.0256 63.0357 26.1937 62.6431C26.3619 62.2505 26.5846 61.9121 26.8617 61.6277C27.142 61.3433 27.455 61.1192 27.8006 60.9554C28.1494 60.7885 28.506 60.705 28.8703 60.705C29.2222 60.705 29.5586 60.7236 29.8793 60.7607C30.2001 60.7947 30.5395 60.8549 30.8977 60.9415C30.8852 61.0126 30.8603 61.1331 30.8229 61.3031C30.7887 61.4701 30.7528 61.6416 30.7155 61.8178C30.6719 62.028 30.6205 62.249 30.5613 62.4808L30.2764 62.3881C30.1269 62.3356 29.9556 62.2876 29.7625 62.2444C29.638 62.2165 29.5181 62.2026 29.4029 62.2026C29.3406 62.2026 29.2799 62.2073 29.2207 62.2165C29.0152 62.2475 28.819 62.3046 28.6321 62.3881C28.4453 62.4685 28.2802 62.5782 28.137 62.7173C27.9937 62.8564 27.8785 63.0249 27.7913 63.2227C27.7072 63.4174 27.6652 63.6446 27.6652 63.9043C27.6652 64.133 27.6979 64.3432 27.7633 64.5348C27.8318 64.7234 27.9205 64.8918 28.0295 65.0402C28.1416 65.1886 28.2709 65.3122 28.4172 65.4111C28.5636 65.51 28.7209 65.5842 28.889 65.6337C29.0292 65.677 29.1709 65.6986 29.3141 65.6986C29.4293 65.7017 29.5461 65.6878 29.6645 65.6569C29.926 65.595 30.1549 65.5116 30.3511 65.4065L30.9911 66.9273C30.9132 66.9767 30.8136 67.0339 30.6921 67.0988C30.5738 67.1607 30.4445 67.2225 30.3044 67.2843C30.1643 67.343 30.0164 67.3925 29.8606 67.4327C29.7081 67.4759 29.5617 67.4976 29.4215 67.4976C28.9762 67.4976 28.5449 67.4296 28.1276 67.2936C27.7103 67.1576 27.3382 66.9458 27.0112 66.6584C26.6873 66.3678 26.4273 65.9969 26.2311 65.5456C26.038 65.0912 25.9415 64.5472 25.9415 63.9135Z" fill="white"/>
<path d="M31.93 67.3631L31.9627 60.8859L33.5509 60.7839L33.5182 63.0604L35.5502 60.6401L37.1945 61.2382L34.8962 63.7744L37.4047 67.275L35.4241 67.4744C35.4178 67.4744 35.3898 67.4373 35.34 67.3631C35.2933 67.2858 35.231 67.1854 35.1531 67.0617C35.0784 66.9381 34.9912 66.799 34.8916 66.6445C34.795 66.4899 34.6954 66.3307 34.5926 66.1669C34.3497 65.7805 34.0788 65.3431 33.7798 64.8547L33.8452 67.3631C33.7175 67.3755 33.5571 67.3863 33.3641 67.3956C33.1741 67.4048 32.9997 67.4095 32.8409 67.4095C32.6945 67.4095 32.5341 67.4048 32.3597 67.3956C32.1885 67.3863 32.0452 67.3755 31.93 67.3631Z" fill="white"/>
<path d="M37.5588 60.8673C37.7426 60.8364 37.9232 60.8194 38.1007 60.8163C38.2813 60.8132 38.4604 60.8117 38.6379 60.8117C38.7842 60.8117 38.9275 60.8132 39.0676 60.8163C39.2109 60.8194 39.3557 60.824 39.5021 60.8302L39.815 64.5719C39.9489 64.3494 40.1046 64.0835 40.2821 63.7744C40.4628 63.4622 40.6356 63.1639 40.8007 62.8796C40.9906 62.5427 41.1821 62.2011 41.3752 61.8549L42.0245 61.8456C42.1584 62.0805 42.283 62.3108 42.3982 62.5365C42.5134 62.759 42.624 62.9831 42.7299 63.2088C42.8357 63.4344 42.9416 63.6616 43.0475 63.8903C43.1565 64.116 43.2717 64.3494 43.3932 64.5905C43.4773 63.9197 43.5676 63.2737 43.6641 62.6524C43.7638 62.0311 43.8587 61.3851 43.9491 60.7143C44.248 60.7205 44.5439 60.7282 44.8366 60.7375C45.1324 60.7437 45.4236 60.7715 45.7101 60.8209C45.5949 61.3588 45.4812 61.9074 45.3691 62.4669C45.257 63.0264 45.1496 63.5874 45.0468 64.15C44.9471 64.7095 44.8553 65.2612 44.7712 65.8052C44.6871 66.3493 44.617 66.8778 44.561 67.3909C44.4146 67.4033 44.276 67.4141 44.1452 67.4234C44.0145 67.4327 43.8759 67.4373 43.7295 67.4373C43.443 67.4373 43.1565 67.428 42.87 67.4095C42.7984 67.2395 42.7127 67.0509 42.6131 66.8438C42.5165 66.6336 42.4122 66.4126 42.3001 66.1808C42.188 65.949 42.0712 65.711 41.9498 65.4668C41.8283 65.2226 41.7069 64.9784 41.5854 64.7342C41.2865 65.2288 40.9968 65.7017 40.7166 66.153C40.4363 66.6043 40.1934 67.0324 39.9879 67.4373C39.829 67.4435 39.692 67.4481 39.5768 67.4512C39.5394 67.4512 39.5021 67.4512 39.4647 67.4512C39.3931 67.4512 39.3199 67.4497 39.2451 67.4466C39.1393 67.4404 39.0271 67.4327 38.9088 67.4234C38.7936 67.4141 38.6597 67.4002 38.5071 67.3817C38.3981 66.2813 38.2611 65.1932 38.096 64.1175C37.9341 63.0388 37.755 61.9554 37.5588 60.8673Z" fill="white"/>
<path d="M46.0184 67.2379L47.0834 64.2566C47.1395 64.099 47.2033 63.9182 47.275 63.7142C47.3497 63.5071 47.426 63.2938 47.5039 63.0743C47.5848 62.8518 47.6642 62.6261 47.7421 62.3974C47.8231 62.1686 47.9009 61.9554 47.9757 61.7575C48.0504 61.5566 48.1158 61.3758 48.1718 61.2151C48.2279 61.0543 48.2731 60.9291 48.3073 60.8395C48.3976 60.8395 48.5175 60.8395 48.667 60.8395C48.8165 60.8395 48.9722 60.8395 49.1341 60.8395C49.2961 60.8395 49.458 60.841 49.6199 60.8441C49.7819 60.8472 49.9204 60.8519 50.0357 60.858C50.1197 61.1177 50.2178 61.416 50.3299 61.7529C50.4421 62.0867 50.5573 62.4406 50.6756 62.8147C50.7971 63.1887 50.9232 63.5735 51.054 63.9692C51.1848 64.3648 51.3125 64.7574 51.437 65.1468C51.5616 65.5363 51.6815 65.915 51.7967 66.2828C51.9119 66.6506 52.0178 66.9891 52.1144 67.2982C51.8154 67.3477 51.5164 67.3878 51.2175 67.4188C50.9216 67.4497 50.6242 67.4914 50.3253 67.5439C50.3066 67.3028 50.2755 67.088 50.2319 66.8995C50.1914 66.7078 50.1431 66.4945 50.087 66.2596L48.0084 66.2411C47.9523 66.4574 47.8978 66.6537 47.8449 66.8299C47.8013 66.9814 47.7608 67.1328 47.7234 67.2843C47.6891 67.4327 47.6658 67.5347 47.6533 67.5903L46.0184 67.2379ZM48.326 64.864H49.8955L49.2135 62.1795L48.326 64.864Z" fill="white"/>
<path d="M52.6702 62.6802C52.6702 62.5906 52.6702 62.4669 52.6702 62.3093C52.6702 62.1516 52.6718 61.9863 52.6749 61.8132C52.678 61.6401 52.6827 61.4716 52.6889 61.3078C52.6951 61.1409 52.6983 61.0002 52.6983 60.8859C52.8322 60.8859 52.9879 60.8843 53.1654 60.8812C53.346 60.8781 53.536 60.8735 53.7353 60.8673C53.9377 60.8611 54.137 60.8549 54.3332 60.8488C54.5325 60.8426 54.7178 60.8333 54.8891 60.8209C54.9981 60.8148 55.1304 60.8101 55.2861 60.807C55.4418 60.8039 55.5679 60.8024 55.6645 60.8024C56.0226 60.8024 56.3247 60.8704 56.5707 61.0064C56.8198 61.1424 57.0238 61.3109 57.1826 61.5118C57.3446 61.7096 57.4598 61.9214 57.5283 62.147C57.5999 62.3696 57.6357 62.5705 57.6357 62.7498C57.6357 62.997 57.6077 63.2335 57.5517 63.4591C57.4987 63.6817 57.4209 63.8857 57.3181 64.0712C57.2153 64.2535 57.0923 64.4112 56.9491 64.5441C56.8058 64.677 56.6486 64.7806 56.4773 64.8547L56.3605 64.9011C56.4103 65.0217 56.4726 65.1592 56.5473 65.3138C56.6221 65.4652 56.6937 65.6136 56.7622 65.7589C56.8774 65.9814 57.0285 66.2272 57.2153 66.4961C57.4053 66.7619 57.6186 66.9999 57.8553 67.2101C57.7525 67.2534 57.628 67.2982 57.4816 67.3446C57.3352 67.3878 57.1889 67.4296 57.0425 67.4698C56.8961 67.513 56.7576 67.5517 56.6268 67.5857C56.496 67.6197 56.3979 67.6459 56.3325 67.6645C56.2546 67.581 56.1472 67.4558 56.0102 67.2889C55.8762 67.122 55.7423 66.918 55.6084 66.6769C55.5306 66.5502 55.4543 66.4157 55.3795 66.2735C55.3079 66.1313 55.2378 65.9892 55.1693 65.847C55.1039 65.7048 55.0401 65.5672 54.9778 65.4343C54.9186 65.3014 54.8673 65.1778 54.8237 65.0634L54.4033 65.0541C54.4033 65.2365 54.4064 65.4281 54.4126 65.629C54.4188 65.83 54.4282 66.0309 54.4406 66.2318C54.4531 66.4296 54.4671 66.6244 54.4827 66.816C54.4982 67.0046 54.5154 67.1777 54.534 67.3353L52.7917 67.4095C52.773 67.1746 52.7574 66.8577 52.745 66.459C52.7325 66.0602 52.7216 65.6383 52.7123 65.1932C52.7029 64.7481 52.6951 64.303 52.6889 63.8579C52.6827 63.4097 52.6765 63.0171 52.6702 62.6802ZM54.3425 62.1516C54.3425 62.4236 54.3456 62.6694 54.3519 62.8888C54.3581 63.0774 54.3643 63.2613 54.3706 63.4406C54.3768 63.6168 54.3877 63.7342 54.4033 63.793C54.4531 63.8053 54.5154 63.8146 54.5901 63.8208C54.668 63.827 54.7443 63.8316 54.819 63.8347C54.8968 63.8378 54.9685 63.8393 55.0339 63.8393C55.1024 63.8393 55.1569 63.8393 55.1974 63.8393C55.434 63.827 55.6193 63.7482 55.7532 63.6029C55.8903 63.4576 55.9588 63.2644 55.9588 63.0233C55.9588 62.9986 55.9525 62.9414 55.9401 62.8518C55.9276 62.7621 55.8996 62.6678 55.856 62.5689C55.8124 62.4669 55.747 62.3742 55.6598 62.2907C55.5726 62.2042 55.459 62.1547 55.3188 62.1424C55.2129 62.1331 55.1055 62.1285 54.9965 62.1285C54.9404 62.1285 54.8844 62.13 54.8283 62.1331C54.6602 62.1393 54.4982 62.1455 54.3425 62.1516Z" fill="white"/>
<path d="M58.3131 60.8302C58.5093 60.8117 58.7319 60.7978 58.9811 60.7885C59.2302 60.7792 59.4544 60.7746 59.6537 60.7746C60.2329 60.7746 60.7546 60.8364 61.2186 60.96C61.6857 61.0806 62.0827 61.2769 62.4097 61.5489C62.7398 61.8178 62.9921 62.164 63.1665 62.5875C63.344 63.0109 63.4327 63.5241 63.4327 64.1268C63.4327 64.6585 63.3222 65.1314 63.1011 65.5456C62.88 65.9598 62.5904 66.3075 62.2322 66.5888C61.8772 66.8701 61.4708 67.0849 61.013 67.2333C60.5584 67.3817 60.0928 67.4558 59.6163 67.4558C59.5198 67.4558 59.417 67.4558 59.308 67.4558C59.199 67.4558 59.0869 67.4528 58.9717 67.4466C58.8596 67.4404 58.7475 67.4358 58.6354 67.4327C58.5233 67.4296 58.4221 67.4218 58.3318 67.4095C58.3504 67.0416 58.3629 66.6785 58.3691 66.3199C58.3754 65.9582 58.3785 65.5935 58.3785 65.2257C58.3785 64.4776 58.3722 63.7451 58.3598 63.0279C58.3473 62.3108 58.3318 61.5782 58.3131 60.8302ZM60.0368 62.5411L60.0648 65.6059C60.5693 65.6059 60.9726 65.4683 61.2746 65.1932C61.5767 64.9181 61.7277 64.5209 61.7277 64.0016C61.7277 63.5009 61.6156 63.1284 61.3914 62.8842C61.1703 62.64 60.8013 62.5179 60.2843 62.5179C60.2407 62.5179 60.1971 62.5195 60.1535 62.5226C60.113 62.5257 60.0741 62.5318 60.0368 62.5411Z" fill="white"/>
<path d="M63.8672 67.1174L64.1241 65.5595C64.3794 65.6553 64.6363 65.7481 64.8948 65.8377C65.1533 65.9242 65.4196 65.9675 65.6936 65.9675C65.7652 65.9675 65.8524 65.9644 65.9552 65.9582C66.0611 65.9521 66.1623 65.9351 66.2588 65.9072C66.3554 65.8763 66.4379 65.8361 66.5064 65.7867C66.578 65.7372 66.6138 65.6646 66.6138 65.5688C66.6138 65.4482 66.5484 65.3369 66.4176 65.2349C66.2868 65.1329 66.1234 65.0294 65.9272 64.9243C65.7341 64.8161 65.5223 64.6986 65.2919 64.5719C65.0614 64.4452 64.8481 64.2984 64.6519 64.1314C64.4588 63.9614 64.2969 63.7667 64.1661 63.5472C64.0353 63.3247 63.9699 63.065 63.9699 62.7683C63.9699 62.4005 64.0431 62.0852 64.1895 61.8224C64.3389 61.5597 64.5351 61.348 64.778 61.1872C65.0241 61.0234 65.3028 60.9044 65.6142 60.8302C65.9287 60.7529 66.2479 60.7143 66.5718 60.7143C66.9299 60.7143 67.3005 60.7514 67.6835 60.8256C68.0666 60.8967 68.42 61.0064 68.7439 61.1548L68.4496 62.606C68.2908 62.5442 68.1429 62.4886 68.0059 62.4391C67.8688 62.3866 67.7303 62.3448 67.5901 62.3139C67.4531 62.2799 67.3114 62.2552 67.165 62.2397C67.0187 62.2243 66.8599 62.2165 66.6886 62.2165C66.6107 62.2165 66.5204 62.2196 66.4176 62.2258C66.318 62.232 66.2215 62.2505 66.128 62.2815C66.0346 62.3124 65.9583 62.3587 65.8991 62.4206C65.84 62.4793 65.8104 62.5597 65.8104 62.6617C65.8104 62.8008 65.882 62.929 66.0253 63.0465C66.1685 63.1639 66.3476 63.2799 66.5625 63.3942C66.7804 63.5086 67.014 63.6307 67.2631 63.7605C67.5123 63.8903 67.7443 64.0418 67.9591 64.2149C68.1771 64.388 68.3578 64.5889 68.501 64.8177C68.6443 65.0464 68.7159 65.3153 68.7159 65.6244C68.7159 65.9335 68.6474 66.204 68.5104 66.4358C68.3733 66.6676 68.1943 66.8608 67.9732 67.0154C67.7552 67.1699 67.5092 67.2858 67.2351 67.3631C66.9611 67.4373 66.687 67.4744 66.413 67.4744C66.005 67.4744 65.5737 67.4481 65.119 67.3956C64.6675 67.343 64.2502 67.2503 63.8672 67.1174Z" fill="white"/>
<path d="M33.62 42.0522C27.1283 41.1704 20.5683 38.3896 20.5683 35.9478C20.5683 33.7774 26.3083 31.8104 31.775 30.7931L31.365 26.1131C22.2766 27.6731 15.9216 31.4713 15.9216 35.9478C15.9216 40.967 24.1216 45.24 35.1233 46.2574L33.62 42.0522Z" fill="#FFDA00"/>
<path d="M48.3115 25.9096L48.7215 30.047C54.4615 30.9965 60.4065 33.6417 60.4065 35.9478C60.4065 38.0504 54.8715 39.9496 49.6782 40.967L50.0882 45.647C58.9032 44.0191 65.0532 40.2887 65.0532 35.88C65.1215 31.2678 58.0832 27.3339 48.3115 25.9096Z" fill="#FFDA00"/>
<path d="M31.8435 36.5582V51.073L44.6218 42.7982L31.8435 36.5582Z" fill="#FFDA00"/>
<path d="M48.7217 35.3374V20.8226L35.9434 29.0974L48.7217 35.3374Z" fill="#FFDA00"/>
</svg>
