<svg width="82" height="78" viewBox="0 0 82 78" fill="none" xmlns="http://www.w3.org/2000/svg">
<path d="M47.8333 0H34.1667C15.3067 0 0 15.193 0 33.913V78H82V33.913C82 15.193 66.6933 0 47.8333 0Z" fill="white"/>
<path d="M46.9449 5.4261H35.0549C18.7232 5.4261 5.46655 18.5844 5.46655 34.7948V72.5739H76.5332V34.7948C76.5332 18.5844 63.2766 5.4261 46.9449 5.4261Z" fill="#F41971"/>
<path d="M21.1768 63.9136C21.1768 63.4592 21.2608 63.0357 21.429 62.6431C21.5972 62.2506 21.8198 61.9121 22.097 61.6277C22.3773 61.3434 22.6902 61.1193 23.0359 60.9554C23.3847 60.7885 23.7413 60.7051 24.1056 60.7051C24.4575 60.7051 24.7938 60.7236 25.1146 60.7607C25.4354 60.7947 25.7748 60.855 26.1329 60.9415C26.1205 61.0126 26.0956 61.1332 26.0582 61.3032C26.0239 61.4701 25.9881 61.6416 25.9507 61.8178C25.9072 62.028 25.8558 62.249 25.7966 62.4809L25.5117 62.3881C25.3622 62.3356 25.1909 62.2877 24.9978 62.2444C24.8733 62.2166 24.7534 62.2027 24.6381 62.2027C24.5759 62.2027 24.5151 62.2073 24.456 62.2166C24.2504 62.2475 24.0542 62.3047 23.8674 62.3881C23.6805 62.4685 23.5155 62.5782 23.3722 62.7173C23.229 62.8564 23.1138 63.0249 23.0266 63.2227C22.9425 63.4174 22.9004 63.6446 22.9004 63.9043C22.9004 64.133 22.9331 64.3432 22.9985 64.5349C23.067 64.7234 23.1558 64.8919 23.2648 65.0402C23.3769 65.1886 23.5061 65.3122 23.6525 65.4112C23.7989 65.5101 23.9561 65.5843 24.1243 65.6337C24.2644 65.677 24.4061 65.6986 24.5494 65.6986C24.6646 65.7017 24.7814 65.6878 24.8997 65.6569C25.1613 65.5951 25.3902 65.5116 25.5864 65.4065L26.2264 66.9273C26.1485 66.9768 26.0488 67.034 25.9274 67.0989C25.8091 67.1607 25.6798 67.2225 25.5397 67.2843C25.3995 67.3431 25.2516 67.3925 25.0959 67.4327C24.9433 67.476 24.797 67.4976 24.6568 67.4976C24.2115 67.4976 23.7802 67.4296 23.3629 67.2936C22.9456 67.1576 22.5735 66.9459 22.2465 66.6584C21.9226 66.3678 21.6626 65.9969 21.4664 65.5456C21.2733 65.0912 21.1768 64.5472 21.1768 63.9136Z" fill="white"/>
<path d="M26.9878 60.8302C27.2929 60.8055 27.5857 60.7916 27.866 60.7885C27.922 60.7885 27.9781 60.7885 28.0341 60.7885C28.2614 60.7885 28.4981 60.7932 28.7441 60.8024C28.7441 60.9106 28.7441 61.0404 28.7441 61.1919C28.7441 61.3434 28.7426 61.4933 28.7395 61.6416C28.7364 61.79 28.7348 61.9245 28.7348 62.045C28.7348 62.1656 28.7348 62.2444 28.7348 62.2815C28.7348 62.3309 28.7348 62.4144 28.7348 62.5319C28.7348 62.6493 28.7379 62.7714 28.7441 62.8982C28.7441 63.0434 28.7473 63.1995 28.7535 63.3664L30.4772 63.4128L30.4585 60.821L32.2756 60.7932C32.2756 60.9446 32.2709 61.1409 32.2616 61.382C32.2522 61.62 32.2413 61.8657 32.2289 62.1192C32.2164 62.4809 32.2102 62.8904 32.2102 63.3479C32.2102 63.8023 32.2102 64.269 32.2102 64.7481C32.2102 65.2242 32.2102 65.694 32.2102 66.1576C32.2102 66.6182 32.2071 67.0324 32.2008 67.4002C31.933 67.4126 31.6419 67.4188 31.3273 67.4188C31.0159 67.4188 30.7263 67.4095 30.4585 67.391C30.4585 67.3137 30.46 67.2241 30.4632 67.122C30.4663 67.017 30.4694 66.9119 30.4725 66.8068C30.4756 66.7017 30.4772 66.6028 30.4772 66.51C30.4772 66.4142 30.4772 66.3338 30.4772 66.2689C30.4772 66.1793 30.4756 66.0634 30.4725 65.9212C30.4694 65.7759 30.4647 65.6291 30.4585 65.4807C30.4523 65.3169 30.4491 65.1438 30.4491 64.9614H28.7675V65.7218C28.7675 65.9258 28.7659 66.1206 28.7628 66.306C28.7628 66.3678 28.7613 66.4235 28.7582 66.4729C28.7582 66.5718 28.7613 66.6429 28.7675 66.6862C28.7737 66.7759 28.7768 66.8825 28.7768 67.0061C28.7768 67.1298 28.7768 67.2395 28.7768 67.3353C28.6678 67.3415 28.5308 67.3492 28.3658 67.3585C28.2038 67.3678 28.0419 67.374 27.88 67.3771C27.718 67.3801 27.567 67.3832 27.4269 67.3863C27.2867 67.3894 27.1808 67.391 27.1092 67.391C27.1154 67.3013 27.1186 67.1483 27.1186 66.9319C27.1186 66.7125 27.1186 66.4142 27.1186 66.0371C27.1186 65.66 27.1139 65.1963 27.1045 64.6461C27.0952 64.0959 27.0843 63.4468 27.0718 62.6988C27.0656 62.5782 27.0594 62.4314 27.0532 62.2583C27.0469 62.0852 27.0407 61.909 27.0345 61.7297C27.0282 61.5474 27.0205 61.3758 27.0111 61.2151C27.0018 61.0543 26.994 60.9261 26.9878 60.8302Z" fill="white"/>
<path d="M33.1491 60.8859C33.884 60.8612 34.6081 60.8426 35.3212 60.8302C36.0344 60.8179 36.7568 60.8117 37.4887 60.8117V62.3279C37.4108 62.3217 37.2987 62.317 37.1523 62.3139C37.0091 62.3109 36.8581 62.3078 36.6992 62.3047C36.5435 62.3016 36.3956 62.3 36.2555 62.3C36.1153 62.3 36.011 62.3 35.9425 62.3C35.8584 62.3062 35.7494 62.3109 35.6155 62.3139C35.4816 62.317 35.3508 62.3217 35.2231 62.3279C35.0705 62.334 34.9117 62.3418 34.7467 62.351L34.7653 63.4128C34.9179 63.4066 35.0612 63.3974 35.1951 63.385C35.3103 63.3726 35.4271 63.3634 35.5454 63.3572C35.6638 63.351 35.7541 63.3448 35.8164 63.3386C35.9067 63.3324 36.0172 63.3263 36.148 63.3201C36.2197 63.317 36.2882 63.3139 36.3536 63.3108C36.4034 63.3108 36.4501 63.3123 36.4937 63.3154L36.5638 64.6461C36.4797 64.6647 36.3676 64.6832 36.2274 64.7018C36.0873 64.7172 35.9378 64.728 35.779 64.7342C35.6202 64.7404 35.4582 64.7435 35.2932 64.7435C35.1313 64.7435 34.9865 64.7435 34.8588 64.7435V65.7125H37.5214V67.4002C37.3875 67.4002 37.2006 67.3987 36.9608 67.3956C36.721 67.3925 36.4719 67.3894 36.2134 67.3863C35.955 67.3832 35.7058 67.3817 35.466 67.3817C35.2262 67.3817 35.0394 67.3817 34.9055 67.3817L33.1865 67.4095C33.1927 67.2302 33.1974 66.9737 33.2005 66.6398C33.2005 66.5718 33.2005 66.5038 33.2005 66.4358C33.2005 66.1484 33.1958 65.8207 33.1865 65.4529C33.1802 65.1623 33.1771 64.8362 33.1771 64.4746C33.1771 64.1098 33.1756 63.7281 33.1725 63.3293C33.1693 62.9275 33.1662 62.518 33.1631 62.1007C33.16 61.6834 33.1553 61.2784 33.1491 60.8859Z" fill="white"/>
<path d="M38.5023 60.8859C39.2373 60.8612 39.9613 60.8426 40.6744 60.8302C41.3876 60.8179 42.1101 60.8117 42.8419 60.8117V62.3279C42.764 62.3217 42.6519 62.317 42.5056 62.3139C42.3623 62.3109 42.2113 62.3078 42.0525 62.3047C41.8967 62.3016 41.7488 62.3 41.6087 62.3C41.4686 62.3 41.3642 62.3 41.2957 62.3C41.2116 62.3062 41.1026 62.3109 40.9687 62.3139C40.8348 62.317 40.704 62.3217 40.5764 62.3279C40.4238 62.334 40.2649 62.3418 40.0999 62.351L40.1186 63.4128C40.2712 63.4066 40.4144 63.3974 40.5483 63.385C40.6635 63.3726 40.7803 63.3634 40.8987 63.3572C41.017 63.351 41.1073 63.3448 41.1696 63.3386C41.2599 63.3324 41.3705 63.3263 41.5013 63.3201C41.5729 63.317 41.6414 63.3139 41.7068 63.3108C41.7566 63.3108 41.8033 63.3123 41.8469 63.3154L41.917 64.6461C41.8329 64.6647 41.7208 64.6832 41.5807 64.7018C41.4405 64.7172 41.291 64.728 41.1322 64.7342C40.9734 64.7404 40.8115 64.7435 40.6464 64.7435C40.4845 64.7435 40.3397 64.7435 40.212 64.7435V65.7125H42.8746V67.4002C42.7407 67.4002 42.5538 67.3987 42.314 67.3956C42.0743 67.3925 41.8251 67.3894 41.5667 67.3863C41.3082 67.3832 41.059 67.3817 40.8193 67.3817C40.5795 67.3817 40.3926 67.3817 40.2587 67.3817L38.5397 67.4095C38.5459 67.2302 38.5506 66.9737 38.5537 66.6398C38.5537 66.5718 38.5537 66.5038 38.5537 66.4358C38.5537 66.1484 38.549 65.8207 38.5397 65.4529C38.5335 65.1623 38.5304 64.8362 38.5304 64.4746C38.5304 64.1098 38.5288 63.7281 38.5257 63.3293C38.5226 62.9275 38.5195 62.518 38.5163 62.1007C38.5132 61.6834 38.5086 61.2784 38.5023 60.8859Z" fill="white"/>
<path d="M43.4725 62.4159C43.4663 62.3263 43.4632 62.2259 43.4632 62.1146C43.4632 61.9786 43.4678 61.8287 43.4772 61.6648C43.4928 61.3681 43.5192 61.0775 43.5566 60.7932C44.0237 60.8179 44.4862 60.8333 44.9439 60.8395C45.4048 60.8457 45.8673 60.8488 46.3313 60.8488C46.8482 60.8488 47.3496 60.8442 47.8354 60.8349C48.3244 60.8256 48.8304 60.8117 49.3536 60.7932V62.3881C48.9892 62.4005 48.6327 62.4098 48.2839 62.4159C47.9382 62.4221 47.5832 62.4314 47.2188 62.4438C47.2313 63.2722 47.2375 64.0959 47.2375 64.915C47.2406 65.7311 47.2546 66.5533 47.2796 67.3817H45.5465L45.5839 62.4623C45.3877 62.4623 45.2024 62.4608 45.028 62.4577C44.8567 62.4546 44.6901 62.4515 44.5282 62.4484C44.3663 62.4453 44.1981 62.4407 44.0237 62.4345C43.8524 62.4283 43.6687 62.4221 43.4725 62.4159Z" fill="white"/>
<path d="M49.6339 67.238L50.6989 64.2567C50.7549 64.099 50.8188 63.9182 50.8904 63.7142C50.9652 63.5071 51.0415 63.2938 51.1193 63.0743C51.2003 62.8518 51.2797 62.6261 51.3575 62.3974C51.4385 62.1687 51.5164 61.9554 51.5911 61.7576C51.6658 61.5566 51.7312 61.3758 51.7873 61.2151C51.8433 61.0543 51.8885 60.9292 51.9228 60.8395C52.0131 60.8395 52.133 60.8395 52.2824 60.8395C52.4319 60.8395 52.5876 60.8395 52.7496 60.8395C52.9115 60.8395 53.0734 60.8411 53.2354 60.8442C53.3973 60.8473 53.5359 60.8519 53.6511 60.8581C53.7352 61.1177 53.8333 61.416 53.9454 61.7529C54.0575 62.0868 54.1727 62.4407 54.2911 62.8147C54.4125 63.1887 54.5386 63.5735 54.6694 63.9692C54.8002 64.3648 54.9279 64.7574 55.0525 65.1469C55.177 65.5363 55.2969 65.915 55.4122 66.2828C55.5274 66.6507 55.6333 66.9891 55.7298 67.2982C55.4308 67.3477 55.1319 67.3879 54.8329 67.4188C54.5371 67.4497 54.2397 67.4914 53.9407 67.544C53.922 67.3029 53.8909 67.088 53.8473 66.8995C53.8068 66.7078 53.7585 66.4946 53.7025 66.2596L51.6238 66.2411C51.5677 66.4575 51.5132 66.6538 51.4603 66.8299C51.4167 66.9814 51.3762 67.1329 51.3389 67.2843C51.3046 67.4327 51.2812 67.5347 51.2688 67.5903L49.6339 67.238ZM51.9414 64.864H53.511L52.829 62.1795L51.9414 64.864Z" fill="white"/>
<path d="M56.2296 60.8302C56.5348 60.8055 56.8275 60.7916 57.1078 60.7885C57.1639 60.7885 57.2199 60.7885 57.276 60.7885C57.5033 60.7885 57.74 60.7932 57.986 60.8024C57.986 60.9106 57.986 61.0404 57.986 61.1919C57.986 61.3434 57.9844 61.4933 57.9813 61.6416C57.9782 61.79 57.9767 61.9245 57.9767 62.045C57.9767 62.1656 57.9767 62.2444 57.9767 62.2815C57.9767 62.3309 57.9767 62.4144 57.9767 62.5319C57.9767 62.6493 57.9798 62.7714 57.986 62.8982C57.986 63.0434 57.9891 63.1995 57.9953 63.3664L59.719 63.4128L59.7003 60.821L61.5174 60.7932C61.5174 60.9446 61.5128 61.1409 61.5034 61.382C61.4941 61.62 61.4832 61.8657 61.4707 62.1192C61.4583 62.4809 61.452 62.8904 61.452 63.3479C61.452 63.8023 61.452 64.269 61.452 64.7481C61.452 65.2242 61.452 65.694 61.452 66.1576C61.452 66.6182 61.4489 67.0324 61.4427 67.4002C61.1749 67.4126 60.8837 67.4188 60.5692 67.4188C60.2578 67.4188 59.9682 67.4095 59.7003 67.391C59.7003 67.3137 59.7019 67.2241 59.705 67.122C59.7081 67.017 59.7112 66.9119 59.7144 66.8068C59.7175 66.7017 59.719 66.6028 59.719 66.51C59.719 66.4142 59.719 66.3338 59.719 66.2689C59.719 66.1793 59.7175 66.0634 59.7144 65.9212C59.7112 65.7759 59.7066 65.6291 59.7003 65.4807C59.6941 65.3169 59.691 65.1438 59.691 64.9614H58.0094V65.7218C58.0094 65.9258 58.0078 66.1206 58.0047 66.306C58.0047 66.3678 58.0031 66.4235 58 66.4729C58 66.5718 58.0031 66.6429 58.0094 66.6862C58.0156 66.7759 58.0187 66.8825 58.0187 67.0061C58.0187 67.1298 58.0187 67.2395 58.0187 67.3353C57.9097 67.3415 57.7727 67.3492 57.6076 67.3585C57.4457 67.3678 57.2838 67.374 57.1218 67.3771C56.9599 67.3801 56.8089 67.3832 56.6687 67.3863C56.5286 67.3894 56.4227 67.391 56.3511 67.391C56.3573 67.3013 56.3604 67.1483 56.3604 66.9319C56.3604 66.7125 56.3604 66.4142 56.3604 66.0371C56.3604 65.66 56.3557 65.1963 56.3464 64.6461C56.3371 64.0959 56.3262 63.4468 56.3137 62.6988C56.3075 62.5782 56.3012 62.4314 56.295 62.2583C56.2888 62.0852 56.2826 61.909 56.2763 61.7297C56.2701 61.5474 56.2623 61.3758 56.253 61.2151C56.2436 61.0543 56.2359 60.9261 56.2296 60.8302Z" fill="white"/>
<path d="M66.0783 36.7618C66.0783 36.7618 63.6866 50.327 53.4366 52.0227C43.1866 53.7183 22.6183 48.6314 22.6183 48.6314L28.2216 44.5618L20.3633 42.6627L26.9233 38.8644L18.9966 36.5583L25.215 32.4887C25.215 32.4887 24.395 29.7079 25.9666 26.8592L16.605 19.6696C16.605 19.6696 28.0166 15.6679 40.9316 18.3809C53.8466 21.094 52.685 26.3844 53.3 27.6731C53.9833 28.9618 55.2816 32.4887 66.0783 36.7618Z" fill="#FFDA00"/>
<path d="M62.5934 45.4435C63.4817 41.0348 51.0451 37.3044 55.4867 35.2018C59.9284 33.0992 66.0784 36.7618 66.0784 36.7618C66.0784 36.7618 65.3267 41.6452 62.5934 45.4435Z" fill="#231F20"/>
<path d="M33.2776 34.6765C33.8527 34.1913 33.764 33.1501 33.0796 32.3509C32.3952 31.5518 31.3741 31.2974 30.7991 31.7826C30.224 32.2679 30.3127 33.309 30.9971 34.1082C31.6815 34.9073 32.7025 35.1617 33.2776 34.6765Z" fill="#231F20"/>
<path d="M40.4637 46.2739C40.985 45.7852 40.8194 44.7708 40.0937 44.0083C39.3681 43.2458 38.3573 43.0239 37.836 43.5126C37.3147 44.0013 37.4803 45.0157 38.206 45.7782C38.9316 46.5407 39.9425 46.7627 40.4637 46.2739Z" fill="#231F20"/>
<path d="M33.9325 41.9642C34.5939 41.4062 34.4761 40.1903 33.6694 39.2485C32.8628 38.3066 31.6728 37.9955 31.0114 38.5535C30.3501 39.1116 30.4679 40.3275 31.2745 41.2693C32.0812 42.2111 33.2712 42.5222 33.9325 41.9642Z" fill="#231F20"/>
<path d="M32.6634 20.687L27.1284 24.2817L20.7734 20.28C20.7734 20.28 25.8301 18.8557 32.6634 20.687Z" fill="#FFF0A9"/>
<path d="M49.6783 31.4713L35.26 27.4696C35.26 27.4696 37.5833 35.0661 43.5967 35.6765C49.4733 36.2192 49.6783 31.4713 49.6783 31.4713Z" fill="white"/>
<path d="M41.6833 31.6748C42.5717 33.167 44.28 33.9131 45.4417 33.4383C46.4667 33.0314 46.74 31.7427 46.1933 30.454L41.205 29.0974C41 29.8435 41.1367 30.7931 41.6833 31.6748Z" fill="#00C3F7"/>
<path d="M25.9668 26.927L16.9468 30.1148L25.2151 32.5566L25.8301 28.08" fill="#FFDA00"/>
</svg>
