<svg width="82" height="78" viewBox="0 0 82 78" fill="none" xmlns="http://www.w3.org/2000/svg">
<path d="M47.8333 0H34.1667C15.3067 0 0 15.193 0 33.913V78H82V33.913C82 15.193 66.6933 0 47.8333 0Z" fill="white"/>
<path d="M46.9449 5.42609H35.0549C18.7232 5.42609 5.46655 18.5844 5.46655 34.7948V72.5739H76.5332V34.7948C76.5332 18.5844 63.2766 5.42609 46.9449 5.42609Z" fill="#56C400"/>
<path d="M29.6223 64.0295C29.6223 63.5412 29.7126 63.093 29.8932 62.6849C30.0739 62.2769 30.3199 61.9261 30.6313 61.6324C30.9458 61.3388 31.3102 61.1101 31.7244 60.9462C32.1385 60.7793 32.5792 60.6959 33.0463 60.6959C33.3577 60.6959 33.6692 60.7237 33.9806 60.7793C34.2951 60.8319 34.605 60.8906 34.9101 60.9555C34.8665 61.2213 34.8167 61.4841 34.7607 61.7437C34.7077 62.0003 34.6423 62.2584 34.5645 62.518C34.3527 62.4284 34.1114 62.3496 33.8404 62.2816C33.5726 62.2136 33.3266 62.1796 33.1024 62.1796C32.8595 62.1796 32.629 62.2275 32.411 62.3233C32.1962 62.416 32.0046 62.5458 31.8365 62.7128C31.6714 62.8766 31.5406 63.0682 31.4441 63.2877C31.3507 63.5041 31.304 63.7359 31.304 63.9832C31.304 64.2614 31.3413 64.5226 31.4161 64.7667C31.4939 65.0109 31.6091 65.2227 31.7617 65.402C31.9143 65.5812 32.1058 65.7219 32.3363 65.8239C32.5667 65.9259 32.8346 65.9769 33.1397 65.9769C33.2923 65.9769 33.4465 65.9676 33.6022 65.9491L33.5695 64.827L32.4904 64.8177L32.5185 63.5937C32.7178 63.5906 32.9155 63.5891 33.1117 63.5891C33.3079 63.5891 33.5025 63.5906 33.6956 63.5937C34.0849 63.5999 34.4742 63.6122 34.8634 63.6308L34.9475 66.9459C34.7046 67.1098 34.4212 67.2411 34.0973 67.34C33.7735 67.4389 33.4636 67.4884 33.1678 67.4884C32.601 67.4884 32.0965 67.4235 31.6543 67.2937C31.2152 67.1638 30.8462 66.9614 30.5472 66.6863C30.2483 66.4081 30.0194 66.0511 29.8605 65.6152C29.7017 65.1794 29.6223 64.6508 29.6223 64.0295Z" fill="white"/>
<path d="M35.9285 64.9244C35.9285 64.2505 35.9363 63.5736 35.9518 62.8936C35.9581 62.6648 35.9612 62.4392 35.9612 62.2166C35.9612 61.7654 35.9503 61.3156 35.9285 60.8674C36.1714 60.855 36.408 60.8442 36.6385 60.835C36.8721 60.8257 37.1103 60.821 37.3532 60.821H37.7643V61.0019C37.7643 61.4655 37.7518 61.9292 37.7269 62.3928C37.702 62.8565 37.6895 63.3232 37.6895 63.7931C37.6895 63.9414 37.6833 64.1238 37.6708 64.3402C37.6677 64.402 37.6662 64.4638 37.6662 64.5256C37.6662 64.674 37.6771 64.8193 37.6989 64.9615C37.73 65.1593 37.797 65.3309 37.8997 65.4761C38.0025 65.6183 38.1644 65.6894 38.3855 65.6894C38.6347 65.6894 38.8277 65.6121 38.9648 65.4576C39.1018 65.303 39.1999 65.1114 39.259 64.8827C39.3213 64.6508 39.3587 64.4005 39.3712 64.1315C39.3836 63.8626 39.3898 63.6138 39.3898 63.3851C39.3898 62.9678 39.3774 62.5474 39.3525 62.1239C39.3276 61.6974 39.3058 61.2754 39.2871 60.8581L41.207 60.7932C41.2132 61.5134 41.2194 62.2166 41.2256 62.9029C41.2256 63.0018 41.2272 63.1022 41.2303 63.2042C41.2303 63.8039 41.2101 64.4329 41.1696 65.0913C41.1509 65.4282 41.0528 65.742 40.8753 66.0325C40.7009 66.3231 40.4798 66.5765 40.212 66.7929C39.9442 67.0093 39.6483 67.1793 39.3244 67.3029C39.0006 67.4266 38.6814 67.4884 38.3668 67.4884C37.9278 67.4884 37.5541 67.4312 37.2458 67.3168C36.9406 67.2025 36.6883 67.0356 36.489 66.8161C36.2928 66.5966 36.1496 66.3293 36.0593 66.014C35.9721 65.6987 35.9285 65.3355 35.9285 64.9244Z" fill="white"/>
<path d="M41.8656 67.1175L42.1225 65.5596C42.3779 65.6554 42.6348 65.7482 42.8933 65.8378C43.1517 65.9243 43.418 65.9676 43.692 65.9676C43.7637 65.9676 43.8509 65.9645 43.9536 65.9583C44.0595 65.9522 44.1607 65.9352 44.2573 65.9073C44.3538 65.8764 44.4363 65.8362 44.5048 65.7868C44.5765 65.7373 44.6123 65.6647 44.6123 65.5689C44.6123 65.4483 44.5469 65.337 44.4161 65.235C44.2853 65.133 44.1218 65.0295 43.9256 64.9244C43.7325 64.8162 43.5208 64.6987 43.2903 64.572C43.0599 64.4453 42.8465 64.2985 42.6504 64.1315C42.4573 63.9615 42.2953 63.7668 42.1646 63.5473C42.0338 63.3248 41.9684 63.0651 41.9684 62.7684C41.9684 62.4006 42.0415 62.0853 42.1879 61.8225C42.3374 61.5598 42.5336 61.3481 42.7765 61.1873C43.0225 61.0235 43.3012 60.9045 43.6126 60.8303C43.9272 60.753 44.2464 60.7144 44.5702 60.7144C44.9284 60.7144 45.2989 60.7515 45.682 60.8257C46.065 60.8968 46.4185 61.0065 46.7423 61.1549L46.4481 62.6061C46.2892 62.5443 46.1413 62.4887 46.0043 62.4392C45.8673 62.3867 45.7287 62.3449 45.5886 62.314C45.4515 62.28 45.3098 62.2553 45.1635 62.2398C45.0171 62.2244 44.8583 62.2166 44.687 62.2166C44.6092 62.2166 44.5188 62.2197 44.4161 62.2259C44.3164 62.2321 44.2199 62.2506 44.1265 62.2816C44.033 62.3125 43.9567 62.3588 43.8976 62.4207C43.8384 62.4794 43.8088 62.5598 43.8088 62.6618C43.8088 62.8009 43.8804 62.9291 44.0237 63.0466C44.1669 63.164 44.346 63.28 44.5609 63.3943C44.7789 63.5087 45.0124 63.6308 45.2616 63.7606C45.5107 63.8904 45.7427 64.0419 45.9576 64.215C46.1756 64.3881 46.3562 64.589 46.4994 64.8177C46.6427 65.0465 46.7143 65.3154 46.7143 65.6245C46.7143 65.9336 46.6458 66.2041 46.5088 66.4359C46.3718 66.6677 46.1927 66.8609 45.9716 67.0155C45.7536 67.17 45.5076 67.2859 45.2335 67.3632C44.9595 67.4374 44.6855 67.4745 44.4114 67.4745C44.0035 67.4745 43.5721 67.4482 43.1175 67.3957C42.6659 67.3431 42.2486 67.2504 41.8656 67.1175Z" fill="white"/>
<path d="M47.2282 62.416C47.2219 62.3264 47.2188 62.2259 47.2188 62.1146C47.2188 61.9786 47.2235 61.8287 47.2328 61.6649C47.2484 61.3682 47.2749 61.0776 47.3122 60.7932C47.7794 60.818 48.2418 60.8334 48.6996 60.8396C49.1605 60.8458 49.6229 60.8489 50.0869 60.8489C50.6039 60.8489 51.1053 60.8442 51.5911 60.835C52.08 60.8257 52.5861 60.8118 53.1092 60.7932V62.3882C52.7449 62.4006 52.3883 62.4098 52.0395 62.416C51.6938 62.4222 51.3388 62.4315 50.9745 62.4438C50.9869 63.2722 50.9932 64.096 50.9932 64.9151C50.9963 65.7312 51.0103 66.5534 51.0352 67.3818H49.3022L49.3396 62.4624C49.1434 62.4624 48.9581 62.4608 48.7837 62.4577C48.6124 62.4547 48.4458 62.4516 48.2839 62.4485C48.1219 62.4454 47.9538 62.4407 47.7794 62.4346C47.6081 62.4284 47.4243 62.4222 47.2282 62.416Z" fill="white"/>
<path d="M37.9934 34.3199C43.3918 36.0156 49.5418 35.2017 50.8401 29.8434C52.2068 24.4852 42.9134 24.7565 42.9134 24.7565C42.9134 24.7565 46.5351 18.1095 39.4284 16.9565C32.3218 15.8034 33.0051 23.3321 33.0051 23.3321C33.0051 23.3321 29.0418 16.5495 23.7118 20.3478C18.3818 24.146 24.1218 28.9617 24.1218 28.9617C24.1218 28.9617 15.8534 28.6904 18.5868 34.1843C23.0968 43.1373 31.2968 41.4417 37.9934 34.3199Z" fill="white"/>
<path d="M26.1716 48.7669C20.0899 50.5982 20.2266 43.8834 20.2266 43.8834C20.2266 43.8834 27.1282 42.5947 26.1716 48.7669Z" fill="#FFB600"/>
<path d="M32.5948 49.6485C28.4948 49.5807 29.9298 45.4433 29.9298 45.4433C29.9298 45.4433 34.4398 46.0538 32.5948 49.6485Z" fill="#FFDA00"/>
<path d="M38.95 39.4746C38.95 39.4746 41.8883 49.1738 47.6283 48.7668C53.3683 48.3599 53.1633 36.5581 48.2433 37.1686C43.3233 37.779 43.8016 52.0903 56.7166 49.3772C69.6316 46.6642 60.7483 33.1668 60.7483 33.1668" stroke="white" stroke-miterlimit="10"/>
<path d="M36.0117 40.7634C36.0117 40.7634 39.6334 57.5843 56.17 52.9721" stroke="white" stroke-miterlimit="10"/>
</svg>
