<svg width="82" height="78" viewBox="0 0 82 78" fill="none" xmlns="http://www.w3.org/2000/svg">
<path d="M47.8333 0H34.1667C15.3067 0 0 15.193 0 33.913V78H82V33.913C82 15.193 66.6933 0 47.8333 0Z" fill="white"/>
<path d="M46.9449 5.4261H35.0549C18.7232 5.4261 5.46655 18.5844 5.46655 34.7948V72.5739H76.5332V34.7948C76.5332 18.5844 63.2766 5.4261 46.9449 5.4261Z" fill="#F41971"/>
<path d="M10.2437 60.8303C10.5488 60.8056 10.8416 60.7917 11.1218 60.7886C11.1779 60.7886 11.234 60.7886 11.29 60.7886C11.5173 60.7886 11.754 60.7932 12 60.8025C12 60.9107 12 61.0405 12 61.192C12 61.3434 11.9985 61.4933 11.9954 61.6417C11.9922 61.7901 11.9907 61.9245 11.9907 62.0451C11.9907 62.1656 11.9907 62.2445 11.9907 62.2815C11.9907 62.331 11.9907 62.4145 11.9907 62.5319C11.9907 62.6494 11.9938 62.7715 12 62.8982C12 63.0435 12.0031 63.1996 12.0094 63.3665L13.7331 63.4129L13.7144 60.821L15.5315 60.7932C15.5315 60.9447 15.5268 61.141 15.5175 61.3821C15.5081 61.6201 15.4972 61.8658 15.4848 62.1193C15.4723 62.4809 15.4661 62.8905 15.4661 63.348C15.4661 63.8023 15.4661 64.2691 15.4661 64.7482C15.4661 65.2242 15.4661 65.694 15.4661 66.1577C15.4661 66.6183 15.463 67.0325 15.4567 67.4003C15.1889 67.4127 14.8977 67.4188 14.5832 67.4188C14.2718 67.4188 13.9822 67.4096 13.7144 67.391C13.7144 67.3137 13.7159 67.2241 13.719 67.1221C13.7222 67.017 13.7253 66.9119 13.7284 66.8068C13.7315 66.7017 13.7331 66.6028 13.7331 66.5101C13.7331 66.4143 13.7331 66.3339 13.7331 66.269C13.7331 66.1793 13.7315 66.0634 13.7284 65.9212C13.7253 65.776 13.7206 65.6291 13.7144 65.4808C13.7081 65.3169 13.705 65.1438 13.705 64.9615H12.0234V65.7219C12.0234 65.9259 12.0218 66.1206 12.0187 66.3061C12.0187 66.3679 12.0172 66.4235 12.014 66.473C12.014 66.5719 12.0172 66.643 12.0234 66.6863C12.0296 66.7759 12.0327 66.8825 12.0327 67.0062C12.0327 67.1298 12.0327 67.2396 12.0327 67.3354C11.9237 67.3416 11.7867 67.3493 11.6217 67.3586C11.4597 67.3678 11.2978 67.374 11.1359 67.3771C10.9739 67.3802 10.8229 67.3833 10.6827 67.3864C10.5426 67.3895 10.4367 67.391 10.3651 67.391C10.3713 67.3014 10.3744 67.1484 10.3744 66.932C10.3744 66.7125 10.3744 66.4143 10.3744 66.0372C10.3744 65.66 10.3698 65.1964 10.3604 64.6462C10.3511 64.096 10.3402 63.4469 10.3277 62.6988C10.3215 62.5783 10.3153 62.4315 10.309 62.2584C10.3028 62.0853 10.2966 61.9091 10.2904 61.7298C10.2841 61.5474 10.2764 61.3759 10.267 61.2151C10.2577 61.0544 10.2499 60.9261 10.2437 60.8303Z" fill="white"/>
<path d="M16.1341 64.3541C16.1341 63.8039 16.2104 63.3062 16.363 62.8611C16.5187 62.4129 16.732 62.0296 17.0029 61.7113C17.2738 61.3898 17.5977 61.144 17.9745 60.974C18.3545 60.8009 18.7718 60.7144 19.2264 60.7144C19.7309 60.7144 20.1591 60.804 20.511 60.9833C20.866 61.1595 21.1541 61.4052 21.3752 61.7205C21.5994 62.0327 21.7613 62.4052 21.861 62.8379C21.9606 63.2707 22.0105 63.7436 22.0105 64.2567C22.0105 64.7266 21.9435 65.1578 21.8096 65.5503C21.6757 65.9429 21.4764 66.2813 21.2117 66.5657C20.947 66.8501 20.6153 67.0711 20.2167 67.2287C19.8181 67.3864 19.351 67.4652 18.8153 67.4652C18.3763 67.4652 17.9901 67.3802 17.6569 67.2102C17.3237 67.0402 17.0434 66.8115 16.8161 66.524C16.5918 66.2334 16.4221 65.9027 16.3069 65.5318C16.1917 65.1578 16.1341 64.7652 16.1341 64.3541ZM17.9045 63.7931C17.892 63.9043 17.8858 64.0094 17.8858 64.1083C17.8858 64.2845 17.9045 64.4437 17.9418 64.5859C17.9979 64.8116 18.0804 64.9986 18.1894 65.1469C18.2984 65.2953 18.4261 65.4081 18.5724 65.4854C18.7219 65.5596 18.8792 65.5998 19.0442 65.606C19.066 65.606 19.0894 65.606 19.1143 65.606C19.2918 65.609 19.4444 65.5673 19.5721 65.4808C19.7185 65.3819 19.8368 65.252 19.9271 65.0913C20.0205 64.9275 20.089 64.7451 20.1326 64.5442C20.1793 64.3433 20.2027 64.1408 20.2027 63.9368C20.2027 63.7668 20.1778 63.5813 20.128 63.3804C20.0813 63.1795 20.0096 62.994 19.9131 62.824C19.8165 62.654 19.6998 62.5134 19.5627 62.4021C19.4382 62.3032 19.298 62.2537 19.1423 62.2537C19.1236 62.2537 19.1065 62.2537 19.091 62.2537C18.7733 62.2723 18.507 62.4098 18.2922 62.6664C18.0773 62.9229 17.9481 63.2985 17.9045 63.7931Z" fill="white"/>
<path d="M22.7065 62.6803C22.7065 62.5907 22.7065 62.467 22.7065 62.3094C22.7065 62.1517 22.708 61.9864 22.7111 61.8133C22.7143 61.6402 22.7189 61.4717 22.7252 61.3079C22.7314 61.141 22.7345 61.0003 22.7345 60.8859C22.8684 60.8859 23.0241 60.8844 23.2016 60.8813C23.3822 60.8782 23.5722 60.8736 23.7715 60.8674C23.9739 60.8612 24.1732 60.855 24.3694 60.8489C24.5687 60.8427 24.754 60.8334 24.9253 60.821C25.0343 60.8149 25.1667 60.8102 25.3224 60.8071C25.4781 60.804 25.6042 60.8025 25.7007 60.8025C26.0589 60.8025 26.3609 60.8705 26.607 61.0065C26.8561 61.1425 27.0601 61.311 27.2189 61.5119C27.3808 61.7097 27.496 61.9214 27.5646 62.1471C27.6362 62.3696 27.672 62.5706 27.672 62.7498C27.672 62.9971 27.644 63.2336 27.5879 63.4592C27.535 63.6818 27.4571 63.8858 27.3543 64.0713C27.2516 64.2536 27.1286 64.4113 26.9853 64.5442C26.8421 64.6771 26.6848 64.7806 26.5135 64.8548L26.3967 64.9012C26.4466 65.0217 26.5089 65.1593 26.5836 65.3138C26.6583 65.4653 26.73 65.6137 26.7985 65.759C26.9137 65.9815 27.0647 66.2273 27.2516 66.4962C27.4415 66.762 27.6549 67 27.8915 67.2102C27.7888 67.2535 27.6642 67.2983 27.5178 67.3447C27.3715 67.3879 27.2251 67.4297 27.0787 67.4698C26.9324 67.5131 26.7938 67.5518 26.663 67.5858C26.5322 67.6198 26.4341 67.646 26.3687 67.6646C26.2909 67.5811 26.1834 67.4559 26.0464 67.289C25.9125 67.1221 25.7786 66.9181 25.6447 66.677C25.5668 66.5503 25.4905 66.4158 25.4158 66.2736C25.3442 66.1314 25.2741 65.9892 25.2056 65.8471C25.1402 65.7049 25.0763 65.5673 25.0141 65.4344C24.9549 65.3015 24.9035 65.1778 24.8599 65.0635L24.4395 65.0542C24.4395 65.2366 24.4426 65.4282 24.4488 65.6291C24.4551 65.8301 24.4644 66.031 24.4769 66.2319C24.4893 66.4297 24.5033 66.6244 24.5189 66.8161C24.5345 67.0046 24.5516 67.1777 24.5703 67.3354L22.8279 67.4096C22.8092 67.1747 22.7937 66.8578 22.7812 66.4591C22.7688 66.0603 22.7579 65.6384 22.7485 65.1933C22.7392 64.7482 22.7314 64.3031 22.7252 63.858C22.7189 63.4098 22.7127 63.0172 22.7065 62.6803ZM24.3788 62.1517C24.3788 62.4237 24.3819 62.6695 24.3881 62.8889C24.3943 63.0775 24.4006 63.2614 24.4068 63.4407C24.413 63.6169 24.4239 63.7343 24.4395 63.7931C24.4893 63.8054 24.5516 63.8147 24.6264 63.8209C24.7042 63.8271 24.7805 63.8317 24.8552 63.8348C24.9331 63.8379 25.0047 63.8394 25.0701 63.8394C25.1386 63.8394 25.1931 63.8394 25.2336 63.8394C25.4703 63.8271 25.6556 63.7482 25.7895 63.603C25.9265 63.4577 25.995 63.2645 25.995 63.0234C25.995 62.9987 25.9888 62.9415 25.9763 62.8518C25.9639 62.7622 25.9359 62.6679 25.8923 62.569C25.8487 62.467 25.7833 62.3743 25.6961 62.2908C25.6089 62.2043 25.4952 62.1548 25.3551 62.1425C25.2492 62.1332 25.1417 62.1285 25.0327 62.1285C24.9767 62.1285 24.9206 62.1301 24.8646 62.1332C24.6964 62.1394 24.5345 62.1455 24.3788 62.1517Z" fill="white"/>
<path d="M28.1017 67.1175L28.3587 65.5596C28.614 65.6554 28.8709 65.7481 29.1294 65.8378C29.3879 65.9243 29.6541 65.9676 29.9282 65.9676C29.9998 65.9676 30.087 65.9645 30.1898 65.9583C30.2957 65.9521 30.3969 65.9351 30.4934 65.9073C30.5899 65.8764 30.6725 65.8362 30.741 65.7868C30.8126 65.7373 30.8484 65.6647 30.8484 65.5689C30.8484 65.4483 30.783 65.337 30.6522 65.235C30.5214 65.133 30.3579 65.0295 30.1618 64.9244C29.9687 64.8162 29.7569 64.6987 29.5265 64.572C29.296 64.4453 29.0827 64.2984 28.8865 64.1315C28.6934 63.9615 28.5315 63.7668 28.4007 63.5473C28.2699 63.3248 28.2045 63.0651 28.2045 62.7684C28.2045 62.4006 28.2777 62.0853 28.4241 61.8225C28.5735 61.5598 28.7697 61.3481 29.0126 61.1873C29.2586 61.0235 29.5374 60.9045 29.8488 60.8303C30.1633 60.753 30.4825 60.7144 30.8064 60.7144C31.1645 60.7144 31.5351 60.7515 31.9181 60.8257C32.3012 60.8968 32.6546 61.0065 32.9785 61.1549L32.6842 62.6061C32.5254 62.5443 32.3775 62.4886 32.2404 62.4392C32.1034 62.3866 31.9648 62.3449 31.8247 62.314C31.6877 62.28 31.546 62.2553 31.3996 62.2398C31.2533 62.2244 31.0944 62.2166 30.9232 62.2166C30.8453 62.2166 30.755 62.2197 30.6522 62.2259C30.5526 62.2321 30.456 62.2506 30.3626 62.2815C30.2692 62.3125 30.1929 62.3588 30.1337 62.4206C30.0746 62.4794 30.045 62.5597 30.045 62.6617C30.045 62.8008 30.1166 62.9291 30.2598 63.0466C30.4031 63.164 30.5822 63.28 30.797 63.3943C31.015 63.5087 31.2486 63.6308 31.4977 63.7606C31.7469 63.8904 31.9789 64.0419 32.1937 64.215C32.4117 64.3881 32.5923 64.589 32.7356 64.8177C32.8788 65.0465 32.9505 65.3154 32.9505 65.6245C32.9505 65.9336 32.882 66.2041 32.7449 66.4359C32.6079 66.6677 32.4289 66.8609 32.2077 67.0155C31.9898 67.17 31.7437 67.2859 31.4697 67.3632C31.1956 67.4374 30.9216 67.4745 30.6476 67.4745C30.2396 67.4745 29.8083 67.4482 29.3536 67.3957C28.9021 67.3431 28.4848 67.2504 28.1017 67.1175Z" fill="white"/>
<path d="M33.8473 60.8859C34.5823 60.8612 35.3063 60.8427 36.0195 60.8303C36.7326 60.8179 37.4551 60.8118 38.1869 60.8118V62.3279C38.1091 62.3217 37.997 62.3171 37.8506 62.314C37.7073 62.3109 37.5563 62.3078 37.3975 62.3047C37.2418 62.3016 37.0938 62.3001 36.9537 62.3001C36.8136 62.3001 36.7092 62.3001 36.6407 62.3001C36.5567 62.3063 36.4477 62.3109 36.3138 62.314C36.1798 62.3171 36.0491 62.3217 35.9214 62.3279C35.7688 62.3341 35.61 62.3418 35.4449 62.3511L35.4636 63.4129C35.6162 63.4067 35.7594 63.3974 35.8933 63.385C36.0086 63.3727 36.1253 63.3634 36.2437 63.3572C36.362 63.351 36.4523 63.3449 36.5146 63.3387C36.6049 63.3325 36.7155 63.3263 36.8463 63.3201C36.9179 63.317 36.9864 63.314 37.0518 63.3109C37.1016 63.3109 37.1483 63.3124 37.1919 63.3155L37.262 64.6462C37.1779 64.6647 37.0658 64.6833 36.9257 64.7018C36.7855 64.7173 36.6361 64.7281 36.4772 64.7343C36.3184 64.7405 36.1565 64.7436 35.9914 64.7436C35.8295 64.7436 35.6847 64.7436 35.557 64.7436V65.7126H38.2196V67.4003C38.0857 67.4003 37.8989 67.3988 37.6591 67.3957C37.4193 67.3926 37.1701 67.3895 36.9117 67.3864C36.6532 67.3833 36.4041 67.3818 36.1643 67.3818C35.9245 67.3818 35.7376 67.3818 35.6037 67.3818L33.8847 67.4096C33.8909 67.2303 33.8956 66.9737 33.8987 66.6399C33.8987 66.5719 33.8987 66.5039 33.8987 66.4359C33.8987 66.1484 33.8941 65.8208 33.8847 65.4529C33.8785 65.1624 33.8754 64.8363 33.8754 64.4746C33.8754 64.1099 33.8738 63.7282 33.8707 63.3294C33.8676 62.9276 33.8645 62.518 33.8614 62.1007C33.8582 61.6834 33.8536 61.2785 33.8473 60.8859Z" fill="white"/>
<path d="M41.6997 64.9522C41.6997 64.2629 41.7075 63.5767 41.723 62.8936C41.7386 62.2074 41.7588 61.5196 41.7838 60.8303C42.2229 60.8303 42.6573 60.821 43.087 60.8025C43.5199 60.7839 43.9559 60.7747 44.395 60.7747C44.7002 60.7747 44.9835 60.8257 45.2451 60.9277C45.5067 61.0266 45.7341 61.1688 45.9271 61.3542C46.1233 61.5366 46.2759 61.7545 46.3849 62.008C46.4939 62.2615 46.5484 62.5427 46.5484 62.8518C46.5484 63.232 46.497 63.5813 46.3943 63.8997C46.2915 64.215 46.142 64.487 45.9458 64.7157C45.7496 64.9414 45.5005 65.116 45.1984 65.2397C44.8995 65.3633 44.5554 65.4251 44.1661 65.4251C44.0197 65.4251 43.8702 65.4174 43.7176 65.4019C43.565 65.3865 43.4156 65.3633 43.2692 65.3324C43.2754 65.6755 43.2832 66.0171 43.2926 66.3571C43.3019 66.6971 43.3253 67.0386 43.3626 67.3818C42.9453 67.4374 42.5249 67.4652 42.1014 67.4652C42.0578 67.4652 42.0158 67.4652 41.9753 67.4652L41.7464 67.4559C41.7277 67.0386 41.7152 66.6214 41.709 66.2041C41.7028 65.7868 41.6997 65.3695 41.6997 64.9522ZM43.2692 64.0017C43.3782 64.045 43.4903 64.0713 43.6055 64.0805C43.7239 64.0898 43.8407 64.0944 43.9559 64.0944C44.3202 64.0944 44.5849 64.0125 44.75 63.8487C44.915 63.6849 44.9976 63.416 44.9976 63.0419C44.9976 62.4206 44.6861 62.11 44.0633 62.11C43.9356 62.11 43.808 62.1177 43.6803 62.1332C43.5526 62.1455 43.4249 62.1548 43.2972 62.161L43.2692 64.0017Z" fill="white"/>
<path d="M46.9828 64.3541C46.9828 63.8039 47.0591 63.3062 47.2117 62.8611C47.3674 62.4129 47.5807 62.0296 47.8517 61.7113C48.1226 61.3898 48.4465 61.144 48.8233 60.974C49.2032 60.8009 49.6205 60.7144 50.0752 60.7144C50.5797 60.7144 51.0079 60.804 51.3598 60.9833C51.7148 61.1595 52.0028 61.4052 52.2239 61.7205C52.4482 62.0327 52.6101 62.4052 52.7098 62.8379C52.8094 63.2707 52.8592 63.7436 52.8592 64.2567C52.8592 64.7266 52.7923 65.1578 52.6584 65.5503C52.5245 65.9429 52.3252 66.2813 52.0604 66.5657C51.7957 66.8501 51.4641 67.0711 51.0655 67.2287C50.6669 67.3864 50.1997 67.4652 49.6641 67.4652C49.225 67.4652 48.8389 67.3802 48.5056 67.2102C48.1724 67.0402 47.8922 66.8115 47.6648 66.524C47.4406 66.2334 47.2709 65.9027 47.1557 65.5318C47.0404 65.1578 46.9828 64.7652 46.9828 64.3541ZM48.7532 63.7931C48.7408 63.9043 48.7345 64.0094 48.7345 64.1083C48.7345 64.2845 48.7532 64.4437 48.7906 64.5859C48.8466 64.8116 48.9292 64.9986 49.0382 65.1469C49.1472 65.2953 49.2748 65.4081 49.4212 65.4854C49.5707 65.5596 49.728 65.5998 49.893 65.606C49.9148 65.606 49.9382 65.606 49.9631 65.606C50.1406 65.609 50.2932 65.5673 50.4208 65.4808C50.5672 65.3819 50.6856 65.252 50.7759 65.0913C50.8693 64.9275 50.9378 64.7451 50.9814 64.5442C51.0281 64.3433 51.0515 64.1408 51.0515 63.9368C51.0515 63.7668 51.0266 63.5813 50.9767 63.3804C50.93 63.1795 50.8584 62.994 50.7618 62.824C50.6653 62.654 50.5485 62.5134 50.4115 62.4021C50.2869 62.3032 50.1468 62.2537 49.9911 62.2537C49.9724 62.2537 49.9553 62.2537 49.9397 62.2537C49.6221 62.2723 49.3558 62.4098 49.1409 62.6664C48.9261 62.9229 48.7968 63.2985 48.7532 63.7931Z" fill="white"/>
<path d="M53.3637 60.8674C53.5475 60.8365 53.7281 60.8195 53.9056 60.8164C54.0862 60.8133 54.2653 60.8118 54.4428 60.8118C54.5891 60.8118 54.7324 60.8133 54.8725 60.8164C55.0158 60.8195 55.1606 60.8241 55.3069 60.8303L55.6199 64.572C55.7538 64.3494 55.9095 64.0836 56.087 63.7745C56.2677 63.4623 56.4405 63.164 56.6055 62.8797C56.7955 62.5427 56.987 62.2012 57.1801 61.855L57.8294 61.8457C57.9633 62.0806 58.0879 62.3109 58.2031 62.5366C58.3183 62.7591 58.4289 62.9832 58.5348 63.2089C58.6406 63.4345 58.7465 63.6617 58.8524 63.8904C58.9614 64.1161 59.0766 64.3494 59.1981 64.5905C59.2822 63.9198 59.3725 63.2738 59.469 62.6525C59.5687 62.0312 59.6636 61.3851 59.754 60.7144C60.0529 60.7206 60.3488 60.7283 60.6415 60.7376C60.9373 60.7438 61.2285 60.7716 61.515 60.821C61.3998 61.3589 61.2861 61.9075 61.174 62.467C61.0619 63.0265 60.9545 63.5875 60.8517 64.1501C60.752 64.7096 60.6602 65.2613 60.5761 65.8053C60.492 66.3493 60.4219 66.8779 60.3659 67.391C60.2195 67.4034 60.0809 67.4142 59.9501 67.4235C59.8194 67.4328 59.6808 67.4374 59.5344 67.4374C59.2479 67.4374 58.9614 67.4281 58.6749 67.4096C58.6033 67.2396 58.5176 67.051 58.418 66.8439C58.3214 66.6337 58.2171 66.4127 58.105 66.1809C57.9929 65.9491 57.8761 65.711 57.7547 65.4669C57.6332 65.2227 57.5118 64.9785 57.3903 64.7343C57.0914 65.2288 56.8017 65.7018 56.5215 66.1531C56.2412 66.6044 55.9983 67.0325 55.7928 67.4374C55.6339 67.4436 55.4969 67.4482 55.3817 67.4513C55.3443 67.4513 55.3069 67.4513 55.2696 67.4513C55.198 67.4513 55.1248 67.4498 55.05 67.4467C54.9442 67.4405 54.832 67.4328 54.7137 67.4235C54.5985 67.4142 54.4646 67.4003 54.312 67.3818C54.203 66.2813 54.066 65.1933 53.9009 64.1176C53.739 63.0389 53.5599 61.9554 53.3637 60.8674Z" fill="white"/>
<path d="M62.3044 60.8859C63.0394 60.8612 63.7634 60.8427 64.4766 60.8303C65.1897 60.8179 65.9122 60.8118 66.644 60.8118V62.3279C66.5662 62.3217 66.454 62.3171 66.3077 62.314C66.1644 62.3109 66.0134 62.3078 65.8546 62.3047C65.6989 62.3016 65.5509 62.3001 65.4108 62.3001C65.2707 62.3001 65.1663 62.3001 65.0978 62.3001C65.0138 62.3063 64.9048 62.3109 64.7709 62.314C64.6369 62.3171 64.5061 62.3217 64.3785 62.3279C64.2259 62.3341 64.0671 62.3418 63.902 62.3511L63.9207 63.4129C64.0733 63.4067 64.2165 63.3974 64.3504 63.385C64.4657 63.3727 64.5824 63.3634 64.7008 63.3572C64.8191 63.351 64.9094 63.3449 64.9717 63.3387C65.062 63.3325 65.1726 63.3263 65.3034 63.3201C65.375 63.317 65.4435 63.314 65.5089 63.3109C65.5587 63.3109 65.6054 63.3124 65.649 63.3155L65.7191 64.6462C65.635 64.6647 65.5229 64.6833 65.3828 64.7018C65.2426 64.7173 65.0932 64.7281 64.9343 64.7343C64.7755 64.7405 64.6136 64.7436 64.4485 64.7436C64.2866 64.7436 64.1418 64.7436 64.0141 64.7436V65.7126H66.6767V67.4003C66.5428 67.4003 66.356 67.3988 66.1162 67.3957C65.8764 67.3926 65.6272 67.3895 65.3688 67.3864C65.1103 67.3833 64.8612 67.3818 64.6214 67.3818C64.3816 67.3818 64.1947 67.3818 64.0608 67.3818L62.3418 67.4096C62.348 67.2303 62.3527 66.9737 62.3558 66.6399C62.3558 66.5719 62.3558 66.5039 62.3558 66.4359C62.3558 66.1484 62.3512 65.8208 62.3418 65.4529C62.3356 65.1624 62.3325 64.8363 62.3325 64.4746C62.3325 64.1099 62.3309 63.7282 62.3278 63.3294C62.3247 62.9276 62.3216 62.518 62.3185 62.1007C62.3153 61.6834 62.3107 61.2785 62.3044 60.8859Z" fill="white"/>
<path d="M67.5129 62.6803C67.5129 62.5907 67.5129 62.467 67.5129 62.3094C67.5129 62.1517 67.5144 61.9864 67.5175 61.8133C67.5206 61.6402 67.5253 61.4717 67.5315 61.3079C67.5378 61.141 67.5409 61.0003 67.5409 60.8859C67.6748 60.8859 67.8305 60.8844 68.008 60.8813C68.1886 60.8782 68.3786 60.8736 68.5779 60.8674C68.7803 60.8612 68.9796 60.855 69.1758 60.8489C69.3751 60.8427 69.5604 60.8334 69.7317 60.821C69.8407 60.8149 69.973 60.8102 70.1287 60.8071C70.2845 60.804 70.4106 60.8025 70.5071 60.8025C70.8652 60.8025 71.1673 60.8705 71.4133 61.0065C71.6625 61.1425 71.8664 61.311 72.0253 61.5119C72.1872 61.7097 72.3024 61.9214 72.3709 62.1471C72.4426 62.3696 72.4784 62.5706 72.4784 62.7498C72.4784 62.9971 72.4503 63.2336 72.3943 63.4592C72.3413 63.6818 72.2635 63.8858 72.1607 64.0713C72.058 64.2536 71.935 64.4113 71.7917 64.5442C71.6484 64.6771 71.4912 64.7806 71.3199 64.8548L71.2031 64.9012C71.253 65.0217 71.3152 65.1593 71.39 65.3138C71.4647 65.4653 71.5363 65.6137 71.6049 65.759C71.7201 65.9815 71.8711 66.2273 72.058 66.4962C72.2479 66.762 72.4612 67 72.6979 67.2102C72.5951 67.2535 72.4706 67.2983 72.3242 67.3447C72.1779 67.3879 72.0315 67.4297 71.8851 67.4698C71.7388 67.5131 71.6002 67.5518 71.4694 67.5858C71.3386 67.6198 71.2405 67.646 71.1751 67.6646C71.0972 67.5811 70.9898 67.4559 70.8528 67.289C70.7189 67.1221 70.585 66.9181 70.4511 66.677C70.3732 66.5503 70.2969 66.4158 70.2222 66.2736C70.1505 66.1314 70.0805 65.9892 70.012 65.8471C69.9466 65.7049 69.8827 65.5673 69.8204 65.4344C69.7613 65.3015 69.7099 65.1778 69.6663 65.0635L69.2459 65.0542C69.2459 65.2366 69.249 65.4282 69.2552 65.6291C69.2615 65.8301 69.2708 66.031 69.2833 66.2319C69.2957 66.4297 69.3097 66.6244 69.3253 66.8161C69.3409 67.0046 69.358 67.1777 69.3767 67.3354L67.6343 67.4096C67.6156 67.1747 67.6001 66.8578 67.5876 66.4591C67.5751 66.0603 67.5642 65.6384 67.5549 65.1933C67.5456 64.7482 67.5378 64.3031 67.5315 63.858C67.5253 63.4098 67.5191 63.0172 67.5129 62.6803ZM69.1852 62.1517C69.1852 62.4237 69.1883 62.6695 69.1945 62.8889C69.2007 63.0775 69.207 63.2614 69.2132 63.4407C69.2194 63.6169 69.2303 63.7343 69.2459 63.7931C69.2957 63.8054 69.358 63.8147 69.4327 63.8209C69.5106 63.8271 69.5869 63.8317 69.6616 63.8348C69.7395 63.8379 69.8111 63.8394 69.8765 63.8394C69.945 63.8394 69.9995 63.8394 70.04 63.8394C70.2767 63.8271 70.462 63.7482 70.5959 63.603C70.7329 63.4577 70.8014 63.2645 70.8014 63.0234C70.8014 62.9987 70.7952 62.9415 70.7827 62.8518C70.7703 62.7622 70.7422 62.6679 70.6986 62.569C70.655 62.467 70.5896 62.3743 70.5024 62.2908C70.4152 62.2043 70.3016 62.1548 70.1614 62.1425C70.0556 62.1332 69.9481 62.1285 69.8391 62.1285C69.7831 62.1285 69.727 62.1301 69.671 62.1332C69.5028 62.1394 69.3409 62.1455 69.1852 62.1517Z" fill="white"/>
<path d="M45.3051 17.0243C45.3051 17.0243 50.5668 17.2278 56.2384 21.026L43.8018 23.6713L45.3051 17.0243Z" fill="#231F20"/>
<path d="M48.585 17.6348C48.585 17.6348 36.2166 13.2261 22.55 21.7044L30.75 22.1792C30.75 22.1792 20.705 25.9774 16.4 33.5739L24.9416 33.0992C24.9416 33.0992 15.17 37.2366 13.3933 43.5444L28.7 42.5948L48.585 17.6348Z" fill="#231F20"/>
<path d="M48.2434 52.8365C48.5851 44.3583 43.2551 37.8469 43.2551 37.8469C49.7467 43.8835 57.9467 40.0174 57.9467 40.0174C55.5551 43.7478 59.5184 45.9183 61.9784 45.9861C64.4384 46.0539 68.5384 37.7791 68.5384 37.7791L46.7401 20.4156L50.7717 15.3965C50.7717 15.3965 31.6384 11.0556 24.5317 51.2765L48.2434 52.8365Z" fill="#FFB600"/>
<path d="M51.2933 33.2612C52.9182 32.1036 52.7727 29.1422 50.9682 26.6468C49.1637 24.1513 46.3836 23.0669 44.7587 24.2245C43.1337 25.3822 43.2792 28.3436 45.0837 30.839C46.8882 33.3344 49.6683 34.4189 51.2933 33.2612Z" fill="white"/>
<path d="M50.6769 31.0189C51.4127 30.4947 51.3492 29.1569 50.5349 28.0309C49.7207 26.905 48.4642 26.4171 47.7283 26.9414C46.9925 27.4656 47.0561 28.8033 47.8703 29.9293C48.6845 31.0553 49.941 31.5431 50.6769 31.0189Z" fill="#00C3F7"/>
<path d="M64.9454 40.4638C65.3302 39.6915 65.2034 38.8501 64.6621 38.5844C64.1208 38.3187 63.3701 38.7294 62.9853 39.5017C62.6005 40.274 62.7274 41.1155 63.2686 41.3811C63.8099 41.6468 64.5606 41.2361 64.9454 40.4638Z" fill="#C17C02"/>
</svg>
