<svg width="82" height="78" viewBox="0 0 82 78" fill="none" xmlns="http://www.w3.org/2000/svg">
<path d="M47.8333 0H34.1667C15.3067 0 0 15.193 0 33.913V78H82V33.913C82 15.193 66.6933 0 47.8333 0Z" fill="white"/>
<path d="M46.9449 5.4261H35.0549C18.7232 5.4261 5.46655 18.5844 5.46655 34.7948V72.5739H76.5332V34.7948C76.5332 18.5844 63.2766 5.4261 46.9449 5.4261Z" fill="#F26B1A"/>
<path d="M28.4031 67.1175L28.66 65.5596C28.9154 65.6554 29.1723 65.7481 29.4307 65.8378C29.6892 65.9243 29.9555 65.9676 30.2295 65.9676C30.3012 65.9676 30.3883 65.9645 30.4911 65.9583C30.597 65.9521 30.6982 65.9351 30.7947 65.9073C30.8913 65.8764 30.9738 65.8362 31.0423 65.7868C31.1139 65.7373 31.1498 65.6647 31.1498 65.5689C31.1498 65.4483 31.0844 65.337 30.9536 65.235C30.8228 65.133 30.6593 65.0295 30.4631 64.9244C30.27 64.8162 30.0582 64.6987 29.8278 64.572C29.5974 64.4453 29.384 64.2984 29.1878 64.1315C28.9948 63.9615 28.8328 63.7668 28.702 63.5473C28.5712 63.3248 28.5058 63.0651 28.5058 62.7684C28.5058 62.4006 28.579 62.0853 28.7254 61.8225C28.8749 61.5598 29.0711 61.3481 29.314 61.1873C29.56 61.0235 29.8387 60.9045 30.1501 60.8303C30.4646 60.753 30.7838 60.7144 31.1077 60.7144C31.4658 60.7144 31.8364 60.7515 32.2195 60.8257C32.6025 60.8968 32.956 61.0065 33.2798 61.1549L32.9855 62.6061C32.8267 62.5443 32.6788 62.4886 32.5418 62.4392C32.4048 62.3866 32.2662 62.3449 32.126 62.314C31.989 62.28 31.8473 62.2553 31.701 62.2398C31.5546 62.2244 31.3958 62.2166 31.2245 62.2166C31.1466 62.2166 31.0563 62.2197 30.9536 62.2259C30.8539 62.2321 30.7574 62.2506 30.6639 62.2815C30.5705 62.3125 30.4942 62.3588 30.4351 62.4206C30.3759 62.4794 30.3463 62.5597 30.3463 62.6617C30.3463 62.8008 30.4179 62.9291 30.5612 63.0466C30.7044 63.164 30.8835 63.28 31.0984 63.3943C31.3164 63.5087 31.5499 63.6308 31.7991 63.7606C32.0482 63.8904 32.2802 64.0419 32.4951 64.215C32.7131 64.3881 32.8937 64.589 33.0369 64.8177C33.1802 65.0465 33.2518 65.3154 33.2518 65.6245C33.2518 65.9336 33.1833 66.2041 33.0463 66.4359C32.9093 66.6677 32.7302 66.8609 32.5091 67.0155C32.2911 67.17 32.0451 67.2859 31.771 67.3632C31.497 67.4374 31.2229 67.4745 30.9489 67.4745C30.5409 67.4745 30.1096 67.4482 29.655 67.3957C29.2034 67.3431 28.7861 67.2504 28.4031 67.1175Z" fill="white"/>
<path d="M34.116 67.4096C34.116 67.289 34.1191 67.1298 34.1253 66.932C34.1347 66.7311 34.1425 66.5163 34.1487 66.2875C34.1549 66.0557 34.1596 65.8177 34.1627 65.5735C34.1658 65.3293 34.1705 65.1006 34.1767 64.8873C34.1829 64.6709 34.1861 64.4808 34.1861 64.317C34.1861 64.1501 34.1861 64.0295 34.1861 63.9553L34.1253 61.039C34.2156 61.0204 34.3262 60.9972 34.457 60.9694C34.5878 60.9385 34.7108 60.9169 34.826 60.9045L35.7462 60.8118C35.7961 60.8829 35.863 60.9787 35.9471 61.0992C36.0343 61.2167 36.1215 61.3372 36.2087 61.4609C36.2959 61.5845 36.3753 61.6989 36.4469 61.804C36.5217 61.9091 36.5715 61.9802 36.5964 62.0173C36.6213 62.0544 36.6587 62.11 36.7085 62.1842C36.7615 62.2553 36.8237 62.3372 36.8954 62.4299C36.9701 62.5226 37.0464 62.62 37.1243 62.722C37.2052 62.8209 37.2877 62.9214 37.3718 63.0234C37.5618 63.2645 37.7689 63.5241 37.9931 63.8023C37.9993 63.4283 38.0056 63.0868 38.0118 62.7777C38.0118 62.6447 38.0133 62.5118 38.0165 62.3789C38.0196 62.246 38.0227 62.1208 38.0258 62.0034C38.0289 61.8859 38.0305 61.7823 38.0305 61.6927C38.0305 61.6 38.0305 61.5304 38.0305 61.4841C38.0305 61.3635 38.0305 61.2507 38.0305 61.1456C38.0305 61.0374 38.0242 60.9385 38.0118 60.8489L39.8663 60.7654C39.8538 60.8427 39.846 60.9169 39.8429 60.9879C39.8398 61.059 39.8351 61.1332 39.8289 61.2105C39.8227 61.2538 39.8164 61.3589 39.8102 61.5258C39.804 61.6896 39.7946 61.889 39.7822 62.1239C39.7697 62.3557 39.7573 62.6123 39.7448 62.8936C39.7324 63.1749 39.7183 63.453 39.7028 63.7282C39.6903 64.0002 39.6794 64.2598 39.6701 64.5071C39.6607 64.7513 39.6561 64.9568 39.6561 65.1238C39.6498 65.3185 39.6452 65.524 39.642 65.7404C39.6389 65.9537 39.6358 66.1623 39.6327 66.3663C39.6296 66.5673 39.628 66.7527 39.628 66.9227C39.628 67.0896 39.628 67.2241 39.628 67.3261C39.5377 67.357 39.4365 67.3848 39.3244 67.4096C39.2154 67.4343 39.1251 67.4528 39.0535 67.4652L38.5677 67.544L38.1753 66.8903C38.1192 66.7945 38.0087 66.6306 37.8436 66.3988C37.6817 66.167 37.4902 65.9011 37.2691 65.6013C37.0511 65.3015 36.8191 64.9847 36.573 64.6508C36.327 64.3139 36.095 63.9955 35.877 63.6957C35.8957 64.0172 35.9128 64.3124 35.9284 64.5813C35.9409 64.81 35.9502 65.0326 35.9564 65.2489C35.9627 65.4622 35.9689 65.606 35.9751 65.6801C35.9751 65.7512 35.9782 65.8501 35.9845 65.9769C35.9907 66.1036 35.9969 66.235 36.0032 66.371C36.0094 66.507 36.0141 66.6368 36.0172 66.7605C36.0203 66.8841 36.0218 66.9737 36.0218 67.0294V67.3076C35.9066 67.3137 35.7634 67.3215 35.5921 67.3307C35.4208 67.34 35.2433 67.3493 35.0596 67.3586C34.8789 67.3678 34.7046 67.3771 34.5364 67.3864C34.3713 67.3957 34.2312 67.4034 34.116 67.4096Z" fill="white"/>
<path d="M40.3567 67.238L41.4218 64.2567C41.4778 64.0991 41.5417 63.9182 41.6133 63.7142C41.688 63.5071 41.7643 63.2939 41.8422 63.0744C41.9232 62.8518 42.0026 62.6262 42.0804 62.3975C42.1614 62.1687 42.2392 61.9554 42.314 61.7576C42.3887 61.5567 42.4541 61.3759 42.5102 61.2151C42.5662 61.0544 42.6114 60.9292 42.6456 60.8396C42.7359 60.8396 42.8558 60.8396 43.0053 60.8396C43.1548 60.8396 43.3105 60.8396 43.4724 60.8396C43.6344 60.8396 43.7963 60.8411 43.9583 60.8442C44.1202 60.8473 44.2588 60.8519 44.374 60.8581C44.4581 61.1178 44.5562 61.4161 44.6683 61.753C44.7804 62.0868 44.8956 62.4407 45.0139 62.8147C45.1354 63.1888 45.2615 63.5736 45.3923 63.9693C45.5231 64.3649 45.6508 64.7575 45.7754 65.1469C45.8999 65.5364 46.0198 65.9151 46.135 66.2829C46.2503 66.6507 46.3561 66.9892 46.4527 67.2983C46.1537 67.3477 45.8548 67.3879 45.5558 67.4188C45.26 67.4498 44.9626 67.4915 44.6636 67.544C44.6449 67.3029 44.6138 67.0881 44.5702 66.8995C44.5297 66.7079 44.4814 66.4946 44.4254 66.2597L42.3467 66.2412C42.2906 66.4575 42.2361 66.6538 42.1832 66.83C42.1396 66.9815 42.0991 67.1329 42.0617 67.2844C42.0275 67.4328 42.0041 67.5348 41.9917 67.5904L40.3567 67.238ZM42.6643 64.8641H44.2339L43.5519 62.1795L42.6643 64.8641Z" fill="white"/>
<path d="M47.0786 61.1317C47.0786 61.0946 47.0786 61.059 47.0786 61.025C47.0786 60.9539 47.0802 60.889 47.0833 60.8303L48.9191 60.821L48.8163 67.3818H47.2094C47.2094 67.2736 47.2079 67.1329 47.2048 66.9598C47.2016 66.7867 47.197 66.6013 47.1907 66.4034C47.1845 66.2025 47.1798 65.9954 47.1767 65.7821C47.1736 65.5689 47.1689 65.3679 47.1627 65.1794C47.1565 64.9877 47.1518 64.8162 47.1487 64.6647C47.1456 64.5133 47.144 64.4004 47.144 64.3263L47.0833 61.4562C47.0833 61.3511 47.0817 61.243 47.0786 61.1317Z" fill="white"/>
<path d="M49.5917 67.4188C49.598 67.2025 49.6042 66.949 49.6104 66.6584C49.6167 66.3679 49.6213 66.0696 49.6244 65.7636C49.6276 65.4545 49.6307 65.1516 49.6338 64.8548C49.6369 64.5581 49.6416 64.2923 49.6478 64.0573C49.654 63.7915 49.6571 63.5164 49.6571 63.232C49.6571 62.9477 49.6571 62.6679 49.6571 62.3928C49.6571 62.1177 49.6571 61.8473 49.6571 61.5814C49.6571 61.3156 49.654 61.0683 49.6478 60.8396L51.4883 60.8025C51.4696 61.1641 51.4509 61.5242 51.4322 61.8828C51.4166 62.2383 51.4042 62.5659 51.3948 62.8658C51.3855 63.1656 51.3777 63.4252 51.3715 63.6447C51.3653 63.8642 51.3621 64.0203 51.3621 64.113C51.359 64.1717 51.3575 64.2474 51.3575 64.3402C51.3575 64.3896 51.3575 64.4391 51.3575 64.4885C51.3606 64.6493 51.3621 64.8038 51.3621 64.9522V65.5225C51.5801 65.5101 51.8262 65.4931 52.1002 65.4715C52.3369 65.4591 52.6187 65.4437 52.9457 65.4251C53.2727 65.4066 53.6401 65.3911 54.0481 65.3788C54.0481 65.524 54.0481 65.6693 54.0481 65.8146C54.0481 65.9599 54.045 66.0928 54.0388 66.2133L53.9827 67.4003C53.7585 67.3879 53.5389 67.3771 53.3241 67.3678C53.1123 67.3586 52.8959 67.3539 52.6748 67.3539C52.5595 67.3539 52.3649 67.3555 52.0909 67.3586C51.8168 67.3617 51.521 67.3663 51.2033 67.3725C50.8888 67.3787 50.582 67.3864 50.2831 67.3957C49.9872 67.4049 49.7568 67.4127 49.5917 67.4188Z" fill="white"/>
<path d="M33.2098 44.3583C33.2098 44.3583 30.6814 37.9827 32.7314 30.3861L29.4514 29.5044C29.4514 29.5044 28.5631 42.934 25.5564 42.0522C24.4631 41.7131 21.6614 39.407 23.1648 29.8435L19.6114 28.0801C19.6114 28.0801 15.8531 48.767 24.9414 51.0731C34.0298 53.3792 67.6498 51.9548 67.6498 51.9548C67.6498 51.9548 47.9014 42.8661 33.2098 44.3583Z" fill="#FFDA00"/>
<path d="M20.91 32.8957C23.6272 32.8957 25.83 30.5878 25.83 27.7409C25.83 24.894 23.6272 22.5861 20.91 22.5861C18.1927 22.5861 15.99 24.894 15.99 27.7409C15.99 30.5878 18.1927 32.8957 20.91 32.8957Z" fill="white"/>
<path d="M20.9099 29.7757C21.9666 29.7757 22.8233 28.8647 22.8233 27.7409C22.8233 26.6171 21.9666 25.7061 20.9099 25.7061C19.8532 25.7061 18.9966 26.6171 18.9966 27.7409C18.9966 28.8647 19.8532 29.7757 20.9099 29.7757Z" fill="#23B0E2"/>
<path d="M31.7066 34.1167C34.4239 34.1167 36.6266 31.8088 36.6266 28.9619C36.6266 26.115 34.4239 23.8071 31.7066 23.8071C28.9894 23.8071 26.7866 26.115 26.7866 28.9619C26.7866 31.8088 28.9894 34.1167 31.7066 34.1167Z" fill="white"/>
<path d="M31.7065 30.9966C32.7633 30.9966 33.6199 30.0856 33.6199 28.9618C33.6199 27.8381 32.7633 26.9271 31.7065 26.9271C30.6498 26.9271 29.7932 27.8381 29.7932 28.9618C29.7932 30.0856 30.6498 30.9966 31.7065 30.9966Z" fill="#23B0E2"/>
<path d="M55.2133 52.2261L33.21 44.3583C33.21 44.3583 35.5333 23.4001 53.1633 27.1983C70.7933 30.9966 66.3516 50.4627 55.2133 52.2261Z" fill="#FFAA00"/>
<path d="M45.8516 48.428C45.8516 48.428 49.5416 34.8628 54.1882 36.2193C58.8349 37.5758 57.5366 40.4923 56.5116 43.4767C55.4866 46.461 52.8216 47.1393 51.4549 46.461C50.1566 45.7827 52.7532 40.8314 52.7532 40.8314" stroke="#774900" stroke-miterlimit="10"/>
</svg>
