<svg width="82" height="78" viewBox="0 0 82 78" fill="none" xmlns="http://www.w3.org/2000/svg">
<path d="M47.8333 0H34.1667C15.3067 0 0 15.193 0 33.913V78H82V33.913C82 15.193 66.6933 0 47.8333 0Z" fill="white"/>
<path d="M46.9449 5.42609H35.0549C18.7232 5.42609 5.46655 18.5844 5.46655 34.7948V72.5739H76.5332V34.7948C76.5332 18.5844 63.2766 5.42609 46.9449 5.42609Z" fill="#1CD1DA"/>
<path d="M14.1091 67.1174L14.366 65.5595C14.6214 65.6553 14.8783 65.7481 15.1368 65.8377C15.3953 65.9242 15.6615 65.9675 15.9356 65.9675C16.0072 65.9675 16.0944 65.9644 16.1972 65.9582C16.303 65.9521 16.4043 65.9351 16.5008 65.9072C16.5973 65.8763 16.6799 65.8361 16.7484 65.7867C16.82 65.7372 16.8558 65.6646 16.8558 65.5688C16.8558 65.4482 16.7904 65.3369 16.6596 65.2349C16.5288 65.1329 16.3653 65.0294 16.1691 64.9243C15.9761 64.8161 15.7643 64.6986 15.5339 64.5719C15.3034 64.4452 15.0901 64.2984 14.8939 64.1314C14.7008 63.9614 14.5389 63.7667 14.4081 63.5472C14.2773 63.3247 14.2119 63.065 14.2119 62.7683C14.2119 62.4005 14.2851 62.0852 14.4314 61.8224C14.5809 61.5597 14.7771 61.348 15.02 61.1872C15.266 61.0234 15.5448 60.9044 15.8562 60.8302C16.1707 60.7529 16.4899 60.7143 16.8138 60.7143C17.1719 60.7143 17.5425 60.7514 17.9255 60.8256C18.3086 60.8967 18.662 61.0064 18.9859 61.1548L18.6916 62.606C18.5328 62.5442 18.3849 62.4886 18.2478 62.4391C18.1108 62.3866 17.9722 62.3448 17.8321 62.3139C17.6951 62.2799 17.5534 62.2552 17.407 62.2397C17.2606 62.2243 17.1018 62.2165 16.9306 62.2165C16.8527 62.2165 16.7624 62.2196 16.6596 62.2258C16.56 62.232 16.4634 62.2505 16.37 62.2815C16.2766 62.3124 16.2003 62.3587 16.1411 62.4206C16.0819 62.4793 16.0524 62.5597 16.0524 62.6617C16.0524 62.8008 16.124 62.929 16.2672 63.0465C16.4105 63.1639 16.5896 63.2799 16.8044 63.3942C17.0224 63.5086 17.256 63.6307 17.5051 63.7605C17.7542 63.8903 17.9862 64.0418 18.2011 64.2149C18.4191 64.388 18.5997 64.5889 18.743 64.8177C18.8862 65.0464 18.9579 65.3153 18.9579 65.6244C18.9579 65.9335 18.8893 66.204 18.7523 66.4358C18.6153 66.6676 18.4362 66.8608 18.2151 67.0154C17.9971 67.1699 17.7511 67.2858 17.4771 67.3631C17.203 67.4373 16.929 67.4744 16.6549 67.4744C16.247 67.4744 15.8157 67.4481 15.361 67.3956C14.9095 67.343 14.4922 67.2503 14.1091 67.1174Z" fill="white"/>
<path d="M19.822 67.4095C19.822 67.2889 19.8252 67.1297 19.8314 66.9319C19.8407 66.731 19.8485 66.5162 19.8547 66.2874C19.861 66.0556 19.8656 65.8176 19.8688 65.5734C19.8719 65.3292 19.8765 65.1005 19.8828 64.8872C19.889 64.6708 19.8921 64.4807 19.8921 64.3169C19.8921 64.15 19.8921 64.0294 19.8921 63.9553L19.8314 61.0389C19.9217 61.0203 20.0322 60.9971 20.163 60.9693C20.2938 60.9384 20.4168 60.9168 20.5321 60.9044L21.4523 60.8117C21.5021 60.8828 21.5691 60.9786 21.6532 61.0991C21.7404 61.2166 21.8275 61.3371 21.9147 61.4608C22.0019 61.5844 22.0814 61.6988 22.153 61.8039C22.2277 61.909 22.2775 61.9801 22.3025 62.0172C22.3274 62.0543 22.3647 62.1099 22.4146 62.1841C22.4675 62.2552 22.5298 62.3371 22.6014 62.4298C22.6762 62.5226 22.7525 62.6199 22.8303 62.7219C22.9113 62.8208 22.9938 62.9213 23.0779 63.0233C23.2678 63.2644 23.4749 63.5241 23.6992 63.8022C23.7054 63.4282 23.7116 63.0867 23.7178 62.7776C23.7178 62.6447 23.7194 62.5117 23.7225 62.3788C23.7256 62.2459 23.7287 62.1207 23.7319 62.0033C23.735 61.8858 23.7365 61.7823 23.7365 61.6926C23.7365 61.5999 23.7365 61.5303 23.7365 61.484C23.7365 61.3634 23.7365 61.2506 23.7365 61.1455C23.7365 61.0373 23.7303 60.9384 23.7178 60.8488L25.5723 60.7653C25.5599 60.8426 25.5521 60.9168 25.549 60.9879C25.5458 61.059 25.5412 61.1331 25.5349 61.2104C25.5287 61.2537 25.5225 61.3588 25.5163 61.5257C25.51 61.6895 25.5007 61.8889 25.4882 62.1238C25.4758 62.3556 25.4633 62.6122 25.4509 62.8935C25.4384 63.1748 25.4244 63.453 25.4088 63.7281C25.3964 64.0001 25.3855 64.2597 25.3761 64.507C25.3668 64.7512 25.3621 64.9567 25.3621 65.1237C25.3559 65.3184 25.3512 65.524 25.3481 65.7403C25.345 65.9536 25.3419 66.1623 25.3388 66.3663C25.3356 66.5672 25.3341 66.7526 25.3341 66.9226C25.3341 67.0896 25.3341 67.224 25.3341 67.326C25.2438 67.3569 25.1426 67.3848 25.0305 67.4095C24.9215 67.4342 24.8311 67.4528 24.7595 67.4651L24.2737 67.5439L23.8813 66.8902C23.8253 66.7944 23.7147 66.6305 23.5497 66.3987C23.3877 66.1669 23.1962 65.9011 22.9751 65.6012C22.7571 65.3014 22.5251 64.9846 22.2791 64.6507C22.0331 64.3138 21.8011 63.9954 21.5831 63.6956C21.6018 64.0171 21.6189 64.3123 21.6345 64.5812C21.6469 64.8099 21.6563 65.0325 21.6625 65.2489C21.6687 65.4621 21.675 65.6059 21.6812 65.68C21.6812 65.7511 21.6843 65.8501 21.6905 65.9768C21.6968 66.1035 21.703 66.2349 21.7092 66.3709C21.7154 66.5069 21.7201 66.6367 21.7232 66.7604C21.7263 66.884 21.7279 66.9736 21.7279 67.0293V67.3075C21.6127 67.3137 21.4694 67.3214 21.2981 67.3307C21.1269 67.3399 20.9494 67.3492 20.7656 67.3585C20.585 67.3678 20.4106 67.377 20.2424 67.3863C20.0774 67.3956 19.9373 67.4033 19.822 67.4095Z" fill="white"/>
<path d="M26.273 64.354C26.273 63.8038 26.3493 63.3061 26.5019 62.861C26.6576 62.4128 26.8709 62.0295 27.1418 61.7112C27.4128 61.3897 27.7366 61.144 28.1135 60.974C28.4934 60.8009 28.9107 60.7143 29.3653 60.7143C29.8698 60.7143 30.298 60.8039 30.6499 60.9832C31.0049 61.1594 31.293 61.4052 31.5141 61.7204C31.7383 62.0326 31.9003 62.4051 31.9999 62.8378C32.0996 63.2706 32.1494 63.7435 32.1494 64.2566C32.1494 64.7265 32.0824 65.1577 31.9485 65.5502C31.8146 65.9428 31.6153 66.2813 31.3506 66.5656C31.0859 66.85 30.7543 67.071 30.3556 67.2287C29.957 67.3863 29.4899 67.4651 28.9543 67.4651C28.5152 67.4651 28.129 67.3801 27.7958 67.2101C27.4626 67.0401 27.1823 66.8114 26.955 66.5239C26.7308 66.2333 26.5611 65.9026 26.4458 65.5317C26.3306 65.1577 26.273 64.7651 26.273 64.354ZM28.0434 63.793C28.0309 63.9043 28.0247 64.0093 28.0247 64.1083C28.0247 64.2844 28.0434 64.4436 28.0808 64.5858C28.1368 64.8115 28.2193 64.9985 28.3283 65.1468C28.4373 65.2952 28.565 65.408 28.7114 65.4853C28.8609 65.5595 29.0181 65.5997 29.1832 65.6059C29.205 65.6059 29.2283 65.6059 29.2532 65.6059C29.4307 65.609 29.5833 65.5672 29.711 65.4807C29.8574 65.3818 29.9757 65.2519 30.066 65.0912C30.1595 64.9274 30.228 64.745 30.2716 64.5441C30.3183 64.3432 30.3416 64.1407 30.3416 63.9367C30.3416 63.7667 30.3167 63.5812 30.2669 63.3803C30.2202 63.1794 30.1486 62.9939 30.052 62.8239C29.9555 62.6539 29.8387 62.5133 29.7017 62.402C29.5771 62.3031 29.437 62.2536 29.2813 62.2536C29.2626 62.2536 29.2455 62.2536 29.2299 62.2536C28.9122 62.2722 28.646 62.4097 28.4311 62.6663C28.2162 62.9228 28.087 63.2984 28.0434 63.793Z" fill="white"/>
<path d="M32.6539 60.8673C32.8376 60.8364 33.0182 60.8194 33.1958 60.8163C33.3764 60.8132 33.5554 60.8117 33.7329 60.8117C33.8793 60.8117 34.0226 60.8132 34.1627 60.8163C34.3059 60.8194 34.4508 60.824 34.5971 60.8302L34.9101 64.5719C35.044 64.3494 35.1997 64.0835 35.3772 63.7744C35.5578 63.4622 35.7307 63.1639 35.8957 62.8796C36.0857 62.5427 36.2772 62.2011 36.4703 61.8549L37.1196 61.8456C37.2535 62.0805 37.3781 62.3108 37.4933 62.5365C37.6085 62.759 37.7191 62.9831 37.8249 63.2088C37.9308 63.4344 38.0367 63.6616 38.1426 63.8903C38.2516 64.116 38.3668 64.3494 38.4882 64.5905C38.5723 63.9197 38.6626 63.2737 38.7592 62.6524C38.8588 62.0311 38.9538 61.3851 39.0441 60.7143C39.3431 60.7205 39.6389 60.7282 39.9317 60.7375C40.2275 60.7437 40.5187 60.7715 40.8052 60.8209C40.69 61.3588 40.5763 61.9074 40.4642 62.4669C40.3521 63.0264 40.2446 63.5874 40.1419 64.15C40.0422 64.7095 39.9503 65.2612 39.8663 65.8052C39.7822 66.3493 39.7121 66.8778 39.6561 67.3909C39.5097 67.4033 39.3711 67.4141 39.2403 67.4234C39.1095 67.4327 38.9709 67.4373 38.8246 67.4373C38.5381 67.4373 38.2516 67.428 37.9651 67.4095C37.8934 67.2395 37.8078 67.0509 37.7082 66.8438C37.6116 66.6336 37.5073 66.4126 37.3952 66.1808C37.2831 65.949 37.1663 65.711 37.0448 65.4668C36.9234 65.2226 36.8019 64.9784 36.6805 64.7342C36.3815 65.2288 36.0919 65.7017 35.8116 66.153C35.5314 66.6043 35.2885 67.0324 35.0829 67.4373C34.9241 67.4435 34.7871 67.4481 34.6719 67.4512C34.6345 67.4512 34.5971 67.4512 34.5597 67.4512C34.4881 67.4512 34.4149 67.4497 34.3402 67.4466C34.2343 67.4404 34.1222 67.4327 34.0039 67.4234C33.8887 67.4141 33.7547 67.4002 33.6021 67.3817C33.4932 66.2813 33.3561 65.1932 33.1911 64.1175C33.0291 63.0388 32.8501 61.9554 32.6539 60.8673Z" fill="white"/>
<path d="M41.4358 61.7622C41.4358 61.6818 41.4342 61.603 41.4311 61.5257C41.4311 61.4484 41.4327 61.3727 41.4358 61.2985C41.4389 61.1501 41.4436 61.028 41.4498 60.9322C41.5713 60.9199 41.7316 60.9075 41.9309 60.8951C42.1334 60.8828 42.3405 60.8719 42.5522 60.8627C42.7671 60.8534 42.9742 60.8457 43.1735 60.8395C43.3759 60.8333 43.5347 60.8302 43.65 60.8302L45.7754 60.8627L45.724 62.2722C45.615 62.266 45.492 62.2614 45.3549 62.2583C45.2179 62.2552 45.0825 62.2521 44.9486 62.249C44.88 62.249 44.8146 62.2475 44.7524 62.2444C44.687 62.2444 44.6262 62.2459 44.5702 62.249C44.4518 62.2521 44.3615 62.2536 44.2993 62.2536C44.2152 62.2598 44.0968 62.266 43.9442 62.2722C43.7916 62.2784 43.6391 62.2846 43.4865 62.2907C43.309 62.3031 43.1174 62.3124 42.9119 62.3186L42.982 63.64C43.1595 63.6338 43.3276 63.6307 43.4865 63.6307C43.6204 63.6307 43.7543 63.6307 43.8882 63.6307C44.0221 63.6307 44.1249 63.6276 44.1965 63.6214L44.8178 63.5751C44.824 63.6647 44.8333 63.7713 44.8458 63.895C44.8582 64.0155 44.8691 64.1423 44.8785 64.2752C44.8878 64.4081 44.8972 64.541 44.9065 64.6739C44.9159 64.8068 44.9205 64.9243 44.9205 65.0263C44.6403 65.0448 44.3818 65.0603 44.1451 65.0727C44.0423 65.0788 43.9396 65.0835 43.8368 65.0866C43.7371 65.0897 43.6437 65.0928 43.5565 65.0958C43.4724 65.0989 43.3961 65.1005 43.3276 65.1005C43.2622 65.1005 43.2171 65.0974 43.1922 65.0912C43.1922 65.2674 43.1937 65.4405 43.1968 65.6105C43.2031 65.7774 43.2124 65.9552 43.2249 66.1437C43.2404 66.3292 43.256 66.5254 43.2716 66.7325C43.2872 66.9366 43.3074 67.1653 43.3323 67.4188C43.1984 67.4249 43.0536 67.4327 42.8979 67.4419C42.7422 67.4512 42.588 67.4605 42.4354 67.4698C42.2828 67.4821 42.138 67.4929 42.001 67.5022C41.864 67.5115 41.7472 67.5192 41.6507 67.5254C41.632 67.4172 41.6211 67.292 41.618 67.1498C41.6149 67.0076 41.6102 66.8794 41.604 66.765C41.579 66.0572 41.5557 65.357 41.5339 64.6646C41.5152 63.9692 41.4903 63.2706 41.4591 62.5689C41.4529 62.4793 41.4482 62.3634 41.4451 62.2212C41.442 62.0759 41.4389 61.9229 41.4358 61.7622Z" fill="white"/>
<path d="M46.2845 67.4188C46.2907 67.2024 46.297 66.9489 46.3032 66.6584C46.3094 66.3678 46.3141 66.0695 46.3172 65.7635C46.3203 65.4544 46.3234 65.1515 46.3266 64.8547C46.3297 64.558 46.3343 64.2922 46.3406 64.0573C46.3468 63.7914 46.3499 63.5163 46.3499 63.232C46.3499 62.9476 46.3499 62.6678 46.3499 62.3927C46.3499 62.1176 46.3499 61.8472 46.3499 61.5813C46.3499 61.3155 46.3468 61.0682 46.3406 60.8395L48.181 60.8024C48.1624 61.1641 48.1437 61.5242 48.125 61.8827C48.1094 62.2382 48.097 62.5658 48.0876 62.8657C48.0783 63.1655 48.0705 63.4251 48.0643 63.6446C48.058 63.8641 48.0549 64.0202 48.0549 64.1129C48.0518 64.1716 48.0502 64.2474 48.0502 64.3401C48.0502 64.3895 48.0502 64.439 48.0502 64.4885C48.0534 64.6492 48.0549 64.8037 48.0549 64.9521V65.5224C48.2729 65.51 48.5189 65.493 48.793 65.4714C49.0296 65.459 49.3115 65.4436 49.6385 65.425C49.9654 65.4065 50.3329 65.391 50.7409 65.3787C50.7409 65.524 50.7409 65.6692 50.7409 65.8145C50.7409 65.9598 50.7378 66.0927 50.7315 66.2133L50.6755 67.4002C50.4513 67.3878 50.2317 67.377 50.0168 67.3678C49.8051 67.3585 49.5886 67.3538 49.3675 67.3538C49.2523 67.3538 49.0577 67.3554 48.7836 67.3585C48.5096 67.3616 48.2137 67.3662 47.8961 67.3724C47.5816 67.3786 47.2748 67.3863 46.9759 67.3956C46.68 67.4048 46.4496 67.4126 46.2845 67.4188Z" fill="white"/>
<path d="M51.166 67.2379L52.231 64.2566C52.287 64.099 52.3509 63.9182 52.4225 63.7142C52.4972 63.5071 52.5735 63.2938 52.6514 63.0743C52.7324 62.8518 52.8118 62.6261 52.8896 62.3974C52.9706 62.1686 53.0485 61.9554 53.1232 61.7575C53.1979 61.5566 53.2633 61.3758 53.3194 61.2151C53.3754 61.0543 53.4206 60.9291 53.4548 60.8395C53.5452 60.8395 53.6651 60.8395 53.8145 60.8395C53.964 60.8395 54.1197 60.8395 54.2817 60.8395C54.4436 60.8395 54.6055 60.841 54.7675 60.8441C54.9294 60.8472 55.068 60.8519 55.1832 60.858C55.2673 61.1177 55.3654 61.416 55.4775 61.7529C55.5896 62.0867 55.7048 62.4406 55.8232 62.8147C55.9446 63.1887 56.0707 63.5735 56.2015 63.9692C56.3323 64.3648 56.46 64.7574 56.5846 65.1468C56.7091 65.5363 56.829 65.915 56.9443 66.2828C57.0595 66.6506 57.1654 66.9891 57.2619 67.2982C56.9629 67.3477 56.664 67.3878 56.365 67.4188C56.0692 67.4497 55.7718 67.4914 55.4728 67.5439C55.4541 67.3028 55.423 67.088 55.3794 66.8995C55.3389 66.7078 55.2906 66.4945 55.2346 66.2596L53.1559 66.2411C53.0998 66.4574 53.0453 66.6537 52.9924 66.8299C52.9488 66.9814 52.9083 67.1328 52.8709 67.2843C52.8367 67.4327 52.8133 67.5347 52.8009 67.5903L51.166 67.2379ZM53.4735 64.864H55.0431L54.3611 62.1795L53.4735 64.864Z" fill="white"/>
<path d="M57.9392 67.3631L57.9719 60.8859L59.5601 60.7839L59.5274 63.0604L61.5594 60.6401L63.2037 61.2382L60.9055 63.7744L63.4139 67.275L61.4333 67.4744C61.4271 67.4744 61.399 67.4373 61.3492 67.3631C61.3025 67.2858 61.2402 67.1854 61.1624 67.0617C61.0876 66.9381 61.0004 66.799 60.9008 66.6445C60.8042 66.4899 60.7046 66.3307 60.6018 66.1669C60.3589 65.7805 60.088 65.3431 59.789 64.8547L59.8544 67.3631C59.7267 67.3755 59.5664 67.3863 59.3733 67.3956C59.1833 67.4048 59.0089 67.4095 58.8501 67.4095C58.7038 67.4095 58.5434 67.4048 58.369 67.3956C58.1977 67.3863 58.0544 67.3755 57.9392 67.3631Z" fill="white"/>
<path d="M63.9044 60.8859C64.6393 60.8611 65.3634 60.8426 66.0765 60.8302C66.7896 60.8179 67.5121 60.8117 68.2439 60.8117V62.3278C68.1661 62.3216 68.054 62.317 67.9076 62.3139C67.7644 62.3108 67.6133 62.3077 67.4545 62.3046C67.2988 62.3016 67.1509 62.3 67.0107 62.3C66.8706 62.3 66.7663 62.3 66.6978 62.3C66.6137 62.3062 66.5047 62.3108 66.3708 62.3139C66.2369 62.317 66.1061 62.3216 65.9784 62.3278C65.8258 62.334 65.667 62.3417 65.5019 62.351L65.5206 63.4128C65.6732 63.4066 65.8165 63.3973 65.9504 63.385C66.0656 63.3726 66.1824 63.3633 66.3007 63.3571C66.4191 63.351 66.5094 63.3448 66.5716 63.3386C66.662 63.3324 66.7725 63.3262 66.9033 63.32C66.9749 63.317 67.0434 63.3139 67.1088 63.3108C67.1587 63.3108 67.2054 63.3123 67.249 63.3154L67.319 64.6461C67.235 64.6646 67.1229 64.6832 66.9827 64.7017C66.8426 64.7172 66.6931 64.728 66.5343 64.7342C66.3755 64.7404 66.2135 64.7435 66.0485 64.7435C65.8865 64.7435 65.7417 64.7435 65.614 64.7435V65.7125H68.2766V67.4002C68.1427 67.4002 67.9559 67.3987 67.7161 67.3956C67.4763 67.3925 67.2272 67.3894 66.9687 67.3863C66.7102 67.3832 66.4611 67.3817 66.2213 67.3817C65.9815 67.3817 65.7947 67.3817 65.6608 67.3817L63.9417 67.4095C63.948 67.2302 63.9526 66.9736 63.9558 66.6398C63.9558 66.5718 63.9558 66.5038 63.9558 66.4358C63.9558 66.1483 63.9511 65.8207 63.9417 65.4529C63.9355 65.1623 63.9324 64.8362 63.9324 64.4745C63.9324 64.1098 63.9308 63.7281 63.9277 63.3293C63.9246 62.9275 63.9215 62.5179 63.9184 62.1006C63.9153 61.6833 63.9106 61.2784 63.9044 60.8859Z" fill="white"/>
<path d="M40.1116 13.8365V55.0069" stroke="white" stroke-width="3" stroke-miterlimit="10"/>
<path d="M34.5767 17.0243L40.4533 20.8226L46.6717 17.2956" stroke="white" stroke-width="3" stroke-miterlimit="10"/>
<path d="M46.6715 51.2087L39.7698 46.5965L33.5515 50.9374" stroke="white" stroke-width="3" stroke-miterlimit="10"/>
<path d="M60.0649 23.8748L20.1582 44.9687" stroke="white" stroke-width="3" stroke-miterlimit="10"/>
<path d="M53.8467 21.5009L53.1633 27.8765L59.7233 30.8609" stroke="white" stroke-width="3" stroke-miterlimit="10"/>
<path d="M28.8364 47.5461L29.8614 39.9495L22.4814 37.3722" stroke="white" stroke-width="3" stroke-miterlimit="10"/>
<path d="M59.04 46.2574L21.0466 22.5183" stroke="white" stroke-width="3" stroke-miterlimit="10"/>
<path d="M59.1081 39.9496L52.2064 42.0522L51.8647 48.4956" stroke="white" stroke-width="3" stroke-miterlimit="10"/>
<path d="M21.3198 30.1826L29.5198 27.8765L29.1098 20.8226" stroke="white" stroke-width="3" stroke-miterlimit="10"/>
</svg>
