<svg width="82" height="78" viewBox="0 0 82 78" fill="none" xmlns="http://www.w3.org/2000/svg">
<path d="M47.8333 0H34.1667C15.3067 0 0 15.193 0 33.913V78H82V33.913C82 15.193 66.6933 0 47.8333 0Z" fill="white"/>
<path d="M46.9449 5.4261H35.0549C18.7232 5.4261 5.46655 18.5844 5.46655 34.7948V72.5739H76.5332V34.7948C76.5332 18.5844 63.2766 5.4261 46.9449 5.4261Z" fill="#0B9BEE"/>
<path d="M9.68335 67.1363L9.92192 65.6897C10.159 65.7787 10.3976 65.8648 10.6376 65.9481C10.8776 66.0284 11.1249 66.0686 11.3793 66.0686C11.4458 66.0686 11.5268 66.0657 11.6222 66.06C11.7206 66.0543 11.8145 66.0385 11.9042 66.0126C11.9938 65.9839 12.0705 65.9466 12.1341 65.9007C12.2006 65.8548 12.2338 65.7873 12.2338 65.6984C12.2338 65.5864 12.1731 65.4831 12.0517 65.3884C11.9302 65.2937 11.7784 65.1975 11.5962 65.0999C11.4169 64.9995 11.2203 64.8904 11.0063 64.7727C10.7923 64.655 10.5942 64.5187 10.4121 64.3637C10.2328 64.2058 10.0824 64.025 9.96095 63.8212C9.8395 63.6146 9.77878 63.3735 9.77878 63.0979C9.77878 62.7564 9.84673 62.4636 9.98264 62.2196C10.1214 61.9756 10.3036 61.779 10.5292 61.6298C10.7576 61.4777 11.0164 61.3672 11.3056 61.2983C11.5977 61.2265 11.8941 61.1906 12.1948 61.1906C12.5273 61.1906 12.8715 61.2251 13.2271 61.294C13.5828 61.36 13.911 61.4619 14.2118 61.5996L13.9385 62.9472C13.791 62.8898 13.6537 62.8382 13.5264 62.7922C13.3992 62.7434 13.2705 62.7047 13.1404 62.676C13.0132 62.6444 12.8816 62.6215 12.7457 62.6071C12.6098 62.5928 12.4623 62.5856 12.3032 62.5856C12.2309 62.5856 12.1471 62.5884 12.0517 62.5942C11.9591 62.5999 11.8695 62.6171 11.7827 62.6458C11.696 62.6746 11.6251 62.7176 11.5702 62.775C11.5152 62.8295 11.4878 62.9042 11.4878 62.9989C11.4878 63.1281 11.5543 63.2472 11.6873 63.3562C11.8203 63.4653 11.9866 63.5729 12.1861 63.6791C12.3885 63.7853 12.6054 63.8987 12.8368 64.0193C13.0681 64.1398 13.2835 64.2805 13.4831 64.4412C13.6855 64.6019 13.8532 64.7885 13.9862 65.0009C14.1192 65.2133 14.1857 65.463 14.1857 65.75C14.1857 66.037 14.1221 66.2882 13.9949 66.5035C13.8677 66.7187 13.7014 66.8981 13.4961 67.0416C13.2936 67.1851 13.0652 67.2928 12.8107 67.3645C12.5563 67.4334 12.3018 67.4679 12.0473 67.4679C11.6685 67.4679 11.268 67.4435 10.8458 67.3947C10.4265 67.3459 10.039 67.2598 9.68335 67.1363Z" fill="white"/>
<path d="M14.6629 62.7707C14.6571 62.6875 14.6542 62.5942 14.6542 62.4909C14.6542 62.3646 14.6585 62.2254 14.6672 62.0732C14.6817 61.7977 14.7063 61.5279 14.741 61.2638C15.1747 61.2868 15.6041 61.3011 16.0292 61.3069C16.4572 61.3126 16.8866 61.3155 17.3175 61.3155C17.7975 61.3155 18.2631 61.3112 18.7142 61.3026C19.1682 61.294 19.6381 61.281 20.1239 61.2638V62.7449C19.7855 62.7564 19.4544 62.765 19.1306 62.7707C18.8096 62.7764 18.4799 62.7851 18.1416 62.7965C18.1532 63.5658 18.159 64.3307 18.159 65.0913C18.1618 65.849 18.1749 66.6125 18.198 67.3818H16.5888L16.6235 62.8138C16.4413 62.8138 16.2692 62.8123 16.1073 62.8095C15.9482 62.8066 15.7935 62.8037 15.6432 62.8008C15.4928 62.798 15.3366 62.7937 15.1747 62.7879C15.0157 62.7822 14.8451 62.7764 14.6629 62.7707Z" fill="white"/>
<path d="M20.7615 61.5781C20.7615 61.5437 20.7615 61.5107 20.7615 61.4791C20.7615 61.4131 20.7629 61.3528 20.7658 61.2983L22.4705 61.2897L22.3751 67.3818H20.8829C20.8829 67.2813 20.8815 67.1507 20.8786 66.99C20.8757 66.8292 20.8714 66.657 20.8656 66.4733C20.8598 66.2868 20.8555 66.0944 20.8526 65.8964C20.8497 65.6984 20.8454 65.5118 20.8396 65.3367C20.8338 65.1587 20.8294 64.9995 20.8266 64.8588C20.8237 64.7182 20.8222 64.6134 20.8222 64.5445L20.7658 61.8795C20.7658 61.7819 20.7644 61.6814 20.7615 61.5781Z" fill="white"/>
<path d="M23.2382 64.1613C23.2382 63.7394 23.3163 63.3462 23.4725 62.9817C23.6286 62.6171 23.8354 62.3029 24.0927 62.0388C24.353 61.7747 24.6436 61.5666 24.9646 61.4145C25.2885 61.2595 25.6196 61.182 25.9579 61.182C26.2847 61.182 26.597 61.1992 26.8948 61.2337C27.1927 61.2653 27.5079 61.3212 27.8404 61.4016C27.8288 61.4676 27.8057 61.5796 27.771 61.7374C27.7392 61.8924 27.7059 62.0517 27.6712 62.2153C27.6307 62.4105 27.583 62.6157 27.5281 62.831L27.2635 62.7449C27.1247 62.6961 26.9657 62.6516 26.7864 62.6114C26.6707 62.5856 26.5594 62.5727 26.4524 62.5727C26.3945 62.5727 26.3382 62.577 26.2832 62.5856C26.0924 62.6143 25.9102 62.6674 25.7367 62.7449C25.5632 62.8195 25.4099 62.9214 25.2769 63.0506C25.1439 63.1797 25.0369 63.3361 24.9559 63.5198C24.8778 63.7007 24.8388 63.9116 24.8388 64.1527C24.8388 64.3651 24.8692 64.5603 24.9299 64.7383C24.9935 64.9133 25.0759 65.0698 25.1771 65.2075C25.2812 65.3453 25.4012 65.4601 25.5372 65.552C25.6731 65.6438 25.8191 65.7127 25.9752 65.7586C26.1054 65.7988 26.2369 65.8189 26.37 65.8189C26.477 65.8218 26.5854 65.8089 26.6953 65.7802C26.9382 65.7228 27.1507 65.6453 27.3329 65.5477L27.9271 66.9598C27.8549 67.0058 27.7623 67.0589 27.6495 67.1191C27.5397 67.1765 27.4197 67.2339 27.2895 67.2913C27.1594 67.3459 27.022 67.3918 26.8775 67.4291C26.7358 67.4693 26.5999 67.4894 26.4697 67.4894C26.0562 67.4894 25.6557 67.4262 25.2682 67.3C24.8807 67.1737 24.5352 66.977 24.2315 66.7101C23.9308 66.4403 23.6893 66.0959 23.5072 65.6768C23.3279 65.2549 23.2382 64.7497 23.2382 64.1613Z" fill="white"/>
<path d="M28.799 67.3645L28.8294 61.3499L30.3041 61.2552L30.2738 63.3692L32.1606 61.1217L33.6874 61.6771L31.5534 64.0322L33.8826 67.2827L32.0435 67.4679C32.0377 67.4679 32.0117 67.4334 31.9654 67.3645C31.922 67.2928 31.8642 67.1995 31.7919 67.0847C31.7225 66.9699 31.6416 66.8407 31.549 66.6972C31.4594 66.5537 31.3668 66.4059 31.2714 66.2537C31.0459 65.895 30.7943 65.4888 30.5167 65.0353L30.5774 67.3645C30.4588 67.376 30.3099 67.3861 30.1306 67.3947C29.9542 67.4033 29.7923 67.4076 29.6448 67.4076C29.5089 67.4076 29.36 67.4033 29.1981 67.3947C29.039 67.3861 28.906 67.376 28.799 67.3645Z" fill="white"/>
<path d="M34.3381 61.3499C35.0205 61.327 35.6928 61.3098 36.355 61.2983C37.0172 61.2868 37.6881 61.281 38.3677 61.281V62.6889C38.2954 62.6832 38.1913 62.6789 38.0554 62.676C37.9223 62.6731 37.7821 62.6702 37.6346 62.6674C37.49 62.6645 37.3527 62.6631 37.2226 62.6631C37.0924 62.6631 36.9956 62.6631 36.9319 62.6631C36.8539 62.6688 36.7526 62.6731 36.6283 62.676C36.504 62.6789 36.3825 62.6832 36.2639 62.6889C36.1223 62.6946 35.9748 62.7018 35.8215 62.7104L35.8389 63.6964C35.9806 63.6906 36.1136 63.682 36.2379 63.6705C36.3449 63.659 36.4534 63.6504 36.5632 63.6447C36.6731 63.639 36.757 63.6332 36.8148 63.6275C36.8987 63.6217 37.0013 63.616 37.1228 63.6103C37.1893 63.6074 37.2529 63.6045 37.3136 63.6016C37.3599 63.6016 37.4033 63.6031 37.4438 63.6059L37.5088 64.8416C37.4308 64.8588 37.3267 64.876 37.1965 64.8933C37.0664 64.9076 36.9276 64.9176 36.7801 64.9234C36.6326 64.9291 36.4823 64.932 36.329 64.932C36.1786 64.932 36.0442 64.932 35.9256 64.932V65.8318H38.398V67.399C38.2737 67.399 38.1002 67.3975 37.8775 67.3947C37.6549 67.3918 37.4235 67.3889 37.1835 67.3861C36.9435 67.3832 36.7122 67.3818 36.4895 67.3818C36.2668 67.3818 36.0933 67.3818 35.969 67.3818L34.3728 67.4076C34.3786 67.2411 34.3829 67.0029 34.3858 66.6929C34.3858 66.6297 34.3858 66.5666 34.3858 66.5035C34.3858 66.2365 34.3814 65.9323 34.3728 65.5907C34.367 65.3209 34.3641 65.0181 34.3641 64.6823C34.3641 64.3436 34.3626 63.9891 34.3598 63.6189C34.3569 63.2457 34.354 62.8654 34.3511 62.4779C34.3482 62.0905 34.3439 61.7145 34.3381 61.3499Z" fill="white"/>
<path d="M39.1745 63.0161C39.1745 62.9329 39.1745 62.8181 39.1745 62.6717C39.1745 62.5253 39.1759 62.3717 39.1788 62.211C39.1817 62.0503 39.186 61.8938 39.1918 61.7417C39.1976 61.5867 39.2005 61.4561 39.2005 61.3499C39.3248 61.3499 39.4694 61.3485 39.6342 61.3456C39.802 61.3428 39.9783 61.3385 40.1634 61.3327C40.3514 61.327 40.5364 61.3212 40.7186 61.3155C40.9037 61.3098 41.0758 61.3011 41.2348 61.2897C41.336 61.2839 41.4589 61.2796 41.6035 61.2767C41.7481 61.2739 41.8652 61.2724 41.9548 61.2724C42.2874 61.2724 42.5679 61.3356 42.7963 61.4619C43.0277 61.5882 43.2171 61.7446 43.3645 61.9312C43.5149 62.1149 43.6219 62.3115 43.6855 62.521C43.752 62.7277 43.7853 62.9142 43.7853 63.0807C43.7853 63.3103 43.7593 63.5299 43.7072 63.7394C43.6581 63.9461 43.5858 64.1355 43.4903 64.3077C43.3949 64.4771 43.2807 64.6234 43.1477 64.7469C43.0146 64.8703 42.8686 64.9664 42.7096 65.0353L42.6011 65.0784C42.6474 65.1903 42.7052 65.318 42.7746 65.4616C42.844 65.6022 42.9105 65.74 42.9742 65.8749C43.0812 66.0815 43.2214 66.3097 43.3949 66.5594C43.5713 66.8063 43.7694 67.0273 43.9892 67.2225C43.8937 67.2626 43.7781 67.3043 43.6421 67.3473C43.5062 67.3875 43.3703 67.4262 43.2344 67.4636C43.0985 67.5037 42.9698 67.5396 42.8484 67.5712C42.7269 67.6028 42.6358 67.6272 42.5751 67.6444C42.5028 67.5669 42.403 67.4506 42.2758 67.2956C42.1515 67.1407 42.0271 66.9512 41.9028 66.7273C41.8305 66.6097 41.7596 66.4848 41.6902 66.3528C41.6237 66.2207 41.5587 66.0887 41.4951 65.9567C41.4343 65.8246 41.375 65.6969 41.3172 65.5735C41.2623 65.4501 41.2146 65.3353 41.1741 65.2291L40.7837 65.2205C40.7837 65.3898 40.7866 65.5678 40.7924 65.7543C40.7982 65.9409 40.8068 66.1275 40.8184 66.314C40.83 66.4977 40.843 66.6785 40.8574 66.8565C40.8719 67.0316 40.8878 67.1923 40.9051 67.3387L39.2872 67.4076C39.2699 67.1894 39.2554 66.8952 39.2439 66.525C39.2323 66.1547 39.2222 65.7629 39.2135 65.3496C39.2048 64.9363 39.1976 64.523 39.1918 64.1097C39.186 63.6935 39.1802 63.329 39.1745 63.0161ZM40.7273 62.5253C40.7273 62.7779 40.7302 63.0061 40.736 63.2099C40.7418 63.3849 40.7475 63.5557 40.7533 63.7222C40.7591 63.8858 40.7692 63.9949 40.7837 64.0494C40.83 64.0609 40.8878 64.0695 40.9572 64.0752C41.0295 64.081 41.1003 64.0853 41.1697 64.0881C41.242 64.091 41.3085 64.0925 41.3693 64.0925C41.4329 64.0925 41.4835 64.0925 41.5211 64.0925C41.7408 64.081 41.9129 64.0078 42.0372 63.8729C42.1645 63.738 42.2281 63.5586 42.2281 63.3347C42.2281 63.3117 42.2223 63.2586 42.2108 63.1754C42.1992 63.0922 42.1732 63.0046 42.1327 62.9128C42.0922 62.8181 42.0315 62.732 41.9505 62.6545C41.8695 62.5741 41.764 62.5282 41.6339 62.5167C41.5355 62.5081 41.4358 62.5038 41.3346 62.5038C41.2825 62.5038 41.2305 62.5052 41.1784 62.5081C41.0223 62.5138 40.8719 62.5196 40.7273 62.5253Z" fill="white"/>
<path d="M46.8866 61.4317C47.2655 61.337 47.6746 61.271 48.1142 61.2337C48.5566 61.1935 48.973 61.1734 49.3634 61.1734C49.6005 61.1734 49.8376 61.1949 50.0748 61.238C50.3119 61.2782 50.5259 61.3514 50.7167 61.4576C50.9105 61.5638 51.0681 61.7102 51.1895 61.8967C51.311 62.0804 51.3717 62.3158 51.3717 62.6028C51.3717 62.8152 51.3428 63.0046 51.2849 63.1711C51.23 63.3376 51.1534 63.4883 51.055 63.6232C50.9596 63.7552 50.8454 63.8743 50.7124 63.9805C50.5794 64.0838 50.4319 64.18 50.2699 64.269C50.4521 64.3092 50.6227 64.3795 50.7818 64.4799C50.9437 64.5804 51.0825 64.7024 51.1982 64.8459C51.3139 64.9894 51.4049 65.1501 51.4715 65.3281C51.5409 65.5032 51.5756 65.6854 51.5756 65.8749C51.5756 66.2279 51.5004 66.5135 51.35 66.7316C51.1996 66.9469 51.0059 67.1163 50.7688 67.2397C50.5316 67.3631 50.2671 67.4463 49.975 67.4894C49.6858 67.5353 49.4053 67.5583 49.1335 67.5583C48.7952 67.5583 48.4308 67.5468 48.0404 67.5238C47.6501 67.5009 47.2944 67.4478 46.9734 67.3645C46.9618 66.3714 46.9532 65.3826 46.9474 64.3981C46.9416 63.4136 46.9213 62.4248 46.8866 61.4317ZM48.318 62.4435L48.3614 63.7394C48.5089 63.7337 48.6737 63.7279 48.8559 63.7222C49.041 63.7165 49.2145 63.6921 49.3764 63.649C49.5412 63.6031 49.6786 63.527 49.7885 63.4208C49.8984 63.3117 49.9533 63.1539 49.9533 62.9472C49.9533 62.8295 49.92 62.7348 49.8535 62.6631C49.787 62.5884 49.7061 62.5325 49.6106 62.4952C49.5181 62.455 49.4169 62.4291 49.307 62.4177C49.1971 62.4062 49.0974 62.4004 49.0077 62.4004C48.8892 62.4004 48.7735 62.4047 48.6607 62.4134C48.5508 62.422 48.4366 62.432 48.318 62.4435ZM48.3701 64.8933L48.4395 66.3054C48.5523 66.3226 48.6679 66.3312 48.7865 66.3312C48.9282 66.3312 49.0655 66.3212 49.1986 66.3011C49.3345 66.281 49.4545 66.2437 49.5586 66.1892C49.6656 66.1318 49.7509 66.05 49.8145 65.9438C49.881 65.8376 49.9143 65.6998 49.9143 65.5304C49.9143 65.3611 49.8593 65.2305 49.7494 65.1387C49.6424 65.0468 49.508 64.9822 49.346 64.9449C49.187 64.9047 49.0178 64.8832 48.8386 64.8803C48.8038 64.8803 48.7691 64.8803 48.7344 64.8803C48.6014 64.8803 48.48 64.8846 48.3701 64.8933Z" fill="white"/>
<path d="M51.9833 67.4162C51.9891 67.2153 51.9949 66.9799 52.0006 66.7101C52.0064 66.4403 52.0108 66.1633 52.0136 65.8792C52.0165 65.5922 52.0194 65.3109 52.0223 65.0353C52.0252 64.7598 52.0296 64.5129 52.0353 64.2948C52.0411 64.048 52.044 63.7925 52.044 63.5285C52.044 63.2644 52.044 63.0046 52.044 62.7492C52.044 62.4937 52.044 62.2426 52.044 61.9957C52.044 61.7489 52.0411 61.5193 52.0353 61.3069L53.7443 61.2724C53.727 61.6083 53.7096 61.9426 53.6923 62.2756C53.6778 62.6057 53.6663 62.9099 53.6576 63.1883C53.6489 63.4667 53.6417 63.7078 53.6359 63.9116C53.6301 64.1154 53.6272 64.2604 53.6272 64.3465C53.6243 64.401 53.6229 64.4713 53.6229 64.5574C53.6229 64.6034 53.6229 64.6493 53.6229 64.6952C53.6258 64.8445 53.6272 64.988 53.6272 65.1257V65.6553C53.8296 65.6438 54.0581 65.628 54.3126 65.6079C54.5323 65.5965 54.794 65.5821 55.0977 65.5649C55.4013 65.5477 55.7425 65.5333 56.1213 65.5218C56.1213 65.6567 56.1213 65.7916 56.1213 65.9265C56.1213 66.0614 56.1184 66.1849 56.1126 66.2968L56.0606 67.399C55.8524 67.3875 55.6485 67.3774 55.449 67.3688C55.2524 67.3602 55.0514 67.3559 54.8461 67.3559C54.7391 67.3559 54.5584 67.3574 54.3039 67.3602C54.0494 67.3631 53.7747 67.3674 53.4797 67.3731C53.1877 67.3789 52.9028 67.3861 52.6252 67.3947C52.3505 67.4033 52.1365 67.4105 51.9833 67.4162Z" fill="white"/>
<path d="M56.516 67.2483L57.505 64.4799C57.5571 64.3336 57.6163 64.1656 57.6828 63.9762C57.7522 63.7839 57.8231 63.5859 57.8954 63.3821C57.9706 63.1754 58.0443 62.9659 58.1166 62.7535C58.1918 62.5411 58.2641 62.343 58.3335 62.1593C58.4029 61.9728 58.4636 61.8049 58.5157 61.6556C58.5677 61.5064 58.6096 61.3901 58.6414 61.3069C58.7253 61.3069 58.8366 61.3069 58.9754 61.3069C59.1142 61.3069 59.2588 61.3069 59.4092 61.3069C59.5596 61.3069 59.7099 61.3083 59.8603 61.3112C60.0107 61.3141 60.1394 61.3184 60.2463 61.3241C60.3244 61.5652 60.4155 61.8422 60.5196 62.155C60.6237 62.465 60.7307 62.7937 60.8406 63.141C60.9534 63.4883 61.0705 63.8456 61.1919 64.213C61.3134 64.5804 61.4319 64.9449 61.5476 65.3066C61.6633 65.6682 61.7746 66.0198 61.8816 66.3614C61.9886 66.7029 62.0869 67.0172 62.1766 67.3043C61.899 67.3502 61.6214 67.3875 61.3438 67.4162C61.069 67.4449 60.7929 67.4836 60.5153 67.5324C60.4979 67.3086 60.469 67.1091 60.4285 66.934C60.3909 66.756 60.3461 66.558 60.2941 66.3399L58.3638 66.3226C58.3118 66.5236 58.2612 66.7058 58.212 66.8694C58.1715 67.0101 58.134 67.1507 58.0993 67.2913C58.0674 67.4291 58.0458 67.5238 58.0342 67.5755L56.516 67.2483ZM58.6588 65.0439H60.1162L59.4829 62.5511L58.6588 65.0439Z" fill="white"/>
<path d="M62.4975 67.1363L62.7361 65.6897C62.9732 65.7787 63.2118 65.8648 63.4518 65.9481C63.6918 66.0284 63.9391 66.0686 64.1935 66.0686C64.26 66.0686 64.341 66.0657 64.4364 66.06C64.5348 66.0543 64.6287 66.0385 64.7184 66.0126C64.808 65.9839 64.8847 65.9466 64.9483 65.9007C65.0148 65.8548 65.048 65.7873 65.048 65.6984C65.048 65.5864 64.9873 65.4831 64.8659 65.3884C64.7444 65.2937 64.5926 65.1975 64.4104 65.0999C64.2311 64.9995 64.0345 64.8904 63.8205 64.7727C63.6065 64.655 63.4084 64.5187 63.2263 64.3637C63.047 64.2058 62.8966 64.025 62.7751 63.8212C62.6537 63.6146 62.593 63.3735 62.593 63.0979C62.593 62.7564 62.6609 62.4636 62.7968 62.2196C62.9356 61.9756 63.1178 61.779 63.3434 61.6298C63.5718 61.4777 63.8306 61.3672 64.1198 61.2983C64.4119 61.2265 64.7083 61.1906 65.009 61.1906C65.3415 61.1906 65.6857 61.2251 66.0413 61.294C66.397 61.36 66.7252 61.4619 67.026 61.5996L66.7527 62.9472C66.6052 62.8898 66.4679 62.8382 66.3406 62.7922C66.2134 62.7434 66.0847 62.7047 65.9546 62.676C65.8273 62.6444 65.6958 62.6215 65.5599 62.6071C65.424 62.5928 65.2765 62.5856 65.1174 62.5856C65.0451 62.5856 64.9613 62.5884 64.8659 62.5942C64.7733 62.5999 64.6837 62.6171 64.5969 62.6458C64.5102 62.6746 64.4393 62.7176 64.3844 62.775C64.3294 62.8295 64.302 62.9042 64.302 62.9989C64.302 63.1281 64.3685 63.2472 64.5015 63.3562C64.6345 63.4653 64.8008 63.5729 65.0003 63.6791C65.2027 63.7853 65.4196 63.8987 65.651 64.0193C65.8823 64.1398 66.0977 64.2805 66.2972 64.4412C66.4997 64.6019 66.6674 64.7885 66.8004 65.0009C66.9334 65.2133 66.9999 65.463 66.9999 65.75C66.9999 66.037 66.9363 66.2882 66.8091 66.5035C66.6818 66.7187 66.5156 66.8981 66.3103 67.0416C66.1078 67.1851 65.8794 67.2928 65.6249 67.3645C65.3705 67.4334 65.116 67.4679 64.8615 67.4679C64.4827 67.4679 64.0822 67.4435 63.66 67.3947C63.2407 67.3459 62.8532 67.2598 62.4975 67.1363Z" fill="white"/>
<path d="M67.4771 62.7707C67.4713 62.6875 67.4684 62.5942 67.4684 62.4909C67.4684 62.3646 67.4727 62.2254 67.4814 62.0732C67.4959 61.7977 67.5204 61.5279 67.5551 61.2638C67.9889 61.2868 68.4183 61.3011 68.8434 61.3069C69.2714 61.3126 69.7008 61.3155 70.1317 61.3155C70.6117 61.3155 71.0772 61.3112 71.5284 61.3026C71.9824 61.294 72.4523 61.281 72.9381 61.2638V62.7449C72.5997 62.7564 72.2686 62.765 71.9448 62.7707C71.6238 62.7764 71.2941 62.7851 70.9558 62.7965C70.9674 63.5658 70.9731 64.3307 70.9731 65.0913C70.976 65.849 70.989 66.6125 71.0122 67.3818H69.4029L69.4376 62.8138C69.2555 62.8138 69.0834 62.8123 68.9215 62.8095C68.7624 62.8066 68.6077 62.8037 68.4574 62.8008C68.307 62.798 68.1508 62.7937 67.9889 62.7879C67.8299 62.7822 67.6592 62.7764 67.4771 62.7707Z" fill="white"/>
<path d="M54.325 20.0765L35.1917 20.4835L36.5583 34.727L54.12 33.8452L54.325 20.0765Z" fill="#FFE600"/>
<path d="M63.4133 38.1183L48.8583 38.3896L48.6533 51.6835L63.6867 51.2765L63.4133 38.1183Z" fill="#FFB600"/>
<path d="M35.3968 39.2714H27.4701L27.1968 48.2922L35.6701 48.5635L35.3968 39.2714Z" fill="white"/>
<path d="M22.6867 34.7269H26.7867L26.855 30.1147L22.55 29.979L22.6867 34.7269Z" fill="#FFB600"/>
<path d="M15.7167 44.833H19.8167L19.9534 40.153L15.5801 40.0852L15.7167 44.833Z" fill="#FFDA00"/>
</svg>
