<svg width="82" height="78" viewBox="0 0 82 78" fill="none" xmlns="http://www.w3.org/2000/svg">
<path d="M47.8333 0H34.1667C15.3067 0 0 15.193 0 33.913V78H82V33.913C82 15.193 66.6933 0 47.8333 0Z" fill="white"/>
<path d="M46.9449 5.42609H35.0549C18.7232 5.42609 5.46655 18.5844 5.46655 34.7948V72.5739H76.5332V34.7948C76.5332 18.5844 63.2766 5.42609 46.9449 5.42609Z" fill="#56C300"/>
<path d="M19.6888 62.416C19.6826 62.3264 19.6794 62.2259 19.6794 62.1146C19.6794 61.9786 19.6841 61.8287 19.6935 61.6649C19.709 61.3681 19.7355 61.0776 19.7729 60.7932C20.24 60.8179 20.7024 60.8334 21.1602 60.8396C21.6211 60.8458 22.0836 60.8489 22.5476 60.8489C23.0645 60.8489 23.5659 60.8442 24.0517 60.8349C24.5406 60.8257 25.0467 60.8118 25.5699 60.7932V62.3882C25.2055 62.4006 24.8489 62.4098 24.5001 62.416C24.1545 62.4222 23.7995 62.4315 23.4351 62.4438C23.4476 63.2722 23.4538 64.096 23.4538 64.9151C23.4569 65.7311 23.4709 66.5534 23.4958 67.3818H21.7628L21.8002 62.4624C21.604 62.4624 21.4187 62.4608 21.2443 62.4577C21.073 62.4546 20.9064 62.4516 20.7445 62.4485C20.5825 62.4454 20.4144 62.4407 20.24 62.4346C20.0687 62.4284 19.885 62.4222 19.6888 62.416Z" fill="white"/>
<path d="M26.0603 64.3541C26.0603 63.8039 26.1366 63.3062 26.2892 62.8611C26.4449 62.4129 26.6583 62.0296 26.9292 61.7113C27.2001 61.3898 27.524 61.144 27.9008 60.974C28.2807 60.8009 28.698 60.7144 29.1527 60.7144C29.6572 60.7144 30.0854 60.804 30.4373 60.9833C30.7923 61.1595 31.0803 61.4052 31.3014 61.7205C31.5257 62.0327 31.6876 62.4052 31.7873 62.8379C31.8869 63.2707 31.9367 63.7436 31.9367 64.2567C31.9367 64.7266 31.8698 65.1578 31.7359 65.5503C31.602 65.9429 31.4027 66.2813 31.138 66.5657C30.8733 66.8501 30.5416 67.0711 30.143 67.2287C29.7444 67.3864 29.2773 67.4652 28.7416 67.4652C28.3025 67.4652 27.9164 67.3802 27.5832 67.2102C27.2499 67.0402 26.9697 66.8115 26.7423 66.524C26.5181 66.2334 26.3484 65.9027 26.2332 65.5318C26.1179 65.1578 26.0603 64.7652 26.0603 64.3541ZM27.8307 63.7931C27.8183 63.9043 27.812 64.0094 27.812 64.1083C27.812 64.2845 27.8307 64.4437 27.8681 64.5859C27.9242 64.8116 28.0067 64.9986 28.1157 65.1469C28.2247 65.2953 28.3523 65.4081 28.4987 65.4854C28.6482 65.5596 28.8055 65.5998 28.9705 65.606C28.9923 65.606 29.0157 65.606 29.0406 65.606C29.2181 65.609 29.3707 65.5673 29.4984 65.4808C29.6447 65.3819 29.7631 65.252 29.8534 65.0913C29.9468 64.9275 30.0153 64.7451 30.0589 64.5442C30.1056 64.3433 30.129 64.1408 30.129 63.9368C30.129 63.7668 30.1041 63.5813 30.0542 63.3804C30.0075 63.1795 29.9359 62.994 29.8394 62.824C29.7428 62.654 29.626 62.5134 29.489 62.4021C29.3644 62.3032 29.2243 62.2537 29.0686 62.2537C29.0499 62.2537 29.0328 62.2537 29.0172 62.2537C28.6996 62.2723 28.4333 62.4098 28.2184 62.6664C28.0036 62.9229 27.8743 63.2985 27.8307 63.7931Z" fill="white"/>
<path d="M32.6327 62.6803C32.6327 62.5907 32.6327 62.467 32.6327 62.3094C32.6327 62.1517 32.6343 61.9864 32.6374 61.8133C32.6405 61.6402 32.6452 61.4717 32.6514 61.3079C32.6577 61.141 32.6608 61.0003 32.6608 60.8859C32.7947 60.8859 32.9504 60.8844 33.1279 60.8813C33.3085 60.8782 33.4985 60.8736 33.6978 60.8674C33.9002 60.8612 34.0995 60.855 34.2957 60.8489C34.495 60.8427 34.6803 60.8334 34.8516 60.821C34.9606 60.8149 35.0929 60.8102 35.2486 60.8071C35.4043 60.804 35.5305 60.8025 35.627 60.8025C35.9851 60.8025 36.2872 60.8705 36.5332 61.0065C36.7824 61.1425 36.9863 61.311 37.1451 61.5119C37.3071 61.7097 37.4223 61.9214 37.4908 62.1471C37.5624 62.3696 37.5983 62.5706 37.5983 62.7498C37.5983 62.9971 37.5702 63.2336 37.5142 63.4592C37.4612 63.6818 37.3834 63.8858 37.2806 64.0713C37.1778 64.2536 37.0548 64.4113 36.9116 64.5442C36.7683 64.6771 36.6111 64.7806 36.4398 64.8548L36.323 64.9012C36.3728 65.0217 36.4351 65.1593 36.5099 65.3138C36.5846 65.4653 36.6562 65.6137 36.7247 65.759C36.84 65.9815 36.991 66.2273 37.1778 66.4962C37.3678 66.762 37.5811 67 37.8178 67.2102C37.715 67.2535 37.5905 67.2983 37.4441 67.3447C37.2977 67.3879 37.1514 67.4297 37.005 67.4698C36.8586 67.5131 36.7201 67.5518 36.5893 67.5858C36.4585 67.6198 36.3604 67.646 36.295 67.6646C36.2171 67.5811 36.1097 67.4559 35.9727 67.289C35.8388 67.1221 35.7049 66.9181 35.5709 66.677C35.4931 66.5503 35.4168 66.4158 35.3421 66.2736C35.2704 66.1314 35.2004 65.9892 35.1319 65.8471C35.0665 65.7049 35.0026 65.5673 34.9403 65.4344C34.8812 65.3015 34.8298 65.1778 34.7862 65.0635L34.3658 65.0542C34.3658 65.2366 34.3689 65.4282 34.3751 65.6291C34.3813 65.8301 34.3907 66.031 34.4031 66.2319C34.4156 66.4297 34.4296 66.6244 34.4452 66.8161C34.4608 67.0046 34.4779 67.1777 34.4966 67.3354L32.7542 67.4096C32.7355 67.1747 32.7199 66.8578 32.7075 66.4591C32.695 66.0603 32.6841 65.6384 32.6748 65.1933C32.6654 64.7482 32.6577 64.3031 32.6514 63.858C32.6452 63.4098 32.639 63.0172 32.6327 62.6803ZM34.305 62.1517C34.305 62.4237 34.3082 62.6695 34.3144 62.8889C34.3206 63.0775 34.3268 63.2614 34.3331 63.4407C34.3393 63.6169 34.3502 63.7343 34.3658 63.7931C34.4156 63.8054 34.4779 63.8147 34.5526 63.8209C34.6305 63.8271 34.7068 63.8317 34.7815 63.8348C34.8594 63.8379 34.931 63.8394 34.9964 63.8394C35.0649 63.8394 35.1194 63.8394 35.1599 63.8394C35.3966 63.8271 35.5818 63.7482 35.7158 63.603C35.8528 63.4577 35.9213 63.2645 35.9213 63.0234C35.9213 62.9987 35.9151 62.9415 35.9026 62.8518C35.8901 62.7622 35.8621 62.6679 35.8185 62.569C35.7749 62.467 35.7095 62.3743 35.6223 62.2908C35.5351 62.2043 35.4215 62.1548 35.2813 62.1425C35.1755 62.1332 35.068 62.1285 34.959 62.1285C34.903 62.1285 34.8469 62.1301 34.7909 62.1332C34.6227 62.1394 34.4608 62.1455 34.305 62.1517Z" fill="white"/>
<path d="M38.3503 67.4096C38.3503 67.289 38.3534 67.1298 38.3597 66.932C38.369 66.7311 38.3768 66.5163 38.383 66.2875C38.3893 66.0557 38.3939 65.8177 38.397 65.5735C38.4002 65.3293 38.4048 65.1006 38.4111 64.8873C38.4173 64.6709 38.4204 64.4808 38.4204 64.317C38.4204 64.1501 38.4204 64.0295 38.4204 63.9553L38.3597 61.039C38.45 61.0204 38.5605 60.9972 38.6913 60.9694C38.8221 60.9385 38.9451 60.9169 39.0604 60.9045L39.9806 60.8118C40.0304 60.8829 40.0974 60.9787 40.1814 61.0992C40.2686 61.2167 40.3558 61.3372 40.443 61.4609C40.5302 61.5845 40.6096 61.6989 40.6813 61.804C40.756 61.9091 40.8058 61.9802 40.8307 62.0173C40.8557 62.0544 40.893 62.11 40.9429 62.1842C40.9958 62.2553 41.0581 62.3372 41.1297 62.4299C41.2044 62.5226 41.2807 62.62 41.3586 62.722C41.4396 62.8209 41.5221 62.9214 41.6062 63.0234C41.7961 63.2645 42.0032 63.5241 42.2274 63.8023C42.2337 63.4283 42.2399 63.0868 42.2461 62.7777C42.2461 62.6447 42.2477 62.5118 42.2508 62.3789C42.2539 62.246 42.257 62.1208 42.2601 62.0034C42.2633 61.8859 42.2648 61.7823 42.2648 61.6927C42.2648 61.6 42.2648 61.5304 42.2648 61.4841C42.2648 61.3635 42.2648 61.2507 42.2648 61.1456C42.2648 61.0374 42.2586 60.9385 42.2461 60.8489L44.1006 60.7654C44.0881 60.8427 44.0804 60.9169 44.0772 60.9879C44.0741 61.059 44.0695 61.1332 44.0632 61.2105C44.057 61.2538 44.0508 61.3589 44.0445 61.5258C44.0383 61.6896 44.029 61.889 44.0165 62.1239C44.0041 62.3557 43.9916 62.6123 43.9792 62.8936C43.9667 63.1749 43.9527 63.453 43.9371 63.7282C43.9247 64.0002 43.9138 64.2598 43.9044 64.5071C43.8951 64.7513 43.8904 64.9568 43.8904 65.1238C43.8842 65.3185 43.8795 65.524 43.8764 65.7404C43.8733 65.9537 43.8702 66.1623 43.867 66.3663C43.8639 66.5673 43.8624 66.7527 43.8624 66.9227C43.8624 67.0896 43.8624 67.2241 43.8624 67.3261C43.7721 67.357 43.6708 67.3848 43.5587 67.4096C43.4497 67.4343 43.3594 67.4528 43.2878 67.4652L42.802 67.544L42.4096 66.8903C42.3536 66.7945 42.243 66.6306 42.078 66.3988C41.916 66.167 41.7245 65.9011 41.5034 65.6013C41.2854 65.3015 41.0534 64.9847 40.8074 64.6508C40.5614 64.3139 40.3294 63.9955 40.1114 63.6957C40.1301 64.0172 40.1472 64.3124 40.1628 64.5813C40.1752 64.81 40.1846 65.0326 40.1908 65.2489C40.197 65.4622 40.2032 65.606 40.2095 65.6801C40.2095 65.7512 40.2126 65.8501 40.2188 65.9769C40.225 66.1036 40.2313 66.235 40.2375 66.371C40.2437 66.507 40.2484 66.6368 40.2515 66.7605C40.2546 66.8841 40.2562 66.9737 40.2562 67.0294V67.3076C40.141 67.3137 39.9977 67.3215 39.8264 67.3307C39.6552 67.34 39.4776 67.3493 39.2939 67.3586C39.1133 67.3678 38.9389 67.3771 38.7707 67.3864C38.6057 67.3957 38.4655 67.4034 38.3503 67.4096Z" fill="white"/>
<path d="M44.5911 67.238L45.6561 64.2567C45.7122 64.0991 45.776 63.9182 45.8476 63.7142C45.9224 63.5071 45.9987 63.2939 46.0765 63.0744C46.1575 62.8518 46.2369 62.6262 46.3148 62.3975C46.3957 62.1687 46.4736 61.9554 46.5483 61.7576C46.6231 61.5567 46.6885 61.3759 46.7445 61.2151C46.8006 61.0544 46.8457 60.9292 46.88 60.8396C46.9703 60.8396 47.0902 60.8396 47.2397 60.8396C47.3891 60.8396 47.5449 60.8396 47.7068 60.8396C47.8687 60.8396 48.0307 60.8411 48.1926 60.8442C48.3545 60.8473 48.4931 60.8519 48.6083 60.8581C48.6924 61.1178 48.7905 61.4161 48.9026 61.753C49.0147 62.0868 49.13 62.4407 49.2483 62.8148C49.3697 63.1888 49.4959 63.5736 49.6267 63.9693C49.7575 64.3649 49.8851 64.7575 50.0097 65.1469C50.1343 65.5364 50.2542 65.9151 50.3694 66.2829C50.4846 66.6507 50.5905 66.9892 50.687 67.2983C50.3881 67.3477 50.0891 67.3879 49.7902 67.4188C49.4943 67.4498 49.1969 67.4915 48.8979 67.544C48.8793 67.3029 48.8481 67.0881 48.8045 66.8995C48.764 66.7079 48.7158 66.4946 48.6597 66.2597L46.581 66.2412C46.525 66.4575 46.4705 66.6538 46.4175 66.83C46.3739 66.9815 46.3334 67.1329 46.2961 67.2844C46.2618 67.4328 46.2385 67.5348 46.226 67.5904L44.5911 67.238ZM46.8987 64.8641H48.4682L47.7862 62.1795L46.8987 64.8641Z" fill="white"/>
<path d="M51.2803 60.8303C51.4765 60.8118 51.6991 60.7979 51.9483 60.7886C52.1974 60.7793 52.4216 60.7747 52.6209 60.7747C53.2001 60.7747 53.7218 60.8365 54.1858 60.9601C54.6529 61.0807 55.0499 61.277 55.3769 61.549C55.707 61.8179 55.9593 62.1641 56.1337 62.5876C56.3112 63.011 56.3999 63.5241 56.3999 64.1269C56.3999 64.6586 56.2894 65.1315 56.0683 65.5457C55.8472 65.9599 55.5576 66.3076 55.1994 66.5889C54.8444 66.8702 54.438 67.085 53.9802 67.2334C53.5256 67.3818 53.06 67.4559 52.5835 67.4559C52.487 67.4559 52.3842 67.4559 52.2752 67.4559C52.1662 67.4559 52.0541 67.4528 51.9389 67.4467C51.8268 67.4405 51.7147 67.4358 51.6026 67.4328C51.4905 67.4297 51.3893 67.4219 51.299 67.4096C51.3176 67.0417 51.3301 66.6785 51.3363 66.32C51.3426 65.9583 51.3457 65.5936 51.3457 65.2258C51.3457 64.4777 51.3394 63.7452 51.327 63.028C51.3145 62.3109 51.299 61.5783 51.2803 60.8303ZM53.004 62.5412L53.032 65.606C53.5365 65.606 53.9398 65.4684 54.2418 65.1933C54.5439 64.9182 54.6949 64.521 54.6949 64.0017C54.6949 63.501 54.5828 63.1285 54.3586 62.8843C54.1375 62.6401 53.7685 62.518 53.2515 62.518C53.2079 62.518 53.1643 62.5196 53.1207 62.5226C53.0803 62.5257 53.0413 62.5319 53.004 62.5412Z" fill="white"/>
<path d="M56.9184 64.3541C56.9184 63.8039 56.9947 63.3062 57.1473 62.8611C57.303 62.4129 57.5164 62.0296 57.7873 61.7113C58.0582 61.3898 58.3821 61.144 58.7589 60.974C59.1388 60.8009 59.5561 60.7144 60.0108 60.7144C60.5153 60.7144 60.9435 60.804 61.2954 60.9833C61.6504 61.1595 61.9384 61.4052 62.1596 61.7205C62.3838 62.0327 62.5457 62.4052 62.6454 62.8379C62.745 63.2707 62.7948 63.7436 62.7948 64.2567C62.7948 64.7266 62.7279 65.1578 62.594 65.5503C62.4601 65.9429 62.2608 66.2813 61.9961 66.5657C61.7314 66.8501 61.3997 67.0711 61.0011 67.2287C60.6025 67.3864 60.1354 67.4652 59.5997 67.4652C59.1606 67.4652 58.7745 67.3802 58.4413 67.2102C58.108 67.0402 57.8278 66.8115 57.6004 66.524C57.3762 66.2334 57.2065 65.9027 57.0913 65.5318C56.9761 65.1578 56.9184 64.7652 56.9184 64.3541ZM58.6888 63.7931C58.6764 63.9043 58.6702 64.0094 58.6702 64.1083C58.6702 64.2845 58.6888 64.4437 58.7262 64.5859C58.7823 64.8116 58.8648 64.9986 58.9738 65.1469C59.0828 65.2953 59.2105 65.4081 59.3568 65.4854C59.5063 65.5596 59.6636 65.5998 59.8286 65.606C59.8504 65.606 59.8738 65.606 59.8987 65.606C60.0762 65.609 60.2288 65.5673 60.3565 65.4808C60.5028 65.3819 60.6212 65.252 60.7115 65.0913C60.8049 64.9275 60.8734 64.7451 60.917 64.5442C60.9637 64.3433 60.9871 64.1408 60.9871 63.9368C60.9871 63.7668 60.9622 63.5813 60.9123 63.3804C60.8656 63.1795 60.794 62.994 60.6975 62.824C60.6009 62.654 60.4841 62.5134 60.3471 62.4021C60.2226 62.3032 60.0824 62.2537 59.9267 62.2537C59.908 62.2537 59.8909 62.2537 59.8753 62.2537C59.5577 62.2723 59.2914 62.4098 59.0765 62.6664C58.8617 62.9229 58.7324 63.2985 58.6888 63.7931Z" fill="white"/>
<path d="M27.88 52.0904C27.88 52.0904 22.55 46.8678 24.805 45.0365C27.06 43.2052 35.7383 46.2574 35.3967 47.5461C35.055 48.8348 28.8367 50.8696 25.8983 40.6957C22.96 30.5217 44.895 43.68 41.8883 45.8504C38.95 47.953 23.0967 34.9304 30.6133 32.8957C38.0617 30.8609 56.99 37.6435 52.9583 41.9843C48.995 46.3252 28.29 33.167 33.3467 25.0278C38.4033 16.8887 63.8917 31.4713 61.8417 36.8296C59.7917 42.1878 34.7133 24.1461 41.3417 16.6852C41.3417 16.6852 45.4417 12.9548 54.1883 19.5339C62.935 26.113 62.2517 29.7078 62.2517 29.7078" stroke="white" stroke-miterlimit="10"/>
<path d="M19.6118 26.5201C25.7618 30.7931 19.2701 35.5409 19.2701 35.5409C19.2701 35.5409 13.1201 30.047 19.6118 26.5201Z" fill="#FFB600"/>
<path d="M23.0967 19.127C27.1283 16.4818 28.495 21.4331 28.495 21.4331C28.495 21.4331 23.78 23.807 23.0967 19.127Z" fill="#FFDA00"/>
<path d="M59.8601 50.734L66.6251 49.6488L64.0284 48.2244L65.3268 44.8331L60.9534 46.8001L61.9784 41.4418L58.9034 43.8836L55.7601 41.9844L57.1951 47.207L52.9584 45.8505L54.4618 48.5636L52.8218 50.5305L58.8351 50.1236C58.8351 51.2088 59.1084 53.447 61.2268 54.0575L62.3884 52.7009C62.3884 52.7009 60.2018 53.2436 59.8601 50.734Z" fill="#FFDA00"/>
</svg>
