<?xml version="1.0" standalone="no"?>
<!DOCTYPE svg PUBLIC "-//W3C//DTD SVG 1.1//EN" "http://www.w3.org/Graphics/SVG/1.1/DTD/svg11.dtd" >
<svg xmlns="http://www.w3.org/2000/svg">
<metadata></metadata>
<defs>
<font id="pbs_kids_headlinebold" horiz-adv-x="1472" >
<font-face units-per-em="2048" ascent="1530" descent="-518" />
<missing-glyph horiz-adv-x="636" />
<glyph horiz-adv-x="2048" />
<glyph horiz-adv-x="2048" />
<glyph unicode="&#xd;" horiz-adv-x="2048" />
<glyph unicode=" "  horiz-adv-x="636" />
<glyph unicode="&#x09;" horiz-adv-x="636" />
<glyph unicode="&#xa0;" horiz-adv-x="636" />
<glyph unicode="!" horiz-adv-x="753" d="M57 1421l529 25l-64 -1032l-366 24zM131 115q0 73 61 127.5t146 54.5t147 -54.5t62 -127.5q0 -70 -61 -119t-148 -49q-86 0 -146.5 49t-60.5 119z" />
<glyph unicode="&#x22;" horiz-adv-x="1124" d="M63 1427l406 17l-49 -690l-281 16zM598 1427l406 17l-50 -690l-280 16z" />
<glyph unicode="#" horiz-adv-x="1363" d="M74 399l12 217h248l20 277h-250l13 215h250l16 285h192l-20 -285h256q11 172 16 285h191l-21 -285h236l-12 -215h-234q-1 -22 -8.5 -122t-9.5 -155h233l-12 -217h-236l-14 -305h-190l16 305h-254q-2 -49 -8 -152.5t-8 -152.5h-191l19 305h-250zM524 616h254 q2 54 9.5 149.5t9.5 127.5h-252q-11 -125 -21 -277z" />
<glyph unicode="$" horiz-adv-x="1054" d="M82 180l39 348q98 -32 162 -49q86 -26 129 -26q29 0 58.5 8.5t29.5 30.5q0 31 -56 67q-19 13 -66.5 36t-72.5 38q-44 25 -78 51.5t-66.5 64.5t-50.5 88.5t-18 110.5q0 149 86.5 234t227.5 112l2 148l229 2l-2 -139q168 -10 313 -74l-61 -326q-177 78 -293 78 q-98 0 -98 -47q0 -12 14 -23t47 -30q7 -4 65.5 -32.5t92.5 -49.5q48 -29 86 -60t74 -73.5t55.5 -97.5t19.5 -117q0 -72 -27 -129t-75 -94t-103.5 -60t-121.5 -35v-135h-232l2 127q-189 7 -311 53z" />
<glyph unicode="%" horiz-adv-x="1427" d="M33 1087q0 141 88.5 240.5t214.5 99.5t214.5 -99.5t88.5 -240.5q0 -142 -88.5 -242t-214.5 -100t-214.5 100t-88.5 242zM66 0l1036 1434l205 2l-1043 -1436h-198zM246 1087q0 -52 26.5 -87t63.5 -35q36 0 63 35.5t27 86.5q0 52 -27 87.5t-63 35.5q-37 0 -63.5 -35.5 t-26.5 -87.5zM733 332q0 142 89 242t214 100q126 0 215.5 -100t89.5 -242q0 -141 -89.5 -240.5t-215.5 -99.5q-125 0 -214 99.5t-89 240.5zM948 332q0 -51 26.5 -87t61.5 -36q37 0 63.5 35.5t26.5 87.5t-26.5 87.5t-63.5 35.5q-35 0 -61.5 -36t-26.5 -87z" />
<glyph unicode="&#x26;" horiz-adv-x="1449" d="M16 416q0 235 254 391q-114 145 -114 295q0 70 29 127t75.5 93.5t107.5 61.5t122.5 35.5t123.5 10.5q95 0 189.5 -42.5t159.5 -123t65 -177.5q0 -183 -254 -356q64 -77 135 -156q49 59 95 142l309 -144q-60 -131 -172 -254q51 -56 119.5 -130.5t82.5 -90.5l-344 -131 l-116 129q-196 -127 -357 -127q-141 0 -258 58t-184.5 160.5t-67.5 228.5zM393 459q0 -58 38.5 -91.5t111.5 -33.5q53 0 108 24q-113 131 -174 203q-84 -51 -84 -102zM516 1081q0 -29 68 -116q48 28 73 52.5t25 53.5q0 30 -20.5 53t-49.5 23q-38 0 -67 -15t-29 -51z" />
<glyph unicode="'" horiz-adv-x="544" d="M63 1427l406 17l-49 -690l-281 16z" />
<glyph unicode="(" horiz-adv-x="790" d="M88 709q0 148 40.5 283.5t110.5 242.5t153.5 189.5t180.5 144.5l166 -107q-141 -160 -209.5 -267t-97.5 -218t-29 -270q0 -208 69.5 -368.5t262.5 -367.5l-162 -121q-228 174 -356.5 391t-128.5 468z" />
<glyph unicode=")" horiz-adv-x="790" d="M74 1454l164 107q98 -62 181.5 -145t154 -189.5t111 -242.5t40.5 -284q0 -251 -129 -467.5t-358 -390.5l-160 121q193 207 262.5 367.5t69.5 367.5q0 159 -29 270t-97.5 218.5t-209.5 267.5z" />
<glyph unicode="*" horiz-adv-x="1042" d="M45 999l82 281l303 -164l-37 404h266l-51 -406q57 27 170.5 83.5t130.5 64.5l82 -281l-315 -57q120 -148 215 -260l-215 -172l-162 342q-6 -11 -172 -332l-215 172l229 256z" />
<glyph unicode="+" horiz-adv-x="972" d="M59 561v244h314v373h221v-373h313v-244h-313v-371h-221v371h-314z" />
<glyph unicode="," horiz-adv-x="686" d="M76 170q0 80 64.5 139.5t154.5 59.5t159.5 -69t69.5 -150q0 -188 -72 -294.5t-245 -170.5l-105 139q70 45 111 102q5 7 8 22t3 26l1 12q-76 9 -112.5 57.5t-36.5 126.5z" />
<glyph unicode="-" horiz-adv-x="716" d="M35 506v293h579v-293h-579z" />
<glyph unicode="." horiz-adv-x="651" d="M74 186q0 88 64.5 152.5t154.5 64.5q92 0 156.5 -64.5t64.5 -152.5q0 -86 -64 -144t-157 -58q-91 0 -155 58t-64 144z" />
<glyph unicode="/" horiz-adv-x="1064" d="M20 -137l654 1708l295 -6l-654 -1708z" />
<glyph unicode="0" horiz-adv-x="1316" d="M84 694q0 169 34 301t88.5 213.5t131 134t154.5 73t165 20.5q72 0 136.5 -14t131 -45.5t120 -88.5t96 -136.5t65.5 -196.5t23 -261q0 -159 -34 -284t-89 -203.5t-131 -130t-154 -72t-164 -20.5q-87 0 -165 20t-154.5 70.5t-131 129t-88.5 204t-34 286.5zM494 694 q0 -145 38.5 -219t124.5 -74q82 0 121 77.5t39 215.5q0 322 -160 322q-163 0 -163 -322z" />
<glyph unicode="1" horiz-adv-x="980" d="M53 786q101 115 219.5 307t196.5 363l350 -45l21 -1411h-445l19 676l-11 -17q-8 -13 -18 -26.5t-24 -33t-25 -34.5q-117 68 -158 97q-69 49 -125 124z" />
<glyph unicode="2" horiz-adv-x="1202" d="M41 1233q12 9 32.5 23t85 50.5t129 64t154.5 50.5t170 23q107 0 200.5 -42.5t156.5 -113t99 -161t36 -185.5q0 -198 -219 -385q-64 -55 -170 -133q-18 -13 -56 -44.5t-45 -37.5l478 41q4 -84 4 -162q0 -36 -5 -91t-9 -92l-5 -38l-909 -20q-68 299 -72 299l43 45 q12 13 61.5 63.5t78.5 81.5q77 80 168 186.5t122 149.5q39 58 32 104.5t-36.5 75.5t-62.5 29q-45 0 -88.5 -8t-75.5 -19t-63 -26t-48.5 -26.5t-34.5 -23t-18 -12.5z" />
<glyph unicode="3" horiz-adv-x="1265" d="M74 1288q10 6 27.5 15t73.5 34t113 45t139 40t159 26q83 7 161.5 -2.5t150.5 -39t125.5 -76t85.5 -119.5t32 -164q0 -114 -56.5 -206.5t-113.5 -121.5q62 -34 119 -128t57 -224q0 -68 -22 -125.5t-58 -98t-84 -72.5t-97 -51.5t-99.5 -32t-89.5 -17.5t-70 -5 q-135 0 -273.5 35.5t-247.5 87.5l101 373q250 -100 344 -96q61 1 87 39.5t19 80.5q-8 53 -58 77.5t-118 21.5l-184 -11q0 57 -3.5 164t-4.5 140h258q59 0 88.5 38.5t21.5 71.5q-4 20 -22.5 38.5t-61.5 32t-112 -0.5q-64 -10 -137 -38t-114 -51l-40 -22z" />
<glyph unicode="4" horiz-adv-x="1331" d="M16 455q33 54 138 224t174 282.5t149 247.5t117 206l493 -22v-801l197 2l-6 -354l-191 2v-252h-430v258l-553 8zM412 565l247 2v373q-44 -72 -126.5 -198t-120.5 -177z" />
<glyph unicode="5" horiz-adv-x="1208" d="M45 158l129 344q125 -84 198.5 -109.5t159.5 -25.5q53 0 88 46t35 93q0 37 -30 70.5t-74 37.5q-76 11 -165.5 0.5t-147.5 -45.5l-150 49l18 787h951l-45 -354h-549l-4 -146q96 37 211 37q94 -2 174.5 -32t144.5 -87t100.5 -151t36.5 -215q0 -82 -21.5 -150.5t-57.5 -117 t-85.5 -86t-101 -60.5t-109 -37.5t-105.5 -20t-93 -5.5q-118 0 -259 45.5t-249 132.5z" />
<glyph unicode="6" horiz-adv-x="1265" d="M49 705q0 157 31.5 282t86 208t131.5 138t165 79t190 24q148 0 279.5 -31.5t214.5 -97.5l-96 -312q-110 53 -186 72.5t-163 19.5q-31 0 -69 -11t-77.5 -33.5t-68.5 -65t-34 -96.5q110 71 237 71q106 0 198 -29.5t164 -87.5t114 -152t42 -214q0 -107 -33.5 -192.5 t-87 -139.5t-125 -90t-142 -50.5t-142.5 -14.5q-101 0 -190 23t-171 77t-140.5 135.5t-93 206t-34.5 281.5zM518 473q0 -49 37 -77.5t102 -28.5q43 0 80 33.5t41 78.5q3 51 -35 89t-106 38q-46 0 -82.5 -37.5t-36.5 -95.5z" />
<glyph unicode="7" horiz-adv-x="1216" d="M72 969v456q544 -31 991 -10l100 -260q-149 -259 -297 -601t-219 -589l-477 47q72 231 187 505.5t225 467.5q-91 -8 -248.5 -12.5t-261.5 -3.5z" />
<glyph unicode="8" horiz-adv-x="1257" d="M47 422q0 89 56.5 182t127.5 131q-75 49 -119 117.5t-44 146.5q0 209 143 322t393 113q245 0 399 -120.5t154 -303.5q0 -125 -141 -252q71 -51 114.5 -145t43.5 -185q0 -134 -79 -237.5t-202 -155t-266 -51.5q-116 0 -220.5 29.5t-184.5 83.5t-127.5 138.5t-47.5 186.5z M500 461q-6 -50 30 -84.5t80 -34.5q47 0 83 30t36 83q0 52 -30 85t-87 33q-103 0 -112 -112zM500 993q-4 -52 31 -88.5t79 -36.5q48 0 83.5 32t35.5 87q0 54 -30 88.5t-87 34.5q-103 0 -112 -117z" />
<glyph unicode="9" horiz-adv-x="1312" d="M80 956q0 106 32.5 192t85 140t122 90t139 51t141.5 15q101 0 190.5 -23.5t172 -79t141.5 -138t94 -208t35 -282.5t-32 -281.5t-87 -206.5t-133 -135.5t-166 -76.5t-190 -23q-149 0 -290.5 37t-223.5 112l98 312q124 -60 205.5 -86.5t160.5 -26.5q65 0 150.5 62 t101.5 151q-118 -78 -239 -78q-105 0 -196 30t-161.5 88t-110.5 152t-40 213zM506 936q0 -54 36.5 -85.5t100.5 -31.5q44 0 80 36.5t39 86.5q5 54 -32.5 95.5t-106.5 41.5q-46 0 -81.5 -40.5t-35.5 -102.5z" />
<glyph unicode=":" horiz-adv-x="663" d="M96 182q0 88 64.5 152.5t154.5 64.5q92 0 157 -64.5t65 -152.5q0 -86 -64.5 -144t-157.5 -58q-91 0 -155 58t-64 144zM96 934q0 87 64.5 150t156.5 63q90 0 155 -63t65 -150q0 -84 -64 -140.5t-156 -56.5q-93 0 -157 56.5t-64 140.5z" />
<glyph unicode=";" horiz-adv-x="686" d="M76 170q0 80 64.5 139.5t154.5 59.5t159.5 -69t69.5 -150q0 -187 -71.5 -293t-245.5 -170l-105 137q70 45 111 102q5 7 8 22t3 26l1 12q-76 9 -112.5 57.5t-36.5 126.5zM96 934q0 87 64.5 150t156.5 63q90 0 155 -63t65 -150q0 -84 -64 -140.5t-156 -56.5 q-93 0 -157 56.5t-64 140.5z" />
<glyph unicode="&#x3c;" horiz-adv-x="1171" d="M96 631v176l715 528l223 -377l-434 -258l434 -284l-190 -355z" />
<glyph unicode="=" horiz-adv-x="1009" d="M82 276v299l815 -8v-282zM82 778v299l815 -8v-283z" />
<glyph unicode="&#x3e;" horiz-adv-x="1171" d="M98 416l434 284l-434 258l224 377l714 -528v-176l-747 -570z" />
<glyph unicode="?" horiz-adv-x="1292" d="M88 1393q358 55 530 55q42 0 85.5 -3.5t100.5 -15t107.5 -29.5t101 -50t86.5 -74t58.5 -104.5t22.5 -137.5q0 -80 -28 -145t-71 -105t-97 -76t-102 -59.5t-90 -55t-59 -63.5q-14 -27 -18.5 -54.5t-2.5 -41.5l3 -14l-344 -35q-4 24 -8.5 62.5t-1.5 120.5t26 120 q19 32 60 63t82.5 55t81.5 50.5t65.5 62.5t25.5 80q0 56 -39 74.5t-116 18.5q-79 0 -184 -30.5t-199 -84.5zM362 119q0 73 61 126.5t146 53.5q86 0 147.5 -53.5t61.5 -126.5q0 -71 -61 -119.5t-148 -48.5t-147 48t-60 120z" />
<glyph unicode="@" horiz-adv-x="1597" d="M104 655q0 136 40 246t106.5 182t158 120.5t190.5 69.5t208 21q122 0 231.5 -40.5t193.5 -115t133.5 -189t49.5 -253.5q0 -211 -105 -353t-257 -142q-61 0 -120 42.5t-89 104.5q-40 -42 -93 -72t-94 -30q-95 0 -161 62.5t-90.5 151t-16.5 183.5q13 154 116 265.5 t265 111.5q42 0 83 -29t71 -71l18 61l164 -61l-92 -379q-10 -38 -10 -58q0 -44 24 -70t55 -26q64 0 117 87t53 222q0 87 -24 160t-65 124t-98 86.5t-122 52t-137 16.5q-82 0 -159.5 -17.5t-148.5 -55t-123.5 -92t-84 -135t-31.5 -176.5q0 -240 130.5 -388t354.5 -148 q46 0 66.5 0.5t60.5 8.5t68 24l39 -156q-51 -23 -103.5 -30t-130.5 -7q-301 0 -471 181.5t-170 510.5zM586 580q0 -72 26.5 -101.5t63.5 -29.5q34 0 82.5 26t72.5 68l39 166q-14 71 -46 106t-68 35q-48 0 -101.5 -65t-64.5 -152q-4 -23 -4 -53z" />
<glyph unicode="A" d="M4 20q195 531 248 676l264 711q34 2 83 3.5t177 5.5q60 2 99 1q44 0 61 -2q205 -567 250 -706l239 -693q-33 -3 -86 -8t-167 -15q-113 -11 -188 -17q-65 -6 -74 -5h-1q-6 81 -35 238l-335 2q-6 -27 -30 -113.5t-34 -136.5zM606 522l225 2l-96 463z" />
<glyph unicode="B" horiz-adv-x="1310" d="M96 1368q108 34 271.5 53t300.5 19q76 0 143 -9.5t133 -35t112.5 -65t75.5 -104t29 -147.5q0 -114 -47.5 -197.5t-144.5 -160.5q117 -74 178 -160.5t61 -212.5q0 -90 -29.5 -158.5t-78 -110t-117.5 -68t-139.5 -36.5t-153.5 -10q-256 0 -590 55zM496 328q44 -9 90 -9 q178 0 178 148q0 125 -186 125h-15l-59 -2q-8 -86 -8 -262zM502 827q32 1 51.5 2.5t48 5.5t46.5 10.5t38.5 19t32 29t19 42t7.5 57.5q0 28 -14 46.5t-39.5 26t-46 9.5t-49.5 2q-46 0 -90 -6z" />
<glyph unicode="C" horiz-adv-x="1271" d="M59 741q0 194 95 352.5t257.5 247.5t356.5 89q166 0 418 -68q-13 -120 -40 -248.5t-69 -191.5q-8 3 -48 22t-64 29t-63 20.5t-71 10.5q-109 0 -190.5 -78.5t-81.5 -182.5q0 -133 65 -213.5t177 -80.5q118 0 246 81l165 -401q-84 -57 -197 -101t-200 -44 q-359 0 -557.5 196.5t-198.5 560.5z" />
<glyph unicode="D" horiz-adv-x="1351" d="M96 1413q172 14 361 14q397 0 600 -176.5t203 -556.5q0 -114 -35.5 -214.5t-97 -177.5t-145 -138t-180.5 -100t-201.5 -59.5t-209.5 -20.5q-154 0 -293 14q13 239 13 481q0 293 -15 934zM543 991l6 -549q129 9 201.5 83.5t72.5 203.5q0 138 -61.5 200t-206.5 62h-12z" />
<glyph unicode="E" horiz-adv-x="1185" d="M86 1407q383 4 512 8q56 2 136 2q20 -1 42 -1q108 0 206 -2l99 -1v-369q-50 6 -105.5 9t-93.5 5q-16 1 -37 0q-29 0 -67 -1q-67 -2 -90.5 -3t-103.5 -5t-95 -5l3 -131q20 2 103.5 3t94.5 2l232 4q14 -37 14 -172q0 -181 -8 -181q-266 0 -414 -8v-125q145 -10 286.5 -10 t280.5 10v-434q-413 0 -542 -4l-430 2v78q0 162 -3 364q-2 97 -10 434.5t-10 530.5z" />
<glyph unicode="F" horiz-adv-x="1146" d="M86 -12q4 200 4 673v103q0 400 -4 637q186 13 389 13q60 0 121 -1l496 -16l-21 -367q-129 12 -251 12q-46 0 -91 -2l-256 -6l6 -192h219q111 0 189 6q4 -31 9 -161t5 -200q-270 -20 -383 -22q-1 -38 0 -81q0 -158 8 -384q-407 -10 -440 -12z" />
<glyph unicode="G" horiz-adv-x="1335" d="M61 750q0 152 58.5 281t158 215.5t230.5 135t276 48.5q212 0 430 -60q-43 -274 -102 -444q-164 82 -270 82q-138 0 -221.5 -74t-83.5 -215q0 -167 62 -245q59 -73 203 -73h15h23v150q-22 1 -42 1q-48 0 -87 -5l4 291q67 6 153 6q194 0 349 -13l18 -712 q-78 -60 -189.5 -98.5t-209.5 -38.5q-207 0 -350 40.5t-239.5 132t-141 237.5t-44.5 358z" />
<glyph unicode="H" horiz-adv-x="1402" d="M86 1409q195 10 283 12l176 -4q-2 -313 -2 -354q0 -15 1 -74t1 -78l286 -6q-1 18 -3.5 85.5t-4.5 125t-2 82.5l-2 217l473 12v-73q0 -143 -6 -260q-8 -164 -13 -546t-13 -558q-359 8 -441 10q6 213 6 281q0 94 -6 211h-270q-1 -41 -1 -148.5t1 -142.5v-193q-41 -1 -97 -2 q-58 -2 -196 -4q-63 -1 -99 -2q-43 0 -48 2q-5 405 -9 559q-9 319 -14 848z" />
<glyph unicode="I" horiz-adv-x="667" d="M84 1413l465 2q9 -91 9 -222q0 -36 -1 -75q-1 -100 -4.5 -282.5t-5.5 -332t-2 -282.5l6 -221h-434q-7 551 -13 662q-3 60 -9.5 292.5t-8.5 264.5z" />
<glyph unicode="J" horiz-adv-x="1181" d="M51 406q53 12 165 41t187 45q13 -37 22.5 -57.5t26.5 -43t41 -32t58 -9.5q58 0 81 65.5t23 194.5q0 482 -22 815h430q20 -354 20 -835q0 -310 -143 -462.5t-451 -152.5q-172 0 -294.5 126t-143.5 305z" />
<glyph unicode="K" horiz-adv-x="1411" d="M90 6l16 1401l410 25l-4 -410l344 444l449 -147l-465 -551l512 -758l-506 -26q-2 0 -49 75.5t-113.5 182.5t-99.5 157l10 -391q-158 -14 -252 -14q-42 0 -105 3t-105 6z" />
<glyph unicode="L" horiz-adv-x="1210" d="M92 1411l481 8q-8 -147 -19.5 -403.5t-14.5 -313.5q-2 -55 -1 -241q252 14 582 22q0 -141 -16 -493q-174 16 -320 16q-301 0 -669 -16q0 236 -11.5 710t-11.5 711z" />
<glyph unicode="M" horiz-adv-x="1871" d="M90 2q33 1198 51 1407q90 8 178 10l177 -4q406 -674 422 -721l448 721l360 -10q5 -119 12 -305q8 -186 16 -570q5 -210 4 -352q0 -117 -3 -188q-358 8 -440 10q-4 473 -4 545q-2 -3 -144.5 -260t-160.5 -285l-207 -6q-5 10 -65 142t-120 261t-75 150l-9 -539 q-41 -1 -97.5 -2.5t-194.5 -3.5q-63 -1 -100 -2q-43 0 -48 2z" />
<glyph unicode="N" horiz-adv-x="1542" d="M94 -10q19 609 19 729v18l-11 633q164 29 394 51q30 -42 113.5 -147.5t92.5 -118.5q26 -40 228 -283q2 51 6.5 123t7 120t2.5 69q0 151 -8 229l485 21q-2 -16 -10 -136q-3 -47 -15 -355t-14 -449q-6 -237 -6 -478q-26 -8 -56 -15t-68.5 -12.5t-60.5 -8t-68.5 -7.5 t-55.5 -6l-108 152q-1 1 -77 106t-161 220t-162 214l14 -274q0 -7 5.5 -127t5.5 -149v-93q-338 -19 -492 -26z" />
<glyph unicode="O" horiz-adv-x="1433" d="M68 670q0 171 50 314.5t139 243.5t215.5 156t275.5 56q135 0 241 -40.5t176 -110t116 -168.5t65.5 -209.5t19.5 -239.5q0 -327 -179.5 -509.5t-516.5 -182.5q-124 0 -226 40t-170.5 106.5t-116 156.5t-68.5 187t-21 200zM506 754q0 -148 59.5 -219.5t149.5 -71.5 t147.5 80.5t57.5 197.5q0 106 -59.5 181t-135.5 75q-32 0 -68.5 -14.5t-71 -42.5t-57 -77t-22.5 -109z" />
<glyph unicode="P" horiz-adv-x="1226" d="M90 2l8 1401h109q81 0 249 8t246 8q197 0 332 -137t135 -336q0 -273 -135.5 -430.5t-380.5 -157.5q-42 0 -121 9v-72t1 -78t3 -68t5.5 -76.5t9.5 -70.5q-109 -8 -246 -8q-119 0 -215 8zM528 750q61 -9 95 -9q120 0 120 160q0 53 -32 92t-82 39q-57 0 -101 -6v-276z" />
<glyph unicode="Q" horiz-adv-x="1480" d="M55 653q0 230 87 410.5t245.5 281.5t362.5 101q137 0 246.5 -42.5t181.5 -115t119.5 -174.5t68 -215.5t20.5 -243.5q0 -354 -210 -534q168 -271 210 -324q-65 -32 -202 -63.5t-228 -44.5l-161 284q-61 -6 -127 -6q-127 0 -231 39t-173.5 104.5t-117.5 154.5t-69.5 186 t-21.5 202zM532 768q0 -137 52 -212t137 -75q86 0 136 85t50 190t-51 177.5t-125 72.5q-32 0 -65 -13.5t-64 -40t-50.5 -74.5t-19.5 -110z" />
<glyph unicode="R" horiz-adv-x="1320" d="M90 0l8 1407h62h47q90 0 233 5q184 7 258 7q121 0 230.5 -63t176 -171t66.5 -231q0 -312 -206 -450q161 -284 284 -441q-72 -34 -194 -63t-226 -43l-266 453q-29 0 -43 2q1 -39 1 -132.5t1.5 -161.5t5.5 -118q-164 -8 -223 -8q-119 0 -215 8zM518 768q41 -6 113 -6 q121 0 121 149q0 47 -33.5 84t-83.5 37q-73 0 -117 -6v-258z" />
<glyph unicode="S" horiz-adv-x="1228" d="M76 45l49 434q19 -6 89 -28.5t108 -32.5q121 -33 159 -33q109 0 109 43q0 36 -68 78q-26 17 -86 49t-86 47q-55 32 -96 64t-81.5 79t-62.5 109t-22 135q0 97 32 174.5t86 127.5t128 83.5t154 47.5t169 14q261 0 484 -99l-74 -411q-116 51 -198 75.5t-162 24.5 q-26 0 -38.5 -1t-36.5 -5t-36 -16t-12 -31q0 -4 1.5 -8t6 -8.5t8 -7.5t12 -8.5t13.5 -8t16.5 -9.5t17.5 -10q11 -6 82 -42.5t113 -61.5q59 -36 106 -74.5t91.5 -91t69 -119.5t24.5 -143q0 -74 -24 -135.5t-66 -105t-95.5 -76t-117 -51t-126 -27.5t-126.5 -9q-330 0 -514 68z " />
<glyph unicode="T" horiz-adv-x="1214" d="M6 983v432l1192 -2v-424q-171 0 -364 2q-3 -105 -3 -184q0 -629 5 -807h-445q-4 551 -6 662l-4 327q-84 -1 -173.5 -2.5t-141.5 -2.5t-60 -1z" />
<glyph unicode="U" horiz-adv-x="1359" d="M80 1407q202 12 400 13q40 0 79 -1q-8 -376 -8 -477q0 -14 -2 -57q-3 -43 -3 -81q0 -10 1 -20q1 -31 1 -69q2 -51 9.5 -91t20.5 -76.5t37.5 -56.5t58.5 -20q31 0 56 13t40.5 31t26.5 49.5t16.5 55.5t8 64t3 59.5t0.5 55.5v14q0 244 -14 596l465 16q8 -291 8 -509 q0 -245 -10 -398q-9 -144 -107.5 -268.5t-240.5 -194t-285 -69.5q-153 0 -274 52.5t-197 162.5t-80 264q-1 50 -1 193q1 108 1 268v87q0 301 -10 394z" />
<glyph unicode="V" horiz-adv-x="1443" d="M-12 1411l520 10q18 -108 50 -249t84 -348t56 -224l230 821l477 -10q-187 -543 -236 -690l-249 -719q-39 -1 -93.5 -2t-194.5 -3q-56 -1 -95 -1q-58 0 -76 2q-181 533 -228 670z" />
<glyph unicode="W" horiz-adv-x="1964" d="M-10 1411l522 10q54 -409 127 -800l162 563l332 28q18 -78 92.5 -298.5t93.5 -284.5l149 792l478 -10q-371 -1389 -383 -1409q-36 -1 -88 -2t-186 -3q-54 -1 -91 -1q-56 0 -74 2l-149 428l-158 -424q-36 -1 -88.5 -2t-186.5 -3q-54 -1 -91 -1q-56 0 -74 2z" />
<glyph unicode="X" horiz-adv-x="1400" d="M-10 25q289 455 418 641l-388 704l449 76q107 -180 203 -346l209 342q384 -39 495 -53q-63 -97 -221.5 -323t-261.5 -368q80 -135 203 -316t229 -319l-520 -100q-84 147 -170 299l-168 -299z" />
<glyph unicode="Y" horiz-adv-x="1376" d="M-23 1411l476 10l233 -469l272 469l449 -10l-502 -879l17 -532h-476l25 502z" />
<glyph unicode="Z" horiz-adv-x="1339" d="M61 252q172 217 250 326q6 8 36.5 50.5t40.5 56.5t38 53t40.5 57.5t35 51t35.5 53t27 44.5t24 43l-504 -10l4 438h1024l148 -203q-69 -117 -132 -217q-96 -158 -372 -565q56 0 215 6q30 1 61 1q23 -1 47 -1q56 -2 100 -4l44 -2l-19 -432q-116 6 -194 6l-863 -12z" />
<glyph unicode="[" horiz-adv-x="712" d="M61 -176v1786h551v-334h-178q0 -93 1 -278.5t1 -278.5v-559h191v-336h-566z" />
<glyph unicode="\" horiz-adv-x="915" d="M8 1569h346l543 -1704h-344z" />
<glyph unicode="]" horiz-adv-x="708" d="M63 160h193q0 104 -2 280.5t-2 278.5v557h-174v334h553q0 -298 -2 -893t-2 -893h-564v336z" />
<glyph unicode="^" horiz-adv-x="1019" d="M4 778l363 658h221l356 -658h-362l-105 232l-112 -232h-361z" />
<glyph unicode="_" horiz-adv-x="647" d="M-39 -78h717v-272h-717v272z" />
<glyph unicode="`" horiz-adv-x="837" d="M109 1532h354l244 -356h-304z" />
<glyph unicode="a" horiz-adv-x="1249" d="M61 563v15q0 63 15 131q17 76 56.5 151t95.5 134.5t139.5 96.5t181.5 37q116 0 215 -75l317 82l74 -1121l-399 -32l-13 139q-153 -146 -256 -146q-74 0 -135.5 21t-104 56t-75.5 84.5t-53 101t-33 112t-18.5 110.5t-6.5 103zM461 584q0 -203 129 -203q110 0 127 190 q1 16 1 30q0 75 -34 127q-41 62 -92 63q-53 0 -92 -53t-39 -154z" />
<glyph unicode="b" horiz-adv-x="1294" d="M72 1503l411 25l11 -459q104 94 247 94q457 0 473 -596q1 -14 1 -28q-1 -57 -11 -119q-12 -76 -45.5 -155.5t-83 -141.5t-129.5 -101.5t-178 -39.5q-134 0 -248 92l2 -74l-387 -16zM559 594q0 -39 12 -82.5t42 -79t71 -35.5q36 0 63 20.5t41 53t20.5 65.5t6.5 66 q0 37 -5 69.5t-17.5 67.5t-39 55.5t-65.5 20.5q-129 0 -129 -221z" />
<glyph unicode="c" horiz-adv-x="1093" d="M68 551q0 136 30 242.5t92.5 187t167 123.5t246.5 43q118 0 233 -49t185 -137q-53 -61 -132.5 -129.5t-150.5 -98.5q-20 36 -59 57t-80 21q-42 0 -72.5 -33.5t-43.5 -77.5t-13 -90q0 -35 6 -69.5t19 -70t40 -57.5t64 -22q55 0 94 18t78 60q37 -15 91 -55.5t83.5 -67 t81.5 -74.5q-58 -110 -189.5 -204.5t-250.5 -94.5q-161 0 -281 80.5t-179.5 210t-59.5 287.5z" />
<glyph unicode="d" horiz-adv-x="1298" d="M63 582v19q0 62 11 128q13 76 46.5 155t83 140.5t129 101t177.5 39.5q135 0 242 -86l-17 437l430 24l19 -1540l-387 -16l-4 102q-110 -102 -256 -102q-458 0 -474 598zM463 608q0 -98 31 -155.5t96 -57.5q61 0 92 49t37 152q1 12 1 24q0 78 -36 132q-40 62 -90 61 q-53 0 -92 -52.5t-39 -152.5z" />
<glyph unicode="e" horiz-adv-x="1161" d="M61 569q0 137 39.5 248.5t108.5 184t161 112t199 39.5q147 0 270.5 -65.5t190.5 -200.5q24 -48 37.5 -121t15.5 -122l2 -48l-651 -131q6 -69 51.5 -106t112.5 -42q13 -1 26 -1q68 0 142 26q88 31 131 82l133 -264q-6 -8 -17 -20t-50 -44t-82.5 -56.5t-113.5 -44.5 t-144 -20q-562 0 -562 594zM430 676l309 69q-11 41 -51.5 84t-89.5 43q-25 0 -51 -10t-52.5 -30.5t-44 -61t-20.5 -94.5z" />
<glyph unicode="f" horiz-adv-x="1058" d="M47 874q0 71 4 211h199q0 17 -1 52t-1 53q0 182 112 303t299 121q146 0 373 -78l-86 -283q-36 18 -90.5 34t-81.5 16q-34 0 -59 -8.5t-39.5 -27t-23.5 -35t-12.5 -45.5t-4 -45t-0.5 -47v-10h342l4 -307l-324 -6l5 -780q-86 -6 -173 -6q-142 0 -245 12q8 548 10 764 l-203 -6q-4 39 -4 118z" />
<glyph unicode="g" horiz-adv-x="1310" d="M70 569v19q0 63 11 130q13 76 46 155.5t83 142t129 102t177 39.5q131 0 246 -90q0 1 -2 28.5t-6 47.5l432 -6q5 -75 15.5 -350.5t18.5 -513.5l7 -238q1 -20 1 -39q0 -136 -38 -238q-42 -115 -131 -184t-215 -98q-107 -26 -245 -26q-24 0 -48 1q-85 2 -330 70l84 364 q172 -54 301 -57h11q86 0 133 46q51 50 53 128q0 8 1 36.5t1 47.5q-109 -104 -260 -104q-459 0 -475 587zM469 602q0 -203 129 -203q60 0 90.5 45t36.5 146q1 12 1 24q0 79 -36 133q-40 62 -90 62q-53 0 -92 -53t-39 -154z" />
<glyph unicode="h" horiz-adv-x="1218" d="M106 1513l388 -4l10 -489q117 117 239 117q112 0 196 -59.5t126 -152t45 -202.5q4 -122 14 -725l-401 8q4 88 4 449v51.5t-1 48t-3 47t-5.5 39.5t-9.5 35.5t-14 25t-19.5 18t-25.5 5.5q-31 0 -60 -17.5t-43 -34t-34 -44.5l12 -629h-405z" />
<glyph unicode="i" horiz-adv-x="622" d="M109 1395q0 77 63 135.5t150 58.5q85 0 147.5 -58.5t62.5 -135.5t-62 -131t-148 -54q-87 0 -150 54t-63 131zM111 1128l413 -14l31 -1118l-442 -6z" />
<glyph unicode="j" horiz-adv-x="622" d="M-119 -508l37 346q56 -10 96 -10q66 0 90 27q14 14 17 43q4 18 4 53v35q0 123 -9 522q-12 467 -12 614l441 6q-6 -30 -6 -253q0 -259 8 -781v-43q0 -195 -33 -325q-11 -40 -41.5 -82.5t-84.5 -85t-127.5 -67.5t-168.5 -29h-21q-87 0 -190 30zM109 1403q0 77 63 135.5 t150 58.5q85 0 147.5 -58.5t62.5 -135.5q0 -78 -62 -132t-148 -54q-87 0 -150 53.5t-63 132.5z" />
<glyph unicode="k" horiz-adv-x="1212" d="M86 1528l420 -15l6 -643q61 74 161.5 186.5t104.5 112.5l406 -69l-451 -451l479 -583q-139 -53 -245 -79.5t-234 -35.5l-229 377l4 -336l-420 -6z" />
<glyph unicode="l" horiz-adv-x="641" d="M129 1536l399 -12l29 -1538l-426 -6z" />
<glyph unicode="m" horiz-adv-x="1804" d="M106 1153l383 -12l5 -137q115 122 249 122q98 0 180.5 -49t129.5 -135q130 164 286 164q84 0 153.5 -33.5t115 -91t71 -130.5t27.5 -155q4 -116 14 -700l-401 10q4 84 4 254q0 6 1 42q1 24 1 47q-1 11 -1 23q0 34 -0.5 83.5t-4.5 89t-10.5 76t-18.5 57t-28 20.5 q-50 0 -150 -100l12 -582l-401 11q4 84 4 254q0 5 1 41q1 24 1 48q-1 12 -1 24q0 34 -0.5 83t-4.5 88.5t-10.5 76t-18.5 57t-28 20.5q-59 0 -162 -115l14 -618l-409 -6z" />
<glyph unicode="n" horiz-adv-x="1232" d="M106 1126l388 -12l2 -131q125 143 268 143q111 0 195 -58t126 -149.5t45 -201.5q6 -183 15 -721l-402 10q5 110 5 262q0 4 0.5 43t0.5 73t-1 85.5t-5.5 91.5t-11 78t-19 59t-28.5 21q-54 0 -178 -131l16 -594l-413 -6z" />
<glyph unicode="o" horiz-adv-x="1175" d="M63 518q0 92 16 178.5t54 170t95 145.5q56 62 146 100q85 36 190 35h11q110 -2 201 -39.5t150 -96.5t100 -136.5t59.5 -156.5t20.5 -159v-16q0 -43 -4 -87q-6 -52 -22 -111t-41 -111.5t-66 -100.5t-92.5 -83t-123.5 -56t-157 -21q-98 0 -181 24.5t-140 67.5t-100 96.5 t-67.5 116t-36.5 122t-12 118.5zM438 602q-1 -11 -1 -21q-1 -77 41 -133q46 -62 100 -63q54 0 98.5 53.5t44.5 151.5q0 92 -37.5 151.5t-103.5 59.5q-130 0 -142 -199z" />
<glyph unicode="p" horiz-adv-x="1253" d="M74 1114l409 25l2 -76q102 92 246 92q457 0 473 -598v-19q0 -62 -11 -128q-13 -77 -46 -156.5t-83 -141.5t-129 -101.5t-177 -39.5q-133 0 -248 90l14 -575l-395 -16zM549 598q-1 -12 -1 -24q0 -78 36 -132q40 -61 90 -61q53 0 92 52.5t39 152.5q0 98 -31.5 156.5 t-95.5 58.5q-61 0 -92 -49.5t-37 -153.5z" />
<glyph unicode="q" horiz-adv-x="1267" d="M55 561v19q0 63 11 130q13 76 46.5 155.5t83 142t129 102t177.5 39.5q150 0 272 -115l2 127l416 2l-66 -1691l-389 4l13 561q-91 -72 -222 -72q-457 0 -473 596zM455 596q0 -98 31.5 -156.5t95.5 -58.5q61 0 92 49.5t37 153.5q1 12 1 24q0 78 -36 132q-40 61 -90 61 q-53 0 -92 -52.5t-39 -152.5z" />
<glyph unicode="r" horiz-adv-x="976" d="M76 532q-3 133 -3 258q0 174 5 332l424 -2q-2 -45 -2 -80l-2 -39q109 75 237 101q28 4 56 4q17 0 33 -2q44 -4 74 -11l32 -8l-76 -464q-94 30 -139 30q-54 0 -111.5 -37.5t-97.5 -81.5q10 -501 10 -532h-414q-20 214 -26 532z" />
<glyph unicode="s" horiz-adv-x="1015" d="M59 100l68 363q65 -50 148 -94.5t139 -44.5q44 0 44 38q0 6 -1 13q-14 31 -58.5 69.5t-96.5 76.5t-103 82t-85 100.5t-34 117.5q0 66 24 122.5t65 95t95.5 66t114 40t121.5 12.5q204 0 440 -88l-72 -303q-161 72 -260 72q-67 0 -67 -41q0 -18 30 -40t74.5 -45t97 -60 t97 -79t74.5 -108t30 -143q0 -93 -55.5 -175t-141.5 -128t-178 -46q-132 0 -250 32t-260 95z" />
<glyph unicode="t" horiz-adv-x="1107" d="M41 1085h225q2 92 2 279l437 133l-9 -412h314l-11 -342h-311q0 -43 -2 -128t-2 -128q0 -102 80 -102q58 0 190 80l80 -373q-97 -53 -220 -87t-226 -34q-85 0 -147.5 29t-98.5 74t-57 112.5t-27 132.5q-6 56 -6 125v21q0 58 4.5 156t5.5 122l-213 7z" />
<glyph unicode="u" horiz-adv-x="1269" d="M100 754q-2 107 -2 202t2 179h402q-1 -27 -1 -68q0 -103 7 -296q10 -270 22 -304q10 -25 35 -38t51 -13q49 0 83.5 30t52.5 80l-21 609h416l12 -1155l-387 20l-4 106q-53 -62 -132 -96.5t-163 -34.5t-149 32.5t-105.5 90.5t-63.5 126.5t-32 150.5q-19 165 -23 379z" />
<glyph unicode="v" horiz-adv-x="1218" d="M16 1085q61 15 169.5 31.5t186.5 25.5l79 9q71 -265 96 -369q10 -40 78 -200q42 144 59 229l68 326l422 -21q-62 -258 -140 -510q-38 -122 -94 -274t-92 -243l-37 -91l-379 2q-88 141 -238 517.5t-178 567.5z" />
<glyph unicode="w" horiz-adv-x="1892" d="M16 1085q61 15 171 31.5t190 25.5l80 9q57 -256 90 -369q25 -83 76 -204q46 156 61 233l68 326l378 -21q34 -165 80 -309q31 -92 84 -221q53 199 58 225l67 326l422 -19q-63 -260 -141 -512q-38 -122 -94 -274t-92 -243l-37 -91l-379 2q-71 146 -154 360 q-29 -87 -62.5 -177.5t-51.5 -137.5l-19 -47l-381 2q-92 171 -239.5 535.5t-174.5 549.5z" />
<glyph unicode="x" horiz-adv-x="1259" d="M25 31l346 520q-218 336 -334 571l473 23q24 -82 104 -225l142 215h442l-364 -560q201 -294 385 -546l-467 -45q-26 36 -156 227l-150 -229q-4 0 -73.5 6t-118.5 12z" />
<glyph unicode="y" horiz-adv-x="1327" d="M16 1122l453 8q3 -11 33 -109t71 -226.5t64 -190.5q50 123 78 225q14 46 34 124t33 133l13 55l483 -19q-80 -252 -180 -504q-49 -123 -192.5 -413.5t-262.5 -520.5l-119 -229l-477 88q21 22 58.5 77t82.5 129t79.5 132t73 125t40.5 70q-78 161 -111 258 q-15 44 -62.5 179.5t-78.5 225.5t-65 202.5t-48 180.5z" />
<glyph unicode="z" horiz-adv-x="1204" d="M82 1133l975 -15l65 -194q-309 -432 -368 -518h387l-19 -412q-145 6 -256 10q-89 3 -223 3q-21 -1 -45 -1q-164 0 -319 -2l-154 -2l-35 180q385 513 418 570l-424 -9z" />
<glyph unicode="{" horiz-adv-x="903" d="M53 614v213q59 4 105 4q29 3 35 7q10 4 12 15.5t2 43.5v14q0 48 -9.5 145t-9.5 146q0 78 18 144t55.5 120.5t104 85.5t156.5 31q139 0 258 -80l-49 -219q-99 29 -139 29q-36 0 -43 -15l-6 -24v-43q0 -48 9 -145t9 -146q0 -122 -90 -219q88 -78 88 -250q0 -42 -6 -125 t-6 -125q0 -31 2 -45q0 -17 6 -26q6 -17 49 -17q40 0 127 25l57 -213q-133 -105 -268 -105q-71 0 -128 22t-94.5 59t-62.5 88t-36 105.5t-11 114.5q0 53 11.5 159t11.5 159q0 48 -27 57q-12 6 -41 6q-39 0 -90 4z" />
<glyph unicode="|" horiz-adv-x="591" d="M102 -135v1710h340v-1710h-340z" />
<glyph unicode="}" horiz-adv-x="903" d="M74 -55l57 213q87 -25 127 -25q43 0 49 17q6 9 6 26q2 14 2 45q0 42 -6 125t-6 125q0 172 88 250q-90 97 -90 219q0 49 9 146t9 145v43l-6 24q-7 15 -43 15q-40 0 -139 -29l-49 219q119 80 258 80q90 0 156.5 -31t104 -85.5t55.5 -120.5t18 -144q0 -49 -9.5 -146 t-9.5 -145v-8q0 -53 9 -61q2 -3 6 -4q6 -4 35 -7q45 0 104 -4v-213q-51 -4 -90 -4q-29 0 -41 -6q-27 -9 -27 -57q0 -53 11.5 -159t11.5 -159q0 -60 -11 -114.5t-36 -105.5t-62.5 -88t-94.5 -59t-128 -22q-135 0 -268 105z" />
<glyph unicode="~" horiz-adv-x="1163" d="M78 1085q3 23 18 62t43 90t63 94.5t84.5 74t102.5 30.5q55 0 121 -37t127 -74t102 -37q55 0 113 38t92 95l129 -141q-7 -23 -25 -58t-49.5 -77.5t-68.5 -78.5t-86.5 -60.5t-98.5 -24.5t-103.5 20.5t-93 45t-79.5 45t-66 20.5q-59 0 -107.5 -38t-78.5 -105z" />
<glyph unicode="&#xa1;" horiz-adv-x="753" d="M76 -92l63 1032l367 -25l98 -983zM115 1239q0 70 61 119t148 49q86 0 146 -49t60 -119q0 -73 -60.5 -127.5t-145.5 -54.5t-147 54.5t-62 127.5z" />
<glyph unicode="&#xa2;" horiz-adv-x="974" d="M35 776q0 150 90 270t233 168v234h314v-227q85 -21 155 -76.5t107 -151.5l-238 -139q-49 86 -147 86q-67 0 -113.5 -46t-46.5 -118q0 -68 45.5 -113t104.5 -45q93 0 145 74l238 -164q-67 -81 -125.5 -124t-124.5 -66v-225h-314v225q-143 48 -233 168t-90 270z" />
<glyph unicode="&#xa3;" horiz-adv-x="1185" d="M25 575v234l165 -4q-4 102 -4 149q0 132 45.5 235.5t144 167.5t238.5 64q129 0 208 -34t165 -123l-106 -273q-61 68 -98.5 96.5t-69.5 28.5q-35 0 -61.5 -12t-43 -29t-27.5 -46t-15.5 -52.5t-6 -60.5t-1 -57t2.5 -54l180 4v-234h-180q0 -44 6 -227h510v-348h-944 q62 215 62 430q0 84 -5 145h-165z" />
<glyph unicode="&#xa7;" horiz-adv-x="1085" d="M43 702q-15 177 109 299q-19 62 -19 119q0 93 39.5 167.5t103 120t147 71.5t170.5 27t174 -20t157 -63l8 -174v9l1 16q1 -13 7 -180l-4 6q-54 76 -163 107.5t-181 13.5q-22 -6 -35.5 -18t-16.5 -24.5t-2 -23t5 -16.5q84 -10 210 -53t183 -89l4 -2q43 -34 75.5 -99.5 t37.5 -119.5q12 -178 -111 -295q21 -58 21 -119q0 -93 -39.5 -168t-103.5 -120.5t-147 -71.5t-170.5 -26.5t-174.5 20.5t-158 63q-11 304 -16 330v19l4 -7q34 -48 82 -81t93 -45t90.5 -15t74.5 8q29 7 44 24.5t14 31t-3 20.5q-84 10 -210 52.5t-183 88.5l-4 2 q-43 34 -75.5 97.5t-37.5 117.5zM392 762q9 -36 38 -47q23 -9 47.5 -16t53 -12t48 -7.5t54.5 -6t49 -5.5q13 21 1 56t-44 48q-101 41 -240 47q-16 -21 -7 -57z" />
<glyph unicode="&#xa8;" horiz-adv-x="1091" d="M137 1395q0 76 55.5 134t131.5 58q74 0 129 -58t55 -134q0 -77 -54.5 -130t-129.5 -53q-76 0 -131.5 53t-55.5 130zM590 1395q0 76 55 134t131 58q74 0 129.5 -58t55.5 -134q0 -77 -55 -130t-130 -53q-76 0 -131 53t-55 130z" />
<glyph unicode="&#xa9;" horiz-adv-x="1556" d="M-16 735q0 155 62.5 296t167.5 243t251 162.5t307 60.5t307 -60.5t251.5 -162.5t168 -243t62.5 -296t-62.5 -296t-168 -243t-251.5 -162.5t-307 -60.5t-307 60.5t-251 162.5t-167.5 243t-62.5 296zM188 735q0 -154 78.5 -284t213 -205.5t292.5 -75.5t292.5 75.5 t213 205.5t78.5 284q0 153 -78.5 282.5t-213 205t-292.5 75.5t-292.5 -75.5t-213 -205t-78.5 -282.5zM336 731q0 118 57 219t156.5 160t218.5 59q56 0 114.5 -15.5t115.5 -47.5t100.5 -90t60.5 -133l-295 -86q-25 71 -88 71q-41 0 -76.5 -32t-35.5 -99q0 -66 36.5 -101.5 t75.5 -35.5q21 0 47.5 17t40.5 47l291 -125q-167 -246 -387 -246q-119 0 -218.5 59t-156.5 160t-57 219z" />
<glyph unicode="&#xaa;" horiz-adv-x="903" d="M53 1022q-1 51 11.5 105t40.5 107.5t68.5 96t101 68.5t131.5 26q78 0 155 -53l230 58l53 -799l-289 -23l-8 101q-105 -105 -185 -105q-74 0 -131 29t-89 72t-53 102.5t-28 109.5t-8 105zM342 1038q0 -145 94 -145q75 0 92 135q6 67 -24.5 112.5t-67.5 45.5 q-38 0 -66 -38.5t-28 -109.5z" />
<glyph unicode="&#xab;" horiz-adv-x="1050" d="M61 424v199l445 376v-327l-180 -148l180 -157v-324zM537 424v199l444 376v-327l-180 -148l180 -157v-324z" />
<glyph unicode="&#xad;" horiz-adv-x="716" d="M35 506v293h579v-293h-579z" />
<glyph unicode="&#xae;" horiz-adv-x="1556" d="M-16 735q0 155 62.5 296t167.5 243t251 162.5t307 60.5t307 -60.5t251.5 -162.5t168 -243t62.5 -296t-62.5 -296t-168 -243t-251.5 -162.5t-307 -60.5t-307 60.5t-251 162.5t-167.5 243t-62.5 296zM188 735q0 -154 78.5 -284t213 -205.5t292.5 -75.5t292.5 75.5 t213 205.5t78.5 284q0 153 -78.5 282.5t-213 205t-292.5 75.5t-292.5 -75.5t-213 -205t-78.5 -282.5zM418 311q22 439 0 863h344q91 0 178.5 -42t146 -119t58.5 -167q0 -133 -121 -221q82 -145 131 -314h-334q-13 147 -67 236h-19l10 -236h-327zM711 758q70 4 112 23.5 t41 66.5q-3 92 -145 100q-11 -117 -8 -190z" />
<glyph unicode="&#xaf;" horiz-adv-x="1210" d="M133 1286v230h942v-230h-942z" />
<glyph unicode="&#xb0;" horiz-adv-x="944" d="M20 1081q0 166 126 284t305 118q178 0 303 -118t125 -284q0 -165 -125 -283t-303 -118q-179 0 -305 118t-126 283zM297 1081q0 -60 45.5 -102.5t108.5 -42.5q62 0 106.5 42.5t44.5 102.5q0 61 -44.5 103.5t-106.5 42.5q-63 0 -108.5 -42.5t-45.5 -103.5z" />
<glyph unicode="&#xb4;" horiz-adv-x="837" d="M190 1176l244 356h354l-294 -356h-304z" />
<glyph unicode="&#xb6;" horiz-adv-x="1341" d="M55 879q0 106 44.5 205t116 168.5t162 111t181.5 41.5h653q-20 -799 0 -1405h-626q17 197 14 367h-45q-90 0 -180 39t-161 105t-115 163t-44 205zM442.5 878.5q0.5 -44.5 17 -82.5t54 -64.5t88.5 -29.5q0 59 -12 365q-47 -7 -81.5 -36t-50.5 -68.5t-15.5 -84zM864 137h88 q18 524 -2 1100h-86q-15 -583 0 -1100z" />
<glyph unicode="&#xb7;" horiz-adv-x="616" d="M82 563q0 88 64.5 152.5t154.5 64.5q92 0 156.5 -64.5t64.5 -152.5q0 -86 -64 -144.5t-157 -58.5q-91 0 -155 58.5t-64 144.5z" />
<glyph unicode="&#xb8;" horiz-adv-x="1034" d="M233 -332l50 107q107 -56 166 -56q29 0 44 15.5t15 40.5t-34.5 39.5t-80.5 5.5l-80 39l150 190h153l-131 -149q46 3 85.5 -2.5t73 -21t52.5 -46t19 -74.5q0 -86 -69 -126t-183 -40q-49 0 -106.5 19.5t-90.5 38.5z" />
<glyph unicode="&#xba;" horiz-adv-x="851" d="M47 983q0 83 19 158.5t59 143t113 107t170 38.5q78 -2 141.5 -28.5t105 -68.5t70 -97t41.5 -110t14 -112q1 -52 -7.5 -105t-33.5 -109.5t-63.5 -100t-103.5 -71.5t-148 -28t-149.5 25t-108 64t-69 91t-39 102.5t-11.5 100.5zM309 1042q-4 -63 29 -108t70 -45 q39 0 70.5 38t31.5 107q0 66 -27 108t-73 42q-89 0 -101 -142z" />
<glyph unicode="&#xbb;" horiz-adv-x="1030" d="M61 43v324l179 157l-179 148v327l445 -376v-199zM537 43v324l178 157l-178 148v327l444 -376v-199z" />
<glyph unicode="&#xbf;" horiz-adv-x="1292" d="M66 313q0 80 28 145t71 105t96.5 76t102 59.5t90 55t58.5 63.5q14 27 18.5 55t1.5 42l-2 14l344 35q4 -24 8.5 -63t1.5 -121t-26 -120q-19 -32 -60 -63t-82.5 -55t-81.5 -50.5t-65.5 -62.5t-25.5 -80q0 -56 39 -74t116 -18q79 0 184 30.5t199 84.5l76 -416 q-358 -55 -530 -55q-42 0 -85.5 3.5t-100.5 14.5t-107.5 29t-100.5 50t-86 74t-58.5 104.5t-22.5 137.5zM467 1229q0 71 61 119.5t148 48.5t147 -48t60 -120q0 -73 -61 -126.5t-146 -53.5q-86 0 -147.5 53.5t-61.5 126.5z" />
<glyph unicode="&#xc0;" d="M4 20q195 531 248 676l264 711q34 2 83 3.5t177 5t160 -0.5q205 -567 250 -706l239 -693q-33 -3 -86 -8t-166.5 -15t-188.5 -16.5t-75 -5.5q-6 81 -35 238l-335 2q-6 -27 -30 -113.5t-34 -136.5zM322 1862h354l244 -357h-304zM606 522l225 2l-96 463z" />
<glyph unicode="&#xc1;" d="M4 20q195 531 248 676l264 711q34 2 83 3.5t177 5t160 -0.5q205 -567 250 -706l239 -693q-33 -3 -86 -8t-166.5 -15t-188.5 -16.5t-75 -5.5q-6 81 -35 238l-335 2q-6 -27 -30 -113.5t-34 -136.5zM518 1487l244 356h354l-295 -356h-303zM606 522l225 2l-96 463z" />
<glyph unicode="&#xc2;" d="M4 20q195 531 248 676l264 711q34 2 83 3.5t177 5t160 -0.5q205 -567 250 -706l239 -693q-33 -3 -86 -8t-166.5 -15t-188.5 -16.5t-75 -5.5q-6 81 -35 238l-335 2q-6 -27 -30 -113.5t-34 -136.5zM293 1522l342 381h209l334 -381h-340l-99 116l-106 -116h-340zM606 522 l225 2l-96 463z" />
<glyph unicode="&#xc3;" d="M4 20q195 531 248 676l264 711q34 2 83 3.5t177 5t160 -0.5q205 -567 250 -706l239 -693q-33 -3 -86 -8t-166.5 -15t-188.5 -16.5t-75 -5.5q-6 81 -35 238l-335 2q-6 -27 -30 -113.5t-34 -136.5zM283 1599q3 19 16.5 52t39 76t57.5 80.5t77.5 63t93.5 25.5q49 0 110 -31 t116.5 -62t93.5 -31q51 0 103 31.5t83 80.5l117 -121q-8 -26 -32.5 -65.5t-62.5 -83t-92.5 -74.5t-109.5 -31q-57 0 -120 28.5t-114 56.5t-79 28q-53 0 -97.5 -32.5t-72.5 -90.5zM606 522l225 2l-96 463z" />
<glyph unicode="&#xc4;" d="M4 20q195 531 248 676l264 711q34 2 83 3.5t177 5t160 -0.5q205 -567 250 -706l239 -693q-33 -3 -86 -8t-166.5 -15t-188.5 -16.5t-75 -5.5q-6 81 -35 238l-335 2q-6 -27 -30 -113.5t-34 -136.5zM324 1667q0 76 55 134.5t131 58.5q74 0 129 -58.5t55 -134.5 q0 -77 -54.5 -129.5t-129.5 -52.5q-76 0 -131 52.5t-55 129.5zM606 522l225 2l-96 463zM776 1667q0 76 55.5 134.5t131.5 58.5q74 0 129 -58.5t55 -134.5q0 -77 -54.5 -129.5t-129.5 -52.5q-76 0 -131.5 52.5t-55.5 129.5z" />
<glyph unicode="&#xc5;" d="M4 20q195 531 248 676l264 711q34 2 83 3.5t177 5t160 -0.5q205 -567 250 -706l239 -693q-33 -3 -86 -8t-166.5 -15t-188.5 -16.5t-75 -5.5q-6 81 -35 238l-335 2q-6 -27 -30 -113.5t-34 -136.5zM426 1741q0 112 90 190t221 78q128 0 219 -78t91 -190t-91 -191.5 t-219 -79.5q-130 0 -220.5 79t-90.5 192zM606 522l225 2l-96 463zM635 1741q0 -45 30 -76t72 -31q39 0 69 31t30 76q0 44 -30 75t-69 31q-42 0 -72 -31t-30 -75z" />
<glyph unicode="&#xc7;" horiz-adv-x="1271" d="M59 741q0 194 95 352.5t257.5 247.5t356.5 89q166 0 418 -68q-13 -120 -40 -248.5t-69 -191.5q-8 3 -48 22t-64 29t-63 20.5t-71 10.5q-109 0 -190.5 -78.5t-81.5 -182.5q0 -133 65 -213.5t177 -80.5q118 0 246 81l165 -401q-84 -57 -197 -101t-200 -44h-20l-76 -86 q99 7 164 -26.5t65 -117.5q0 -86 -69 -126t-183 -40q-49 0 -106.5 19.5t-89.5 38.5l-33 20l49 107q107 -56 166 -56q28 0 43.5 15.5t15.5 40.5t-34 39.5t-80 5.5l-80 39l108 139q-286 40 -441 231.5t-155 513.5z" />
<glyph unicode="&#xc8;" horiz-adv-x="1185" d="M86 1407q383 4 512 8q70 2 177.5 1.5t206.5 -2.5l99 -1v-369q-50 6 -105.5 9t-93 4.5t-104.5 -0.5t-90.5 -3t-103.5 -5t-95 -5l3 -131q20 2 103.5 3t94.5 2l232 4q14 -37 14 -172q0 -181 -8 -181q-266 0 -414 -8v-125q290 -19 567 0v-434q-413 0 -542 -4l-430 2 q1 190 -3 442q-2 97 -10 434.5t-10 530.5zM219 1845h354l244 -356h-303z" />
<glyph unicode="&#xc9;" horiz-adv-x="1185" d="M86 1407q383 4 512 8q70 2 177.5 1.5t206.5 -2.5l99 -1v-369q-50 6 -105.5 9t-93 4.5t-104.5 -0.5t-90.5 -3t-103.5 -5t-95 -5l3 -131q20 2 103.5 3t94.5 2l232 4q14 -37 14 -172q0 -181 -8 -181q-266 0 -414 -8v-125q290 -19 567 0v-434q-413 0 -542 -4l-430 2 q1 190 -3 442q-2 97 -10 434.5t-10 530.5zM397 1470l244 357h354l-295 -357h-303z" />
<glyph unicode="&#xca;" horiz-adv-x="1185" d="M86 1407q383 4 512 8q70 2 177.5 1.5t206.5 -2.5l99 -1v-369q-50 6 -105.5 9t-93 4.5t-104.5 -0.5t-90.5 -3t-103.5 -5t-95 -5l3 -131q20 2 103.5 3t94.5 2l232 4q14 -37 14 -172q0 -181 -8 -181q-266 0 -414 -8v-125q290 -19 567 0v-434q-413 0 -542 -4l-430 2 q1 190 -3 442q-2 97 -10 434.5t-10 530.5zM150 1522l342 381h208l334 -381h-340l-98 116l-107 -116h-339z" />
<glyph unicode="&#xcb;" horiz-adv-x="1185" d="M86 1407q383 4 512 8q70 2 177.5 1.5t206.5 -2.5l99 -1v-369q-50 6 -105.5 9t-93 4.5t-104.5 -0.5t-90.5 -3t-103.5 -5t-95 -5l3 -131q20 2 103.5 3t94.5 2l232 4q14 -37 14 -172q0 -181 -8 -181q-266 0 -414 -8v-125q290 -19 567 0v-434q-413 0 -542 -4l-430 2 q1 190 -3 442q-2 97 -10 434.5t-10 530.5zM180 1667q0 76 55.5 134.5t131.5 58.5q74 0 129 -58.5t55 -134.5q0 -77 -54.5 -129.5t-129.5 -52.5q-76 0 -131.5 52.5t-55.5 129.5zM633 1667q0 76 55 134.5t131 58.5q74 0 129.5 -58.5t55.5 -134.5q0 -77 -55 -129.5t-130 -52.5 q-76 0 -131 52.5t-55 129.5z" />
<glyph unicode="&#xcc;" horiz-adv-x="667" d="M-35 1839h354l244 -356h-303zM84 1413l465 2q11 -116 8 -297q-1 -100 -4.5 -282.5t-5.5 -332t-2 -282.5l6 -221h-434q-7 551 -13 662q-3 60 -9.5 292.5t-8.5 264.5z" />
<glyph unicode="&#xcd;" horiz-adv-x="667" d="M84 1413l465 2q11 -116 8 -297q-1 -100 -4.5 -282.5t-5.5 -332t-2 -282.5l6 -221h-434q-7 551 -13 662q-3 60 -9.5 292.5t-8.5 264.5zM92 1491l244 356h354l-295 -356h-303z" />
<glyph unicode="&#xce;" horiz-adv-x="667" d="M-109 1522l342 381h209l334 -381h-340l-98 116l-107 -116h-340zM84 1413l465 2q11 -116 8 -297q-1 -100 -4.5 -282.5t-5.5 -332t-2 -282.5l6 -221h-434q-7 551 -13 662q-3 60 -9.5 292.5t-8.5 264.5z" />
<glyph unicode="&#xcf;" horiz-adv-x="667" d="M-78 1667q0 76 55.5 134.5t131.5 58.5q74 0 129 -58.5t55 -134.5q0 -77 -54.5 -129.5t-129.5 -52.5q-76 0 -131.5 52.5t-55.5 129.5zM84 1413l465 2q11 -116 8 -297q-1 -100 -4.5 -282.5t-5.5 -332t-2 -282.5l6 -221h-434q-7 551 -13 662q-3 60 -9.5 292.5t-8.5 264.5z M375 1667q0 76 55 134.5t131 58.5q74 0 129 -58.5t55 -134.5q0 -77 -54.5 -129.5t-129.5 -52.5q-76 0 -131 52.5t-55 129.5z" />
<glyph unicode="&#xd1;" horiz-adv-x="1542" d="M94 -10q21 667 19 747l-11 633q164 29 394 51q30 -42 113.5 -147.5t92.5 -118.5q26 -40 228 -283q2 51 6.5 123t7 120t2.5 69q0 151 -8 229l485 21q-2 -16 -10 -136q-3 -47 -14.5 -355t-14.5 -449q-6 -237 -6 -478q-26 -8 -56 -15t-68.5 -12.5t-60.5 -8t-68.5 -7.5 t-55.5 -6l-108 152q-1 1 -77 106t-161 220t-162 214l14 -274q0 -7 5.5 -127t5.5 -149v-93q-338 -19 -492 -26zM291 1593q3 19 16.5 52t39 76t57.5 80.5t77.5 63t93.5 25.5q39 0 86 -19.5t83.5 -43t78.5 -43t72 -19.5q51 0 103 31.5t83 81.5l117 -121q-8 -26 -32.5 -65.5 t-62.5 -83t-92.5 -74.5t-109.5 -31q-57 0 -120 28.5t-114 56.5t-79 28q-53 0 -97.5 -32.5t-72.5 -90.5z" />
<glyph unicode="&#xd2;" horiz-adv-x="1433" d="M68 670q0 171 50 314.5t139 243.5t215.5 156t275.5 56q135 0 241 -40.5t176 -110t116 -168.5t65.5 -209.5t19.5 -239.5q0 -327 -179.5 -509.5t-516.5 -182.5q-124 0 -226 40t-170.5 106.5t-116 156.5t-68.5 187t-21 200zM322 1853h354l244 -356h-304zM506 754 q0 -148 59.5 -219.5t149.5 -71.5t147.5 80.5t57.5 197.5q0 106 -59.5 181t-135.5 75q-32 0 -68.5 -14.5t-71 -42.5t-57 -77t-22.5 -109z" />
<glyph unicode="&#xd3;" horiz-adv-x="1433" d="M68 670q0 171 50 314.5t139 243.5t215.5 156t275.5 56q135 0 241 -40.5t176 -110t116 -168.5t65.5 -209.5t19.5 -239.5q0 -327 -179.5 -509.5t-516.5 -182.5q-124 0 -226 40t-170.5 106.5t-116 156.5t-68.5 187t-21 200zM506 754q0 -148 59.5 -219.5t149.5 -71.5 t147.5 80.5t57.5 197.5q0 106 -59.5 181t-135.5 75q-32 0 -68.5 -14.5t-71 -42.5t-57 -77t-22.5 -109zM506 1499l244 356h354l-295 -356h-303z" />
<glyph unicode="&#xd4;" horiz-adv-x="1433" d="M68 670q0 171 50 314.5t139 243.5t215.5 156t275.5 56q135 0 241 -40.5t176 -110t116 -168.5t65.5 -209.5t19.5 -239.5q0 -327 -179.5 -509.5t-516.5 -182.5q-124 0 -226 40t-170.5 106.5t-116 156.5t-68.5 187t-21 200zM287 1509l342 381h209l333 -381h-340l-98 117 l-106 -117h-340zM506 754q0 -148 59.5 -219.5t149.5 -71.5t147.5 80.5t57.5 197.5q0 106 -59.5 181t-135.5 75q-32 0 -68.5 -14.5t-71 -42.5t-57 -77t-22.5 -109z" />
<glyph unicode="&#xd5;" horiz-adv-x="1433" d="M68 670q0 171 50 314.5t139 243.5t215.5 156t275.5 56q135 0 241 -40.5t176 -110t116 -168.5t65.5 -209.5t19.5 -239.5q0 -327 -179.5 -509.5t-516.5 -182.5q-124 0 -226 40t-170.5 106.5t-116 156.5t-68.5 187t-21 200zM262 1599q5 25 26 70t55.5 98t89.5 91t114 38 q49 0 109.5 -31t116 -62t93.5 -31q51 0 103.5 31.5t83.5 80.5l116 -121q-8 -26 -32.5 -65.5t-62.5 -83t-92.5 -74.5t-109.5 -31q-57 0 -120 28.5t-114 56.5t-79 28q-53 0 -97.5 -32.5t-72.5 -90.5zM506 754q0 -148 59.5 -219.5t149.5 -71.5t147.5 80.5t57.5 197.5 q0 106 -59.5 181t-135.5 75q-32 0 -68.5 -14.5t-71 -42.5t-57 -77t-22.5 -109z" />
<glyph unicode="&#xd6;" horiz-adv-x="1433" d="M68 670q0 171 50 314.5t139 243.5t215.5 156t275.5 56q135 0 241 -40.5t176 -110t116 -168.5t65.5 -209.5t19.5 -239.5q0 -327 -179.5 -509.5t-516.5 -182.5q-124 0 -226 40t-170.5 106.5t-116 156.5t-68.5 187t-21 200zM305 1667q0 76 55.5 134.5t131.5 58.5 q74 0 129 -58.5t55 -134.5q0 -77 -54.5 -129.5t-129.5 -52.5q-76 0 -131.5 52.5t-55.5 129.5zM506 754q0 -148 59.5 -219.5t149.5 -71.5t147.5 80.5t57.5 197.5q0 106 -59.5 181t-135.5 75q-32 0 -68.5 -14.5t-71 -42.5t-57 -77t-22.5 -109zM758 1667q0 76 55 134.5 t131 58.5q74 0 129 -58.5t55 -134.5q0 -77 -54.5 -129.5t-129.5 -52.5q-76 0 -131 52.5t-55 129.5z" />
<glyph unicode="&#xd8;" horiz-adv-x="1433" d="M68 670q0 171 50 314.5t139 243.5t215.5 156t275.5 56q40 0 81 -6l76 194l295 -6l-106 -276q141 -95 206.5 -271t65.5 -403q0 -327 -179.5 -509.5t-516.5 -182.5q-37 0 -99 8l-71 -187l-295 6l108 285q-122 94 -183.5 249t-61.5 329zM506 754q0 -148 59.5 -219.5 t149.5 -71.5t147.5 80.5t57.5 197.5q0 106 -59.5 181t-135.5 75q-32 0 -68.5 -14.5t-71 -42.5t-57 -77t-22.5 -109z" />
<glyph unicode="&#xd9;" horiz-adv-x="1359" d="M80 1407q242 15 479 12q-8 -376 -8 -477q0 -14 -2 -57t-2.5 -81t1 -89t9.5 -91t21 -76.5t37.5 -56.5t58.5 -20q31 0 56 13t40.5 31t26.5 49.5t16.5 55.5t8 64t3 59.5t0.5 55.5v14q0 244 -14 596l465 16q16 -618 -2 -907q-9 -144 -107.5 -268.5t-240.5 -194t-285 -69.5 q-153 0 -274 52.5t-197 162.5t-80 264q-2 87 -0.5 461.5t-9.5 480.5zM303 1841h354l244 -356h-303z" />
<glyph unicode="&#xda;" horiz-adv-x="1359" d="M80 1407q242 15 479 12q-8 -376 -8 -477q0 -14 -2 -57t-2.5 -81t1 -89t9.5 -91t21 -76.5t37.5 -56.5t58.5 -20q31 0 56 13t40.5 31t26.5 49.5t16.5 55.5t8 64t3 59.5t0.5 55.5v14q0 244 -14 596l465 16q16 -618 -2 -907q-9 -144 -107.5 -268.5t-240.5 -194t-285 -69.5 q-153 0 -274 52.5t-197 162.5t-80 264q-2 87 -0.5 461.5t-9.5 480.5zM455 1479l243 356h355l-295 -356h-303z" />
<glyph unicode="&#xdb;" horiz-adv-x="1359" d="M80 1407q242 15 479 12q-8 -376 -8 -477q0 -14 -2 -57t-2.5 -81t1 -89t9.5 -91t21 -76.5t37.5 -56.5t58.5 -20q31 0 56 13t40.5 31t26.5 49.5t16.5 55.5t8 64t3 59.5t0.5 55.5v14q0 244 -14 596l465 16q16 -618 -2 -907q-9 -144 -107.5 -268.5t-240.5 -194t-285 -69.5 q-153 0 -274 52.5t-197 162.5t-80 264q-2 87 -0.5 461.5t-9.5 480.5zM238 1522l342 381h208l334 -381h-340l-98 116l-106 -116h-340z" />
<glyph unicode="&#xdc;" horiz-adv-x="1359" d="M80 1407q242 15 479 12q-8 -376 -8 -477q0 -14 -2 -57t-2.5 -81t1 -89t9.5 -91t21 -76.5t37.5 -56.5t58.5 -20q31 0 56 13t40.5 31t26.5 49.5t16.5 55.5t8 64t3 59.5t0.5 55.5v14q0 244 -14 596l465 16q16 -618 -2 -907q-9 -144 -107.5 -268.5t-240.5 -194t-285 -69.5 q-153 0 -274 52.5t-197 162.5t-80 264q-2 87 -0.5 461.5t-9.5 480.5zM268 1667q0 76 55.5 134.5t131.5 58.5q74 0 129 -58.5t55 -134.5q0 -77 -54.5 -129.5t-129.5 -52.5q-76 0 -131.5 52.5t-55.5 129.5zM721 1667q0 76 55 134.5t131 58.5q74 0 129.5 -58.5t55.5 -134.5 q0 -77 -55 -129.5t-130 -52.5q-76 0 -131 52.5t-55 129.5z" />
<glyph unicode="&#xe0;" horiz-adv-x="1249" d="M61 563q-2 70 15 146t56.5 151t95.5 134.5t139.5 96.5t181.5 37q116 0 215 -75l317 82l74 -1121l-399 -32l-13 139q-153 -146 -256 -146q-74 0 -135.5 21t-104 56t-75.5 84.5t-53 101t-33 112t-18.5 110.5t-6.5 103zM211 1563h354l244 -357h-303zM461 584 q0 -203 129 -203q110 0 127 190q8 95 -33 157.5t-92 62.5q-53 0 -92 -53t-39 -154z" />
<glyph unicode="&#xe1;" horiz-adv-x="1249" d="M61 563q-2 70 15 146t56.5 151t95.5 134.5t139.5 96.5t181.5 37q116 0 215 -75l317 82l74 -1121l-399 -32l-13 139q-153 -146 -256 -146q-74 0 -135.5 21t-104 56t-75.5 84.5t-53 101t-33 112t-18.5 110.5t-6.5 103zM393 1202l244 357h354l-295 -357h-303zM461 584 q0 -203 129 -203q110 0 127 190q8 95 -33 157.5t-92 62.5q-53 0 -92 -53t-39 -154z" />
<glyph unicode="&#xe2;" horiz-adv-x="1249" d="M61 563q-2 70 15 146t56.5 151t95.5 134.5t139.5 96.5t181.5 37q116 0 215 -75l317 82l74 -1121l-399 -32l-13 139q-153 -146 -256 -146q-74 0 -135.5 21t-104 56t-75.5 84.5t-53 101t-33 112t-18.5 110.5t-6.5 103zM182 1249l342 381h209l334 -381h-340l-98 117 l-107 -117h-340zM461 584q0 -203 129 -203q110 0 127 190q8 95 -33 157.5t-92 62.5q-53 0 -92 -53t-39 -154z" />
<glyph unicode="&#xe3;" horiz-adv-x="1249" d="M61 563q-2 70 15 146t56.5 151t95.5 134.5t139.5 96.5t181.5 37q116 0 215 -75l317 82l74 -1121l-399 -32l-13 139q-153 -146 -256 -146q-74 0 -135.5 21t-104 56t-75.5 84.5t-53 101t-33 112t-18.5 110.5t-6.5 103zM147 1327q5 25 26 70t55.5 98t89.5 91t114 38 q39 0 86 -19.5t83.5 -43t78.5 -43t72 -19.5q51 0 103 31.5t83 81.5l117 -121q-8 -26 -32.5 -65.5t-62.5 -83t-92.5 -74.5t-109.5 -31q-57 0 -120 28.5t-114.5 56.5t-79.5 28q-53 0 -97.5 -32.5t-72.5 -90.5zM461 584q0 -203 129 -203q110 0 127 190q8 95 -33 157.5t-92 62.5 q-53 0 -92 -53t-39 -154z" />
<glyph unicode="&#xe4;" horiz-adv-x="1249" d="M61 563q-2 70 15 146t56.5 151t95.5 134.5t139.5 96.5t181.5 37q116 0 215 -75l317 82l74 -1121l-399 -32l-13 139q-153 -146 -256 -146q-74 0 -135.5 21t-104 56t-75.5 84.5t-53 101t-33 112t-18.5 110.5t-6.5 103zM213 1395q0 76 55 134t131 58q74 0 129.5 -58 t55.5 -134q0 -77 -55 -130t-130 -53q-76 0 -131 53t-55 130zM461 584q0 -203 129 -203q110 0 127 190q8 95 -33 157.5t-92 62.5q-53 0 -92 -53t-39 -154zM666 1395q0 76 55 134t131 58q74 0 129 -58t55 -134q0 -77 -54.5 -130t-129.5 -53q-76 0 -131 53t-55 130z" />
<glyph unicode="&#xe5;" horiz-adv-x="1249" d="M61 563q-2 70 15 146t56.5 151t95.5 134.5t139.5 96.5t181.5 37q116 0 215 -75l317 82l74 -1121l-399 -32l-13 139q-153 -146 -256 -146q-74 0 -135.5 21t-104 56t-75.5 84.5t-53 101t-33 112t-18.5 110.5t-6.5 103zM301 1470q0 113 90.5 191t220.5 78q128 0 219 -78.5 t91 -190.5t-91 -191t-219 -79q-130 0 -220.5 78.5t-90.5 191.5zM461 584q0 -203 129 -203q110 0 127 190q8 95 -33 157.5t-92 62.5q-53 0 -92 -53t-39 -154zM510 1470q0 -45 30 -75.5t72 -30.5q39 0 69 30.5t30 75.5q0 44 -30 75.5t-69 31.5q-41 0 -71.5 -31.5t-30.5 -75.5z " />
<glyph unicode="&#xe7;" horiz-adv-x="1093" d="M68 551q0 136 30 242.5t92.5 187t167 123.5t246.5 43q118 0 233 -49t185 -137q-53 -61 -132.5 -129.5t-150.5 -98.5q-20 36 -59 57t-80 21q-42 0 -72.5 -33.5t-43.5 -77.5t-13 -90q0 -35 6 -69.5t19 -70t40 -57.5t64 -22q55 0 94 18t78 60q37 -15 91 -55.5t83.5 -67 t81.5 -74.5q-47 -92 -154.5 -177t-216.5 -111l-71 -84q99 7 164 -26.5t65 -117.5q0 -86 -69 -126t-183 -40q-49 0 -106.5 19.5t-90.5 38.5l-32 20l49 107q107 -56 166 -56q29 0 44 15.5t15 40.5t-34 39.5t-80 5.5l-80 39l94 121q-138 18 -239 100t-151 204t-50 267z" />
<glyph unicode="&#xe8;" horiz-adv-x="1161" d="M61 569q0 137 39.5 248.5t108.5 184t161 112t199 39.5q147 0 270.5 -65.5t190.5 -200.5q24 -48 37.5 -121t15.5 -122l2 -48l-651 -131q6 -69 51.5 -106t112.5 -42q80 -6 167.5 25t131.5 82l133 -264q-6 -8 -17 -20t-50 -44t-82.5 -56.5t-113.5 -44.5t-144 -20 q-562 0 -562 594zM186 1575h355l243 -356h-303zM430 676l309 69q-11 41 -51.5 84t-89.5 43q-25 0 -51 -10t-52.5 -30.5t-44 -61t-20.5 -94.5z" />
<glyph unicode="&#xe9;" horiz-adv-x="1161" d="M61 569q0 137 39.5 248.5t108.5 184t161 112t199 39.5q147 0 270.5 -65.5t190.5 -200.5q24 -48 37.5 -121t15.5 -122l2 -48l-651 -131q6 -69 51.5 -106t112.5 -42q80 -6 167.5 25t131.5 82l133 -264q-6 -8 -17 -20t-50 -44t-82.5 -56.5t-113.5 -44.5t-144 -20 q-562 0 -562 594zM348 1225l244 356h354l-295 -356h-303zM430 676l309 69q-11 41 -51.5 84t-89.5 43q-25 0 -51 -10t-52.5 -30.5t-44 -61t-20.5 -94.5z" />
<glyph unicode="&#xea;" horiz-adv-x="1161" d="M61 569q0 137 39.5 248.5t108.5 184t161 112t199 39.5q147 0 270.5 -65.5t190.5 -200.5q24 -48 37.5 -121t15.5 -122l2 -48l-651 -131q6 -69 51.5 -106t112.5 -42q80 -6 167.5 25t131.5 82l133 -264q-6 -8 -17 -20t-50 -44t-82.5 -56.5t-113.5 -44.5t-144 -20 q-562 0 -562 594zM113 1249l342 381h209l333 -381h-340l-98 117l-106 -117h-340zM430 676l309 69q-11 41 -51.5 84t-89.5 43q-25 0 -51 -10t-52.5 -30.5t-44 -61t-20.5 -94.5z" />
<glyph unicode="&#xeb;" horiz-adv-x="1161" d="M61 569q0 137 39.5 248.5t108.5 184t161 112t199 39.5q147 0 270.5 -65.5t190.5 -200.5q24 -48 37.5 -121t15.5 -122l2 -48l-651 -131q6 -69 51.5 -106t112.5 -42q80 -6 167.5 25t131.5 82l133 -264q-6 -8 -17 -20t-50 -44t-82.5 -56.5t-113.5 -44.5t-144 -20 q-562 0 -562 594zM154 1427q0 76 55 134.5t131 58.5q74 0 129 -58.5t55 -134.5q0 -77 -54.5 -129.5t-129.5 -52.5q-76 0 -131 52.5t-55 129.5zM430 676l309 69q-11 41 -51.5 84t-89.5 43q-25 0 -51 -10t-52.5 -30.5t-44 -61t-20.5 -94.5zM606 1427q0 76 55.5 134.5 t131.5 58.5q74 0 129 -58.5t55 -134.5q0 -77 -54.5 -129.5t-129.5 -52.5q-76 0 -131.5 52.5t-55.5 129.5z" />
<glyph unicode="&#xec;" horiz-adv-x="622" d="M-100 1593h354l244 -356h-303zM111 1128l413 -14l31 -1118l-442 -6z" />
<glyph unicode="&#xed;" horiz-adv-x="622" d="M111 1128l413 -14l31 -1118l-442 -6zM137 1257l244 357h354l-295 -357h-303z" />
<glyph unicode="&#xee;" horiz-adv-x="622" d="M-131 1249l342 381h209l334 -381h-340l-99 117l-106 -117h-340zM111 1128l413 -14l31 -1118l-442 -6z" />
<glyph unicode="&#xef;" horiz-adv-x="622" d="M-100 1395q0 76 55 134t131 58q74 0 129 -58t55 -134q0 -77 -54.5 -130t-129.5 -53q-76 0 -131 53t-55 130zM111 1128l413 -14l31 -1118l-442 -6zM352 1395q0 76 55.5 134t131.5 58q74 0 129 -58t55 -134q0 -77 -54.5 -130t-129.5 -53q-76 0 -131.5 53t-55.5 130z" />
<glyph unicode="&#xf1;" horiz-adv-x="1232" d="M106 1126l388 -12l2 -131q125 143 268 143q111 0 195 -58t126 -149.5t45 -201.5q6 -183 15 -721l-402 10q5 110 5 262q0 4 0.5 43t0.5 73t-1 85.5t-5.5 91.5t-11 78t-19 59t-28.5 21q-54 0 -178 -131l16 -594l-413 -6zM164 1327q5 25 26 70t55.5 98t89.5 91t114 38 q39 0 86 -19.5t83 -43t78 -43t72 -19.5q51 0 103 31.5t83 81.5l117 -121q-8 -26 -32.5 -65.5t-62.5 -83t-92.5 -74.5t-109.5 -31q-57 0 -120 28.5t-114 56.5t-79 28q-53 0 -97.5 -32.5t-72.5 -90.5z" />
<glyph unicode="&#xf2;" horiz-adv-x="1175" d="M63 518q0 92 16 178.5t54 170t95 145.5t146.5 99.5t200.5 35.5q110 -2 201 -39.5t150 -96.5t100 -136.5t59.5 -156.5t20.5 -159q1 -51 -4.5 -103.5t-21.5 -111t-41 -111t-66 -100.5t-92.5 -83t-123.5 -56t-157 -21q-98 0 -181 24.5t-140 67.5t-100 96.5t-67.5 116 t-36.5 122t-12 118.5zM150 1579h354l244 -356h-304zM438 602q-6 -92 40.5 -154.5t99.5 -62.5q54 0 98.5 53.5t44.5 151.5q0 92 -37.5 151.5t-103.5 59.5q-130 0 -142 -199z" />
<glyph unicode="&#xf3;" horiz-adv-x="1175" d="M63 518q0 92 16 178.5t54 170t95 145.5t146.5 99.5t200.5 35.5q110 -2 201 -39.5t150 -96.5t100 -136.5t59.5 -156.5t20.5 -159q1 -51 -4.5 -103.5t-21.5 -111t-41 -111t-66 -100.5t-92.5 -83t-123.5 -56t-157 -21q-98 0 -181 24.5t-140 67.5t-100 96.5t-67.5 116 t-36.5 122t-12 118.5zM348 1221l244 356h354l-295 -356h-303zM438 602q-6 -92 40.5 -154.5t99.5 -62.5q54 0 98.5 53.5t44.5 151.5q0 92 -37.5 151.5t-103.5 59.5q-130 0 -142 -199z" />
<glyph unicode="&#xf4;" horiz-adv-x="1175" d="M63 518q0 92 16 178.5t54 170t95 145.5t146.5 99.5t200.5 35.5q110 -2 201 -39.5t150 -96.5t100 -136.5t59.5 -156.5t20.5 -159q1 -51 -4.5 -103.5t-21.5 -111t-41 -111t-66 -100.5t-92.5 -83t-123.5 -56t-157 -21q-98 0 -181 24.5t-140 67.5t-100 96.5t-67.5 116 t-36.5 122t-12 118.5zM135 1225l342 381h209l334 -381h-340l-98 116l-107 -116h-340zM438 602q-6 -92 40.5 -154.5t99.5 -62.5q54 0 98.5 53.5t44.5 151.5q0 92 -37.5 151.5t-103.5 59.5q-130 0 -142 -199z" />
<glyph unicode="&#xf5;" horiz-adv-x="1175" d="M63 518q0 92 16 178.5t54 170t95 145.5t146.5 99.5t200.5 35.5q110 -2 201 -39.5t150 -96.5t100 -136.5t59.5 -156.5t20.5 -159q1 -51 -4.5 -103.5t-21.5 -111t-41 -111t-66 -100.5t-92.5 -83t-123.5 -56t-157 -21q-98 0 -181 24.5t-140 67.5t-100 96.5t-67.5 116 t-36.5 122t-12 118.5zM109 1319q3 19 16.5 52t39 76t57.5 80.5t77.5 63t93.5 25.5q39 0 86 -19.5t83.5 -43t78.5 -43t72 -19.5q51 0 103 31.5t83 81.5l117 -121q-8 -26 -32.5 -65.5t-62.5 -83t-92.5 -74.5t-109.5 -31q-45 0 -94.5 17.5t-85 38.5t-73 38.5t-60.5 17.5 q-53 0 -97.5 -32t-72.5 -90zM438 602q-6 -92 40.5 -154.5t99.5 -62.5q54 0 98.5 53.5t44.5 151.5q0 92 -37.5 151.5t-103.5 59.5q-130 0 -142 -199z" />
<glyph unicode="&#xf6;" horiz-adv-x="1175" d="M63 518q0 92 16 178.5t54 170t95 145.5t146.5 99.5t200.5 35.5q110 -2 201 -39.5t150 -96.5t100 -136.5t59.5 -156.5t20.5 -159q1 -51 -4.5 -103.5t-21.5 -111t-41 -111t-66 -100.5t-92.5 -83t-123.5 -56t-157 -21q-98 0 -181 24.5t-140 67.5t-100 96.5t-67.5 116 t-36.5 122t-12 118.5zM164 1417q0 76 55 134.5t131 58.5q74 0 129.5 -58.5t55.5 -134.5q0 -77 -55 -129.5t-130 -52.5q-76 0 -131 52.5t-55 129.5zM438 602q-6 -92 40.5 -154.5t99.5 -62.5q54 0 98.5 53.5t44.5 151.5q0 92 -37.5 151.5t-103.5 59.5q-130 0 -142 -199z M616 1417q0 76 55.5 134.5t131.5 58.5q74 0 129 -58.5t55 -134.5q0 -77 -54.5 -129.5t-129.5 -52.5q-76 0 -131.5 52.5t-55.5 129.5z" />
<glyph unicode="&#xf8;" horiz-adv-x="1175" d="M63 518q0 92 16 178.5t54 170t95 145.5t146.5 99.5t200.5 35.5q35 0 70 -6l109 282l295 -6l-148 -385q100 -84 151 -211.5t54 -261.5q1 -51 -4.5 -103.5t-21.5 -111t-41 -111t-66 -100.5t-92.5 -83t-123.5 -56t-157 -21q-52 0 -102 9l-103 -273l-295 6l144 377 q-92 79 -136.5 195.5t-44.5 230.5zM438 602q-6 -92 40.5 -154.5t99.5 -62.5q54 0 98.5 53.5t44.5 151.5q0 92 -37.5 151.5t-103.5 59.5q-130 0 -142 -199z" />
<glyph unicode="&#xf9;" horiz-adv-x="1269" d="M100 753.5q-4 213.5 0 381.5h402q-4 -94 6 -364t22 -304q10 -25 35 -38t51 -13q49 0 83.5 30t52.5 80l-21 609h416l12 -1155l-387 20l-4 106q-53 -62 -132 -96.5t-163 -34.5t-149 32.5t-105.5 90.5t-63.5 126.5t-32 150.5q-19 165 -23 378.5zM250 1583h354l244 -356h-303 z" />
<glyph unicode="&#xfa;" horiz-adv-x="1269" d="M100 753.5q-4 213.5 0 381.5h402q-4 -94 6 -364t22 -304q10 -25 35 -38t51 -13q49 0 83.5 30t52.5 80l-21 609h416l12 -1155l-387 20l-4 106q-53 -62 -132 -96.5t-163 -34.5t-149 32.5t-105.5 90.5t-63.5 126.5t-32 150.5q-19 165 -23 378.5zM399 1212l244 357h354 l-295 -357h-303z" />
<glyph unicode="&#xfb;" horiz-adv-x="1269" d="M100 753.5q-4 213.5 0 381.5h402q-4 -94 6 -364t22 -304q10 -25 35 -38t51 -13q49 0 83.5 30t52.5 80l-21 609h416l12 -1155l-387 20l-4 106q-53 -62 -132 -96.5t-163 -34.5t-149 32.5t-105.5 90.5t-63.5 126.5t-32 150.5q-19 165 -23 378.5zM166 1249l342 381h209 l334 -381h-340l-99 117l-106 -117h-340z" />
<glyph unicode="&#xfc;" horiz-adv-x="1269" d="M100 753.5q-4 213.5 0 381.5h402q-4 -94 6 -364t22 -304q10 -25 35 -38t51 -13q49 0 83.5 30t52.5 80l-21 609h416l12 -1155l-387 20l-4 106q-53 -62 -132 -96.5t-163 -34.5t-149 32.5t-105.5 90.5t-63.5 126.5t-32 150.5q-19 165 -23 378.5zM217 1407q0 76 55 134 t131 58q74 0 129.5 -58t55.5 -134q0 -77 -55 -129.5t-130 -52.5q-76 0 -131 52.5t-55 129.5zM670 1407q0 76 55 134t131 58q74 0 129 -58t55 -134q0 -77 -54.5 -129.5t-129.5 -52.5q-76 0 -131 52.5t-55 129.5z" />
<glyph unicode="&#xff;" horiz-adv-x="1327" d="M16 1122l453 8q3 -11 33 -109t71 -226.5t64 -190.5q50 123 78 225q14 46 34 124t33 133l13 55l483 -19q-80 -252 -180 -504q-49 -123 -192.5 -413.5t-262.5 -520.5l-119 -229l-477 88q21 22 58.5 77t82.5 129t79.5 132t73 125t40.5 70q-78 161 -111 258 q-15 44 -62.5 179.5t-78.5 225.5t-65 202.5t-48 180.5zM252 1425q0 76 55 134.5t131 58.5q74 0 129.5 -58.5t55.5 -134.5q0 -77 -55 -129.5t-130 -52.5q-76 0 -131 52.5t-55 129.5zM705 1425q0 76 55 134.5t131 58.5q74 0 129 -58.5t55 -134.5q0 -77 -54.5 -129.5 t-129.5 -52.5q-76 0 -131 52.5t-55 129.5z" />
<glyph unicode="&#x178;" horiz-adv-x="1376" d="M-23 1411l476 10l233 -469l272 469l449 -10l-502 -879l17 -532h-476l25 502zM266 1683q0 76 55.5 134.5t131.5 58.5q74 0 129 -58.5t55 -134.5q0 -77 -54.5 -129.5t-129.5 -52.5q-76 0 -131.5 52.5t-55.5 129.5zM719 1683q0 76 55 134.5t131 58.5q74 0 129.5 -58.5 t55.5 -134.5q0 -77 -55 -129.5t-130 -52.5q-76 0 -131 52.5t-55 129.5z" />
<glyph unicode="&#x2c6;" horiz-adv-x="917" d="M12 1249l342 381h209l334 -381h-340l-98 117l-107 -117h-340z" />
<glyph unicode="&#x2dc;" horiz-adv-x="1193" d="M164 1327q5 25 26 70t55.5 98t89.5 91t114 38q39 0 86 -19.5t83 -43t78 -43t72 -19.5q51 0 103 31.5t83 81.5l117 -121q-8 -26 -32.5 -65.5t-62.5 -83t-92.5 -74.5t-109.5 -31q-57 0 -120 28.5t-114 56.5t-79 28q-53 0 -97.5 -32.5t-72.5 -90.5z" />
<glyph unicode="&#x2000;" horiz-adv-x="1004" />
<glyph unicode="&#x2001;" horiz-adv-x="2009" />
<glyph unicode="&#x2002;" horiz-adv-x="1004" />
<glyph unicode="&#x2003;" horiz-adv-x="2009" />
<glyph unicode="&#x2004;" horiz-adv-x="669" />
<glyph unicode="&#x2005;" horiz-adv-x="502" />
<glyph unicode="&#x2006;" horiz-adv-x="334" />
<glyph unicode="&#x2007;" horiz-adv-x="334" />
<glyph unicode="&#x2008;" horiz-adv-x="251" />
<glyph unicode="&#x2009;" horiz-adv-x="401" />
<glyph unicode="&#x200a;" horiz-adv-x="111" />
<glyph unicode="&#x2010;" horiz-adv-x="716" d="M35 506v293h579v-293h-579z" />
<glyph unicode="&#x2011;" horiz-adv-x="716" d="M35 506v293h579v-293h-579z" />
<glyph unicode="&#x2012;" horiz-adv-x="716" d="M35 506v293h579v-293h-579z" />
<glyph unicode="&#x2013;" horiz-adv-x="1177" d="M29 424v190h1097v-190h-1097z" />
<glyph unicode="&#x2014;" horiz-adv-x="1507" d="M10 424v190h1444v-190h-1444z" />
<glyph unicode="&#x2018;" horiz-adv-x="460" d="M31 1094q0 140 92 265.5t219 180.5l70 -162q-32 -20 -89 -69t-79 -82q63 -1 97 -55t34 -125q0 -81 -50.5 -130t-117.5 -49q-85 0 -130.5 60.5t-45.5 165.5z" />
<glyph unicode="&#x2019;" horiz-adv-x="460" d="M35 1034q31 20 88.5 69.5t79.5 82.5q-63 1 -97 55t-34 125q0 81 50.5 129.5t117.5 48.5q85 0 130.5 -60t45.5 -165q0 -140 -92.5 -266t-219.5 -181z" />
<glyph unicode="&#x201a;" horiz-adv-x="460" d="M35 135q31 20 88.5 69.5t79.5 82.5q-63 1 -97 55t-34 125q0 81 50.5 129.5t117.5 48.5q85 0 130.5 -60t45.5 -165q0 -140 -92.5 -266t-219.5 -181z" />
<glyph unicode="&#x201c;" horiz-adv-x="878" d="M31 1094q0 140 92 265.5t219 180.5l70 -162q-32 -20 -89 -69t-79 -82q63 -1 97 -55t34 -125q0 -81 -50.5 -130t-117.5 -49q-85 0 -130.5 60.5t-45.5 165.5zM430 1094q0 140 94 265t221 181l70 -162q-33 -21 -91 -70.5t-77 -80.5q63 0 96 -53.5t33 -126.5 q0 -81 -49.5 -130t-116.5 -49q-85 0 -132.5 61t-47.5 165z" />
<glyph unicode="&#x201d;" horiz-adv-x="858" d="M29 1024q32 21 90.5 71t77.5 81q-63 0 -96 53.5t-33 126.5q0 81 49 129.5t116 48.5q85 0 133 -60.5t48 -164.5q0 -140 -94.5 -265.5t-221.5 -181.5zM432 1024q31 20 88.5 69.5t79.5 82.5q-63 1 -97 55t-34 125q0 81 50.5 129.5t117.5 48.5q85 0 130.5 -60t45.5 -165 q0 -140 -92.5 -266t-218.5 -181z" />
<glyph unicode="&#x201e;" horiz-adv-x="858" d="M29 133q32 21 90.5 71t77.5 81q-63 0 -96 53.5t-33 126.5q0 81 49 129.5t116 48.5q85 0 133 -60.5t48 -164.5q0 -140 -94.5 -265.5t-221.5 -181.5zM432 133q31 20 88.5 69.5t79.5 82.5q-63 1 -97 55t-34 125q0 81 50.5 129.5t117.5 48.5q85 0 130.5 -60t45.5 -165 q0 -140 -92.5 -266t-218.5 -181z" />
<glyph unicode="&#x2022;" horiz-adv-x="794" d="M104 662q0 145 87 247.5t210 102.5t210 -102.5t87 -247.5q0 -146 -87 -249.5t-210 -103.5t-210 103.5t-87 249.5z" />
<glyph unicode="&#x2026;" horiz-adv-x="1953" d="M74 174q0 88 64.5 152.5t154.5 64.5q92 0 156.5 -64.5t64.5 -152.5q0 -86 -64 -144.5t-157 -58.5q-91 0 -155 58.5t-64 144.5zM725 174q0 88 64.5 152.5t154.5 64.5q92 0 156.5 -64.5t64.5 -152.5q0 -86 -64 -144.5t-157 -58.5q-91 0 -155 58.5t-64 144.5zM1376 174 q0 88 64.5 152.5t154.5 64.5q92 0 157 -64.5t65 -152.5q0 -86 -64.5 -144.5t-157.5 -58.5q-91 0 -155 58.5t-64 144.5z" />
<glyph unicode="&#x202f;" horiz-adv-x="401" />
<glyph unicode="&#x2039;" horiz-adv-x="573" d="M61 424v199l445 376v-327l-180 -148l180 -157v-324z" />
<glyph unicode="&#x203a;" horiz-adv-x="573" d="M61 43v324l179 157l-179 148v327l445 -376v-199z" />
<glyph unicode="&#x205f;" horiz-adv-x="502" />
<glyph unicode="&#x20ac;" horiz-adv-x="1343" d="M41 471l59 197h121q-4 30 -2 57h-176l61 199h146q15 121 80 220t159.5 160.5t205.5 94.5t225 33q192 0 348 -72l-92 -348q-101 47 -246 47q-82 0 -162.5 -38.5t-93.5 -96.5h284l-59 -199h-262q-1 -21 -1.5 -22.5t2 -14.5t3.5 -20h313l-59 -197h-184q28 -43 96.5 -71.5 t128.5 -28.5q49 0 110.5 14t102.5 45l129 -350q-64 -43 -163 -72t-177 -31q-110 -3 -226 34t-212.5 101t-163.5 159t-80 200h-215z" />
<glyph unicode="&#x2122;" horiz-adv-x="1613" d="M45 1159v244h877q128 -206 213 -309q131 159 223 309h158q-18 -363 0 -787h-273q7 118 4 201l-129 -158l-102 148v-191h-271q14 314 7 543h-213q-7 -244 4 -543h-295q16 314 4 543h-207z" />
<glyph unicode="&#xe000;" horiz-adv-x="1146" d="M0 0v1147h1147v-1147h-1147z" />
</font>
</defs>
</svg>
