<?xml version="1.0" standalone="no"?>
<!DOCTYPE svg PUBLIC "-//W3C//DTD SVG 1.1//EN" "http://www.w3.org/Graphics/SVG/1.1/DTD/svg11.dtd" >
<svg xmlns="http://www.w3.org/2000/svg">
<metadata></metadata>
<defs>
<font id="colfaxblack_italic" horiz-adv-x="1501" >
<font-face units-per-em="2048" ascent="1536" descent="-512" />
<missing-glyph horiz-adv-x="450" />
<glyph horiz-adv-x="2048" />
<glyph horiz-adv-x="2048" />
<glyph unicode="&#xd;" horiz-adv-x="2048" />
<glyph unicode=" "  horiz-adv-x="450" />
<glyph unicode="&#x09;" horiz-adv-x="450" />
<glyph unicode="&#xa0;" horiz-adv-x="450" />
<glyph unicode="!" horiz-adv-x="643" d="M41 193q0 106 69 175.5t187 69.5q89 0 150 -57t61 -145q0 -106 -70.5 -179t-185.5 -73q-90 0 -150.5 59.5t-60.5 149.5zM154 874l100 560h459l-99 -555l-168 -377h-256z" />
<glyph unicode="&#x22;" horiz-adv-x="1040" d="M135 831l107 603h379l-107 -603h-379zM633 831l106 603h379l-106 -603h-379z" />
<glyph unicode="#" horiz-adv-x="1396" d="M29 336l53 295h211l55 194h-194l55 295h221l88 314h330l-88 -314h201l88 314h329l-88 -314h152l-56 -295h-178l-55 -194h172l-53 -295h-201l-94 -336h-330l94 336h-200l-95 -336h-329l94 336h-182zM623 631h200l56 194h-201z" />
<glyph unicode="$" horiz-adv-x="1210" d="M59 379q0 41 9 88h421q-4 -20 -4 -33q0 -43 30 -67.5t85 -24.5q49 0 79 27t30 69q0 55 -66 78l-188 64q-301 100 -301 352q0 193 107 323.5t292 159.5l43 244h432l-47 -266q110 -43 173 -125.5t63 -200.5q0 -39 -9 -86h-422q2 10 2 25q0 39 -25.5 61.5t-70.5 22.5 q-39 0 -64.5 -18.5t-25.5 -57.5q0 -44 53 -62l191 -65q71 -24 123 -52t97 -69.5t68 -101.5t23 -138q0 -189 -108.5 -321.5t-309.5 -186.5l-43 -243h-434l47 264q-124 43 -187 132t-63 208z" />
<glyph unicode="%" horiz-adv-x="1898" d="M123 938q0 26 6 61l27 150q28 153 120 229t254 76q151 0 254 -81.5t103 -225.5q0 -31 -6 -66l-27 -153q-24 -138 -123.5 -219.5t-251.5 -81.5q-150 0 -253 86.5t-103 224.5zM342 0l985 1434h313l-985 -1434h-313zM418 952q-6 -32 14 -52.5t53 -20.5q31 0 49 16.5t23 44.5 l33 188q6 32 -14 53t-54 21q-59 0 -71 -63zM1092 289q0 27 6 61l26 150q56 305 375 305q151 0 253.5 -81.5t102.5 -225.5q0 -32 -6 -66l-26 -153q-24 -138 -123.5 -220t-251.5 -82q-150 0 -253 87t-103 225zM1386 303q-6 -32 14.5 -53t53.5 -21q61 0 72 62l33 188 q6 32 -14 53t-54 21q-60 0 -72 -64z" />
<glyph unicode="&#x26;" horiz-adv-x="1476" d="M53 399q0 167 88 274t236 152q-66 104 -66 215q0 204 137.5 313t356.5 109q80 0 155.5 -18t140.5 -53t104.5 -97t39.5 -141q0 -29 -6 -59l-14 -82h-344l10 57q2 10 2 23q0 38 -25 60t-67 22q-49 0 -79 -27.5t-30 -81.5q0 -55 43 -104l291 -318l23 127h325l-39 -223 q-18 -95 -55 -176l135 -148l-280 -252l-105 115q-180 -115 -399 -115q-171 0 -300.5 49t-203.5 147t-74 232zM449 430q0 -86 65 -130t166 -44q91 0 164 39l-287 319q-108 -71 -108 -184z" />
<glyph unicode="'" horiz-adv-x="542" d="M135 831l107 603h379l-107 -603h-379z" />
<glyph unicode="(" horiz-adv-x="774" d="M96 420q0 208 44 415.5t143.5 413t244.5 353.5h420q-188 -262 -297.5 -576.5t-109.5 -642.5q0 -272 73 -657h-419q-99 360 -99 694z" />
<glyph unicode=")" horiz-adv-x="774" d="M-137 -274q188 262 297.5 576t109.5 642q0 273 -73 658h419q99 -360 99 -695q0 -323 -109 -642.5t-323 -538.5h-420z" />
<glyph unicode="*" horiz-adv-x="892" d="M160 948l231 123l-203 131l99 135l196 -127l41 224h176l-38 -222l198 105l68 -141l-215 -113l182 -117l-98 -135l-185 119l-41 -232h-176l37 217l-207 -108z" />
<glyph unicode="+" horiz-adv-x="1191" d="M106 551l66 373h289l55 329h416l-60 -329h287l-65 -373h-287l-57 -330h-414l57 330h-287z" />
<glyph unicode="," horiz-adv-x="630" d="M-94 -184l207 606h462l-307 -606h-362z" />
<glyph unicode="-" horiz-adv-x="811" d="M63 475l72 393h666l-70 -393h-668z" />
<glyph unicode="." horiz-adv-x="610" d="M6 201q0 106 71.5 180t186.5 74q90 0 151.5 -61.5t61.5 -151.5q0 -102 -70.5 -180t-187.5 -78q-90 0 -151.5 62.5t-61.5 154.5z" />
<glyph unicode="/" horiz-adv-x="1079" d="M-92 -215l887 1751h436l-887 -1751h-436z" />
<glyph unicode="0" horiz-adv-x="1308" d="M61 469q0 36 11 100l71 406q43 246 200.5 366.5t404.5 120.5q152 0 280 -56t208.5 -167.5t80.5 -257.5q0 -41 -10 -96l-70 -396q-42 -242 -202.5 -380t-409.5 -138q-158 0 -286.5 62.5t-203 176.5t-74.5 259zM498 467q0 -63 39 -99t98 -36q134 0 158 143l79 455 q5 30 5 35q0 60 -38.5 98.5t-105.5 38.5q-125 0 -151 -152l-80 -448q-4 -24 -4 -35z" />
<glyph unicode="1" horiz-adv-x="862" d="M106 905l70 391l354 138h369l-252 -1434h-442l174 991z" />
<glyph unicode="2" horiz-adv-x="1249" d="M-10 0l59 336l629 491q25 20 42.5 35.5t39 39.5t32.5 51.5t11 56.5q0 41 -25.5 65.5t-66.5 24.5q-53 0 -81 -26.5t-38 -86.5l-4 -24h-426l6 36q42 248 187 355.5t407 107.5q132 0 243 -48t179.5 -142t68.5 -215q0 -88 -25.5 -162.5t-77.5 -138.5t-111 -114t-146 -110 l-248 -170h465l-61 -362h-1059z" />
<glyph unicode="3" horiz-adv-x="1255" d="M47 395q0 38 2 58h406q-2 -10 -2 -23q0 -50 36.5 -80.5t98.5 -30.5q67 0 111 37t44 99q0 45 -30 75.5t-80 30.5h-250l57 332l240 186h-451l64 355h991l-61 -357l-310 -211q135 -34 205 -128.5t70 -225.5q0 -156 -80.5 -280t-221 -192.5t-313.5 -68.5q-84 0 -159 13.5 t-143.5 45.5t-117 80t-77.5 121t-29 164z" />
<glyph unicode="4" horiz-adv-x="1277" d="M14 258l58 315l542 861h400l-510 -846h211l45 250h395l-43 -250h137l-57 -330h-139l-45 -258h-398l45 258h-641z" />
<glyph unicode="5" horiz-adv-x="1280" d="M57 420h424q10 -39 46 -65.5t89 -26.5q71 0 117.5 46.5t46.5 119.5q0 60 -39.5 101.5t-105.5 41.5q-84 0 -135 -74h-404l293 871h846l-61 -351h-498l-49 -139q62 41 168 41q129 0 229 -60.5t151.5 -159.5t51.5 -218q0 -164 -80.5 -295.5t-225.5 -206t-327 -74.5 q-98 0 -189.5 29.5t-166.5 84t-124 141.5t-57 194z" />
<glyph unicode="6" horiz-adv-x="1286" d="M47 483q0 54 8 101q11 62 32 116t55 103.5t59.5 80.5t70.5 79l435 471h481l-455 -480q41 27 88 27q183 0 302.5 -129.5t119.5 -310.5q0 -158 -84 -289.5t-228.5 -206t-318.5 -74.5q-149 0 -277.5 62.5t-208 181t-79.5 268.5zM481 473q0 -69 44.5 -111.5t111.5 -42.5 q74 0 121 53t47 126q0 64 -43.5 107.5t-110.5 43.5q-73 0 -121.5 -49t-48.5 -127z" />
<glyph unicode="7" horiz-adv-x="1144" d="M4 0l711 1071h-557l65 363h1024l-55 -316l-729 -1118h-459z" />
<glyph unicode="8" horiz-adv-x="1290" d="M55 406q0 142 71.5 239.5t207.5 145.5q-105 105 -105 243q0 137 74 235.5t194.5 145.5t272.5 47q73 0 143.5 -13.5t136.5 -44t115.5 -74t79 -108.5t29.5 -143q0 -115 -58.5 -207t-166.5 -149q76 -31 128 -108t52 -177q0 -112 -50.5 -202t-137.5 -147t-200 -87.5 t-241 -30.5q-99 0 -194.5 28.5t-174.5 81.5t-127.5 137.5t-48.5 187.5zM492 428q0 -56 41.5 -91.5t99.5 -35.5q69 0 114.5 38.5t45.5 102.5q0 52 -39.5 86.5t-98.5 34.5q-68 0 -115.5 -33t-47.5 -102zM627 997q0 -46 29.5 -77t78.5 -31q55 0 90 37.5t35 93.5 q0 45 -28.5 76.5t-77.5 31.5q-55 0 -91 -36t-36 -95z" />
<glyph unicode="9" horiz-adv-x="1286" d="M111 893q0 253 173 411t455 158q113 0 216 -36t181 -100.5t124.5 -161.5t46.5 -210q0 -40 -11 -104q-11 -62 -32 -116t-55 -103.5t-59.5 -80.5t-70.5 -79l-434 -471h-481l430 473q-33 -20 -82 -20q-180 0 -290.5 127.5t-110.5 312.5zM549 940q0 -66 43.5 -111t107.5 -45 q72 0 121 51.5t49 127.5q0 67 -43 109t-112 42q-72 0 -119 -49t-47 -125z" />
<glyph unicode=":" horiz-adv-x="610" d="M6 201q0 106 71.5 180t186.5 74q90 0 151.5 -61.5t61.5 -151.5q0 -102 -70.5 -180t-187.5 -78q-90 0 -151.5 62.5t-61.5 154.5zM113 801q0 106 71.5 180t186.5 74q90 0 151.5 -61.5t61.5 -151.5q0 -102 -70.5 -180t-187.5 -78q-90 0 -151.5 62.5t-61.5 154.5z" />
<glyph unicode=";" horiz-adv-x="630" d="M-125 -184l207 606h463l-307 -606h-363zM150 801q0 106 71.5 180t186.5 74q90 0 151.5 -61.5t61.5 -151.5q0 -102 -71 -180t-188 -78q-89 0 -150.5 62.5t-61.5 154.5z" />
<glyph unicode="&#x3c;" horiz-adv-x="1193" d="M104 596l50 283l1058 395l-67 -387l-494 -150l436 -157l-65 -379z" />
<glyph unicode="=" horiz-adv-x="1212" d="M74 299l63 356h987l-63 -356h-987zM166 819l63 357h988l-64 -357h-987z" />
<glyph unicode="&#x3e;" horiz-adv-x="1196" d="M68 201l67 387l494 149l-436 158l65 379l918 -395l-50 -283z" />
<glyph unicode="?" horiz-adv-x="1112" d="M104 1014q27 232 170 340t394 108q72 0 141.5 -12.5t136 -41.5t116 -71t79.5 -105.5t30 -141.5q0 -109 -46.5 -189.5t-151.5 -142.5l-129 -76q-57 -33 -81.5 -62.5t-37.5 -87.5l-6 -28h-385l14 78q24 131 67 211.5t132 126.5l100 51q22 11 33 17.5t25 17.5t20 23.5 t6 27.5q0 27 -26.5 40t-65.5 13q-65 0 -95.5 -22t-37.5 -74h-402zM260 193q0 106 69 175.5t187 69.5q89 0 150 -57t61 -145q0 -106 -70.5 -179t-185.5 -73q-90 0 -150.5 59.5t-60.5 149.5z" />
<glyph unicode="@" horiz-adv-x="1910" d="M92 520q0 207 64 380.5t183.5 298t300 194t404.5 69.5q138 0 262.5 -29.5t227.5 -88.5t178 -141.5t116.5 -192.5t41.5 -238q0 -82 -14.5 -162t-49 -158t-85.5 -136.5t-131 -95t-179 -36.5q-118 0 -194 42t-95 112q-31 -52 -110.5 -89.5t-175.5 -37.5q-140 0 -220.5 84 t-80.5 213q0 24 6 61l24 140q26 151 113 229t223 78q149 0 221 -105l15 86h295l-78 -440q-4 -32 -4 -47q0 -113 94 -113q47 0 82 42t52.5 105.5t25.5 121t8 104.5q0 225 -153.5 347t-426.5 122q-318 0 -495 -192t-177 -525q0 -133 45 -237.5t125.5 -171.5t189 -101.5 t238.5 -34.5q120 0 243.5 19.5t207.5 46.5l-43 -225q-206 -64 -438 -64q-246 0 -436.5 96.5t-295 271t-104.5 398.5zM856 539q0 -41 22 -64.5t60 -23.5q81 0 98 96l21 117q2 14 2 28q0 39 -20 62.5t-60 23.5q-44 0 -68.5 -25.5t-33.5 -78.5l-19 -105q-2 -14 -2 -30z" />
<glyph unicode="A" d="M-68 0l744 1434h459l258 -1434h-439l-22 217h-436l-93 -217h-471zM649 571h246l-47 459z" />
<glyph unicode="B" horiz-adv-x="1413" d="M20 0l252 1434h754q151 0 251.5 -95.5t100.5 -242.5q0 -258 -248 -357q106 -26 165 -100.5t59 -183.5q0 -141 -82.5 -246.5t-214 -157t-289.5 -51.5h-748zM516 338h272q58 0 96 34t38 93q0 43 -27 69.5t-76 26.5h-264zM612 883h189q56 0 91.5 33t35.5 88q0 40 -25 66 t-69 26h-185z" />
<glyph unicode="C" horiz-adv-x="1447" d="M76 553q0 65 12 135l31 172q55 311 219 456.5t453 145.5q279 0 451.5 -150t184.5 -435h-421q-3 92 -53 152.5t-156 60.5q-100 0 -156 -62.5t-78 -189.5l-35 -197q-6 -44 -6 -74q0 -101 54.5 -162t160.5 -61q93 0 149 63t77 150h417q-36 -262 -215.5 -424t-449.5 -162 q-286 0 -462.5 161t-176.5 421z" />
<glyph unicode="D" horiz-adv-x="1476" d="M20 0l252 1434h699q227 0 366.5 -127t139.5 -342q0 -63 -11 -119l-55 -311q-48 -271 -213 -403t-471 -132h-707zM530 360h183q114 0 174.5 46.5t79.5 152.5l49 279q6 27 6 59q0 86 -51 131t-144 45h-172z" />
<glyph unicode="E" horiz-adv-x="1267" d="M20 0l252 1434h1084l-66 -369h-635l-26 -156h575l-67 -368h-574l-28 -172h634l-63 -369h-1086z" />
<glyph unicode="F" horiz-adv-x="1206" d="M20 0l252 1434h1045l-64 -373h-598l-34 -199h536l-65 -373h-537l-86 -489h-449z" />
<glyph unicode="G" horiz-adv-x="1480" d="M78 559q0 48 10 113l37 205q53 292 232 438.5t468 146.5q103 0 193.5 -19.5t169.5 -61t137 -103.5t93.5 -152t41.5 -200h-424q-15 78 -72 121t-149 43q-104 0 -165 -59t-83 -181l-41 -234q-8 -46 -8 -81q0 -101 59.5 -161.5t165.5 -60.5q79 0 139 43t76 101h-219l60 338 h657l-39 -215q-54 -295 -234.5 -452t-471.5 -157q-186 0 -331 76.5t-223.5 210t-78.5 301.5z" />
<glyph unicode="H" horiz-adv-x="1490" d="M20 0l252 1434h449l-92 -510h370l91 510h448l-252 -1434h-448l90 514h-369l-90 -514h-449z" />
<glyph unicode="I" horiz-adv-x="681" d="M25 0l251 1434h449l-252 -1434h-448z" />
<glyph unicode="J" horiz-adv-x="1282" d="M37 401q0 40 10 95h426q-4 -24 -4 -39q0 -51 29 -82t84 -31q59 0 93 37.5t44 97.5l168 955h448l-172 -979q-40 -226 -193.5 -355t-412.5 -129q-226 0 -373 120.5t-147 309.5z" />
<glyph unicode="K" horiz-adv-x="1413" d="M20 0l252 1434h449l-119 -676l410 676h534l-485 -738l246 -696h-521l-196 690l-121 -690h-449z" />
<glyph unicode="L" horiz-adv-x="1193" d="M20 0l252 1434h449l-186 -1061h581l-65 -373h-1031z" />
<glyph unicode="M" horiz-adv-x="1705" d="M23 0l247 1434h412l213 -697l440 697h418l-252 -1434h-426l99 559l-179 -258h-348l-96 279l-102 -580h-426z" />
<glyph unicode="N" d="M20 0l252 1434h426l295 -666l117 666h438l-252 -1434h-426l-295 666l-116 -666h-439z" />
<glyph unicode="O" horiz-adv-x="1492" d="M76 563q0 65 12 133l31 174q104 592 704 592q136 0 253.5 -39.5t204.5 -112.5t137 -183t50 -244q0 -66 -12 -140l-29 -161q-51 -282 -232.5 -446.5t-469.5 -164.5q-290 0 -469.5 164.5t-179.5 427.5zM520 569q0 -106 53 -165.5t164 -59.5q198 0 246 262l33 185q8 50 8 77 q0 104 -57.5 163t-163.5 59q-107 0 -163.5 -61.5t-78.5 -190.5l-31 -176q-10 -58 -10 -93z" />
<glyph unicode="P" horiz-adv-x="1376" d="M20 0l252 1434h650q226 0 363.5 -130t137.5 -337q0 -283 -181 -440.5t-499 -157.5h-208l-66 -369h-449zM600 737h180q84 0 138.5 51.5t54.5 133.5q0 61 -35.5 102t-101.5 41h-179z" />
<glyph unicode="Q" horiz-adv-x="1492" d="M76 563q0 65 12 133l31 174q104 592 704 592q136 0 253.5 -39.5t204.5 -112.5t137 -183t50 -244q0 -66 -12 -140l-29 -161q-62 -330 -282 -486l78 -168l-324 -129l-82 178q-44 -6 -92 -6q-290 0 -469.5 164.5t-179.5 427.5zM520 569q0 -195 164 -221l-57 115l258 108 l49 -112q34 60 49 147l33 185q8 50 8 77q0 104 -57.5 163t-163.5 59q-107 0 -163.5 -61.5t-78.5 -190.5l-31 -176q-10 -58 -10 -93z" />
<glyph unicode="R" horiz-adv-x="1468" d="M20 0l252 1434h721q211 0 341 -132.5t130 -336.5q0 -182 -85 -318t-242 -205l202 -442h-510l-153 377h-144l-63 -377h-449zM596 731h225q83 0 138 55t55 140q0 64 -39.5 106.5t-106.5 42.5h-211z" />
<glyph unicode="S" horiz-adv-x="1325" d="M57 375q0 47 11 96h421q-6 -21 -6 -43q0 -55 43 -86t127 -31q70 0 121 32.5t51 90.5q0 60 -57 72l-268 61q-168 39 -254 127t-86 234q0 254 160 394t448 140q143 0 260 -42t191.5 -131.5t74.5 -211.5q0 -40 -10 -92h-414q4 20 4 39q0 98 -124 98q-138 0 -138 -96 q0 -51 47 -61l299 -74q156 -38 236 -129.5t80 -231.5q0 -172 -89 -300.5t-239 -193.5t-338 -65q-258 0 -404.5 107.5t-146.5 296.5z" />
<glyph unicode="T" horiz-adv-x="1251" d="M137 1057l68 377h1161l-68 -377h-354l-186 -1057h-449l187 1057h-359z" />
<glyph unicode="U" horiz-adv-x="1476" d="M98 469q0 47 8 88l154 877h449l-154 -875q-4 -20 -4 -41q0 -78 46 -124t124 -46q87 0 140.5 52t68.5 145l157 889h449l-156 -879q-48 -279 -223.5 -431.5t-474.5 -152.5q-158 0 -291 62.5t-213 177.5t-80 258z" />
<glyph unicode="V" horiz-adv-x="1415" d="M174 1434h473l58 -920l370 920h484l-693 -1434h-497z" />
<glyph unicode="W" horiz-adv-x="2064" d="M186 1434h459l-6 -791l332 791h430l69 -791l265 791h463l-596 -1434h-435l-73 870l-379 -870h-434z" />
<glyph unicode="X" horiz-adv-x="1415" d="M-76 0l600 758l-299 676h449l139 -355l246 355h483l-553 -715l320 -719h-447l-170 383l-284 -383h-484z" />
<glyph unicode="Y" horiz-adv-x="1359" d="M143 1434h486l110 -529l283 529h500l-639 -983l-78 -451h-449l86 496z" />
<glyph unicode="Z" horiz-adv-x="1306" d="M0 0l66 373l686 688h-541l65 373h1092l-65 -373l-689 -688h582l-66 -373h-1130z" />
<glyph unicode="[" horiz-adv-x="808" d="M-39 -274l334 1876h666l-64 -361h-229l-205 -1155h229l-61 -360h-670z" />
<glyph unicode="\" horiz-adv-x="1079" d="M229 1536h418l268 -1751h-417z" />
<glyph unicode="]" horiz-adv-x="806" d="M-102 -274l63 360h229l205 1155h-229l61 361h670l-334 -1876h-665z" />
<glyph unicode="^" horiz-adv-x="1196" d="M96 840l457 594h389l248 -594h-418l-80 239l-149 -239h-447z" />
<glyph unicode="_" horiz-adv-x="1112" d="M-92 -311l39 213h1118l-39 -213h-1118z" />
<glyph unicode="`" horiz-adv-x="843" d="M260 1520h537l63 -346h-420z" />
<glyph unicode="a" horiz-adv-x="1247" d="M18 293q0 163 110 254.5t298 91.5q192 0 311 -70l19 107q2 10 2 19q0 30 -21 52q-27 29 -78 29q-78 0 -108 -53h-397q113 387 555 387q74 0 143.5 -15t131.5 -47t109 -76.5t74 -108t27 -138.5q0 -35 -6 -76l-113 -649h-420l13 78q-45 -45 -123 -74t-160 -29 q-163 0 -265 88t-102 230zM459 330q0 -39 32 -62.5t78 -23.5q51 0 89 25t38 71q0 38 -36 61t-82 23q-51 0 -85 -23.5t-34 -70.5z" />
<glyph unicode="b" horiz-adv-x="1267" d="M0 0l264 1495h438l-86 -485q40 45 108 72.5t142 27.5q180 0 277.5 -105.5t97.5 -283.5q0 -63 -12 -127l-31 -174q-38 -216 -162 -330.5t-323 -114.5q-83 0 -161 34t-114 83l-18 -92h-420zM518 440q0 -53 29.5 -85.5t85.5 -32.5q111 0 135 143l27 151q2 14 2 33 q0 52 -29.5 83.5t-87.5 31.5q-108 0 -131 -137l-27 -150q-4 -24 -4 -37z" />
<glyph unicode="c" horiz-adv-x="1173" d="M43 434q0 54 8 101l23 127q39 215 181 331.5t374 116.5q112 0 203.5 -27t162.5 -82.5t111 -148t41 -215.5h-393q0 55 -30 91t-87 36q-59 0 -88.5 -33.5t-42.5 -103.5l-29 -160q-4 -20 -4 -35q0 -51 32.5 -80.5t84.5 -29.5q102 0 131 127h395q-28 -219 -176 -346.5 t-373 -127.5q-228 0 -376 126t-148 333z" />
<glyph unicode="d" horiz-adv-x="1261" d="M33 367q0 68 10 122l31 175q37 216 158.5 331t322.5 115q170 0 262 -102l86 487h438l-264 -1495h-415l14 92q-32 -51 -110 -84t-163 -33q-175 0 -272.5 106t-97.5 286zM475 438q0 -56 30.5 -86t88.5 -30q105 0 129 143l27 151q4 24 4 37q0 52 -30.5 81.5t-84.5 29.5 q-60 0 -91.5 -36.5t-43.5 -111.5l-25 -139q-4 -28 -4 -39z" />
<glyph unicode="e" horiz-adv-x="1146" d="M41 426q0 52 8 96l23 129q81 459 561 459q223 0 352 -117.5t129 -310.5q0 -40 -10 -102l-29 -154h-618l-4 -31q-2 -12 -2 -24q1 -37 23 -64q30 -35 85 -35q79 0 111 62h383q-40 -150 -175 -254.5t-339 -104.5q-122 0 -218.5 36t-156.5 99t-91.5 143.5t-31.5 172.5z M498 651h217l8 47q2 12 2 27q0 44 -26 68t-72 24q-52 0 -81 -29t-40 -90z" />
<glyph unicode="f" horiz-adv-x="743" d="M43 0l135 762h-104l55 323h104l13 72q31 184 122 261t294 77h241l-55 -311h-107q-29 0 -42.5 -11.5t-18.5 -39.5l-8 -48h137l-57 -323h-136l-135 -762h-438z" />
<glyph unicode="g" horiz-adv-x="1255" d="M-45 -29h416q18 -23 53 -39t74 -16q121 0 139 107l20 118q-27 -38 -89 -64t-132 -26q-172 0 -283.5 102.5t-111.5 276.5q0 50 8 94l29 162q37 209 147 316.5t326 107.5q97 0 168 -34t110 -83l17 92h418l-191 -1071q-23 -127 -103.5 -217.5t-197 -134t-258.5 -43.5 q-141 0 -258 42.5t-196 122.5t-105 187zM477 489q0 -54 30.5 -84t84.5 -30q60 0 90 35.5t41 103.5l20 117q5 30 5 37q0 52 -30 82t-89 30q-105 0 -127 -135l-21 -119q-4 -24 -4 -37z" />
<glyph unicode="h" horiz-adv-x="1236" d="M0 0l262 1495h438l-84 -485q38 46 107.5 73t148.5 27q154 0 238 -86t84 -231q0 -47 -8 -97l-123 -696h-438l112 639q2 11 2 21q-1 32 -17 52q-22 28 -63 27q-90 0 -106 -90l-115 -649h-438z" />
<glyph unicode="i" horiz-adv-x="622" d="M0 0l190 1085h439l-191 -1085h-438zM227 1341q0 103 66 164.5t176 61.5q89 0 154 -57.5t65 -147.5q0 -100 -65.5 -162.5t-180.5 -62.5q-90 0 -152.5 57t-62.5 147z" />
<glyph unicode="j" horiz-adv-x="622" d="M-141 -356l57 323h51q28 0 31 23l192 1095h439l-203 -1155q-26 -146 -108.5 -216t-223.5 -70h-235zM227 1341q0 103 66 164.5t176 61.5q89 0 154 -57.5t65 -147.5q0 -100 -65.5 -162.5t-180.5 -62.5q-90 0 -152.5 57t-62.5 147z" />
<glyph unicode="k" horiz-adv-x="1202" d="M2 0l264 1495h439l-162 -909l248 499h493l-328 -575l138 -510h-463l-101 510l-90 -510h-438z" />
<glyph unicode="l" horiz-adv-x="622" d="M0 0l262 1495h438l-262 -1495h-438z" />
<glyph unicode="m" horiz-adv-x="1837" d="M0 0l190 1085h420l-18 -102q42 58 112.5 92.5t155.5 34.5q190 0 270 -129q133 129 343 129q154 0 237.5 -85.5t83.5 -231.5q0 -47 -8 -97l-123 -696h-438l112 639q2 11 2 21q0 30 -16 52q-21 28 -63 27q-81 0 -95 -90l-114 -649h-439l113 639q2 11 2 21q-1 32 -17 52 q-22 28 -63 27q-80 0 -94 -90l-115 -649h-438z" />
<glyph unicode="n" horiz-adv-x="1236" d="M0 0l190 1085h420l-18 -102q43 61 116 94t164 33q154 0 238 -86t84 -231q0 -47 -8 -97l-123 -696h-438l112 639q2 11 2 21q-1 32 -17 52q-22 28 -63 27q-90 0 -106 -90l-115 -649h-438z" />
<glyph unicode="o" horiz-adv-x="1181" d="M41 434q0 43 10 101l25 139q38 215 176.5 325.5t357.5 110.5q106 0 200.5 -28.5t171 -83.5t121 -145t44.5 -204q0 -49 -10 -104l-23 -127q-37 -206 -181.5 -324.5t-369.5 -118.5q-227 0 -374.5 126t-147.5 333zM459 426q0 -46 30 -75t82 -29q50 0 80.5 30t38.5 78l33 186 q4 20 4 37q0 53 -31 82t-86 29q-95 0 -114 -115l-35 -196q-2 -14 -2 -27z" />
<glyph unicode="p" horiz-adv-x="1261" d="M-63 -356l253 1441h416l-14 -92q32 51 109.5 84t162.5 33q175 0 273 -106t98 -285q0 -69 -10 -123l-31 -174q-37 -216 -158.5 -331.5t-322.5 -115.5q-179 0 -262 103l-76 -434h-438zM514 432q0 -52 30.5 -81t84.5 -29q60 0 91.5 36t43.5 111l24 139q5 30 5 39 q0 56 -30.5 86.5t-88.5 30.5q-105 0 -129 -143l-27 -152q-4 -24 -4 -37z" />
<glyph unicode="q" horiz-adv-x="1263" d="M31 365q0 63 12 127l31 174q38 216 162 330t323 114q83 0 161 -34t114 -83l18 92h420l-254 -1441h-438l75 432q-41 -45 -108 -73t-141 -28q-179 0 -277 105.5t-98 284.5zM475 436q0 -52 29.5 -83t87.5 -31q108 0 131 137l27 149q4 24 4 37q0 53 -29.5 86t-85.5 33 q-111 0 -135 -143l-27 -152q-2 -14 -2 -33z" />
<glyph unicode="r" horiz-adv-x="800" d="M0 0l190 1085h414l-29 -161q36 99 102 135.5t177 36.5h14l-75 -434h-48q-99 0 -152.5 -42.5t-68.5 -132.5l-86 -487h-438z" />
<glyph unicode="s" horiz-adv-x="1077" d="M4 268q0 30 8 66h385q-1 -7 -1 -14q0 -30 22 -48q27 -22 82 -22q44 0 75 18.5t31 50.5q0 31 -37 39l-252 54q-243 50 -243 276q0 208 144.5 315t381.5 107q70 0 133.5 -9.5t123.5 -32t103.5 -57t70 -87.5t26.5 -119q0 -25 -4 -57h-385q4 12 4 26q0 62 -82 62 q-84 0 -84 -62q0 -36 39 -45l260 -59q112 -24 171.5 -95.5t59.5 -173.5q0 -133 -75 -231t-202 -146.5t-290 -48.5q-87 0 -166.5 17t-148 50.5t-109.5 92t-41 133.5z" />
<glyph unicode="t" horiz-adv-x="800" d="M76 762l55 323h117l51 285h438l-51 -285h170l-55 -323h-170l-68 -379q-1 -6 -1 -11q0 -32 34 -32h111l-60 -340h-250q-138 0 -213 66.5t-75 189.5q0 30 8 80l76 426h-117z" />
<glyph unicode="u" horiz-adv-x="1230" d="M51 305q0 41 10 103l121 677h439l-117 -655q-2 -11 -2 -22q0 -28 16 -49q22 -29 64 -29q39 0 65.5 25t32.5 63l119 667h438l-190 -1085h-420l18 102q-34 -55 -112.5 -91t-167.5 -36q-150 0 -232 90.5t-82 239.5z" />
<glyph unicode="v" horiz-adv-x="1110" d="M92 1085h430l21 -620l219 620h450l-528 -1085h-438z" />
<glyph unicode="w" horiz-adv-x="1701" d="M115 1085h420l-17 -540l244 540h371l59 -540l170 540h424l-461 -1085h-393l-76 530l-266 -530h-395z" />
<glyph unicode="x" horiz-adv-x="1198" d="M-80 0l473 553l-264 532h434l99 -231l176 231h465l-474 -563l267 -522h-439l-100 223l-166 -223h-471z" />
<glyph unicode="y" horiz-adv-x="1105" d="M92 1085h436l39 -647l213 647h437l-660 -1441h-432l160 356z" />
<glyph unicode="z" horiz-adv-x="1067" d="M-18 0l51 301l483 461h-385l57 323h908l-54 -303l-483 -458h418l-55 -324h-940z" />
<glyph unicode="{" horiz-adv-x="876" d="M14 483l64 361h80q64 0 96.5 26.5t44.5 94.5l39 225q27 157 80 243.5t154 127.5t274 41h203l-64 -361h-82q-68 0 -96 -18t-39 -84l-37 -217q-19 -116 -89.5 -179.5t-174.5 -74.5q80 -12 128 -68.5t48 -142.5q0 -32 -6 -62l-33 -184q-4 -24 -4 -39q0 -86 100 -86h82 l-63 -360h-178q-198 0 -296 79.5t-98 241.5q0 49 13 125l33 188q4 24 4 35q0 49 -32.5 68.5t-94.5 19.5h-56z" />
<glyph unicode="|" horiz-adv-x="716" d="M29 -307l342 1945h368l-342 -1945h-368z" />
<glyph unicode="}" horiz-adv-x="876" d="M-117 -274l64 360h82q68 0 96 18t39 84l37 218q19 116 89.5 179t174.5 74q-80 12 -128 68.5t-48 142.5q0 32 6 62l33 184q4 24 4 39q0 86 -101 86h-81l63 361h178q198 0 295.5 -79.5t97.5 -242.5q0 -54 -12 -125l-33 -188q-4 -24 -4 -35q0 -49 32.5 -68.5t94.5 -19.5h56 l-64 -361h-80q-64 0 -96.5 -26.5t-44.5 -94.5l-39 -225q-21 -118 -53.5 -193t-91.5 -125.5t-146 -71.5t-217 -21h-203z" />
<glyph unicode="~" horiz-adv-x="1390" d="M96 565q30 98 56.5 165t63 127t80 94.5t103 54.5t136.5 20q60 0 133 -25t134.5 -50t92.5 -25q27 0 46.5 16t28.5 33.5t19 46.5l377 -123q-28 -100 -60 -173t-77.5 -134.5t-108.5 -93t-143 -31.5q-61 0 -136.5 25t-142 50t-106.5 25q-48 0 -70 -25.5t-47 -92.5z" />
<glyph unicode="&#xa1;" horiz-adv-x="643" d="M6 0l98 555l168 377h256l37 -373l-100 -559h-459zM211 1204q0 106 69 176t187 70q89 0 150 -57.5t61 -145.5q0 -106 -70.5 -179t-185.5 -73q-90 0 -150.5 59.5t-60.5 149.5z" />
<glyph unicode="&#xa2;" horiz-adv-x="1191" d="M86 580q0 36 8 82l27 151q31 177 123 277.5t243 138.5l37 205h434l-38 -222q123 -52 185 -159t54 -246h-409q2 45 -24 74.5t-75 29.5q-88 0 -106 -98l-29 -162q-4 -24 -4 -35q0 -42 27 -68t71 -26q88 0 117 105h408q-27 -157 -130 -272.5t-266 -155.5l-32 -199h-435 l41 233q-106 51 -166.5 140t-60.5 207z" />
<glyph unicode="&#xa3;" horiz-adv-x="1368" d="M0 0l61 350h215l29 162h-182l59 346h183l36 203q72 401 529 401q67 0 133 -13.5t129 -43t111 -71.5t77 -104t29 -136q0 -38 -6 -72l-8 -47h-402l6 35q7 45 -14 68.5t-63 23.5q-76 0 -88 -76l-29 -168h305l-57 -346h-310l-28 -162h471l-62 -350h-1124z" />
<glyph unicode="&#xa4;" horiz-adv-x="1302" d="M2 172l238 311q-31 64 -31 142q0 35 6 73l14 80q21 117 86 201l-118 264h432l37 -100q36 4 86 4q30 0 88 -8l75 104h443l-242 -301q41 -71 41 -158q0 -34 -6 -61l-14 -84q-20 -114 -95 -201l115 -266h-424l-37 98q-23 -2 -65 -2q-60 0 -105 11l-77 -107h-447zM584 651 q0 -38 23 -61t63 -23q35 0 61 23t33 61l18 103q6 39 -18.5 67.5t-67.5 28.5q-80 0 -96 -94l-14 -82q-2 -12 -2 -23z" />
<glyph unicode="&#xa5;" horiz-adv-x="1306" d="M63 197l58 319h293l-21 98h-256l58 320h131l-105 500h471l27 -531l213 531h473l-283 -500h133l-57 -320h-254l-55 -98h293l-58 -319h-309l-35 -197h-438l35 197h-314z" />
<glyph unicode="&#xa6;" horiz-adv-x="716" d="M31 -307l141 799h365l-142 -799h-364zM233 840l140 798h364l-139 -798h-365z" />
<glyph unicode="&#xa7;" horiz-adv-x="1277" d="M37 35q0 24 6 65l2 13h381l-2 -13q-8 -46 24 -74t93 -28q57 0 100 23t43 73q0 21 -13.5 33.5t-45.5 19.5l-324 80q-101 25 -163 91.5t-62 173.5q0 114 56.5 200t148.5 142q-60 72 -60 184q0 143 72.5 245t194.5 150.5t280 48.5q88 0 169 -16.5t154.5 -51.5t117.5 -100.5 t44 -154.5q0 -33 -6 -68l-4 -24h-379l4 24q7 48 -28 71t-92 23q-119 0 -119 -82q0 -44 49 -57l295 -76q125 -32 190.5 -104t65.5 -176q0 -202 -180 -357q43 -65 43 -149q0 -140 -79 -247t-207.5 -161.5t-283.5 -54.5q-67 0 -132.5 10t-130 35t-113 62t-79 95.5t-30.5 131.5z M485 604q0 -27 16.5 -45t45.5 -24l192 -48q45 -11 52 -14q38 47 38 92q0 54 -55 66l-246 59q-43 -43 -43 -86z" />
<glyph unicode="&#xa8;" horiz-adv-x="1064" d="M248 1335q0 90 60 148.5t157 58.5q75 0 129.5 -47t54.5 -121q0 -86 -62 -145.5t-161 -59.5q-74 0 -126 46t-52 120zM727 1335q0 90 60 148.5t157 58.5q75 0 129.5 -47t54.5 -121q0 -86 -62 -145.5t-161 -59.5q-74 0 -126 46t-52 120z" />
<glyph unicode="&#xa9;" horiz-adv-x="1622" d="M102 717q0 206 93.5 374.5t266 267.5t390.5 99t390.5 -99t266 -267.5t93.5 -374.5t-93.5 -375t-266 -268t-390.5 -99t-390.5 99t-266 268t-93.5 375zM221 717q0 -125 44.5 -240.5t124 -204.5t200 -142.5t262.5 -53.5t262.5 53.5t200 142.5t124 204.5t44.5 240.5 t-44.5 240.5t-124 204.5t-200 142.5t-262.5 53.5t-262.5 -53.5t-200 -142.5t-124 -204.5t-44.5 -240.5zM518 674v90q0 89 35 161t114.5 118.5t192.5 46.5q145 0 236 -85.5t96 -218.5h-219q-3 43 -31.5 74t-81.5 31q-52 0 -79 -31.5t-27 -85.5v-110q0 -54 27 -85.5t79 -31.5 q53 0 81.5 30.5t31.5 73.5h219q-5 -133 -95.5 -218t-236.5 -85q-113 0 -192.5 46.5t-114.5 118.5t-35 161z" />
<glyph unicode="&#xaa;" horiz-adv-x="862" d="M55 383l45 256h713l-45 -256h-713zM133 922q0 109 69.5 171t190.5 62q112 0 203 -41l12 70q4 25 -13 40t-46 15q-47 0 -68 -35h-260q78 254 354 254q143 0 234.5 -71t91.5 -181q0 -13 -4 -45l-76 -426h-280l10 60q-26 -33 -75.5 -54.5t-110.5 -21.5q-101 0 -166.5 56 t-65.5 147zM428 950q0 -22 16.5 -33.5t42.5 -11.5q33 0 57.5 16.5t24.5 45.5q0 21 -16.5 33t-46.5 12q-35 0 -56.5 -16t-21.5 -46z" />
<glyph unicode="&#xab;" horiz-adv-x="1525" d="M20 575l373 453h525l-377 -485l217 -420h-510zM680 575l373 453h524l-377 -485l217 -420h-510z" />
<glyph unicode="&#xac;" horiz-adv-x="1171" d="M86 551l66 373h987l-123 -703h-414l57 330h-573z" />
<glyph unicode="&#xad;" horiz-adv-x="811" d="M63 475l72 393h666l-70 -393h-668z" />
<glyph unicode="&#xae;" horiz-adv-x="1036" d="M143 1006q0 124 56 226t164 164t247 62t247 -62t164 -164t56 -226t-56 -226.5t-164 -164.5t-247 -62t-247 62t-164 164.5t-56 226.5zM246 1006q0 -159 98 -263t266 -104q169 0 267 104t98 263q0 161 -98 263.5t-267 102.5t-266.5 -102.5t-97.5 -263.5zM455 823v394h180 q75 0 115.5 -38.5t40.5 -105.5q0 -76 -60 -117l76 -133h-145l-56 109h-26v-109h-125zM580 1028h38q23 0 35.5 12t12.5 33q0 41 -48 41h-38v-86z" />
<glyph unicode="&#xaf;" horiz-adv-x="970" d="M203 1184l57 319h787l-58 -319h-786z" />
<glyph unicode="&#xb0;" horiz-adv-x="831" d="M154 1102q0 148 101 250t263 102q131 0 227.5 -87.5t96.5 -217.5q0 -146 -107 -248t-262 -102q-134 0 -226.5 86.5t-92.5 216.5zM358 1116q0 -60 36 -98.5t93 -38.5q66 0 109 49t43 115q0 55 -35.5 93t-93.5 38q-66 0 -109 -43t-43 -115z" />
<glyph unicode="&#xb1;" horiz-adv-x="1214" d="M16 0l60 344h291l36 205h-288l65 375h289l57 329h416l-57 -329h284l-65 -375h-285l-37 -205h281l-59 -344h-988z" />
<glyph unicode="&#xb2;" horiz-adv-x="856" d="M170 928l37 217l364 244q25 18 34.5 25t18.5 19t9 25q0 16 -10.5 25.5t-30.5 9.5q-44 0 -49 -39l-2 -12h-273l4 24q23 137 113 203t233 66q131 0 223.5 -67t92.5 -183q0 -70 -29 -123t-76 -88.5t-129 -75.5l-67 -33h246l-43 -237h-666z" />
<glyph unicode="&#xb3;" horiz-adv-x="841" d="M205 1124q0 33 6 54h248q-3 -27 15.5 -42.5t47.5 -15.5q31 0 52.5 17t21.5 45q0 22 -15.5 34.5t-39.5 12.5h-164l35 192l131 72h-248l39 221h584l-39 -221l-154 -96q72 -15 116 -68.5t44 -128.5q0 -132 -102.5 -212.5t-254.5 -80.5q-142 0 -232.5 55.5t-90.5 161.5z" />
<glyph unicode="&#xb4;" horiz-adv-x="843" d="M231 1174l162 346h559l-286 -346h-435z" />
<glyph unicode="&#xb5;" horiz-adv-x="1241" d="M-63 -356l256 1441h438l-117 -655q-8 -42 13.5 -71t64.5 -29q39 0 65.5 25t32.5 63l119 667h438l-190 -1085h-420l18 102q-28 -44 -88.5 -78t-132.5 -44l-57 -336h-440z" />
<glyph unicode="&#xb6;" horiz-adv-x="1261" d="M113 758q0 324 201 500t550 176h455l-315 -1790h-291l270 1530h-166l-164 -924q-250 3 -395 141t-145 367z" />
<glyph unicode="&#xb7;" horiz-adv-x="606" d="M100 664q0 106 71.5 180t186.5 74q90 0 151.5 -61.5t61.5 -151.5q0 -102 -70.5 -180.5t-187.5 -78.5q-89 0 -151 63t-62 155z" />
<glyph unicode="&#xb8;" horiz-adv-x="616" d="M-23 -365l25 134q35 -7 70 -7q63 0 63 37q0 30 -47 33l-47 4l63 164h154l-16 -61l37 -2q77 -5 119 -41t42 -97q0 -64 -42 -106t-102.5 -58t-137.5 -16q-87 0 -181 16z" />
<glyph unicode="&#xb9;" horiz-adv-x="677" d="M219 1380l47 265l242 69h244l-140 -786h-301l86 491z" />
<glyph unicode="&#xba;" horiz-adv-x="856" d="M63 383l46 256h679l-45 -256h-680zM164 1020q0 26 6 61l16 97q25 138 119 209t246 71q149 0 246.5 -82t97.5 -213q0 -32 -6 -59l-19 -105q-23 -131 -119.5 -206.5t-240.5 -75.5q-151 0 -248.5 84t-97.5 219zM438 1034q-6 -38 14.5 -64t59.5 -26q34 0 56 21.5t28 56.5 l20 117q8 40 -12 66t-61 26q-70 0 -84 -80z" />
<glyph unicode="&#xbb;" horiz-adv-x="1525" d="M-35 123l377 485l-217 420h512l227 -450l-372 -455h-527zM627 123l377 485l-218 420h512l228 -450l-373 -455h-526z" />
<glyph unicode="&#xbc;" horiz-adv-x="1792" d="M190 1100l48 264l241 70h244l-139 -787h-301l86 492zM236 0l985 1434h313l-985 -1434h-313zM887 121l37 209l313 456h274l-292 -446h116l21 115h262l-21 -115h93l-39 -219h-92l-21 -121h-262l20 121h-409z" />
<glyph unicode="&#xbd;" horiz-adv-x="1804" d="M190 1100l48 264l241 70h244l-139 -787h-301l86 492zM236 0l985 1434h313l-985 -1434h-313zM952 0l37 217l365 244q24 17 34 25t18.5 19.5t8.5 24.5q0 16 -10.5 25.5t-30.5 9.5q-44 0 -49 -39l-2 -12h-272l4 25q23 137 113 202.5t233 65.5q130 0 222.5 -67t92.5 -183 q0 -102 -55 -164.5t-178 -122.5l-68 -32h246l-43 -238h-666z" />
<glyph unicode="&#xbe;" horiz-adv-x="1863" d="M141 844q0 32 6 53h248q-3 -27 16 -42t48 -15q31 0 52 16.5t21 44.5q0 22 -15.5 34.5t-39.5 12.5h-164l35 193l131 71h-248l39 222h584l-39 -222l-153 -96q72 -15 115.5 -68t43.5 -128q0 -132 -102 -212.5t-254 -80.5q-142 0 -233 55.5t-91 161.5zM315 0l985 1434h314 l-985 -1434h-314zM958 121l37 209l314 456h274l-293 -446h117l20 115h263l-21 -115h92l-39 -219h-92l-20 -121h-262l20 121h-410z" />
<glyph unicode="&#xbf;" horiz-adv-x="1112" d="M23 344q0 109 46.5 189.5t151.5 142.5l129 76q57 33 81.5 62t37.5 87l6 29h385l-14 -78q-24 -131 -67 -211.5t-132 -126.5l-100 -51q-22 -11 -33 -17.5t-25 -17.5t-20 -23.5t-6 -27.5q0 -27 26.5 -40t65.5 -13q65 0 95.5 22t37.5 74h402q-27 -232 -170 -340.5 t-394 -108.5q-72 0 -142 12.5t-136 41.5t-115.5 71.5t-79.5 106t-30 141.5zM467 1198q0 106 70.5 179t185.5 73q90 0 150.5 -59.5t60.5 -149.5q0 -106 -69 -176t-187 -70q-89 0 -150 57.5t-61 145.5z" />
<glyph unicode="&#xc0;" d="M-68 0l744 1434h459l258 -1434h-439l-22 217h-436l-93 -217h-471zM522 1845h516l74 -325h-422zM649 571h246l-47 459z" />
<glyph unicode="&#xc1;" d="M-68 0l744 1434h459l258 -1434h-439l-22 217h-436l-93 -217h-471zM649 571h246l-47 459zM698 1520l172 325h566l-289 -325h-449z" />
<glyph unicode="&#xc2;" d="M-68 0l744 1434h459l258 -1434h-439l-22 217h-436l-93 -217h-471zM461 1520l297 325h459l182 -325h-406l-45 94l-78 -94h-409zM649 571h246l-47 459z" />
<glyph unicode="&#xc3;" d="M-68 0l744 1434h459l258 -1434h-439l-22 217h-436l-93 -217h-471zM375 1581q17 78 40 131t61 93.5t95 59.5t138 19q79 0 212 -28.5t150 -28.5q33 0 47 16.5t23 50.5l309 -88q-16 -71 -37 -120t-56 -90.5t-90 -62t-130 -20.5q-84 0 -220 28t-157 28q-32 0 -46.5 -17 t-27.5 -53zM649 571h246l-47 459z" />
<glyph unicode="&#xc4;" d="M-68 0l744 1434h459l258 -1434h-439l-22 217h-436l-93 -217h-471zM492 1677q0 93 58.5 150t162.5 57q75 0 131.5 -47t56.5 -121q0 -84 -59.5 -144.5t-167.5 -60.5q-78 0 -130 45.5t-52 120.5zM649 571h246l-47 459zM997 1677q0 93 59 150t163 57q75 0 131.5 -47 t56.5 -121q0 -84 -59.5 -144.5t-167.5 -60.5q-78 0 -130.5 45.5t-52.5 120.5z" />
<glyph unicode="&#xc5;" d="M-68 0l738 1421q-19 40 -19 82q0 115 82 177.5t219 62.5q102 0 178 -52.5t76 -146.5t-63 -160l250 -1384h-439l-22 217h-436l-93 -217h-471zM649 571h246l-47 459zM829 1513q0 -34 26 -56.5t69 -22.5q50 0 78 30t28 70q0 34 -25 55t-65 21q-48 0 -79.5 -25.5t-31.5 -71.5 z" />
<glyph unicode="&#xc6;" horiz-adv-x="2277" d="M-106 0l1189 1434h1282l-65 -369h-635l-27 -156h576l-68 -368h-573l-29 -172h635l-63 -369h-1086l37 213h-524l-168 -213h-481zM823 571h307l89 500z" />
<glyph unicode="&#xc7;" horiz-adv-x="1447" d="M76 553q0 65 12 135l31 172q55 311 219 456.5t453 145.5q279 0 451.5 -150t184.5 -435h-421q-3 92 -53 152.5t-156 60.5q-100 0 -156 -62.5t-78 -189.5l-35 -197q-6 -44 -6 -74q0 -101 54.5 -162t160.5 -61q93 0 149 63t77 150h417q-36 -262 -215.5 -424t-449.5 -162h-17 l-8 -32l37 -2q77 -5 119.5 -41t42.5 -97q0 -49 -23.5 -85t-64.5 -56t-89.5 -29.5t-105.5 -9.5q-86 0 -180 16l25 134q35 -7 69 -7q64 0 64 37q0 30 -47 33l-48 4l58 152q-216 43 -343.5 194.5t-127.5 370.5z" />
<glyph unicode="&#xc8;" horiz-adv-x="1267" d="M20 0l252 1434h1084l-66 -369h-635l-26 -156h575l-67 -368h-574l-28 -172h634l-63 -369h-1086zM467 1845h516l74 -325h-422z" />
<glyph unicode="&#xc9;" horiz-adv-x="1267" d="M20 0l252 1434h1084l-66 -369h-635l-26 -156h575l-67 -368h-574l-28 -172h634l-63 -369h-1086zM569 1520l172 325h566l-289 -325h-449z" />
<glyph unicode="&#xca;" horiz-adv-x="1267" d="M20 0l252 1434h1084l-66 -369h-635l-26 -156h575l-67 -368h-574l-28 -172h634l-63 -369h-1086zM365 1520l297 325h458l183 -325h-406l-45 94l-78 -94h-409z" />
<glyph unicode="&#xcb;" horiz-adv-x="1267" d="M20 0l252 1434h1084l-66 -369h-635l-26 -156h575l-67 -368h-574l-28 -172h634l-63 -369h-1086zM410 1677q0 93 58.5 150t162.5 57q75 0 131.5 -47t56.5 -121q0 -84 -59.5 -144.5t-167.5 -60.5q-78 0 -130 45.5t-52 120.5zM915 1677q0 93 59 150t163 57q75 0 131.5 -47 t56.5 -121q0 -84 -59.5 -144.5t-167.5 -60.5q-78 0 -130.5 45.5t-52.5 120.5z" />
<glyph unicode="&#xcc;" horiz-adv-x="681" d="M25 0l251 1434h449l-252 -1434h-448zM129 1845h516l74 -325h-422z" />
<glyph unicode="&#xcd;" horiz-adv-x="681" d="M25 0l251 1434h449l-252 -1434h-448zM297 1520l172 325h565l-289 -325h-448z" />
<glyph unicode="&#xce;" horiz-adv-x="681" d="M25 0l251 1434h449l-252 -1434h-448zM45 1520l297 325h459l182 -325h-405l-46 94l-77 -94h-410z" />
<glyph unicode="&#xcf;" horiz-adv-x="681" d="M25 0l251 1434h449l-252 -1434h-448zM82 1677q0 93 58.5 150t162.5 57q75 0 132 -47t57 -121q0 -84 -60 -144.5t-168 -60.5q-78 0 -130 45.5t-52 120.5zM588 1677q0 93 58.5 150t162.5 57q75 0 131.5 -47t56.5 -121q0 -84 -59.5 -144.5t-167.5 -60.5q-78 0 -130 45.5 t-52 120.5z" />
<glyph unicode="&#xd0;" horiz-adv-x="1513" d="M57 532l64 369h129l94 533h698q227 0 366.5 -127t139.5 -342q0 -68 -10 -119l-55 -311q-48 -271 -213 -403t-471 -132h-707l92 532h-127zM602 360h182q114 0 174.5 46.5t79.5 152.5l49 279q7 31 7 59q0 86 -51 131t-144 45h-172l-31 -172h228l-64 -369h-229z" />
<glyph unicode="&#xd1;" d="M20 0l252 1434h426l295 -666l117 666h438l-252 -1434h-426l-295 666l-116 -666h-439zM406 1581q17 79 39.5 131.5t60.5 93t95 59.5t138 19q79 0 212.5 -28.5t150.5 -28.5q23 0 37.5 10t20 22t11.5 35l310 -88q-16 -71 -37 -120.5t-56.5 -90.5t-90.5 -61.5t-130 -20.5 q-84 0 -219.5 28t-156.5 28q-32 0 -46.5 -17t-27.5 -53z" />
<glyph unicode="&#xd2;" horiz-adv-x="1492" d="M76 563q0 65 12 133l31 174q104 592 704 592q136 0 253.5 -39.5t204.5 -112.5t137 -183t50 -244q0 -66 -12 -140l-29 -161q-51 -282 -232.5 -446.5t-469.5 -164.5q-290 0 -469.5 164.5t-179.5 427.5zM485 1845h516l74 -325h-422zM520 569q0 -106 53 -165.5t164 -59.5 q198 0 246 262l33 185q8 50 8 77q0 104 -57.5 163t-163.5 59q-107 0 -163.5 -61.5t-78.5 -190.5l-31 -176q-10 -58 -10 -93z" />
<glyph unicode="&#xd3;" horiz-adv-x="1492" d="M76 563q0 65 12 133l31 174q104 592 704 592q136 0 253.5 -39.5t204.5 -112.5t137 -183t50 -244q0 -66 -12 -140l-29 -161q-51 -282 -232.5 -446.5t-469.5 -164.5q-290 0 -469.5 164.5t-179.5 427.5zM520 569q0 -106 53 -165.5t164 -59.5q198 0 246 262l33 185q8 50 8 77 q0 104 -57.5 163t-163.5 59q-107 0 -163.5 -61.5t-78.5 -190.5l-31 -176q-10 -58 -10 -93zM664 1520l172 325h565l-289 -325h-448z" />
<glyph unicode="&#xd4;" horiz-adv-x="1492" d="M76 563q0 65 12 133l31 174q104 592 704 592q136 0 253.5 -39.5t204.5 -112.5t137 -183t50 -244q0 -66 -12 -140l-29 -161q-51 -282 -232.5 -446.5t-469.5 -164.5q-290 0 -469.5 164.5t-179.5 427.5zM428 1520l297 325h459l182 -325h-405l-46 94l-77 -94h-410zM520 569 q0 -106 53 -165.5t164 -59.5q198 0 246 262l33 185q8 50 8 77q0 104 -57.5 163t-163.5 59q-107 0 -163.5 -61.5t-78.5 -190.5l-31 -176q-10 -58 -10 -93z" />
<glyph unicode="&#xd5;" horiz-adv-x="1492" d="M76 563q0 65 12 133l31 174q104 592 704 592q136 0 253.5 -39.5t204.5 -112.5t137 -183t50 -244q0 -66 -12 -140l-29 -161q-51 -282 -232.5 -446.5t-469.5 -164.5q-290 0 -469.5 164.5t-179.5 427.5zM369 1581q17 79 39.5 131.5t60.5 93t95 59.5t138 19q79 0 212.5 -28.5 t150.5 -28.5q33 0 47 16.5t23 50.5l309 -88q-16 -71 -37 -120.5t-56.5 -90.5t-90.5 -61.5t-130 -20.5q-84 0 -219.5 28t-156.5 28q-32 0 -46.5 -17t-27.5 -53zM520 569q0 -106 53 -165.5t164 -59.5q198 0 246 262l33 185q8 50 8 77q0 104 -57.5 163t-163.5 59 q-107 0 -163.5 -61.5t-78.5 -190.5l-31 -176q-10 -58 -10 -93z" />
<glyph unicode="&#xd6;" horiz-adv-x="1492" d="M76 563q0 65 12 133l31 174q104 592 704 592q136 0 253.5 -39.5t204.5 -112.5t137 -183t50 -244q0 -66 -12 -140l-29 -161q-51 -282 -232.5 -446.5t-469.5 -164.5q-290 0 -469.5 164.5t-179.5 427.5zM459 1677q0 93 58.5 150t162.5 57q75 0 131.5 -47t56.5 -121 q0 -84 -59.5 -144.5t-167.5 -60.5q-78 0 -130 45.5t-52 120.5zM520 569q0 -106 53 -165.5t164 -59.5q198 0 246 262l33 185q8 50 8 77q0 104 -57.5 163t-163.5 59q-107 0 -163.5 -61.5t-78.5 -190.5l-31 -176q-10 -58 -10 -93zM965 1677q0 93 58.5 150t162.5 57 q75 0 131.5 -47t56.5 -121q0 -84 -59.5 -144.5t-167.5 -60.5q-78 0 -130 45.5t-52 120.5z" />
<glyph unicode="&#xd7;" horiz-adv-x="1267" d="M98 494l303 256l-221 266l301 254l219 -269l310 269l229 -281l-309 -266l221 -266l-303 -254l-217 268l-305 -258z" />
<glyph unicode="&#xd8;" horiz-adv-x="1519" d="M-39 -102l252 297q-123 151 -123 368q0 65 12 133l31 174q104 592 705 592q209 0 376 -96l144 170h252l-250 -293q123 -148 123 -360q0 -60 -13 -140l-28 -161q-51 -284 -230.5 -447.5t-472.5 -163.5q-217 0 -379 97l-145 -170h-254zM535 569l413 488q-58 33 -131 33 q-107 0 -163.5 -61.5t-78.5 -190.5l-30 -176q-10 -58 -10 -93zM621 375q51 -31 131 -31q105 0 163.5 68t81.5 194l33 185q8 46 8 73z" />
<glyph unicode="&#xd9;" horiz-adv-x="1476" d="M98 469q0 47 8 88l154 877h449l-154 -875q-4 -20 -4 -41q0 -78 46 -124t124 -46q87 0 140.5 52t68.5 145l157 889h449l-156 -879q-48 -279 -223.5 -431.5t-474.5 -152.5q-158 0 -291 62.5t-213 177.5t-80 258zM532 1845h517l73 -325h-422z" />
<glyph unicode="&#xda;" horiz-adv-x="1476" d="M98 469q0 47 8 88l154 877h449l-154 -875q-4 -20 -4 -41q0 -78 46 -124t124 -46q87 0 140.5 52t68.5 145l157 889h449l-156 -879q-48 -279 -223.5 -431.5t-474.5 -152.5q-158 0 -291 62.5t-213 177.5t-80 258zM678 1520l172 325h565l-289 -325h-448z" />
<glyph unicode="&#xdb;" horiz-adv-x="1476" d="M98 469q0 47 8 88l154 877h449l-154 -875q-4 -20 -4 -41q0 -78 46 -124t124 -46q87 0 140.5 52t68.5 145l157 889h449l-156 -879q-48 -279 -223.5 -431.5t-474.5 -152.5q-158 0 -291 62.5t-213 177.5t-80 258zM455 1520l297 325h458l183 -325h-406l-45 94l-78 -94h-409z " />
<glyph unicode="&#xdc;" horiz-adv-x="1476" d="M98 469q0 47 8 88l154 877h449l-154 -875q-4 -20 -4 -41q0 -78 46 -124t124 -46q87 0 140.5 52t68.5 145l157 889h449l-156 -879q-48 -279 -223.5 -431.5t-474.5 -152.5q-158 0 -291 62.5t-213 177.5t-80 258zM496 1677q0 93 58.5 150t162.5 57q75 0 131.5 -47t56.5 -121 q0 -84 -59.5 -144.5t-167.5 -60.5q-78 0 -130 45.5t-52 120.5zM1001 1677q0 93 59 150t163 57q75 0 131.5 -47t56.5 -121q0 -84 -59.5 -144.5t-167.5 -60.5q-78 0 -130.5 45.5t-52.5 120.5z" />
<glyph unicode="&#xdd;" horiz-adv-x="1376" d="M150 1434h485l110 -529l283 529h500l-639 -983l-78 -451h-449l87 496zM608 1520l172 325h566l-289 -325h-449z" />
<glyph unicode="&#xde;" horiz-adv-x="1382" d="M20 0l252 1434h449l-31 -170h201q226 0 364 -130t138 -337q0 -283 -181 -440.5t-499 -157.5h-209l-35 -199h-449zM569 567h181q84 0 138 51t54 134q0 61 -35.5 102t-101.5 41h-178z" />
<glyph unicode="&#xdf;" horiz-adv-x="1302" d="M0 0l184 1044q42 241 187 350t397 109q78 0 152 -15t140.5 -47t116.5 -77t79.5 -109.5t29.5 -140.5q0 -111 -55.5 -207t-157.5 -157q79 -34 128.5 -111t49.5 -174q0 -218 -159 -341.5t-414 -123.5h-123l59 348h58q63 0 107 30.5t44 90.5q0 37 -24 60.5t-68 23.5h-84 l58 328q63 22 100 66.5t37 103.5q0 42 -29.5 71t-75.5 29q-50 0 -77.5 -28t-38.5 -89l-183 -1034h-438z" />
<glyph unicode="&#xe0;" horiz-adv-x="1247" d="M18 293q0 163 110 254.5t298 91.5q192 0 311 -70l19 107q8 42 -19 71t-78 29q-78 0 -108 -53h-397q113 387 555 387q74 0 143.5 -15t131.5 -47t109 -76.5t74 -108t27 -138.5q0 -35 -6 -76l-113 -649h-420l13 78q-45 -45 -123 -74t-160 -29q-163 0 -265 88t-102 230z M348 1520h537l63 -346h-420zM459 330q0 -39 32 -62.5t78 -23.5q51 0 89 25t38 71q0 38 -36 61t-82 23q-51 0 -85 -23.5t-34 -70.5z" />
<glyph unicode="&#xe1;" horiz-adv-x="1247" d="M18 293q0 163 110 254.5t298 91.5q192 0 311 -70l19 107q8 42 -19 71t-78 29q-78 0 -108 -53h-397q113 387 555 387q74 0 143.5 -15t131.5 -47t109 -76.5t74 -108t27 -138.5q0 -35 -6 -76l-113 -649h-420l13 78q-45 -45 -123 -74t-160 -29q-163 0 -265 88t-102 230z M459 330q0 -39 32 -62.5t78 -23.5q51 0 89 25t38 71q0 38 -36 61t-82 23q-51 0 -85 -23.5t-34 -70.5zM535 1174l161 346h559l-286 -346h-434z" />
<glyph unicode="&#xe2;" horiz-adv-x="1247" d="M18 293q0 163 110 254.5t298 91.5q192 0 311 -70l19 107q8 42 -19 71t-78 29q-78 0 -108 -53h-397q113 387 555 387q74 0 143.5 -15t131.5 -47t109 -76.5t74 -108t27 -138.5q0 -35 -6 -76l-113 -649h-420l13 78q-45 -45 -123 -74t-160 -29q-163 0 -265 88t-102 230z M324 1174l278 346h451l166 -346h-377l-49 116l-80 -116h-389zM459 330q0 -39 32 -62.5t78 -23.5q51 0 89 25t38 71q0 38 -36 61t-82 23q-51 0 -85 -23.5t-34 -70.5z" />
<glyph unicode="&#xe3;" horiz-adv-x="1247" d="M18 293q0 163 110 254.5t298 91.5q192 0 311 -70l19 107q8 42 -19 71t-78 29q-78 0 -108 -53h-397q113 387 555 387q74 0 143.5 -15t131.5 -47t109 -76.5t74 -108t27 -138.5q0 -35 -6 -76l-113 -649h-420l13 78q-45 -45 -123 -74t-160 -29q-163 0 -265 88t-102 230z M283 1241q47 157 111 231t188 74q72 0 183 -28.5t126 -28.5q16 0 28 4.5t20.5 15.5t13 20t12.5 27l286 -88q-39 -144 -109 -219t-188 -75q-70 0 -182.5 26.5t-128.5 26.5q-28 0 -43 -14.5t-29 -51.5zM459 330q0 -39 32 -62.5t78 -23.5q51 0 89 25t38 71q0 38 -36 61t-82 23 q-51 0 -85 -23.5t-34 -70.5z" />
<glyph unicode="&#xe4;" horiz-adv-x="1247" d="M18 293q0 163 110 254.5t298 91.5q192 0 311 -70l19 107q8 42 -19 71t-78 29q-78 0 -108 -53h-397q113 387 555 387q74 0 143.5 -15t131.5 -47t109 -76.5t74 -108t27 -138.5q0 -35 -6 -76l-113 -649h-420l13 78q-45 -45 -123 -74t-160 -29q-163 0 -265 88t-102 230z M338 1335q0 90 60 148.5t157 58.5q75 0 129.5 -47t54.5 -121q0 -86 -62 -145.5t-161 -59.5q-74 0 -126 46t-52 120zM459 330q0 -39 32 -62.5t78 -23.5q51 0 89 25t38 71q0 38 -36 61t-82 23q-51 0 -85 -23.5t-34 -70.5zM817 1335q0 90 60 148.5t157 58.5q75 0 130 -47 t55 -121q0 -85 -62.5 -145t-161.5 -60q-74 0 -126 46t-52 120z" />
<glyph unicode="&#xe5;" horiz-adv-x="1247" d="M18 293q0 163 110 254.5t298 91.5q192 0 311 -70l19 107q8 42 -19 71t-78 29q-78 0 -108 -53h-397q113 387 555 387q74 0 143.5 -15t131.5 -47t109 -76.5t74 -108t27 -138.5q0 -35 -6 -76l-113 -649h-420l13 78q-45 -45 -123 -74t-160 -29q-163 0 -265 88t-102 230z M459 330q0 -39 32 -62.5t78 -23.5q51 0 89 25t38 71q0 38 -36 61t-82 23q-51 0 -85 -23.5t-34 -70.5zM522 1368q0 115 82 177.5t219 62.5q100 0 177 -53t77 -146q0 -111 -84 -177.5t-211 -66.5q-67 0 -125 22t-96.5 69.5t-38.5 111.5zM700 1378q0 -35 24.5 -57.5t66.5 -22.5 q46 0 78 29t32 72q0 34 -25 55t-65 21q-48 0 -79.5 -25.5t-31.5 -71.5z" />
<glyph unicode="&#xe6;" horiz-adv-x="1841" d="M18 297q0 166 108 255t300 89q188 0 311 -72l19 107q8 42 -19 71t-78 29q-78 0 -108 -53h-397q113 387 555 387q80 0 159 -25.5t127 -64.5q53 40 142.5 65t189.5 25q223 0 352 -117.5t129 -310.5q0 -40 -10 -102l-29 -154h-618l-4 -31q-9 -53 20.5 -88t85.5 -35 q79 0 111 62h383q-40 -150 -175 -254.5t-339 -104.5q-126 0 -223.5 36t-153.5 102q-55 -59 -161.5 -98.5t-231.5 -39.5q-206 0 -325.5 86.5t-119.5 235.5zM459 330q0 -39 31 -62.5t79 -23.5q51 0 89 25t38 71q0 38 -36 61t-82 23q-51 0 -85 -23.5t-34 -70.5zM1194 662h217 l6 36q2 12 2 27q0 44 -25.5 68t-72.5 24q-52 0 -81 -29t-40 -90z" />
<glyph unicode="&#xe7;" horiz-adv-x="1173" d="M43 434q0 54 8 101l23 127q39 215 181 331.5t374 116.5q112 0 203.5 -27t162.5 -82.5t111 -148t41 -215.5h-393q0 55 -30 91t-87 36q-59 0 -88.5 -33.5t-42.5 -103.5l-29 -160q-4 -20 -4 -35q0 -51 32.5 -80.5t84.5 -29.5q102 0 131 127h395q-28 -219 -175.5 -345.5 t-371.5 -128.5l-10 -36l37 -2q77 -5 119.5 -41t42.5 -97q0 -49 -23.5 -85t-64.5 -56t-89.5 -29.5t-105.5 -9.5q-86 0 -180 16l24 134q35 -7 70 -7q64 0 64 37q0 30 -47 33l-48 4l60 156q-169 36 -272 154t-103 288z" />
<glyph unicode="&#xe8;" horiz-adv-x="1146" d="M41 426q0 52 8 96l23 129q81 459 561 459q223 0 352 -117.5t129 -310.5q0 -40 -10 -102l-29 -154h-618l-4 -31q-9 -53 20.5 -88t85.5 -35q79 0 111 62h383q-40 -150 -175 -254.5t-339 -104.5q-122 0 -218.5 36t-156.5 99t-91.5 143.5t-31.5 172.5zM266 1520h537l63 -346 h-420zM498 651h217l8 47q2 12 2 27q0 44 -26 68t-72 24q-52 0 -81 -29t-40 -90z" />
<glyph unicode="&#xe9;" horiz-adv-x="1146" d="M41 426q0 52 8 96l23 129q81 459 561 459q223 0 352 -117.5t129 -310.5q0 -40 -10 -102l-29 -154h-618l-4 -31q-9 -53 20.5 -88t85.5 -35q79 0 111 62h383q-40 -150 -175 -254.5t-339 -104.5q-122 0 -218.5 36t-156.5 99t-91.5 143.5t-31.5 172.5zM475 1174l162 346h559 l-287 -346h-434zM498 651h217l8 47q2 12 2 27q0 44 -26 68t-72 24q-52 0 -81 -29t-40 -90z" />
<glyph unicode="&#xea;" horiz-adv-x="1146" d="M41 426q0 52 8 96l23 129q81 459 561 459q223 0 352 -117.5t129 -310.5q0 -40 -10 -102l-29 -154h-618l-4 -31q-9 -53 20.5 -88t85.5 -35q79 0 111 62h383q-40 -150 -175 -254.5t-339 -104.5q-122 0 -218.5 36t-156.5 99t-91.5 143.5t-31.5 172.5zM229 1174l279 346h450 l166 -346h-376l-50 116l-80 -116h-389zM498 651h217l8 47q2 12 2 27q0 44 -26 68t-72 24q-52 0 -81 -29t-40 -90z" />
<glyph unicode="&#xeb;" horiz-adv-x="1146" d="M41 426q0 52 8 96l23 129q81 459 561 459q223 0 352 -117.5t129 -310.5q0 -40 -10 -102l-29 -154h-618l-4 -31q-9 -53 20.5 -88t85.5 -35q79 0 111 62h383q-40 -150 -175 -254.5t-339 -104.5q-122 0 -218.5 36t-156.5 99t-91.5 143.5t-31.5 172.5zM266 1335 q0 90 60 148.5t157 58.5q75 0 130 -47t55 -121q0 -85 -62.5 -145t-161.5 -60q-74 0 -126 46t-52 120zM498 651h217l8 47q2 12 2 27q0 44 -26 68t-72 24q-52 0 -81 -29t-40 -90zM745 1335q0 90 60.5 148.5t157.5 58.5q75 0 129.5 -47t54.5 -121q0 -86 -62 -145.5t-161 -59.5 q-75 0 -127 46t-52 120z" />
<glyph unicode="&#xec;" horiz-adv-x="622" d="M0 0l190 1085h439l-191 -1085h-438zM23 1520h536l64 -346h-420z" />
<glyph unicode="&#xed;" horiz-adv-x="622" d="M0 0l190 1085h439l-191 -1085h-438zM205 1176l162 346h559l-287 -346h-434z" />
<glyph unicode="&#xee;" horiz-adv-x="622" d="M-16 1174l278 346h451l166 -346h-377l-49 116l-80 -116h-389zM0 0l190 1085h439l-191 -1085h-438z" />
<glyph unicode="&#xef;" horiz-adv-x="622" d="M0 0l190 1085h439l-191 -1085h-438zM14 1333q0 90 60 148.5t157 58.5q75 0 130 -47t55 -121q0 -86 -62 -145.5t-161 -59.5q-75 0 -127 46t-52 120zM494 1333q0 90 60 148.5t157 58.5q75 0 129.5 -47t54.5 -121q0 -86 -62 -145.5t-161 -59.5q-74 0 -126 46t-52 120z" />
<glyph unicode="&#xf0;" horiz-adv-x="1202" d="M39 418q0 36 8 82l23 125q38 209 162.5 315.5t326.5 106.5q120 0 211 -54q-54 85 -113 152l-176 -70l-82 213l84 33q-115 101 -229 174h506q44 -26 65 -41l209 80l82 -209l-117 -47q83 -113 133 -247t50 -275q0 -68 -11 -127l-28 -160q-43 -240 -196 -369t-398 -129 q-225 0 -367.5 129.5t-142.5 317.5zM465 410q0 -45 30 -73t80 -28q55 0 87.5 33t42.5 86l30 174q2 10 2 27q0 47 -29 75.5t-83 28.5q-105 0 -125 -117l-33 -184q-2 -10 -2 -22z" />
<glyph unicode="&#xf1;" horiz-adv-x="1236" d="M0 0l190 1085h420l-18 -102q43 61 116 94t164 33q154 0 238 -86t84 -231q0 -47 -8 -97l-123 -696h-438l112 639q7 45 -14.5 72.5t-63.5 27.5q-90 0 -106 -90l-115 -649h-438zM256 1241q47 157 111 231t188 74q72 0 183 -28.5t126 -28.5q16 0 28 4.5t20.5 15.5t13 20 t12.5 27l287 -88q-39 -144 -109 -219t-188 -75q-70 0 -183 26.5t-129 26.5q-28 0 -42.5 -14.5t-28.5 -51.5z" />
<glyph unicode="&#xf2;" horiz-adv-x="1181" d="M41 434q0 43 10 101l25 139q38 215 176.5 325.5t357.5 110.5q106 0 200.5 -28.5t171 -83.5t121 -145t44.5 -204q0 -49 -10 -104l-23 -127q-37 -206 -181.5 -324.5t-369.5 -118.5q-227 0 -374.5 126t-147.5 333zM264 1520h537l63 -346h-420zM459 426q0 -46 30 -75t82 -29 q50 0 80.5 30t38.5 78l33 186q4 20 4 37q0 53 -31 82t-86 29q-95 0 -114 -115l-35 -196q-2 -14 -2 -27z" />
<glyph unicode="&#xf3;" horiz-adv-x="1181" d="M41 434q0 43 10 101l25 139q38 215 176.5 325.5t357.5 110.5q106 0 200.5 -28.5t171 -83.5t121 -145t44.5 -204q0 -49 -10 -104l-23 -127q-37 -206 -181.5 -324.5t-369.5 -118.5q-227 0 -374.5 126t-147.5 333zM459 426q0 -46 30 -75t82 -29q50 0 80.5 30t38.5 78l33 186 q4 20 4 37q0 53 -31 82t-86 29q-95 0 -114 -115l-35 -196q-2 -14 -2 -27zM467 1174l162 346h559l-287 -346h-434z" />
<glyph unicode="&#xf4;" horiz-adv-x="1181" d="M41 434q0 43 10 101l25 139q38 215 176.5 325.5t357.5 110.5q106 0 200.5 -28.5t171 -83.5t121 -145t44.5 -204q0 -49 -10 -104l-23 -127q-37 -206 -181.5 -324.5t-369.5 -118.5q-227 0 -374.5 126t-147.5 333zM246 1174l278 346h451l166 -346h-377l-49 116l-80 -116 h-389zM459 426q0 -46 30 -75t82 -29q50 0 80.5 30t38.5 78l33 186q4 20 4 37q0 53 -31 82t-86 29q-95 0 -114 -115l-35 -196q-2 -14 -2 -27z" />
<glyph unicode="&#xf5;" horiz-adv-x="1181" d="M41 434q0 43 10 101l25 139q38 215 176.5 325.5t357.5 110.5q106 0 200.5 -28.5t171 -83.5t121 -145t44.5 -204q0 -49 -10 -104l-23 -127q-37 -206 -181.5 -324.5t-369.5 -118.5q-227 0 -374.5 126t-147.5 333zM231 1241q47 157 111 231t188 74q72 0 183.5 -28.5 t126.5 -28.5q21 0 36 10.5t20.5 21t16.5 35.5l287 -88q-39 -144 -109 -219t-188 -75q-71 0 -183 26.5t-128 26.5q-28 0 -43 -14.5t-29 -51.5zM459 426q0 -46 30 -75t82 -29q50 0 80.5 30t38.5 78l33 186q4 20 4 37q0 53 -31 82t-86 29q-95 0 -114 -115l-35 -196 q-2 -14 -2 -27z" />
<glyph unicode="&#xf6;" horiz-adv-x="1181" d="M41 434q0 43 10 101l25 139q38 215 176.5 325.5t357.5 110.5q106 0 200.5 -28.5t171 -83.5t121 -145t44.5 -204q0 -49 -10 -104l-23 -127q-37 -206 -181.5 -324.5t-369.5 -118.5q-227 0 -374.5 126t-147.5 333zM272 1335q0 90 60 148.5t157 58.5q75 0 130 -47t55 -121 q0 -86 -62 -145.5t-161 -59.5q-75 0 -127 46t-52 120zM459 426q0 -46 30 -75t82 -29q50 0 80.5 30t38.5 78l33 186q4 20 4 37q0 53 -31 82t-86 29q-95 0 -114 -115l-35 -196q-2 -14 -2 -27zM752 1335q0 90 60 148.5t157 58.5q75 0 129.5 -47t54.5 -121q0 -86 -62 -145.5 t-161 -59.5q-74 0 -126 46t-52 120z" />
<glyph unicode="&#xf7;" horiz-adv-x="1196" d="M113 551l65 373h987l-65 -373h-987zM338 276q0 100 67.5 156.5t178.5 56.5q80 0 138 -46.5t58 -125.5q0 -95 -67 -154t-176 -59q-86 0 -142.5 48t-56.5 124zM494 1157q0 100 67 156.5t178 56.5q80 0 138.5 -46.5t58.5 -125.5q0 -95 -67.5 -154t-176.5 -59q-86 0 -142 48 t-56 124z" />
<glyph unicode="&#xf8;" horiz-adv-x="1206" d="M-49 -102l213 239q-111 124 -111 297q0 39 10 101l25 139q38 215 177 325.5t358 110.5q188 0 325 -82l144 162h170l-213 -242q110 -120 110 -299q0 -52 -10 -104l-23 -127q-37 -206 -181.5 -324.5t-369.5 -118.5q-180 0 -313 82l-141 -159h-170zM481 498l217 245 q-35 21 -75 21q-96 0 -115 -115zM512 340q27 -18 72 -18q50 0 80 29.5t38 78.5l27 156z" />
<glyph unicode="&#xf9;" horiz-adv-x="1230" d="M51 305q0 41 10 103l121 677h439l-117 -655q-8 -42 13.5 -71t64.5 -29q39 0 65.5 25t32.5 63l119 667h438l-190 -1085h-420l18 102q-34 -55 -112.5 -91t-167.5 -36q-150 0 -232 90.5t-82 239.5zM346 1520h537l63 -346h-420z" />
<glyph unicode="&#xfa;" horiz-adv-x="1230" d="M51 305q0 41 10 103l121 677h439l-117 -655q-8 -42 13.5 -71t64.5 -29q39 0 65.5 25t32.5 63l119 667h438l-190 -1085h-420l18 102q-34 -55 -112.5 -91t-167.5 -36q-150 0 -232 90.5t-82 239.5zM508 1174l162 346h559l-287 -346h-434z" />
<glyph unicode="&#xfb;" horiz-adv-x="1230" d="M51 305q0 41 10 103l121 677h439l-117 -655q-8 -42 13.5 -71t64.5 -29q39 0 65.5 25t32.5 63l119 667h438l-190 -1085h-420l18 102q-34 -55 -112.5 -91t-167.5 -36q-150 0 -232 90.5t-82 239.5zM279 1174l278 346h451l166 -346h-377l-49 116l-80 -116h-389z" />
<glyph unicode="&#xfc;" horiz-adv-x="1230" d="M51 305q0 41 10 103l121 677h439l-117 -655q-8 -42 13.5 -71t64.5 -29q39 0 65.5 25t32.5 63l119 667h438l-190 -1085h-420l18 102q-34 -55 -112.5 -91t-167.5 -36q-150 0 -232 90.5t-82 239.5zM328 1335q0 90 60 148.5t157 58.5q75 0 129.5 -47t54.5 -121 q0 -86 -62 -145.5t-161 -59.5q-74 0 -126 46t-52 120zM807 1335q0 90 60 148.5t157 58.5q75 0 129.5 -47t54.5 -121q0 -86 -62 -145.5t-161 -59.5q-74 0 -126 46t-52 120z" />
<glyph unicode="&#xfd;" horiz-adv-x="1105" d="M92 1085h436l39 -647l213 647h437l-660 -1441h-432l160 356zM442 1174l162 346h559l-286 -346h-435z" />
<glyph unicode="&#xfe;" horiz-adv-x="1263" d="M-61 -356l325 1851h438l-86 -481q44 44 111 70t139 26q175 0 273 -106t98 -285q0 -69 -10 -123l-31 -174q-37 -216 -158.5 -331.5t-322.5 -115.5q-87 0 -154.5 29t-107.5 74l-76 -434h-438zM516 432q0 -52 30.5 -81t84.5 -29q60 0 91.5 36t43.5 111l25 139q4 24 4 39 q0 56 -30.5 86.5t-88.5 30.5q-105 0 -129 -143l-27 -152q-4 -24 -4 -37z" />
<glyph unicode="&#xff;" horiz-adv-x="1105" d="M92 1085h436l39 -647l213 647h437l-660 -1441h-432l160 356zM260 1335q0 90 60 148.5t157 58.5q75 0 130 -47t55 -121q0 -85 -62.5 -145t-161.5 -60q-74 0 -126 46t-52 120zM739 1335q0 90 60 148.5t157 58.5q75 0 130 -47t55 -121q0 -86 -62 -145.5t-161 -59.5 q-75 0 -127 46t-52 120z" />
<glyph unicode="&#x152;" horiz-adv-x="2164" d="M76 569q0 70 14 152l14 80q59 327 248 480t539 153h1362l-66 -369h-635l-26 -156h575l-67 -368h-574l-28 -172h634l-63 -369h-1288q-154 0 -276 42t-201 117.5t-120.5 179.5t-41.5 230zM522 590q0 -111 61.5 -166t176.5 -55h221l123 696h-242q-149 0 -217.5 -71 t-97.5 -230l-17 -90q-8 -44 -8 -84z" />
<glyph unicode="&#x153;" horiz-adv-x="1804" d="M41 434q0 43 10 101l25 139q38 215 176.5 325.5t357.5 110.5q205 0 336 -100q79 56 153 78t191 22q223 0 352.5 -117.5t129.5 -310.5q0 -34 -11 -102l-28 -154h-619l-4 -25q-9 -56 20.5 -92.5t86.5 -36.5q80 0 110 62h383q-40 -150 -175 -254.5t-339 -104.5 q-203 0 -311 97q-50 -43 -138.5 -70t-183.5 -27q-227 0 -374.5 126t-147.5 333zM459 426q0 -46 30 -75t82 -29q50 0 80.5 30t38.5 78l33 186q4 20 4 37q0 53 -31 82t-86 29q-95 0 -114 -115l-35 -196q-2 -14 -2 -27zM1155 651h217l8 47q2 12 2 27q0 44 -26 68t-72 24 q-52 0 -81 -29t-40 -90z" />
<glyph unicode="&#x178;" horiz-adv-x="1376" d="M150 1434h485l110 -529l283 529h500l-639 -983l-78 -451h-449l87 496zM414 1677q0 93 58.5 150t162.5 57q75 0 131.5 -47t56.5 -121q0 -84 -59.5 -144.5t-167.5 -60.5q-78 0 -130 45.5t-52 120.5zM920 1677q0 93 58.5 150t162.5 57q75 0 131.5 -47t56.5 -121 q0 -84 -59.5 -144.5t-167.5 -60.5q-78 0 -130 45.5t-52 120.5z" />
<glyph unicode="&#x2c6;" horiz-adv-x="1073" d="M207 1174l278 346h451l166 -346h-377l-49 116l-80 -116h-389z" />
<glyph unicode="&#x2dc;" horiz-adv-x="1124" d="M203 1241q47 157 111 231t188 74q72 0 183 -28.5t126 -28.5q16 0 28 4.5t20.5 15.5t13 20t12.5 27l286 -88q-39 -144 -109 -219t-188 -75q-70 0 -182 26.5t-129 26.5q-28 0 -42.5 -14.5t-28.5 -51.5z" />
<glyph unicode="&#x2000;" horiz-adv-x="947" />
<glyph unicode="&#x2001;" horiz-adv-x="1894" />
<glyph unicode="&#x2002;" horiz-adv-x="947" />
<glyph unicode="&#x2003;" horiz-adv-x="1894" />
<glyph unicode="&#x2004;" horiz-adv-x="631" />
<glyph unicode="&#x2005;" horiz-adv-x="473" />
<glyph unicode="&#x2006;" horiz-adv-x="315" />
<glyph unicode="&#x2007;" horiz-adv-x="315" />
<glyph unicode="&#x2008;" horiz-adv-x="236" />
<glyph unicode="&#x2009;" horiz-adv-x="378" />
<glyph unicode="&#x200a;" horiz-adv-x="105" />
<glyph unicode="&#x2010;" horiz-adv-x="811" d="M63 475l72 393h666l-70 -393h-668z" />
<glyph unicode="&#x2011;" horiz-adv-x="811" d="M63 475l72 393h666l-70 -393h-668z" />
<glyph unicode="&#x2012;" horiz-adv-x="811" d="M63 475l72 393h666l-70 -393h-668z" />
<glyph unicode="&#x2013;" horiz-adv-x="1245" d="M63 475l72 393h1102l-72 -393h-1102z" />
<glyph unicode="&#x2014;" horiz-adv-x="1857" d="M63 475l72 393h1714l-71 -393h-1715z" />
<glyph unicode="&#x2018;" horiz-adv-x="602" d="M74 827l307 607h354l-194 -607h-467z" />
<glyph unicode="&#x2019;" horiz-adv-x="602" d="M94 827l195 607h467l-307 -607h-355z" />
<glyph unicode="&#x201a;" horiz-adv-x="630" d="M-94 -184l194 606h467l-307 -606h-354z" />
<glyph unicode="&#x201c;" horiz-adv-x="1191" d="M78 827l307 607h354l-194 -607h-467zM657 827l308 607h354l-195 -607h-467z" />
<glyph unicode="&#x201d;" horiz-adv-x="1191" d="M90 827l195 607h467l-308 -607h-354zM670 827l194 607h467l-307 -607h-354z" />
<glyph unicode="&#x201e;" horiz-adv-x="1202" d="M-94 -184l194 606h467l-307 -606h-354zM485 -184l195 606h467l-307 -606h-355z" />
<glyph unicode="&#x2022;" horiz-adv-x="870" d="M143 723q0 136 91 228.5t233 92.5q136 0 228.5 -85t92.5 -218t-91.5 -231t-235.5 -98q-140 0 -229 87.5t-89 223.5z" />
<glyph unicode="&#x2026;" horiz-adv-x="1830" d="M6 201q0 106 71.5 180t186.5 74q90 0 151.5 -61.5t61.5 -151.5q0 -102 -70.5 -180t-187.5 -78q-90 0 -151.5 62.5t-61.5 154.5zM616 201q0 106 71.5 180t186.5 74q90 0 151.5 -61.5t61.5 -151.5q0 -102 -70.5 -180t-187.5 -78q-90 0 -151.5 62.5t-61.5 154.5zM1227 201 q0 106 71.5 180t186.5 74q90 0 151.5 -61.5t61.5 -151.5q0 -102 -70.5 -180t-187.5 -78q-90 0 -151.5 62.5t-61.5 154.5z" />
<glyph unicode="&#x202f;" horiz-adv-x="378" />
<glyph unicode="&#x2039;" horiz-adv-x="866" d="M20 575l373 453h525l-377 -485l217 -420h-510z" />
<glyph unicode="&#x203a;" horiz-adv-x="866" d="M-33 123l377 485l-217 420h512l227 -450l-372 -455h-527z" />
<glyph unicode="&#x205f;" horiz-adv-x="473" />
<glyph unicode="&#x20ac;" horiz-adv-x="1361" d="M53 432l45 256h109l10 57h-108l45 256h108q42 228 187 344.5t376 116.5q160 0 279 -52t190 -163t74 -272h-401q6 62 -27.5 101.5t-101.5 39.5q-53 0 -88.5 -29.5t-47.5 -85.5h187l-45 -256h-187l-10 -57h187l-46 -256h-184q-1 -52 33.5 -83.5t91.5 -31.5q67 0 103 41 t45 101h403q-18 -101 -61.5 -187t-113 -154.5t-172 -107.5t-228.5 -39t-230 38.5t-170.5 103.5t-102.5 147.5t-34 171.5h-115z" />
<glyph unicode="&#x2122;" horiz-adv-x="1351" d="M150 1268l30 166h525l-29 -166h-168l-80 -449h-190l79 449h-167zM682 819l109 615h172l88 -328l206 328h177l-109 -615h-182l45 254l-88 -139h-156l-35 139l-45 -254h-182z" />
<glyph unicode="&#xe000;" horiz-adv-x="1085" d="M0 0v1085h1085v-1085h-1085z" />
<glyph unicode="&#xfb01;" horiz-adv-x="1366" d="M43 0l135 762h-104l55 323h104l13 72q31 184 122 261t294 77h241l-55 -311h-107q-29 0 -42.5 -11.5t-18.5 -39.5l-8 -48h137l-57 -323h-136l-135 -762h-438zM743 0l191 1085h438l-190 -1085h-439zM971 1341q0 103 65.5 164.5t175.5 61.5q89 0 154.5 -57.5t65.5 -147.5 q0 -100 -65.5 -162.5t-180.5 -62.5q-90 0 -152.5 57t-62.5 147z" />
<glyph unicode="&#xfb02;" horiz-adv-x="1366" d="M43 0l135 762h-104l55 323h104l13 72q31 184 122 261t294 77h241l-55 -311h-107q-29 0 -42.5 -11.5t-18.5 -39.5l-8 -48h137l-57 -323h-136l-135 -762h-438zM743 0l263 1495h438l-262 -1495h-439z" />
</font>
</defs>
</svg>
