<svg width="110" height="136" viewBox="0 0 110 136" fill="none" xmlns="http://www.w3.org/2000/svg">
<path d="M106.502 90.9622C106.801 115.425 85.841 135.595 59.591 135.994C33.3409 136.393 11.8818 116.823 11.4825 92.3601C11.1831 67.8972 32.1432 47.7277 58.3932 47.3283C84.6433 46.9289 106.202 66.4993 106.502 90.9622Z" fill="#FF9000"/>
<path d="M12.4806 94.3571C12.4806 94.3571 2.20019 89.764 1.70114 99.9486C1.20209 110.133 7.78955 116.224 17.8704 109.235C27.9512 102.245 12.4806 94.3571 12.4806 94.3571Z" fill="#FF9000"/>
<path d="M109.995 69.4947C109.596 45.0317 87.3381 25.062 56.9959 25.4614C26.5538 25.8608 -0.394859 46.3298 0.00438056 70.8926C0.104191 79.0802 2.99868 86.7685 7.98918 93.2587C9.38652 93.3585 10.7839 93.6581 11.5823 93.9576C11.5823 93.4584 11.4825 92.8593 11.4825 92.2602C14.1774 88.6657 11.9816 58.9107 53.3029 55.416C80.4512 53.0196 94.4246 58.1119 98.5168 66.6989C102.609 72.3903 105.404 78.9803 106.302 86.1694C108.697 80.9773 110.095 75.3858 109.995 69.4947Z" fill="black"/>
<path d="M70.8695 101.646C70.8695 102.445 70.1708 103.044 69.3723 103.144C68.474 103.144 67.8752 102.545 67.8752 101.746C67.8752 100.947 68.5739 100.348 69.3723 100.248C70.2706 100.148 70.8695 100.847 70.8695 101.646Z" fill="black"/>
<path d="M86.3401 107.138C68.4741 115.825 49.4104 109.934 49.4104 109.934C49.4104 109.934 45.418 108.735 45.2183 112.53C45.0187 116.324 55.1993 120.218 69.0729 119.02C82.9465 117.722 89.8334 112.729 89.9332 111.032C90.2326 107.637 88.8353 106.039 86.3401 107.138Z" fill="white"/>
<path d="M52.4046 118.72C52.3048 118.72 52.3048 118.72 52.3048 118.72C51.8058 118.62 51.5063 118.221 51.6062 117.722L52.5044 110.433C52.6043 109.933 53.0035 109.634 53.5025 109.734C54.0016 109.834 54.301 110.233 54.2012 110.732L53.3029 118.021C53.2031 118.321 52.8039 118.72 52.4046 118.72Z" fill="#929191"/>
<path d="M62.4854 120.218C61.9864 120.218 61.5872 119.719 61.5872 119.319L61.9864 111.731C61.9864 111.232 62.4854 110.832 62.8847 110.932C63.3837 110.932 63.783 111.431 63.6832 111.831L63.2839 119.419C63.3837 119.918 62.9845 120.218 62.4854 120.218Z" fill="#929191"/>
<path d="M72.7659 119.519C72.2669 119.519 71.8676 119.219 71.8676 118.62L71.5682 111.231C71.5682 110.732 71.8676 110.333 72.4665 110.333C72.9655 110.233 73.3648 110.632 73.3648 111.231L73.6642 118.62C73.6642 119.12 73.265 119.519 72.7659 119.519Z" fill="#929191"/>
<path d="M82.3476 117.322C81.8486 117.322 81.5491 117.023 81.4493 116.524L80.551 109.334C80.4512 108.835 80.8505 108.436 81.2497 108.336C81.7488 108.236 82.148 108.635 82.2478 109.035L83.1461 116.224C83.2459 116.723 82.8467 117.123 82.4474 117.222C82.4474 117.322 82.3476 117.322 82.3476 117.322Z" fill="#929191"/>
<path d="M39.629 100.947C37.4332 100.947 35.437 100.248 33.84 98.6506C28.3505 93.4584 28.3505 81.2769 28.3505 80.7776C28.3505 80.2784 28.7497 79.879 29.2488 79.879C29.7478 79.879 30.147 80.2784 30.147 80.7776C30.147 80.8775 30.147 92.6596 35.0377 97.3525C36.4351 98.6506 38.1318 99.3495 40.128 99.1498C42.0244 99.0499 43.5216 98.2512 44.5197 96.7534C48.3125 91.3616 45.0187 79.0802 45.0187 78.8805C44.9189 78.3813 45.1185 77.9819 45.6176 77.7822C46.1166 77.6823 46.5159 77.882 46.7155 78.3813C46.8153 78.8805 50.2089 91.6611 45.917 97.6521C44.6195 99.5492 42.7231 100.548 40.2279 100.747C40.128 100.947 39.9284 100.947 39.629 100.947Z" fill="black"/>
<path d="M85.6414 95.2557C84.1442 95.2557 82.8467 94.7565 81.649 93.758C76.359 89.4645 75.3609 77.0832 75.2611 76.4842C75.1613 75.9849 75.5605 75.5855 76.0596 75.5855C76.5586 75.4857 76.9579 75.8851 76.9579 76.3843C76.9579 76.4842 78.0558 88.5659 82.7469 92.3601C83.8448 93.2587 84.9427 93.5583 86.2402 93.4584C87.5378 93.3586 88.436 92.7595 89.2345 91.6612C92.7279 86.8684 90.532 74.8866 90.532 74.8866C90.4322 74.3873 90.7317 73.9879 91.2307 73.8881C91.7298 73.7882 92.129 74.0878 92.2288 74.587C92.3286 75.0863 94.6243 87.4675 90.7317 92.8594C89.6338 94.3571 88.2364 95.1559 86.5396 95.3556C86.1404 95.2557 85.9408 95.2557 85.6414 95.2557Z" fill="black"/>
<path d="M17.571 39.0409L61.7868 26.0605L58.6927 0L8.18884 14.0787L17.571 39.0409Z" fill="#F4F4F4"/>
<path d="M45.1185 31.2527L85.2421 19.2708C85.2421 19.2708 58.6927 11.9818 45.1185 31.2527Z" fill="#00A2F3"/>
</svg>
