<?xml version="1.0" standalone="no"?>
<!DOCTYPE svg PUBLIC "-//W3C//DTD SVG 1.1//EN" "http://www.w3.org/Graphics/SVG/1.1/DTD/svg11.dtd" >
<svg xmlns="http://www.w3.org/2000/svg">
<metadata></metadata>
<defs>
<font id="colfaxmedium_italic" horiz-adv-x="1480" >
<font-face units-per-em="2048" ascent="1536" descent="-512" />
<missing-glyph horiz-adv-x="450" />
<glyph horiz-adv-x="2048" />
<glyph horiz-adv-x="2048" />
<glyph unicode="&#xd;" horiz-adv-x="2048" />
<glyph unicode=" "  horiz-adv-x="450" />
<glyph unicode="&#x09;" horiz-adv-x="450" />
<glyph unicode="&#xa0;" horiz-adv-x="450" />
<glyph unicode="!" horiz-adv-x="600" d="M80 131q0 75 47 123.5t125 48.5q62 0 103.5 -41t41.5 -104q0 -73 -48.5 -123.5t-125.5 -50.5q-62 0 -102.5 42.5t-40.5 104.5zM201 414l20 481l94 539h291l-98 -562l-148 -458h-159z" />
<glyph unicode="&#x22;" horiz-adv-x="976" d="M195 860l102 574h240l-101 -574h-241zM635 860l102 574h240l-100 -574h-242z" />
<glyph unicode="#" horiz-adv-x="1380" d="M70 391l32 189h228l84 292h-219l34 189h238l106 373h213l-106 -373h307l107 373h213l-107 -373h195l-35 -189h-213l-84 -292h207l-35 -189h-227l-111 -391h-213l111 391h-308l-110 -391h-213l110 391h-204zM543 580h307l84 292h-307z" />
<glyph unicode="$" horiz-adv-x="1204" d="M84 352q0 32 8 76l6 31h267l-7 -29q-6 -30 -6 -45q0 -79 58 -121.5t170 -42.5q98 0 169.5 53.5t71.5 149.5q0 110 -125 158l-233 88q-256 98 -256 317q0 182 114 296.5t306 141.5l41 234h272l-43 -248q124 -37 201.5 -121t77.5 -200q0 -24 -7 -64l-6 -35h-264l6 31 q4 24 4 37q0 71 -59 112t-148 41q-92 0 -153.5 -45t-61.5 -135q0 -46 27 -76.5t86 -54.5l240 -94q260 -101 260 -334q0 -192 -120.5 -316t-320.5 -151l-41 -231h-272l43 243q-141 34 -223 122.5t-82 211.5z" />
<glyph unicode="%" horiz-adv-x="1804" d="M158 938q0 29 6 59l29 166q26 148 113 219.5t239 71.5q138 0 225.5 -79t87.5 -206q0 -31 -6 -65l-29 -162q-25 -140 -116 -218.5t-230 -78.5q-136 0 -227.5 82.5t-91.5 210.5zM340 0l989 1434h211l-989 -1434h-211zM350 936q0 -58 37 -92.5t98 -34.5q121 0 146 145 l31 174q4 24 4 37q0 56 -35.5 90.5t-102.5 34.5q-63 0 -97 -35.5t-46 -105.5l-33 -184q-2 -12 -2 -29zM1026 272q0 30 6 60l29 166q26 148 113 219t239 71q139 0 226 -78.5t87 -205.5q0 -31 -6 -66l-28 -162q-25 -140 -116 -218t-230 -78q-137 0 -228.5 82t-91.5 210z M1219 270q0 -58 37 -92.5t98 -34.5q120 0 145 146l31 174q4 24 4 37q0 56 -35 90.5t-102 34.5q-119 0 -144 -142l-32 -184q-2 -12 -2 -29z" />
<glyph unicode="&#x26;" horiz-adv-x="1404" d="M82 399q0 167 90 273.5t238 158.5q-80 119 -80 244q0 184 118 285.5t314 101.5q53 0 106 -11t103.5 -34.5t89.5 -57.5t62.5 -85t23.5 -111q0 -15 -4 -47l-15 -84h-233l12 72q2 12 2 29q0 61 -42.5 100t-110.5 39q-80 0 -132.5 -41.5t-52.5 -126.5q0 -72 68 -156l373 -454 q5 18 14 61l29 164h221l-31 -174q-21 -129 -78 -240l146 -174l-199 -160l-108 131q-163 -131 -406 -131q-120 0 -219.5 35.5t-164 95t-99.5 136.5t-35 161zM332 399q0 -102 78 -167.5t204 -65.5q163 0 267 90l-357 434q-46 -29 -75 -52t-59 -58t-44 -79.5t-14 -101.5z" />
<glyph unicode="'" horiz-adv-x="536" d="M195 860l102 574h240l-101 -574h-241z" />
<glyph unicode="(" horiz-adv-x="694" d="M127 391q0 328 112.5 648t323.5 563h266q-203 -290 -311 -591t-108 -640q0 -275 88 -645h-269q-102 343 -102 665z" />
<glyph unicode=")" horiz-adv-x="694" d="M-92 -274q204 290 312 590.5t108 639.5q0 276 -88 646h268q102 -344 102 -666q0 -328 -112.5 -647.5t-323.5 -562.5h-266z" />
<glyph unicode="*" horiz-adv-x="892" d="M176 946l248 131l-223 146l59 96l227 -148l48 263h116l-45 -260l242 129l45 -99l-250 -131l217 -139l-63 -94l-226 143l-45 -264h-116l43 254l-232 -123z" />
<glyph unicode="+" horiz-adv-x="1226" d="M156 621l41 233h344l67 379h260l-67 -379h340l-39 -233h-342l-66 -379h-260l66 379h-344z" />
<glyph unicode="," horiz-adv-x="516" d="M-102 -264l194 543h303l-278 -543h-219z" />
<glyph unicode="-" horiz-adv-x="835" d="M106 528l46 250h612l-45 -250h-613z" />
<glyph unicode="." horiz-adv-x="514" d="M27 131q0 75 47 123.5t125 48.5q62 0 103.5 -41t41.5 -104q0 -73 -48.5 -123.5t-125.5 -50.5q-62 0 -102.5 42.5t-40.5 104.5z" />
<glyph unicode="/" horiz-adv-x="952" d="M-76 -215l887 1751h281l-887 -1751h-281z" />
<glyph unicode="0" horiz-adv-x="1308" d="M106 430q0 39 9 92l82 465q41 235 178 355t385 120q144 0 260.5 -56t184 -160t67.5 -236q0 -32 -8 -90l-80 -457q-41 -231 -183 -361.5t-380 -130.5q-143 0 -260.5 58t-186 163.5t-68.5 237.5zM387 436q0 -106 66.5 -169.5t175.5 -63.5q225 0 272 262l84 477q4 28 4 57 q0 102 -61.5 167t-175.5 65q-229 0 -275 -256l-84 -477q-6 -37 -6 -62z" />
<glyph unicode="1" horiz-adv-x="804" d="M139 1030l45 256l377 148h236l-252 -1434h-283l201 1141z" />
<glyph unicode="2" horiz-adv-x="1236" d="M33 0l35 215l677 573q89 76 133 140t44 143q0 73 -53.5 116.5t-135.5 43.5q-203 0 -235 -211l-4 -27h-273l6 39q68 430 533 430q117 0 217.5 -45t162.5 -132.5t62 -199.5q0 -79 -21.5 -145.5t-70.5 -129t-102 -112t-142 -120.5l-432 -347h619l-41 -231h-979z" />
<glyph unicode="3" horiz-adv-x="1247" d="M90 420h258q-6 -105 57 -164t179 -59q113 0 191.5 63t78.5 170q0 89 -68.5 143t-173.5 54h-174l37 217l375 362h-551l39 228h905l-41 -228l-411 -381q156 -21 251 -116t95 -244q0 -151 -78 -265t-207.5 -171.5t-290.5 -57.5q-97 0 -184.5 28.5t-156 82.5t-104.5 141.5 t-26 196.5z" />
<glyph unicode="4" horiz-adv-x="1257" d="M57 303l37 205l602 926h258l-581 -918h370l54 305h260l-53 -305h180l-37 -213h-182l-54 -303h-258l54 303h-650z" />
<glyph unicode="5" horiz-adv-x="1273" d="M102 381h269q19 -86 80.5 -133t158.5 -47q127 0 205 87t78 201q0 101 -62 169.5t-174 68.5q-150 0 -233 -125h-262l280 832h762l-39 -224h-536l-107 -321q82 65 238 65q113 0 208 -53t151.5 -151.5t56.5 -221.5q0 -158 -73.5 -285t-206.5 -199.5t-300 -72.5 q-124 0 -229.5 46t-178 140.5t-86.5 223.5z" />
<glyph unicode="6" horiz-adv-x="1253" d="M94 434q0 146 52 253.5t159 227.5l459 519h303l-459 -523q55 39 156 39q169 0 286 -124t117 -306q0 -113 -42.5 -213.5t-118 -174.5t-185 -117.5t-237.5 -43.5q-132 0 -244 58.5t-179 165.5t-67 239zM367 440q0 -112 67.5 -178.5t171.5 -66.5q128 0 205.5 87t77.5 210 q0 103 -66.5 173t-173.5 70q-124 0 -203 -84.5t-79 -210.5z" />
<glyph unicode="7" horiz-adv-x="1126" d="M74 0l786 1202h-635l41 232h930l-35 -201l-796 -1233h-291z" />
<glyph unicode="8" horiz-adv-x="1290" d="M109 371q0 150 83.5 256t223.5 145q-65 58 -98 117t-33 147q0 196 136.5 311t358.5 115q82 0 158.5 -23.5t139.5 -67.5t101 -115t38 -158q0 -120 -63.5 -217t-180.5 -152q79 -34 134.5 -106t55.5 -177q0 -142 -75.5 -251t-205 -166.5t-290.5 -57.5q-93 0 -178 25.5 t-154 74t-110 126.5t-41 174zM379 381q0 -87 63 -142t168 -55q121 0 200 69t79 181q0 85 -62.5 138t-160.5 53q-128 0 -207.5 -63t-79.5 -181zM543 1020q0 -76 49.5 -129t128.5 -53q103 0 166 68.5t63 164.5q0 76 -51.5 127t-134.5 51q-102 0 -161.5 -62.5t-59.5 -166.5z " />
<glyph unicode="9" horiz-adv-x="1253" d="M152 922q0 243 156 391.5t417 148.5q210 0 355 -131t145 -332q0 -193 -125 -364q-49 -62 -92 -111l-455 -524h-301l414 498q-57 -15 -115 -15q-163 0 -281 130.5t-118 308.5zM428 940q0 -106 66.5 -174t173.5 -68q123 0 200.5 86t77.5 209q0 105 -65.5 175.5t-169.5 70.5 q-130 0 -206.5 -82.5t-76.5 -216.5z" />
<glyph unicode=":" horiz-adv-x="514" d="M27 131q0 75 47 123.5t125 48.5q62 0 103.5 -41t41.5 -104q0 -73 -48.5 -123.5t-125.5 -50.5q-62 0 -102.5 42.5t-40.5 104.5zM139 770q0 75 47 123.5t125 48.5q62 0 104 -41t42 -104q0 -73 -48.5 -123.5t-125.5 -50.5q-62 0 -103 42.5t-41 104.5z" />
<glyph unicode=";" horiz-adv-x="516" d="M-102 -264l194 543h303l-278 -543h-219zM164 770q0 75 47 123.5t125 48.5q62 0 103.5 -41t41.5 -104q0 -73 -48.5 -123.5t-125.5 -50.5q-62 0 -102.5 42.5t-40.5 104.5z" />
<glyph unicode="&#x3c;" horiz-adv-x="1173" d="M121 649l29 176l1021 428l-43 -247l-659 -277l565 -260l-43 -248z" />
<glyph unicode="=" horiz-adv-x="1265" d="M141 375l37 219h938l-39 -219h-936zM231 881l37 219h938l-39 -219h-936z" />
<glyph unicode="&#x3e;" horiz-adv-x="1173" d="M86 221l45 254l657 279l-563 258l43 241l869 -428l-29 -176z" />
<glyph unicode="?" horiz-adv-x="1024" d="M143 1028l7 37q35 210 157 303.5t350 93.5q184 0 304 -97t120 -243q0 -104 -49.5 -185t-154.5 -149l-129 -81q-68 -43 -102 -88t-50 -132l-10 -57h-250l16 92q22 121 67.5 194t121.5 126l102 71q5 4 26.5 18.5t29 20t25.5 19.5t26 22.5t20.5 23t18 27t10 28.5t4.5 32 q0 61 -51.5 98t-130.5 37q-100 0 -149.5 -43.5t-65.5 -132.5l-7 -35h-256zM270 131q0 75 47 123.5t125 48.5q62 0 104 -41t42 -104q0 -73 -48.5 -123.5t-125.5 -50.5q-62 0 -103 42.5t-41 104.5z" />
<glyph unicode="@" horiz-adv-x="1908" d="M137 547q0 190 61.5 356t174.5 290.5t287 196.5t387 72q182 0 333 -54.5t251.5 -149.5t156 -224t55.5 -278q0 -87 -14.5 -167.5t-46.5 -152t-78.5 -124t-115 -83t-150.5 -30.5q-105 0 -182.5 44.5t-98.5 125.5q-26 -58 -101.5 -101t-168.5 -43q-139 0 -228.5 91.5 t-89.5 234.5q0 37 6 78l13 67q28 155 118 239.5t234 84.5q79 0 139 -32t92 -85l19 109h205l-80 -455q-6 -30 -6 -57q0 -72 37 -112t100 -40q58 0 102 38t67.5 100t34.5 127t11 132q0 254 -167.5 408t-457.5 154q-220 0 -383 -98.5t-247 -269.5t-84 -392q0 -137 43.5 -253 t125.5 -200.5t207 -132t281 -47.5q196 0 356 43l-20 -156q-159 -47 -359 -47q-188 0 -344 61.5t-259 169t-159.5 252t-56.5 310.5zM778 559q0 -73 39.5 -118.5t108.5 -45.5t116 48t64 139l10 57q4 20 4 49q0 71 -40 116.5t-115 45.5q-70 0 -113 -47.5t-57 -128.5l-11 -60 q-6 -42 -6 -55z" />
<glyph unicode="A" horiz-adv-x="1409" d="M-45 0l760 1434h293l268 -1434h-279l-45 303h-551l-145 -303h-301zM514 532h406l-95 644z" />
<glyph unicode="B" horiz-adv-x="1349" d="M66 0l251 1434h633q154 0 248 -94t94 -230q0 -123 -61 -225t-182 -152q108 -25 168.5 -99t60.5 -179q0 -139 -75 -243.5t-200 -158t-280 -53.5h-657zM383 223h365q117 0 182 60.5t65 162.5q0 76 -48 123t-134 47h-360zM492 840h299q105 0 162 61.5t57 151.5 q0 69 -41.5 113t-118.5 44h-293z" />
<glyph unicode="C" horiz-adv-x="1431" d="M115 524q0 68 12 138l35 198q54 308 212 455t441 147q244 0 404.5 -141.5t169.5 -396.5h-267q-9 134 -91 218.5t-228 84.5q-155 0 -239 -89.5t-118 -281.5l-38 -217q-11 -71 -11 -111q0 -150 82 -235.5t232 -85.5q74 0 135 26.5t102 71t67.5 96t39.5 109.5h266 q-36 -237 -205 -388t-416 -151q-268 0 -426.5 153t-158.5 400z" />
<glyph unicode="D" horiz-adv-x="1439" d="M66 0l251 1434h590q214 0 349 -125t135 -334q0 -43 -11 -115l-57 -325q-31 -180 -105 -295.5t-210.5 -177.5t-341.5 -62h-600zM389 233h264q165 0 260.5 72.5t122.5 229.5l58 325q8 41 8 86q0 123 -71.5 188.5t-211.5 65.5h-258z" />
<glyph unicode="E" horiz-adv-x="1261" d="M66 0l251 1434h986l-41 -238h-701l-61 -350h641l-43 -238h-639l-66 -370h703l-43 -238h-987z" />
<glyph unicode="F" horiz-adv-x="1198" d="M66 0l251 1434h965l-41 -238h-678l-67 -385h618l-41 -238h-620l-101 -573h-286z" />
<glyph unicode="G" horiz-adv-x="1445" d="M119 535q0 73 10 127l37 210q51 292 215.5 441t429.5 149q119 0 220.5 -31.5t181 -93t126 -162t50.5 -229.5h-269q-9 130 -92 205.5t-223 75.5q-291 0 -352 -344l-39 -219q-13 -70 -13 -138q0 -159 80.5 -242t231.5 -83q133 0 219.5 77.5t109.5 217.5l2 12h-315l41 233 h600l-35 -198q-44 -263 -210 -417.5t-433 -154.5q-174 0 -305.5 75t-199.5 202.5t-68 286.5z" />
<glyph unicode="H" horiz-adv-x="1466" d="M66 0l251 1434h287l-104 -586h579l103 586h286l-251 -1434h-287l104 592h-577l-105 -592h-286z" />
<glyph unicode="I" horiz-adv-x="622" d="M76 0l252 1434h286l-252 -1434h-286z" />
<glyph unicode="J" horiz-adv-x="1241" d="M63 371q0 34 7 69h264q-2 -19 -2 -36q0 -79 48 -132q59 -63 167 -63q109 0 164.5 58.5t74.5 162.5l177 1004h286l-178 -1020q-37 -213 -177.5 -328t-371.5 -115q-195 0 -327 111.5t-132 288.5z" />
<glyph unicode="K" horiz-adv-x="1323" d="M66 0l251 1434h287l-121 -689l586 689h352l-643 -727l410 -707h-330l-381 709l-125 -709h-286z" />
<glyph unicode="L" horiz-adv-x="1183" d="M66 0l251 1434h287l-211 -1196h662l-41 -238h-948z" />
<glyph unicode="M" horiz-adv-x="1650" d="M66 0l253 1434h265l260 -801l536 801h273l-252 -1434h-275l152 860l-363 -512h-233l-184 549l-158 -897h-274z" />
<glyph unicode="N" horiz-adv-x="1482" d="M66 0l251 1434h271l446 -977l172 977h279l-252 -1434h-270l-447 975l-172 -975h-278z" />
<glyph unicode="O" d="M119 539q0 71 12 145l33 188q105 590 663 590q262 0 427 -158.5t165 -406.5q0 -63 -12 -131l-33 -182q-25 -138 -78.5 -249t-135 -193t-196 -126.5t-253.5 -44.5q-275 0 -433.5 156.5t-158.5 411.5zM397 539q0 -153 83 -242.5t241 -89.5q154 0 247 99t124 272l36 215 q9 56 9 94q0 152 -86.5 246t-237.5 94q-160 0 -249.5 -96.5t-121.5 -280.5l-34 -201q-11 -71 -11 -110z" />
<glyph unicode="P" horiz-adv-x="1327" d="M66 0l251 1434h590q200 0 324.5 -122.5t124.5 -314.5q0 -131 -46.5 -234.5t-129.5 -169.5t-194.5 -101t-244.5 -35h-309l-80 -457h-286zM475 694h287q147 0 227 77t80 210q0 95 -58.5 155t-162.5 60h-285z" />
<glyph unicode="Q" d="M119 539q0 71 12 145l33 188q105 590 663 590q262 0 427 -158.5t165 -406.5q0 -63 -12 -131l-33 -182q-30 -167 -101 -295.5t-183 -206.5l77 -160l-219 -102l-80 168q-83 -17 -157 -17q-275 0 -433.5 156.5t-158.5 411.5zM397 539q0 -153 83 -242.5t241 -89.5q31 0 41 2 l-88 182l217 98l84 -176q89 99 117 265l36 215q9 56 9 94q0 152 -86.5 246t-237.5 94q-160 0 -249.5 -96.5t-121.5 -280.5l-34 -201q-11 -71 -11 -110z" />
<glyph unicode="R" horiz-adv-x="1425" d="M66 0l251 1434h611q207 0 338 -122.5t131 -316.5q0 -179 -96.5 -309t-266.5 -188l215 -498h-313l-186 461h-318l-80 -461h-286zM473 686h318q145 0 232 77.5t87 207.5q0 102 -67.5 167.5t-182.5 65.5h-297z" />
<glyph unicode="S" horiz-adv-x="1333" d="M104 362q0 26 7 70l4 25h270l-4 -23q-4 -24 -4 -43q0 -67 43 -112.5t107.5 -64.5t144.5 -19q120 0 198 60.5t78 162.5q0 57 -32.5 96.5t-92.5 54.5l-317 80q-142 35 -216.5 119.5t-74.5 212.5q0 119 43 211.5t120 151t179 88.5t223 30q96 0 184.5 -24.5t159.5 -70 t113.5 -117t42.5 -158.5q0 -44 -8 -76l-2 -10h-266l2 10q4 20 4 41q0 88 -75 135t-181 47q-110 0 -183 -54.5t-73 -156.5q0 -98 106 -127l332 -88q137 -36 217 -126.5t80 -219.5q0 -93 -30.5 -173.5t-84.5 -139t-126.5 -100.5t-158.5 -62.5t-180 -20.5q-103 0 -199 24 t-175.5 70.5t-127 123t-47.5 173.5z" />
<glyph unicode="T" horiz-adv-x="1196" d="M170 1196l43 238h1090l-43 -238h-400l-211 -1196h-287l209 1196h-401z" />
<glyph unicode="U" horiz-adv-x="1466" d="M139 436q0 40 8 86l160 912h287l-162 -922q-6 -30 -6 -61q0 -112 74 -177t196 -65q143 0 227 79.5t109 225.5l162 920h287l-162 -920q-45 -256 -212 -399.5t-431 -143.5q-138 0 -258.5 53.5t-199.5 161.5t-79 250z" />
<glyph unicode="V" horiz-adv-x="1325" d="M193 1434h284l144 -1110l520 1110h303l-711 -1434h-319z" />
<glyph unicode="W" horiz-adv-x="1939" d="M215 1434h283l24 -1031l469 1031h273l118 -1031l385 1031h287l-592 -1434h-268l-113 1098l-506 -1098h-268z" />
<glyph unicode="X" horiz-adv-x="1353" d="M-41 0l616 750l-323 684h280l222 -473l385 473h311l-582 -709l344 -725h-280l-242 510l-418 -510h-313z" />
<glyph unicode="Y" horiz-adv-x="1277" d="M164 1434h301l213 -656l420 656h325l-651 -942l-86 -492h-287l93 524z" />
<glyph unicode="Z" horiz-adv-x="1257" d="M31 0l41 238l850 958h-660l41 238h991l-43 -238l-850 -958h705l-41 -238h-1034z" />
<glyph unicode="[" horiz-adv-x="780" d="M12 -274l332 1876h576l-41 -230h-297l-250 -1417h297l-39 -229h-578z" />
<glyph unicode="\" horiz-adv-x="946" d="M236 1536h262l268 -1751h-262z" />
<glyph unicode="]" horiz-adv-x="780" d="M-90 -274l41 229h297l250 1417h-297l39 230h577l-332 -1876h-575z" />
<glyph unicode="^" horiz-adv-x="1099" d="M143 848l435 586h237l234 -586h-269l-114 362l-244 -362h-279z" />
<glyph unicode="_" horiz-adv-x="1058" d="M-94 -279l26 148h1061l-24 -148h-1063z" />
<glyph unicode="`" horiz-adv-x="808" d="M289 1501h338l90 -315h-264z" />
<glyph unicode="a" horiz-adv-x="1196" d="M53 287q0 118 59 200.5t153 120t214 37.5q107 0 190 -27.5t126 -68.5l24 137q3 18 3 34q0 58 -36 100q-46 52 -131 52q-71 0 -115 -24t-75 -76h-260q64 167 183 242.5t296 75.5q111 0 206 -42.5t153.5 -124t58.5 -184.5q0 -31 -6 -65l-119 -674h-268l16 98 q-37 -54 -124 -88.5t-185 -34.5q-173 0 -268 88.5t-95 223.5zM322 305q0 -69 55.5 -105t138.5 -36q91 0 158.5 40.5t79.5 108.5q1 9 1 18q0 54 -51 92q-60 44 -159 44q-100 0 -161.5 -39.5t-61.5 -122.5z" />
<glyph unicode="b" horiz-adv-x="1245" d="M45 0l264 1495h279l-96 -541q106 136 294 136q174 0 281 -115.5t107 -292.5q0 -48 -9 -100l-28 -164q-36 -206 -160 -324.5t-318 -118.5q-108 0 -194.5 43.5t-128.5 116.5l-27 -135h-264zM401 414q0 -99 59 -156t161 -57q198 0 241 241l25 140q6 35 6 65q0 100 -57 158.5 t-152 58.5q-205 0 -254 -262l-22 -123q-7 -40 -7 -65z" />
<glyph unicode="c" horiz-adv-x="1161" d="M78 408q0 48 8 92l27 153q37 215 168 326t354 111q197 0 328 -113t131 -311h-246q-5 88 -62 145t-155 57q-105 0 -164.5 -63t-81.5 -187l-27 -151q-6 -30 -6 -61q0 -95 56.5 -152t156.5 -57q94 0 153 55.5t81 142.5h254q-31 -188 -166 -304t-336 -116q-133 0 -239.5 50.5 t-170 150.5t-63.5 232z" />
<glyph unicode="d" horiz-adv-x="1245" d="M76 389q0 49 8 98l29 164q38 212 160.5 325.5t312.5 113.5q118 0 199.5 -48.5t115.5 -113.5l100 567h279l-264 -1495h-266l22 127q-32 -62 -117 -107t-186 -45q-182 0 -287.5 118t-105.5 296zM356 416q0 -99 54.5 -157t154.5 -58q105 0 168 68.5t84 185.5l23 125 q6 34 6 65q0 101 -59 160t-160 59q-200 0 -242 -250l-23 -127q-6 -37 -6 -71z" />
<glyph unicode="e" horiz-adv-x="1148" d="M78 403q0 48 8 97l25 139q38 211 170 331t348 120q201 0 321.5 -111.5t120.5 -298.5q0 -51 -8 -98l-25 -144h-694q-6 -30 -6 -59q0 -94 55 -150.5t162 -56.5q78 0 130.5 39t74.5 100h248q-43 -153 -166 -244.5t-307 -91.5q-111 0 -199.5 34t-144 93.5t-84.5 136 t-29 164.5zM379 635h438l4 27q4 24 4 40q0 85 -53 137t-147 52q-105 0 -163.5 -62t-80.5 -188z" />
<glyph unicode="f" horiz-adv-x="743" d="M106 0l150 840h-135l37 225h137l20 119q28 162 114 236.5t249 74.5h196l-38 -221h-113q-63 0 -93 -25t-40 -88l-17 -96h213l-38 -225h-213l-150 -840h-279z" />
<glyph unicode="g" horiz-adv-x="1245" d="M6 -57h268q20 -53 84 -84t146 -31q101 0 161.5 50.5t75.5 144.5l29 167q-33 -61 -115 -101t-180 -40q-167 0 -279 115t-112 285q0 41 8 88l25 137q73 416 473 416q112 0 198.5 -48t124.5 -112l25 135h266l-188 -1067q-33 -185 -172.5 -282t-349.5 -97q-182 0 -320.5 88.5 t-167.5 235.5zM365 485q0 -99 59 -157t154 -58q102 0 166 63t83 177l15 84q4 24 4 55q0 98 -59 156.5t-162 58.5q-198 0 -236 -215l-18 -106q-6 -38 -6 -58z" />
<glyph unicode="h" horiz-adv-x="1216" d="M45 0l264 1495h279l-99 -555q43 64 124 107t182 43q151 0 240 -89t89 -239q0 -48 -8 -92l-117 -670h-278l113 639q4 20 4 43q0 74 -46.5 117t-121.5 43q-99 0 -159.5 -60t-80.5 -174l-106 -608h-279z" />
<glyph unicode="i" horiz-adv-x="573" d="M55 0l189 1065h278l-188 -1065h-279zM270 1327q0 74 48.5 126t130.5 52q63 0 104 -38.5t41 -100.5q0 -76 -48.5 -130t-129.5 -54q-62 0 -104 40.5t-42 104.5z" />
<glyph unicode="j" horiz-adv-x="573" d="M-145 -356l36 215h64q41 0 61.5 17t26.5 56l201 1133h278l-207 -1174q-22 -128 -90 -187.5t-200 -59.5h-170zM268 1327q0 74 48 126t130 52q63 0 104.5 -38.5t41.5 -100.5q0 -76 -48.5 -130t-129.5 -54q-62 0 -104 40.5t-42 104.5z" />
<glyph unicode="k" horiz-adv-x="1105" d="M45 0l264 1495h279l-162 -913l401 483h328l-459 -549l287 -516h-303l-264 522l-92 -522h-279z" />
<glyph unicode="l" horiz-adv-x="569" d="M55 0l264 1495h279l-264 -1495h-279z" />
<glyph unicode="m" horiz-adv-x="1875" d="M45 0l188 1065h267l-27 -141q107 166 322 166q103 0 177 -43.5t111 -122.5q132 166 363 166q151 0 244.5 -93t93.5 -245q0 -47 -8 -88l-117 -664h-279l113 639q4 24 4 45q0 73 -45 115.5t-119 42.5q-192 0 -235 -238l-107 -604h-278l112 639q4 24 4 45q0 73 -44.5 115.5 t-118.5 42.5q-194 0 -236 -234l-106 -608h-279z" />
<glyph unicode="n" horiz-adv-x="1216" d="M45 0l188 1065h267l-27 -141q52 81 136.5 123.5t189.5 42.5q149 0 237 -91.5t88 -242.5q0 -50 -8 -94l-117 -662h-278l113 639q4 24 4 43q0 74 -46.5 117t-121.5 43q-99 0 -159.5 -60t-80.5 -174l-106 -608h-279z" />
<glyph unicode="o" horiz-adv-x="1177" d="M80 414q0 49 8 98l25 139q39 222 169.5 330.5t340.5 108.5q222 0 350.5 -118.5t128.5 -316.5q0 -46 -10 -108l-23 -129q-35 -203 -167 -323t-347 -120q-217 0 -346 120.5t-129 318.5zM342 397q0 -95 60 -148.5t159 -53.5q98 0 157.5 58t78.5 163l32 186q7 40 7 62 q0 96 -58 151t-160 55q-104 0 -160 -58t-77 -173l-33 -186q-6 -30 -6 -56z" />
<glyph unicode="p" horiz-adv-x="1245" d="M-16 -356l249 1421h267l-23 -127q32 61 119.5 106.5t189.5 45.5q180 0 285 -115.5t105 -292.5q0 -47 -11 -104l-28 -164q-38 -212 -160.5 -325.5t-312.5 -113.5q-120 0 -200.5 47t-115.5 115l-86 -493h-278zM403 424q0 -100 59.5 -161.5t160.5 -61.5q198 0 241 250 l23 127q6 38 6 71q0 99 -54 157t-155 58q-108 0 -169 -64t-83 -190l-22 -125q-7 -42 -7 -61z" />
<glyph unicode="q" horiz-adv-x="1245" d="M74 379q0 46 10 104l29 164q36 207 157 325t320 118q106 0 195.5 -48.5t125.5 -119.5l29 143h264l-250 -1421h-278l82 467q-35 -54 -117 -95t-180 -41q-178 0 -282.5 113.5t-104.5 290.5zM356 418q0 -100 57 -158.5t152 -58.5q205 0 254 262l23 123q6 40 6 61 q0 98 -58.5 157.5t-160.5 59.5q-199 0 -242 -241l-25 -140q-6 -35 -6 -65z" />
<glyph unicode="r" horiz-adv-x="774" d="M45 0l188 1065h263l-31 -186q40 103 122.5 148.5t215.5 45.5h28l-49 -278h-49q-269 0 -321 -293l-88 -502h-279z" />
<glyph unicode="s" horiz-adv-x="1060" d="M43 270q0 23 4 47l2 13h244l-2 -11q-3 -14 -3 -26q0 -54 49 -85q60 -38 157 -38q88 0 145 37t57 106q0 71 -80 90l-270 62q-107 25 -163 88.5t-56 159.5q0 185 126.5 281t338.5 96q109 0 199.5 -29.5t151.5 -97t61 -164.5q0 -24 -5 -54l-2 -12h-243l2 12q2 12 2 23 q0 54 -44 87q-54 40 -139 40q-81 0 -131.5 -34t-50.5 -103q0 -67 80 -86l277 -68q102 -26 157.5 -89.5t55.5 -154.5q0 -119 -67 -207.5t-178 -133t-249 -44.5q-114 0 -210 34t-156 102.5t-60 158.5z" />
<glyph unicode="t" horiz-adv-x="776" d="M102 840l39 225h154l51 291h279l-52 -291h228l-39 -225h-230l-90 -514q-3 -14 -3 -26q0 -75 96 -75h106l-39 -225h-182q-124 0 -195 63t-71 175q0 30 6 65l94 537h-152z" />
<glyph unicode="u" horiz-adv-x="1214" d="M96 307q0 53 8 92l119 666h279l-115 -641q-4 -25 -4 -51q0 -74 44.5 -115t119.5 -41q91 0 153 61.5t80 159.5l113 627h278l-186 -1065h-266l24 131q-39 -67 -127.5 -111.5t-191.5 -44.5q-149 0 -238.5 90.5t-89.5 241.5z" />
<glyph unicode="v" horiz-adv-x="1040" d="M111 1065h270l96 -762l350 762h289l-545 -1065h-278z" />
<glyph unicode="w" horiz-adv-x="1591" d="M135 1065h268l31 -723l334 723h244l90 -723l280 723h271l-467 -1065h-252l-94 743l-357 -743h-252z" />
<glyph unicode="x" horiz-adv-x="1097" d="M-51 0l469 549l-260 516h270l160 -317l270 317h299l-459 -539l269 -526h-273l-166 328l-278 -328h-301z" />
<glyph unicode="y" horiz-adv-x="1040" d="M109 1065h278l100 -778l344 778h285l-704 -1421h-281l178 362z" />
<glyph unicode="z" horiz-adv-x="1054" d="M16 0l35 197l633 659h-496l35 209h819l-34 -197l-633 -659h530l-37 -209h-852z" />
<glyph unicode="{" horiz-adv-x="860" d="M57 549l41 229h74q86 0 129.5 38.5t58.5 123.5l56 313q34 190 127.5 269.5t294.5 79.5h176l-39 -230h-111q-89 0 -125 -33t-51 -120l-55 -312q-22 -122 -83 -178t-165 -67q79 -22 122.5 -73.5t43.5 -127.5q0 -25 -6 -55l-51 -289q-7 -35 -7 -54q0 -60 34.5 -84t103.5 -24 h100l-41 -229h-149q-160 0 -245 70t-85 210q0 52 8 96l49 281q4 28 4 39q0 62 -39 94.5t-110 32.5h-60z" />
<glyph unicode="|" horiz-adv-x="671" d="M74 -307l342 1945h233l-342 -1945h-233z" />
<glyph unicode="}" horiz-adv-x="860" d="M-94 -274l39 229h110q88 0 124.5 33.5t51.5 120.5l56 311q22 122 83 178.5t165 67.5q-79 22 -122.5 73.5t-43.5 126.5q0 26 6 56l51 288q6 30 6 54q0 60 -34 84t-103 24h-100l41 230h149q159 0 244.5 -70.5t85.5 -210.5q0 -52 -8 -96l-50 -281q-4 -28 -4 -39 q0 -62 39.5 -94.5t110.5 -32.5h59l-41 -229h-73q-86 0 -130 -38.5t-59 -123.5l-55 -313q-34 -190 -127.5 -269t-294.5 -79h-176z" />
<glyph unicode="~" horiz-adv-x="1296" d="M125 596q19 64 38 112.5t48 96t64 77t84.5 48t109.5 18.5q55 0 122 -24t117.5 -52.5t103.5 -52.5t83 -24q21 0 38 8.5t29.5 26.5t20 32t18 40t15.5 36l225 -80q-17 -45 -28 -72.5t-29.5 -67t-35.5 -64t-42.5 -52t-52.5 -42.5t-63.5 -25.5t-78.5 -10.5q-56 0 -136 38.5 t-157 77t-124 38.5q-29 0 -51.5 -11.5t-39.5 -37.5t-26.5 -46t-24.5 -59z" />
<glyph unicode="&#xa1;" horiz-adv-x="608" d="M57 0l99 561l147 459h160l-21 -481l-94 -539h-291zM266 1276q0 73 48.5 123.5t125.5 50.5q62 0 103 -42.5t41 -104.5q0 -75 -47 -124t-125 -49q-62 0 -104 41.5t-42 104.5z" />
<glyph unicode="&#xa2;" horiz-adv-x="1163" d="M115 604q0 42 8 82l20 115q33 187 141 292.5t277 129.5l37 211h276l-40 -228q127 -41 199.5 -139.5t70.5 -226.5h-260q-8 73 -62 119.5t-135 46.5q-192 0 -231 -218l-23 -124q-4 -24 -4 -52q0 -89 55 -136.5t142 -47.5q85 0 139.5 48.5t77.5 117.5h258 q-32 -148 -137.5 -253t-264.5 -130l-36 -211h-277l39 231q-125 43 -197.5 142.5t-72.5 230.5z" />
<glyph unicode="&#xa3;" horiz-adv-x="1366" d="M33 0l37 217h233l64 356h-205l35 218h206l48 268q38 210 159.5 306.5t339.5 96.5q108 0 201 -40t153 -122t60 -190q0 -34 -6 -68l-6 -34h-258l6 36q13 86 -33.5 137.5t-136.5 51.5q-85 0 -134.5 -41.5t-66.5 -134.5l-47 -266h393l-39 -218h-391l-63 -356h546l-36 -217 h-1059z" />
<glyph unicode="&#xa4;" horiz-adv-x="1269" d="M53 180l228 291q-39 70 -39 156q0 31 6 71l18 103q10 62 36.5 117t59.5 88l-110 243h272l56 -127q62 15 133 15q82 0 155 -31l107 135h285l-226 -274q47 -68 47 -162q0 -27 -6 -62l-18 -106q-21 -126 -105 -213l117 -250h-266l-58 129q-55 -14 -127 -14q-86 0 -163 30 l-109 -139h-293zM477 635q0 -70 41 -112t115 -42q77 0 125.5 42.5t60.5 115.5l23 127q2 14 2 33q0 64 -45 103.5t-117 39.5q-75 0 -121.5 -39t-58.5 -112l-21 -117q-4 -24 -4 -39z" />
<glyph unicode="&#xa5;" horiz-adv-x="1208" d="M92 287l35 202h332l6 35l-39 148h-266l37 205h178l-142 557h295l123 -635l340 635h299l-336 -557h185l-35 -205h-273l-88 -148l-6 -35h334l-35 -202h-336l-49 -287h-278l49 287h-330z" />
<glyph unicode="&#xa6;" horiz-adv-x="671" d="M74 -307l139 794h233l-139 -794h-233zM274 844l142 794h233l-141 -794h-234z" />
<glyph unicode="&#xa7;" horiz-adv-x="1232" d="M68 96l4 23h243l-2 -13q-14 -88 46.5 -135t160.5 -47q89 0 147 44t58 118t-90 107l-287 104q-221 78 -221 278q0 210 201 320q-56 65 -56 160q0 197 126.5 302t353.5 105q89 0 168 -25.5t139 -72.5t88.5 -121t13.5 -164l-2 -12h-244l3 12q14 88 -40 134.5t-147 46.5 q-84 0 -142.5 -39t-58.5 -119q0 -41 22.5 -67t70.5 -44l280 -104q238 -88 238 -287q0 -95 -52 -185.5t-135 -156.5q33 -58 33 -121q0 -186 -140.5 -301t-354.5 -115q-88 0 -170 25.5t-144.5 72t-93.5 119t-16 158.5zM387 623q0 -85 90 -119l318 -121q84 90 84 168 q0 91 -103 129l-299 113q-90 -81 -90 -170z" />
<glyph unicode="&#xa8;" horiz-adv-x="1032" d="M287 1321q0 69 46.5 116.5t121.5 47.5q58 0 96.5 -36.5t38.5 -94.5q0 -70 -47 -119t-121 -49q-58 0 -96.5 38t-38.5 97zM709 1321q0 69 46.5 116.5t121.5 47.5q58 0 96.5 -36.5t38.5 -94.5q0 -70 -47 -119t-121 -49q-58 0 -96.5 38t-38.5 97z" />
<glyph unicode="&#xa9;" horiz-adv-x="1720" d="M147 717q0 152 54.5 288t150.5 236t236 158.5t303 58.5q164 0 304 -58.5t235.5 -159t149.5 -236t54 -287.5t-54 -288t-149.5 -236.5t-235.5 -159t-304 -58.5q-163 0 -303 58.5t-236 159t-150.5 236.5t-54.5 288zM231 717q0 -132 46.5 -253t130.5 -213t209.5 -147 t273.5 -55q149 0 274.5 55t208.5 147t129.5 213t46.5 253t-46.5 252.5t-129.5 213t-208.5 147t-274.5 54.5q-148 0 -273.5 -54.5t-209.5 -147t-130.5 -213t-46.5 -252.5zM578 664v106q0 135 82 226t235 91q129 0 213 -77.5t92 -192.5h-147q-22 137 -158 137 q-83 0 -122.5 -50.5t-39.5 -133.5v-106q0 -83 39.5 -134t122.5 -51q136 0 158 137h147q-8 -115 -92 -192.5t-213 -77.5q-153 0 -235 91.5t-82 226.5z" />
<glyph unicode="&#xaa;" horiz-adv-x="876" d="M104 469l29 164h647l-28 -164h-648zM190 942q0 114 72.5 174t186.5 60q130 0 210 -64l15 84q7 45 -21 73.5t-78 28.5q-76 0 -110 -59h-180q84 215 315 215q123 0 202.5 -78.5t57.5 -201.5l-74 -416h-178l10 59q-23 -31 -76.5 -53.5t-115.5 -22.5q-103 0 -169.5 55 t-66.5 146zM377 958q0 -39 33 -62.5t86 -23.5q61 0 99 28t38 73q0 37 -40.5 58.5t-88.5 21.5q-55 0 -91 -22t-36 -73z" />
<glyph unicode="&#xab;" horiz-adv-x="1300" d="M31 565l399 443h334l-406 -465l248 -420h-321zM602 565l399 443h334l-405 -465l248 -420h-322z" />
<glyph unicode="&#xac;" horiz-adv-x="1187" d="M117 621l39 233h946l-107 -612h-260l66 379h-684z" />
<glyph unicode="&#xad;" horiz-adv-x="835" d="M106 528l46 250h612l-45 -250h-613z" />
<glyph unicode="&#xae;" horiz-adv-x="1122" d="M184 1016q0 89 31.5 169t88.5 140.5t144 96.5t191 36t191 -36t144 -96.5t88.5 -140.5t31.5 -169q0 -87 -31.5 -166.5t-88.5 -141.5t-144 -98.5t-191 -36.5t-191 36.5t-144 98.5t-88.5 141.5t-31.5 166.5zM256 1016q0 -162 106.5 -271.5t276.5 -109.5t276.5 109.5 t106.5 271.5q0 163 -106.5 272t-276.5 109t-276.5 -109t-106.5 -272zM494 834v393h180q68 0 104.5 -36.5t36.5 -98.5q0 -84 -72 -121l78 -137h-104l-64 122h-69v-122h-90zM584 1028h71q70 0 70 64q0 61 -70 61h-71v-125z" />
<glyph unicode="&#xaf;" horiz-adv-x="991" d="M266 1227l37 219h674l-37 -219h-674z" />
<glyph unicode="&#xb0;" horiz-adv-x="817" d="M186 1108q0 156 90.5 251t249.5 95q127 0 214 -83t87 -208q0 -150 -95 -249t-247 -99q-129 0 -214 82t-85 211zM324 1110q0 -74 47 -124t125 -50q88 0 141 64t53 157q0 74 -46.5 125t-119.5 51q-95 0 -147.5 -59.5t-52.5 -163.5z" />
<glyph unicode="&#xb1;" horiz-adv-x="1249" d="M61 0l37 219h344l66 369h-344l41 233h344l67 379h258l-67 -379h344l-41 -233h-344l-66 -369h344l-36 -219h-947z" />
<glyph unicode="&#xb2;" horiz-adv-x="821" d="M184 942l27 145l387 291q39 30 59.5 55.5t20.5 57.5q0 35 -27 56.5t-71 21.5q-102 0 -117 -96l-2 -13h-178l4 23q24 130 106 190t205 60q121 0 200 -63t79 -159q0 -47 -11.5 -83.5t-39 -68.5t-56.5 -55.5t-80 -58.5l-211 -143h326l-29 -160h-592z" />
<glyph unicode="&#xb3;" horiz-adv-x="821" d="M217 1182h164q-5 -49 27 -78t98 -29q55 0 90 29t35 78q0 41 -28 65.5t-81 24.5h-125l27 137l186 158h-280l26 147h512l-24 -147l-207 -166q72 -10 128 -64t56 -135q0 -116 -92 -195t-223 -79q-87 0 -153 27t-104 85.5t-32 141.5z" />
<glyph unicode="&#xb4;" horiz-adv-x="808" d="M276 1186l187 315h377l-277 -315h-287z" />
<glyph unicode="&#xb5;" horiz-adv-x="1224" d="M-20 -356l253 1421h279l-115 -641q-4 -25 -4 -51q0 -74 44.5 -115t119.5 -41q91 0 153.5 61.5t80.5 159.5l112 627h279l-187 -1065h-266l25 131q-39 -66 -128 -111t-192 -45q-68 0 -115 17l-61 -348h-278z" />
<glyph unicode="&#xb6;" horiz-adv-x="1243" d="M143 793q0 297 173.5 469t506.5 172h412l-315 -1790h-189l285 1622h-223l-164 -936q-214 0 -350 125.5t-136 337.5z" />
<glyph unicode="&#xb7;" horiz-adv-x="520" d="M106 573q0 75 47.5 123.5t125.5 48.5q62 0 103.5 -41t41.5 -104q0 -73 -48.5 -123.5t-125.5 -50.5q-62 0 -103 42.5t-41 104.5z" />
<glyph unicode="&#xb8;" horiz-adv-x="688" d="M53 -369l19 113q45 -10 90 -10q86 0 86 47q0 35 -72 45l-67 8l59 166h131l-23 -76l39 -4q60 -6 97 -40t37 -89q0 -84 -69.5 -128t-178.5 -44q-89 0 -148 12z" />
<glyph unicode="&#xb9;" horiz-adv-x="632" d="M225 1468l31 170l229 76h164l-135 -772h-199l103 584z" />
<glyph unicode="&#xba;" horiz-adv-x="884" d="M127 469l29 164h614l-27 -164h-616zM211 1024q0 21 6 57l16 93q24 130 109.5 202t224.5 72q131 0 221.5 -79.5t90.5 -205.5q0 -27 -5 -57l-14 -82q-22 -126 -112 -205.5t-222 -79.5q-136 0 -225.5 78.5t-89.5 206.5zM387 1028q0 -66 36.5 -103.5t102.5 -37.5q67 0 106 42 t52 115l14 82q4 24 4 37q0 61 -37.5 99t-101.5 38q-67 0 -105 -36t-52 -113l-15 -82q-4 -20 -4 -41z" />
<glyph unicode="&#xbb;" horiz-adv-x="1300" d="M-10 123l405 465l-248 420h322l254 -443l-399 -442h-334zM561 123l406 465l-248 420h321l254 -443l-399 -442h-334z" />
<glyph unicode="&#xbc;" horiz-adv-x="1699" d="M231 1188l31 170l230 76h163l-135 -772h-198l102 583zM246 0l989 1434h211l-989 -1434h-211zM858 150l27 143l327 479h183l-316 -473h197l24 147h179l-27 -147h102l-26 -149h-103l-26 -150h-176l26 150h-391z" />
<glyph unicode="&#xbd;" horiz-adv-x="1726" d="M231 1188l31 170l230 76h163l-135 -772h-198l102 583zM246 0l989 1434h211l-989 -1434h-211zM926 0l26 145l387 291q39 30 59.5 55.5t20.5 57.5q0 35 -27 56.5t-71 21.5q-102 0 -117 -97l-2 -12h-178l4 23q24 130 106 190t205 60q121 0 200 -63t79 -159q0 -38 -9 -70 t-22.5 -56t-39 -49.5t-50.5 -44t-65 -46.5l-211 -143h325l-28 -160h-592z" />
<glyph unicode="&#xbe;" horiz-adv-x="1796" d="M186 901h164q-5 -49 27 -77.5t98 -28.5q55 0 90 28.5t35 77.5q0 41 -27.5 65.5t-80.5 24.5h-125l26 137l187 158h-281l27 148h512l-25 -148l-207 -166q73 -10 129 -63.5t56 -134.5q0 -116 -92.5 -195.5t-223.5 -79.5q-87 0 -153 27t-104 85.5t-32 141.5zM342 0l989 1434 h211l-989 -1434h-211zM954 150l27 143l328 479h182l-315 -473h196l25 147h178l-27 -147h103l-27 -149h-102l-27 -150h-176l27 150h-392z" />
<glyph unicode="&#xbf;" horiz-adv-x="1024" d="M10 311q0 104 50 185t155 149l129 82q68 43 102 87.5t50 131.5l10 58h250l-17 -93q-22 -121 -67.5 -193.5t-120.5 -125.5l-102 -72q-4 -3 -30 -20.5t-33.5 -23.5t-28 -22.5t-28.5 -27t-19.5 -27t-16 -33.5t-4.5 -36q0 -61 51.5 -98t130.5 -37q100 0 149.5 43.5 t65.5 132.5l6 35h256l-6 -37q-35 -210 -157.5 -304t-350.5 -94q-184 0 -304 97t-120 243zM504 1276q0 73 48.5 123.5t125.5 50.5q62 0 102.5 -42.5t40.5 -104.5q0 -75 -47 -124t-125 -49q-62 0 -103.5 41.5t-41.5 104.5z" />
<glyph unicode="&#xc0;" horiz-adv-x="1409" d="M-45 0l760 1434h293l268 -1434h-279l-45 303h-551l-145 -303h-301zM514 532h406l-95 644zM571 1831h328l86 -289h-254z" />
<glyph unicode="&#xc1;" horiz-adv-x="1409" d="M-45 0l760 1434h293l268 -1434h-279l-45 303h-551l-145 -303h-301zM514 532h406l-95 644zM748 1542l182 289h356l-254 -289h-284z" />
<glyph unicode="&#xc2;" horiz-adv-x="1409" d="M-45 0l760 1434h293l268 -1434h-279l-45 303h-551l-145 -303h-301zM494 1542l292 289h271l190 -289h-252l-90 137l-137 -137h-274zM514 532h406l-95 644z" />
<glyph unicode="&#xc3;" horiz-adv-x="1409" d="M-45 0l760 1434h293l268 -1434h-279l-45 303h-551l-145 -303h-301zM432 1589q17 62 38 105.5t53 78.5t78.5 52.5t109.5 17.5q55 0 127 -21t132 -42t87 -21t46.5 16t28.5 33.5t19 46.5l174 -59q-37 -126 -96 -188t-170 -62q-55 0 -183 43t-171 43q-37 0 -58.5 -24.5 t-38.5 -71.5zM514 532h406l-95 644z" />
<glyph unicode="&#xc4;" horiz-adv-x="1409" d="M-45 0l760 1434h293l268 -1434h-279l-45 303h-551l-145 -303h-301zM514 532h406l-95 644zM524 1677q0 69 46.5 116.5t121.5 47.5q58 0 96.5 -36.5t38.5 -94.5q0 -70 -47 -119t-121 -49q-58 0 -96.5 38t-38.5 97zM983 1677q0 69 46.5 116.5t121.5 47.5q58 0 96.5 -36.5 t38.5 -94.5q0 -70 -47 -119t-121 -49q-58 0 -96.5 38t-38.5 97z" />
<glyph unicode="&#xc5;" horiz-adv-x="1409" d="M-45 0l743 1405q-32 40 -32 108q0 89 62.5 145t156.5 56q90 0 149.5 -47.5t59.5 -128.5q0 -97 -78 -158l260 -1380h-279l-45 303h-551l-145 -303h-301zM514 532h406l-95 644zM784 1516q0 -36 25 -59t68 -23q44 0 71 30t27 70q0 36 -24.5 59t-65.5 23q-49 0 -75 -26.5 t-26 -73.5z" />
<glyph unicode="&#xc6;" horiz-adv-x="2189" d="M-92 0l1212 1434h1110l-41 -238h-700l-62 -350h641l-43 -238h-639l-65 -370h702l-43 -238h-987l54 303h-566l-245 -303h-328zM670 532h415l117 660z" />
<glyph unicode="&#xc7;" horiz-adv-x="1431" d="M115 524q0 68 12 138l35 198q54 308 212 455t441 147q244 0 404.5 -141.5t169.5 -396.5h-267q-9 134 -91 218.5t-228 84.5q-155 0 -239 -89.5t-118 -281.5l-38 -217q-11 -71 -11 -111q0 -150 82 -235.5t232 -85.5q74 0 135 26.5t102 71t67.5 96t39.5 109.5h266 q-36 -237 -205 -388t-416 -151h-8l-14 -47l39 -4q60 -6 96.5 -39.5t36.5 -89.5q0 -84 -69.5 -128t-178.5 -44q-88 0 -147 12l18 113q45 -10 90 -10q86 0 86 47q0 20 -17.5 30t-53.5 15l-68 8l53 150q-210 37 -329 182t-119 358z" />
<glyph unicode="&#xc8;" horiz-adv-x="1261" d="M66 0l251 1434h986l-41 -238h-701l-61 -350h641l-43 -238h-639l-66 -370h703l-43 -238h-987zM551 1831h328l86 -289h-254z" />
<glyph unicode="&#xc9;" horiz-adv-x="1261" d="M66 0l251 1434h986l-41 -238h-701l-61 -350h641l-43 -238h-639l-66 -370h703l-43 -238h-987zM664 1542l182 289h356l-254 -289h-284z" />
<glyph unicode="&#xca;" horiz-adv-x="1261" d="M66 0l251 1434h986l-41 -238h-701l-61 -350h641l-43 -238h-639l-66 -370h703l-43 -238h-987zM446 1542l293 289h271l190 -289h-252l-90 137l-137 -137h-275z" />
<glyph unicode="&#xcb;" horiz-adv-x="1261" d="M66 0l251 1434h986l-41 -238h-701l-61 -350h641l-43 -238h-639l-66 -370h703l-43 -238h-987zM473 1677q0 69 46.5 116.5t121.5 47.5q58 0 96.5 -36.5t38.5 -94.5q0 -70 -47 -119t-121 -49q-58 0 -96.5 38t-38.5 97zM932 1677q0 69 46.5 116.5t121.5 47.5q58 0 96.5 -36.5 t38.5 -94.5q0 -70 -47 -119t-121 -49q-58 0 -96.5 38t-38.5 97z" />
<glyph unicode="&#xcc;" horiz-adv-x="622" d="M76 0l252 1434h286l-252 -1434h-286zM190 1831h328l86 -289h-254z" />
<glyph unicode="&#xcd;" horiz-adv-x="622" d="M76 0l252 1434h286l-252 -1434h-286zM352 1542l183 289h356l-254 -289h-285z" />
<glyph unicode="&#xce;" horiz-adv-x="622" d="M76 0l252 1434h286l-252 -1434h-286zM104 1542l293 289h271l190 -289h-252l-90 137l-137 -137h-275z" />
<glyph unicode="&#xcf;" horiz-adv-x="622" d="M76 0l252 1434h286l-252 -1434h-286zM137 1677q0 69 46.5 116.5t121.5 47.5q58 0 96.5 -36.5t38.5 -94.5q0 -70 -47 -119t-121 -49q-58 0 -96.5 38t-38.5 97zM596 1677q0 69 46.5 116.5t121.5 47.5q58 0 96.5 -36.5t38.5 -94.5q0 -70 -47 -119t-121 -49q-58 0 -96.5 38 t-38.5 97z" />
<glyph unicode="&#xd0;" horiz-adv-x="1503" d="M86 598l43 238h147l105 598h590q214 0 348.5 -125t134.5 -334q0 -50 -10 -115l-58 -325q-31 -180 -105 -295.5t-210.5 -177.5t-341.5 -62h-600l104 598h-147zM453 233h264q165 0 260.5 72.5t122.5 229.5l57 325q8 41 8 86q0 123 -71 188.5t-211 65.5h-258l-66 -364h318 l-41 -238h-320z" />
<glyph unicode="&#xd1;" horiz-adv-x="1482" d="M66 0l251 1434h271l446 -977l172 977h279l-252 -1434h-270l-447 975l-172 -975h-278zM477 1589q17 62 38 105.5t53 78.5t78.5 52.5t109.5 17.5q55 0 127 -21t132 -42t87 -21t46.5 16t28.5 33.5t19 46.5l174 -59q-37 -126 -96 -188t-170 -62q-55 0 -183 43t-171 43 q-37 0 -58.5 -24.5t-38.5 -71.5z" />
<glyph unicode="&#xd2;" d="M119 539q0 71 12 145l33 188q105 590 663 590q262 0 427 -158.5t165 -406.5q0 -63 -12 -131l-33 -182q-25 -138 -78.5 -249t-135 -193t-196 -126.5t-253.5 -44.5q-275 0 -433.5 156.5t-158.5 411.5zM397 539q0 -153 83 -242.5t241 -89.5q154 0 247 99t124 272l36 215 q9 56 9 94q0 152 -86.5 246t-237.5 94q-160 0 -249.5 -96.5t-121.5 -280.5l-34 -201q-11 -71 -11 -110zM586 1831h327l86 -289h-254z" />
<glyph unicode="&#xd3;" d="M119 539q0 71 12 145l33 188q105 590 663 590q262 0 427 -158.5t165 -406.5q0 -63 -12 -131l-33 -182q-25 -138 -78.5 -249t-135 -193t-196 -126.5t-253.5 -44.5q-275 0 -433.5 156.5t-158.5 411.5zM397 539q0 -153 83 -242.5t241 -89.5q154 0 247 99t124 272l36 215 q9 56 9 94q0 152 -86.5 246t-237.5 94q-160 0 -249.5 -96.5t-121.5 -280.5l-34 -201q-11 -71 -11 -110zM741 1542l183 289h356l-254 -289h-285z" />
<glyph unicode="&#xd4;" d="M119 539q0 71 12 145l33 188q105 590 663 590q262 0 427 -158.5t165 -406.5q0 -63 -12 -131l-33 -182q-25 -138 -78.5 -249t-135 -193t-196 -126.5t-253.5 -44.5q-275 0 -433.5 156.5t-158.5 411.5zM397 539q0 -153 83 -242.5t241 -89.5q154 0 247 99t124 272l36 215 q9 56 9 94q0 152 -86.5 246t-237.5 94q-160 0 -249.5 -96.5t-121.5 -280.5l-34 -201q-11 -71 -11 -110zM508 1542l293 289h270l191 -289h-252l-90 137l-138 -137h-274z" />
<glyph unicode="&#xd5;" d="M119 539q0 71 12 145l33 188q105 590 663 590q262 0 427 -158.5t165 -406.5q0 -63 -12 -131l-33 -182q-25 -138 -78.5 -249t-135 -193t-196 -126.5t-253.5 -44.5q-275 0 -433.5 156.5t-158.5 411.5zM397 539q0 -153 83 -242.5t241 -89.5q154 0 247 99t124 272l36 215 q9 56 9 94q0 152 -86.5 246t-237.5 94q-160 0 -249.5 -96.5t-121.5 -280.5l-34 -201q-11 -71 -11 -110zM446 1589q17 62 38 105.5t53 78.5t78.5 52.5t109.5 17.5q55 0 127 -21t132 -42t87 -21t46.5 16t28.5 33.5t19 46.5l174 -59q-37 -126 -96 -188t-170 -62q-55 0 -183 43 t-171 43q-37 0 -58 -24.5t-38 -71.5z" />
<glyph unicode="&#xd6;" d="M119 539q0 71 12 145l33 188q105 590 663 590q262 0 427 -158.5t165 -406.5q0 -63 -12 -131l-33 -182q-25 -138 -78.5 -249t-135 -193t-196 -126.5t-253.5 -44.5q-275 0 -433.5 156.5t-158.5 411.5zM397 539q0 -153 83 -242.5t241 -89.5q154 0 247 99t124 272l36 215 q9 56 9 94q0 152 -86.5 246t-237.5 94q-160 0 -249.5 -96.5t-121.5 -280.5l-34 -201q-11 -71 -11 -110zM545 1677q0 69 46.5 116.5t121.5 47.5q58 0 96.5 -36.5t38.5 -94.5q0 -70 -47 -119t-121 -49q-58 0 -96.5 38t-38.5 97zM1004 1677q0 69 46 116.5t121 47.5 q58 0 97 -36.5t39 -94.5q0 -70 -47 -119t-121 -49q-58 0 -96.5 38t-38.5 97z" />
<glyph unicode="&#xd7;" horiz-adv-x="1224" d="M143 457l351 297l-258 313l184 158l260 -314l346 295l152 -178l-349 -297l265 -317l-185 -158l-266 317l-348 -294z" />
<glyph unicode="&#xd8;" d="M-8 -102l235 286q-60 84 -84 166t-24 189q0 71 12 145l33 188q105 590 663 590q214 0 365 -108l149 182h201l-237 -289q114 -145 114 -350q0 -69 -12 -131l-33 -182q-25 -138 -78.5 -249t-135 -193t-196 -126.5t-253.5 -44.5q-225 0 -373 105l-145 -178h-201zM397 539 q0 -57 17 -127l612 743q-85 72 -213 72q-160 0 -249.5 -96.5t-121.5 -280.5l-34 -201q-11 -71 -11 -110zM502 274q73 -67 219 -67q154 0 247 99t124 272l36 215q9 56 9 94q0 74 -21 133z" />
<glyph unicode="&#xd9;" horiz-adv-x="1466" d="M139 436q0 40 8 86l160 912h287l-162 -922q-6 -30 -6 -61q0 -112 74 -177t196 -65q143 0 227 79.5t109 225.5l162 920h287l-162 -920q-45 -256 -212 -399.5t-431 -143.5q-138 0 -258.5 53.5t-199.5 161.5t-79 250zM608 1831h328l86 -289h-254z" />
<glyph unicode="&#xda;" horiz-adv-x="1466" d="M139 436q0 40 8 86l160 912h287l-162 -922q-6 -30 -6 -61q0 -112 74 -177t196 -65q143 0 227 79.5t109 225.5l162 920h287l-162 -920q-45 -256 -212 -399.5t-431 -143.5q-138 0 -258.5 53.5t-199.5 161.5t-79 250zM725 1542l182 289h357l-254 -289h-285z" />
<glyph unicode="&#xdb;" horiz-adv-x="1466" d="M139 436q0 40 8 86l160 912h287l-162 -922q-6 -30 -6 -61q0 -112 74 -177t196 -65q143 0 227 79.5t109 225.5l162 920h287l-162 -920q-45 -256 -212 -399.5t-431 -143.5q-138 0 -258.5 53.5t-199.5 161.5t-79 250zM532 1542l293 289h271l190 -289h-252l-90 137l-137 -137 h-275z" />
<glyph unicode="&#xdc;" horiz-adv-x="1466" d="M139 436q0 40 8 86l160 912h287l-162 -922q-6 -30 -6 -61q0 -112 74 -177t196 -65q143 0 227 79.5t109 225.5l162 920h287l-162 -920q-45 -256 -212 -399.5t-431 -143.5q-138 0 -258.5 53.5t-199.5 161.5t-79 250zM545 1677q0 69 46.5 116.5t121.5 47.5q58 0 96.5 -36.5 t38.5 -94.5q0 -70 -47 -119t-121 -49q-58 0 -96.5 38t-38.5 97zM1004 1677q0 69 46 116.5t121 47.5q58 0 97 -36.5t39 -94.5q0 -70 -47 -119t-121 -49q-58 0 -96.5 38t-38.5 97z" />
<glyph unicode="&#xdd;" horiz-adv-x="1277" d="M164 1434h301l213 -656l420 656h325l-651 -942l-86 -492h-287l93 524zM623 1542l182 289h356l-254 -289h-284z" />
<glyph unicode="&#xde;" horiz-adv-x="1333" d="M66 0l251 1434h287l-39 -220h303q200 0 324.5 -122t124.5 -314q0 -131 -46.5 -234.5t-129.5 -169.5t-194.5 -101t-244.5 -35h-309l-41 -238h-286zM436 475h287q147 0 227 77t80 210q0 95 -58.5 155t-162.5 60h-285z" />
<glyph unicode="&#xdf;" horiz-adv-x="1253" d="M45 0l193 1090q72 413 505 413q89 0 170.5 -23.5t148 -68t106.5 -118t40 -165.5q0 -131 -70 -230t-190 -150q102 -30 165 -112.5t63 -193.5q0 -208 -147 -325t-394 -117h-100l38 221h56q126 0 199 56.5t73 164.5q0 86 -62.5 135.5t-156.5 49.5h-39l37 213q122 22 186 93 t64 167q0 81 -52 130.5t-141 49.5q-91 0 -147 -47t-76 -152l-190 -1081h-279z" />
<glyph unicode="&#xe0;" horiz-adv-x="1196" d="M53 287q0 118 59 200.5t153 120t214 37.5q107 0 190 -27.5t126 -68.5l24 137q13 81 -33.5 133.5t-130.5 52.5q-71 0 -115 -24t-75 -76h-260q64 167 183 242.5t296 75.5q111 0 206 -42.5t153.5 -124t58.5 -184.5q0 -31 -6 -65l-119 -674h-268l16 98q-37 -54 -124 -88.5 t-185 -34.5q-173 0 -268 88.5t-95 223.5zM322 305q0 -69 55.5 -105t138.5 -36q91 0 158.5 40.5t79.5 108.5q10 66 -50 110t-159 44q-100 0 -161.5 -39.5t-61.5 -122.5zM422 1501h338l90 -315h-264z" />
<glyph unicode="&#xe1;" horiz-adv-x="1196" d="M53 287q0 118 59 200.5t153 120t214 37.5q107 0 190 -27.5t126 -68.5l24 137q13 81 -33.5 133.5t-130.5 52.5q-71 0 -115 -24t-75 -76h-260q64 167 183 242.5t296 75.5q111 0 206 -42.5t153.5 -124t58.5 -184.5q0 -31 -6 -65l-119 -674h-268l16 98q-37 -54 -124 -88.5 t-185 -34.5q-173 0 -268 88.5t-95 223.5zM322 305q0 -69 55.5 -105t138.5 -36q91 0 158.5 40.5t79.5 108.5q10 66 -50 110t-159 44q-100 0 -161.5 -39.5t-61.5 -122.5zM588 1186l186 315h377l-277 -315h-286z" />
<glyph unicode="&#xe2;" horiz-adv-x="1196" d="M53 287q0 118 59 200.5t153 120t214 37.5q107 0 190 -27.5t126 -68.5l24 137q13 81 -33.5 133.5t-130.5 52.5q-71 0 -115 -24t-75 -76h-260q64 167 183 242.5t296 75.5q111 0 206 -42.5t153.5 -124t58.5 -184.5q0 -31 -6 -65l-119 -674h-268l16 98q-37 -54 -124 -88.5 t-185 -34.5q-173 0 -268 88.5t-95 223.5zM322 305q0 -69 55.5 -105t138.5 -36q91 0 158.5 40.5t79.5 108.5q10 66 -50 110t-159 44q-100 0 -161.5 -39.5t-61.5 -122.5zM381 1186l278 315h269l172 -315h-246l-80 155l-125 -155h-268z" />
<glyph unicode="&#xe3;" horiz-adv-x="1196" d="M53 287q0 118 59 200.5t153 120t214 37.5q107 0 190 -27.5t126 -68.5l24 137q13 81 -33.5 133.5t-130.5 52.5q-71 0 -115 -24t-75 -76h-260q64 167 183 242.5t296 75.5q111 0 206 -42.5t153.5 -124t58.5 -184.5q0 -31 -6 -65l-119 -674h-268l16 98q-37 -54 -124 -88.5 t-185 -34.5q-173 0 -268 88.5t-95 223.5zM322 305q0 -69 55.5 -105t138.5 -36q91 0 158.5 40.5t79.5 108.5q10 66 -50 110t-159 44q-100 0 -161.5 -39.5t-61.5 -122.5zM334 1245q18 54 31 86.5t33.5 66t44.5 51.5t59 29t82 11q50 0 117 -22t123 -44t79 -22q10 0 19 3 t17 10.5t13 12.5t11.5 17t9 16.5t8 18t6.5 14.5l174 -63q-18 -54 -35 -90.5t-43 -74.5t-63 -57.5t-84 -19.5q-49 0 -170.5 44t-163.5 44q-35 0 -51 -18t-39 -72z" />
<glyph unicode="&#xe4;" horiz-adv-x="1196" d="M53 287q0 118 59 200.5t153 120t214 37.5q107 0 190 -27.5t126 -68.5l24 137q13 81 -33.5 133.5t-130.5 52.5q-71 0 -115 -24t-75 -76h-260q64 167 183 242.5t296 75.5q111 0 206 -42.5t153.5 -124t58.5 -184.5q0 -31 -6 -65l-119 -674h-268l16 98q-37 -54 -124 -88.5 t-185 -34.5q-173 0 -268 88.5t-95 223.5zM322 305q0 -69 55.5 -105t138.5 -36q91 0 158.5 40.5t79.5 108.5q10 66 -50 110t-159 44q-100 0 -161.5 -39.5t-61.5 -122.5zM408 1321q0 69 46 116.5t121 47.5q58 0 97 -36.5t39 -94.5q0 -70 -47 -119t-121 -49q-58 0 -96.5 38 t-38.5 97zM829 1321q0 69 46.5 116.5t121.5 47.5q58 0 97 -36.5t39 -94.5q0 -70 -47 -119t-121 -49q-58 0 -97 38t-39 97z" />
<glyph unicode="&#xe5;" horiz-adv-x="1196" d="M53 287q0 118 59 200.5t153 120t214 37.5q107 0 190 -27.5t126 -68.5l24 137q13 81 -33.5 133.5t-130.5 52.5q-71 0 -115 -24t-75 -76h-260q64 167 183 242.5t296 75.5q111 0 206 -42.5t153.5 -124t58.5 -184.5q0 -31 -6 -65l-119 -674h-268l16 98q-37 -54 -124 -88.5 t-185 -34.5q-173 0 -268 88.5t-95 223.5zM322 305q0 -69 55.5 -105t138.5 -36q91 0 158.5 40.5t79.5 108.5q10 66 -50 110t-159 44q-100 0 -161.5 -39.5t-61.5 -122.5zM573 1364q0 89 63 145t157 56q90 0 149 -47.5t59 -128.5q0 -88 -64 -145.5t-159 -57.5 q-94 0 -149.5 47.5t-55.5 130.5zM692 1366q0 -36 24.5 -59t67.5 -23q44 0 71.5 30t27.5 70q0 36 -24.5 59t-65.5 23q-49 0 -75 -26.5t-26 -73.5z" />
<glyph unicode="&#xe6;" horiz-adv-x="1867" d="M53 293q0 173 115.5 262.5t310.5 89.5q184 0 316 -96l24 137q13 82 -32.5 133t-131.5 51q-71 0 -115 -23t-75 -75h-260q51 160 175 239t304 79q188 0 311 -123q120 123 342 123q201 0 322 -111.5t121 -298.5q0 -51 -8 -98l-25 -144h-694q-6 -30 -6 -59q0 -94 55 -150.5 t162 -56.5q78 0 130 39t74 100h248q-43 -153 -166 -244.5t-307 -91.5q-126 0 -224 46.5t-132 119.5q-64 -73 -180.5 -119.5t-239.5 -46.5q-196 0 -305 88.5t-109 229.5zM322 309q0 -69 56.5 -107t147.5 -38q94 0 162 49t68 119q0 48 -37.5 80t-85 43.5t-101.5 11.5 q-90 0 -150 -40.5t-60 -117.5zM1087 635h439l4 27q4 24 4 40q0 85 -53.5 137t-147.5 52q-105 0 -161.5 -58.5t-81.5 -187.5z" />
<glyph unicode="&#xe7;" horiz-adv-x="1161" d="M78 408q0 48 8 92l27 153q37 215 168 326t354 111q197 0 328 -113t131 -311h-246q-5 88 -62 145t-155 57q-105 0 -164.5 -63t-81.5 -187l-27 -151q-6 -30 -6 -61q0 -95 56.5 -152t156.5 -57q94 0 153 55.5t81 142.5h254q-31 -188 -167 -304t-339 -116l-15 -51l39 -4 q60 -6 97 -40t37 -89q0 -84 -69.5 -128t-178.5 -44q-89 0 -148 12l19 113q45 -10 90 -10q86 0 86 47q0 35 -72 45l-67 8l55 156q-154 33 -248 143.5t-94 274.5z" />
<glyph unicode="&#xe8;" horiz-adv-x="1148" d="M78 403q0 48 8 97l25 139q38 211 170 331t348 120q201 0 321.5 -111.5t120.5 -298.5q0 -51 -8 -98l-25 -144h-694q-6 -30 -6 -59q0 -94 55 -150.5t162 -56.5q78 0 130.5 39t74.5 100h248q-43 -153 -166 -244.5t-307 -91.5q-111 0 -199.5 34t-144 93.5t-84.5 136 t-29 164.5zM348 1501h338l90 -315h-264zM379 635h438l4 27q4 24 4 40q0 85 -53 137t-147 52q-105 0 -163.5 -62t-80.5 -188z" />
<glyph unicode="&#xe9;" horiz-adv-x="1148" d="M78 403q0 48 8 97l25 139q38 211 170 331t348 120q201 0 321.5 -111.5t120.5 -298.5q0 -51 -8 -98l-25 -144h-694q-6 -30 -6 -59q0 -94 55 -150.5t162 -56.5q78 0 130.5 39t74.5 100h248q-43 -153 -166 -244.5t-307 -91.5q-111 0 -199.5 34t-144 93.5t-84.5 136 t-29 164.5zM379 635h438l4 27q4 24 4 40q0 85 -53 137t-147 52q-105 0 -163.5 -62t-80.5 -188zM545 1186l186 315h377l-277 -315h-286z" />
<glyph unicode="&#xea;" horiz-adv-x="1148" d="M78 403q0 48 8 97l25 139q38 211 170 331t348 120q201 0 321.5 -111.5t120.5 -298.5q0 -51 -8 -98l-25 -144h-694q-6 -30 -6 -59q0 -94 55 -150.5t162 -56.5q78 0 130.5 39t74.5 100h248q-43 -153 -166 -244.5t-307 -91.5q-111 0 -199.5 34t-144 93.5t-84.5 136 t-29 164.5zM309 1186l279 315h268l172 -315h-246l-80 155l-124 -155h-269zM379 635h438l4 27q4 24 4 40q0 85 -53 137t-147 52q-105 0 -163.5 -62t-80.5 -188z" />
<glyph unicode="&#xeb;" horiz-adv-x="1148" d="M78 403q0 48 8 97l25 139q38 211 170 331t348 120q201 0 321.5 -111.5t120.5 -298.5q0 -51 -8 -98l-25 -144h-694q-6 -30 -6 -59q0 -94 55 -150.5t162 -56.5q78 0 130.5 39t74.5 100h248q-43 -153 -166 -244.5t-307 -91.5q-111 0 -199.5 34t-144 93.5t-84.5 136 t-29 164.5zM338 1321q0 69 46.5 116.5t121.5 47.5q58 0 96.5 -36.5t38.5 -94.5q0 -70 -47 -119t-121 -49q-58 0 -96.5 38t-38.5 97zM379 635h438l4 27q4 24 4 40q0 85 -53 137t-147 52q-105 0 -163.5 -62t-80.5 -188zM760 1321q0 69 46.5 116.5t121.5 47.5q58 0 96.5 -36.5 t38.5 -94.5q0 -70 -47 -119t-121 -49q-58 0 -96.5 38t-38.5 97z" />
<glyph unicode="&#xec;" horiz-adv-x="573" d="M55 0l189 1065h278l-188 -1065h-279zM94 1501h338l90 -315h-264z" />
<glyph unicode="&#xed;" horiz-adv-x="573" d="M55 0l189 1065h278l-188 -1065h-279zM264 1186l187 315h376l-276 -315h-287z" />
<glyph unicode="&#xee;" horiz-adv-x="573" d="M41 1186l278 315h269l172 -315h-246l-80 155l-125 -155h-268zM55 0l189 1065h278l-188 -1065h-279z" />
<glyph unicode="&#xef;" horiz-adv-x="573" d="M55 0l189 1065h278l-188 -1065h-279zM66 1321q0 69 46 116.5t121 47.5q58 0 97 -36.5t39 -94.5q0 -70 -47 -119t-121 -49q-58 0 -96.5 38t-38.5 97zM487 1321q0 69 46.5 116.5t121.5 47.5q58 0 97 -36.5t39 -94.5q0 -70 -47 -119t-121 -49q-58 0 -97 38t-39 97z" />
<glyph unicode="&#xf0;" horiz-adv-x="1185" d="M76 403q0 40 8 86l22 127q73 422 474 422q86 0 159.5 -29.5t108.5 -72.5q-48 138 -139 258l-252 -86l-56 149l191 66q-106 96 -238 172h334q61 -35 129 -94l221 76l56 -148l-160 -55q86 -112 136 -251.5t50 -287.5q0 -71 -12 -141l-31 -174q-36 -204 -174 -326.5 t-350 -122.5q-213 0 -345 120.5t-132 311.5zM350 403q0 -103 56 -158t153 -55q205 0 244 228l26 151q5 30 5 52q0 91 -55.5 148.5t-155.5 57.5q-107 0 -165 -51t-79 -172l-23 -127q-6 -35 -6 -74z" />
<glyph unicode="&#xf1;" horiz-adv-x="1216" d="M45 0l188 1065h267l-27 -141q52 81 136.5 123.5t189.5 42.5q149 0 237 -91.5t88 -242.5q0 -50 -8 -94l-117 -662h-278l113 639q4 24 4 43q0 74 -46.5 117t-121.5 43q-99 0 -159.5 -60t-80.5 -174l-106 -608h-279zM334 1245q18 54 31 86.5t33.5 66t44.5 51.5t59 29t82 11 q50 0 117 -22t123 -44t79 -22q10 0 19 3t17 10.5t13 12.5t11.5 17t9 16.5t8 18t6.5 14.5l174 -63q-18 -54 -35 -90.5t-43 -74.5t-63 -57.5t-84 -19.5q-49 0 -170.5 44t-163.5 44q-35 0 -51 -18t-39 -72z" />
<glyph unicode="&#xf2;" horiz-adv-x="1177" d="M80 414q0 49 8 98l25 139q39 222 169.5 330.5t340.5 108.5q222 0 350.5 -118.5t128.5 -316.5q0 -46 -10 -108l-23 -129q-35 -203 -167 -323t-347 -120q-217 0 -346 120.5t-129 318.5zM342 397q0 -95 60 -148.5t159 -53.5q98 0 157.5 58t78.5 163l32 186q7 40 7 62 q0 96 -58 151t-160 55q-104 0 -160 -58t-77 -173l-33 -186q-6 -30 -6 -56zM365 1501h337l91 -315h-265z" />
<glyph unicode="&#xf3;" horiz-adv-x="1177" d="M80 414q0 49 8 98l25 139q39 222 169.5 330.5t340.5 108.5q222 0 350.5 -118.5t128.5 -316.5q0 -46 -10 -108l-23 -129q-35 -203 -167 -323t-347 -120q-217 0 -346 120.5t-129 318.5zM342 397q0 -95 60 -148.5t159 -53.5q98 0 157.5 58t78.5 163l32 186q7 40 7 62 q0 96 -58 151t-160 55q-104 0 -160 -58t-77 -173l-33 -186q-6 -30 -6 -56zM543 1186l186 315h377l-277 -315h-286z" />
<glyph unicode="&#xf4;" horiz-adv-x="1177" d="M80 414q0 49 8 98l25 139q39 222 169.5 330.5t340.5 108.5q222 0 350.5 -118.5t128.5 -316.5q0 -46 -10 -108l-23 -129q-35 -203 -167 -323t-347 -120q-217 0 -346 120.5t-129 318.5zM330 1186l278 315h269l172 -315h-246l-80 155l-125 -155h-268zM342 397 q0 -95 60 -148.5t159 -53.5q98 0 157.5 58t78.5 163l32 186q7 40 7 62q0 96 -58 151t-160 55q-104 0 -160 -58t-77 -173l-33 -186q-6 -30 -6 -56z" />
<glyph unicode="&#xf5;" horiz-adv-x="1177" d="M80 414q0 49 8 98l25 139q39 222 169.5 330.5t340.5 108.5q222 0 350.5 -118.5t128.5 -316.5q0 -46 -10 -108l-23 -129q-35 -203 -167 -323t-347 -120q-217 0 -346 120.5t-129 318.5zM299 1245q18 54 31 86.5t33.5 66t44.5 51.5t59 29t82 11q50 0 117 -22t123 -44t79 -22 q10 0 19 3t17 10.5t13 12.5t11.5 17t9 16.5t8 18t6.5 14.5l174 -63q-18 -54 -35 -90.5t-43 -74.5t-63 -57.5t-84 -19.5q-49 0 -170.5 44t-163.5 44q-35 0 -51 -18t-39 -72zM342 397q0 -95 60 -148.5t159 -53.5q98 0 157.5 58t78.5 163l32 186q7 40 7 62q0 96 -58 151 t-160 55q-104 0 -160 -58t-77 -173l-33 -186q-6 -30 -6 -56z" />
<glyph unicode="&#xf6;" horiz-adv-x="1177" d="M80 414q0 49 8 98l25 139q39 222 169.5 330.5t340.5 108.5q222 0 350.5 -118.5t128.5 -316.5q0 -46 -10 -108l-23 -129q-35 -203 -167 -323t-347 -120q-217 0 -346 120.5t-129 318.5zM342 397q0 -95 60 -148.5t159 -53.5q98 0 157.5 58t78.5 163l32 186q7 40 7 62 q0 96 -58 151t-160 55q-104 0 -160 -58t-77 -173l-33 -186q-6 -30 -6 -56zM356 1321q0 69 46.5 116.5t121.5 47.5q58 0 96.5 -36.5t38.5 -94.5q0 -71 -46.5 -119.5t-120.5 -48.5q-58 0 -97 38t-39 97zM778 1321q0 69 46.5 116.5t121.5 47.5q58 0 96.5 -36.5t38.5 -94.5 q0 -70 -47 -119t-121 -49q-58 0 -96.5 38t-38.5 97z" />
<glyph unicode="&#xf7;" horiz-adv-x="1224" d="M145 618l43 238h938l-43 -238h-938zM408 315q0 74 45 121t122 47q60 0 101 -40t41 -101q0 -71 -47 -120.5t-123 -49.5q-61 0 -100 41t-39 102zM553 1135q0 73 45.5 120.5t122.5 47.5q60 0 100.5 -40.5t40.5 -101.5q0 -71 -47 -120.5t-123 -49.5q-61 0 -100 41.5 t-39 102.5z" />
<glyph unicode="&#xf8;" horiz-adv-x="1177" d="M-20 -102l194 233q-51 67 -72.5 132.5t-21.5 150.5q0 49 8 98l25 139q39 222 169.5 330.5t340.5 108.5q174 0 292 -76l132 155h153l-194 -231q96 -107 96 -283q0 -46 -10 -108l-23 -129q-35 -203 -167 -323t-347 -120q-175 0 -291 78l-131 -155h-153zM342 397 q0 -32 6 -59l412 491q-53 41 -142 41q-104 0 -160 -58t-77 -173l-33 -186q-6 -30 -6 -56zM418 236q56 -41 143 -41q98 0 157.5 58t78.5 163l32 186q7 40 7 62q0 34 -9 61z" />
<glyph unicode="&#xf9;" horiz-adv-x="1214" d="M96 307q0 53 8 92l119 666h279l-115 -641q-4 -25 -4 -51q0 -74 44.5 -115t119.5 -41q91 0 153 61.5t80 159.5l113 627h278l-186 -1065h-266l24 131q-39 -67 -127.5 -111.5t-191.5 -44.5q-149 0 -238.5 90.5t-89.5 241.5zM422 1501h338l90 -315h-264z" />
<glyph unicode="&#xfa;" horiz-adv-x="1214" d="M96 307q0 53 8 92l119 666h279l-115 -641q-4 -25 -4 -51q0 -74 44.5 -115t119.5 -41q91 0 153 61.5t80 159.5l113 627h278l-186 -1065h-266l24 131q-39 -67 -127.5 -111.5t-191.5 -44.5q-149 0 -238.5 90.5t-89.5 241.5zM543 1186l186 315h377l-277 -315h-286z" />
<glyph unicode="&#xfb;" horiz-adv-x="1214" d="M96 307q0 53 8 92l119 666h279l-115 -641q-4 -25 -4 -51q0 -74 44.5 -115t119.5 -41q91 0 153 61.5t80 159.5l113 627h278l-186 -1065h-266l24 131q-39 -67 -127.5 -111.5t-191.5 -44.5q-149 0 -238.5 90.5t-89.5 241.5zM360 1186l279 315h268l172 -315h-245l-80 155 l-125 -155h-269z" />
<glyph unicode="&#xfc;" horiz-adv-x="1214" d="M96 307q0 53 8 92l119 666h279l-115 -641q-4 -25 -4 -51q0 -74 44.5 -115t119.5 -41q91 0 153 61.5t80 159.5l113 627h278l-186 -1065h-266l24 131q-39 -67 -127.5 -111.5t-191.5 -44.5q-149 0 -238.5 90.5t-89.5 241.5zM383 1321q0 69 46.5 116.5t121.5 47.5 q58 0 96.5 -36.5t38.5 -94.5q0 -70 -47 -119t-121 -49q-58 0 -96.5 38t-38.5 97zM805 1321q0 69 46.5 116.5t121.5 47.5q58 0 96.5 -36.5t38.5 -94.5q0 -70 -47 -119t-121 -49q-58 0 -96.5 38t-38.5 97z" />
<glyph unicode="&#xfd;" horiz-adv-x="1040" d="M109 1065h278l100 -778l344 778h285l-704 -1421h-281l178 362zM465 1186l186 315h377l-276 -315h-287z" />
<glyph unicode="&#xfe;" horiz-adv-x="1247" d="M-16 -356l325 1851h277l-94 -532q42 54 122.5 90.5t171.5 36.5q180 0 285 -115.5t105 -292.5q0 -47 -11 -104l-28 -164q-38 -212 -160.5 -325.5t-312.5 -113.5q-120 0 -200.5 47t-115.5 115l-86 -493h-278zM403 424q0 -100 59.5 -161.5t160.5 -61.5q198 0 241 250l23 127 q6 38 6 71q0 99 -54 157t-155 58q-108 0 -169 -64t-83 -190l-22 -125q-7 -42 -7 -61z" />
<glyph unicode="&#xff;" horiz-adv-x="1040" d="M109 1065h278l100 -778l344 778h285l-704 -1421h-281l178 362zM293 1321q0 69 46.5 116.5t121.5 47.5q58 0 96.5 -36.5t38.5 -94.5q0 -70 -47 -119t-121 -49q-58 0 -96.5 38t-38.5 97zM715 1321q0 69 46.5 116.5t121.5 47.5q58 0 96.5 -36.5t38.5 -94.5q0 -70 -47 -119 t-121 -49q-58 0 -96.5 38t-38.5 97z" />
<glyph unicode="&#x152;" horiz-adv-x="2142" d="M121 557q0 67 12 137l25 140q56 317 238.5 458.5t510.5 141.5h1276l-41 -238h-700l-62 -350h641l-43 -238h-639l-65 -370h702l-43 -238h-1198q-290 0 -452 150t-162 407zM406 565q0 -156 90 -241.5t266 -85.5h225l168 958h-266q-206 0 -310 -94.5t-139 -292.5l-24 -139 q-10 -65 -10 -105z" />
<glyph unicode="&#x153;" horiz-adv-x="1884" d="M80 414q0 49 8 98l25 139q39 222 169.5 330.5t340.5 108.5q230 0 366 -142q68 77 156 109.5t209 32.5q201 0 321.5 -111.5t120.5 -298.5q0 -51 -8 -98l-25 -144h-694q-6 -30 -6 -59q0 -94 55 -150.5t162 -56.5q78 0 130.5 39t74.5 100h248q-43 -153 -166 -244.5 t-307 -91.5q-117 0 -208.5 37t-144.5 105q-55 -60 -149.5 -101t-202.5 -41q-226 0 -350.5 117t-124.5 322zM342 397q0 -97 56.5 -149.5t162.5 -52.5q98 0 158 59.5t78 161.5l37 211q2 14 2 37q0 97 -57 151.5t-161 54.5t-160 -58t-77 -173l-33 -186q-6 -30 -6 -56zM1104 635 h438l4 27q4 24 4 40q0 85 -53 137t-147 52q-105 0 -163.5 -62t-80.5 -188z" />
<glyph unicode="&#x178;" horiz-adv-x="1277" d="M164 1434h301l213 -656l420 656h325l-651 -942l-86 -492h-287l93 524zM442 1677q0 69 46.5 116.5t121.5 47.5q58 0 96.5 -36.5t38.5 -94.5q0 -71 -46.5 -119.5t-120.5 -48.5q-58 0 -97 38t-39 97zM901 1677q0 69 46.5 116.5t121.5 47.5q58 0 96.5 -36.5t38.5 -94.5 q0 -70 -47 -119t-121 -49q-58 0 -96.5 38t-38.5 97z" />
<glyph unicode="&#x2c6;" horiz-adv-x="1044" d="M270 1186l279 315h268l172 -315h-246l-79 155l-125 -155h-269z" />
<glyph unicode="&#x2dc;" horiz-adv-x="1130" d="M293 1245q18 54 31 86.5t33.5 66t44.5 51.5t59 29t82 11q50 0 117 -22t123 -44t79 -22q10 0 19 3t17 10.5t13 12.5t11.5 17t9 16.5t8 18t6.5 14.5l174 -63q-18 -54 -35 -90.5t-43 -74.5t-63 -57.5t-84 -19.5q-49 0 -170.5 44t-163.5 44q-35 0 -51 -18t-39 -72z" />
<glyph unicode="&#x2000;" horiz-adv-x="927" />
<glyph unicode="&#x2001;" horiz-adv-x="1855" />
<glyph unicode="&#x2002;" horiz-adv-x="927" />
<glyph unicode="&#x2003;" horiz-adv-x="1855" />
<glyph unicode="&#x2004;" horiz-adv-x="618" />
<glyph unicode="&#x2005;" horiz-adv-x="463" />
<glyph unicode="&#x2006;" horiz-adv-x="309" />
<glyph unicode="&#x2007;" horiz-adv-x="309" />
<glyph unicode="&#x2008;" horiz-adv-x="231" />
<glyph unicode="&#x2009;" horiz-adv-x="371" />
<glyph unicode="&#x200a;" horiz-adv-x="103" />
<glyph unicode="&#x2010;" horiz-adv-x="835" d="M106 528l46 250h612l-45 -250h-613z" />
<glyph unicode="&#x2011;" horiz-adv-x="835" d="M106 528l46 250h612l-45 -250h-613z" />
<glyph unicode="&#x2012;" horiz-adv-x="835" d="M106 528l46 250h612l-45 -250h-613z" />
<glyph unicode="&#x2013;" horiz-adv-x="1255" d="M106 528l46 250h1032l-45 -250h-1033z" />
<glyph unicode="&#x2014;" horiz-adv-x="1867" d="M106 528l46 250h1644l-45 -250h-1645z" />
<glyph unicode="&#x2018;" horiz-adv-x="485" d="M104 891l281 543h231l-198 -543h-314z" />
<glyph unicode="&#x2019;" horiz-adv-x="485" d="M104 891l199 543h313l-280 -543h-232z" />
<glyph unicode="&#x201a;" horiz-adv-x="530" d="M-102 -264l198 543h314l-281 -543h-231z" />
<glyph unicode="&#x201c;" horiz-adv-x="962" d="M104 891l281 543h231l-198 -543h-314zM582 891l280 543h232l-199 -543h-313z" />
<glyph unicode="&#x201d;" horiz-adv-x="962" d="M104 891l199 543h313l-280 -543h-232zM582 891l198 543h314l-281 -543h-231z" />
<glyph unicode="&#x201e;" horiz-adv-x="1007" d="M-102 -264l198 543h314l-281 -543h-231zM375 -264l198 543h314l-281 -543h-231z" />
<glyph unicode="&#x2022;" horiz-adv-x="831" d="M162 721q0 122 77.5 202.5t206.5 80.5q111 0 193 -74.5t82 -186.5q0 -119 -81.5 -203.5t-207.5 -84.5q-114 0 -192 77.5t-78 188.5z" />
<glyph unicode="&#x2026;" horiz-adv-x="1542" d="M27 131q0 75 47 123.5t125 48.5q62 0 103.5 -41t41.5 -104q0 -73 -48.5 -123.5t-125.5 -50.5q-62 0 -102.5 42.5t-40.5 104.5zM541 131q0 75 47 123.5t125 48.5q62 0 103.5 -41t41.5 -104q0 -73 -48.5 -123.5t-125.5 -50.5q-62 0 -102.5 42.5t-40.5 104.5zM1055 131 q0 75 47 123.5t125 48.5q62 0 103.5 -41t41.5 -104q0 -73 -48.5 -123.5t-125.5 -50.5q-62 0 -102.5 42.5t-40.5 104.5z" />
<glyph unicode="&#x202f;" horiz-adv-x="371" />
<glyph unicode="&#x2039;" horiz-adv-x="729" d="M31 565l399 443h334l-406 -465l248 -420h-321z" />
<glyph unicode="&#x203a;" horiz-adv-x="729" d="M-10 123l405 465l-248 420h322l254 -443l-399 -442h-334z" />
<glyph unicode="&#x205f;" horiz-adv-x="463" />
<glyph unicode="&#x20ac;" horiz-adv-x="1343" d="M72 449l32 188h152l29 160h-152l31 188h153q40 229 178.5 353t356.5 124q221 0 354.5 -121.5t136.5 -343.5h-251q-6 108 -65 176t-169 68q-108 0 -175 -65.5t-89 -188.5v-2h305l-35 -188h-305l-27 -160h306l-33 -188h-305q-17 -118 43 -187t178 -69q58 0 105.5 21.5 t79 58.5t52 76.5t35.5 86.5h252q-20 -96 -63.5 -178.5t-109 -147.5t-159.5 -102t-206 -37q-116 0 -212.5 39t-158 104.5t-92 152.5t-21.5 182h-151z" />
<glyph unicode="&#x2122;" horiz-adv-x="1331" d="M180 1325l21 109h485l-20 -109h-181l-88 -498h-125l88 498h-180zM682 827l106 607h115l113 -353l233 353h117l-106 -607h-121l61 349l-147 -209h-113l-72 229l-65 -369h-121z" />
<glyph unicode="&#xe000;" horiz-adv-x="1064" d="M0 0v1065h1065v-1065h-1065z" />
<glyph unicode="&#xfb01;" horiz-adv-x="1316" d="M106 0l150 840h-135l37 225h137l20 119q28 162 114 236.5t249 74.5h196l-38 -221h-113q-63 0 -93 -25t-40 -88l-17 -96h213l-38 -225h-213l-150 -840h-279zM799 0l188 1065h279l-189 -1065h-278zM1014 1327q0 74 48 126t130 52q63 0 104 -38.5t41 -100.5 q0 -76 -48.5 -130t-129.5 -54q-62 0 -103.5 40.5t-41.5 104.5z" />
<glyph unicode="&#xfb02;" horiz-adv-x="1312" d="M106 0l150 840h-135l37 225h137l20 119q28 162 114 236.5t249 74.5h196l-38 -221h-113q-63 0 -93 -25t-40 -88l-17 -96h213l-38 -225h-213l-150 -840h-279zM799 0l264 1495h278l-264 -1495h-278z" />
</font>
</defs>
</svg>
