<svg width="2042" height="346" viewBox="0 0 2042 346" fill="none" xmlns="http://www.w3.org/2000/svg">
<path d="M104.1 255L132.6 87H173.1L177.6 231L215.1 244.5L236.1 178.5H276.6L306.6 262.5L455.1 268.5L474.6 180L513.6 177C513.6 177 544.2 267.3 544.6 273.9C545.1 280.5 810.5 294 810.5 294L825.5 87L855.5 94.5L875 343.5C875 343.5 66.5001 346.1 104.1 255Z" fill="#FFC200"/>
<path d="M6.9 62.9L51.6 69L63.9 203.7L104.1 255L264.6 259.5L320.9 219.4L332.1 114L405.6 109.5L436.6 230.7L510.7 254L555.8 219L570.6 0L623.1 1.5L632.1 162L651.5 168L664.7 235.6L685.6 229.2L713 114H773L791 243L846.5 246L873.4 218.4L908.2 48.1L1046.3 69.3L1045.2 288.1L0 327.9L6.9 62.9Z" fill="#FFAA00"/>
<path d="M1065.6 268C1065.6 268 1000.6 286.9 941.3 267.6C882 248.4 872.9 288.9 761.7 290.6C650.5 292.3 662.3 249.3 544.7 273.9C427.1 298.5 410.7 302.1 318.6 292.1C226.5 282.1 160.9 260.4 3.1002 298.8V322H4.7002L2.2002 345.8L1044 345.5L1042.2 309.5H1045.2L1065.6 268Z" fill="#FFE100"/>
<path d="M0 298.9C8.9 298.9 18.5 298.9 28.8 299.1C93.8 300.2 181.8 329.7 381.5 309.6C468 300.9 641.8 292.6 718.3 296.6C794.8 300.6 845.9 327.5 993 314.9C1012.2 313.3 1029.5 314.5 1045.5 313.6V327.1C1031.7 326.8 1012.5 324.8 996.4 324.9C846.4 325.3 828.1 307.6 543.5 323.3C261.3 338.8 186.8 308.1 51.7 324.4C33.5 326.6 16.1 327.7 0 327.9L0 298.9Z" fill="#FFF6CA"/>
<path d="M1099.1 255L1127.6 87H1168.1L1172.6 231L1210.1 244.5L1231.1 178.5H1271.6L1301.6 262.5L1450.1 268.5L1469.6 180L1508.6 177C1508.6 177 1539.2 267.3 1539.6 273.9C1540 280.5 1805.5 294 1805.5 294L1820.5 87L1850.5 94.5L1870 343.5C1870 343.5 1099.1 341.7 1099.1 255Z" fill="#FFC200"/>
<path d="M1001.9 62.9L1046.6 69L1058.9 203.7L1099.1 255L1259.6 259.5L1315.9 219.4L1327.1 114L1400.6 109.5L1431.6 230.7L1505.7 254L1550.8 219L1565.6 0L1618.1 1.5L1627.1 162L1646.5 168L1659.7 235.6L1680.6 229.2L1708 114H1768L1786 243L1841.5 246L1868.4 218.4L1897 151.5L2036.8 153L2040.2 288.1L995 327.9L1001.9 62.9Z" fill="#FFAA00"/>
<path d="M2040.2 288.1C2040.2 288.1 1995.5 286.8 1936.3 267.6C1877 248.4 1867.9 288.9 1756.7 290.6C1645.5 292.3 1657.3 249.3 1539.7 273.9C1422.1 298.5 1405.7 302.1 1313.6 292.1C1221.5 282.1 1012.1 268.6 911.6 263L983 322.7L976.3 324.9L997.2 345.7L2039 345.4L2037.2 309.4H2040.2V288.1Z" fill="#FFE100"/>
<path d="M528.1 298.9C540.9 298.9 554.8 298.9 569.8 299.1C663.8 300.2 791.1 329.7 1079.9 309.6C1205.1 300.9 1456.4 292.6 1567 296.6C1677.7 300.6 1752.4 316.8 1965 304.2C1992.7 302.6 2018.1 301.4 2041.2 300.5V314C2021.3 313.7 1999.8 313.5 1976.5 313.5C1759.5 313.9 1725.6 307.6 1314.1 323.2C906 338.7 798.2 303 602.8 319.3C576.5 321.5 551.3 322.6 528.1 322.8V298.9Z" fill="#FFF6CA"/>
</svg>
