<svg width="500" height="85" viewBox="0 0 500 85" fill="none" xmlns="http://www.w3.org/2000/svg">
<path d="M499.833 0H0V85H499.833V0Z" fill="#EBFF28"/>
<path d="M499.833 70.7819C489.17 76.6546 476.841 81.4455 456.348 81.4455C404.365 81.4455 404.365 50.0728 352.383 50.0728C300.4 50.0728 300.4 81.4455 248.584 81.4455C196.601 81.4455 196.601 50.0728 144.785 50.0728C92.8025 50.0728 92.8025 81.4455 40.9865 81.4455C22.1594 81.4455 10.1634 77.2728 0.166748 72.1728V85H500V70.7819H499.833Z" fill="#B3EA06"/>
<path d="M74.975 44.5091C97.3351 44.5091 115.462 41.1187 115.462 36.9364C115.462 32.7541 97.3351 29.3636 74.975 29.3636C52.615 29.3636 34.4885 32.7541 34.4885 36.9364C34.4885 41.1187 52.615 44.5091 74.975 44.5091Z" fill="white"/>
<path d="M425.858 41.8819C453.463 41.8819 475.842 38.699 475.842 34.7728C475.842 30.8466 453.463 27.6637 425.858 27.6637C398.253 27.6637 375.875 30.8466 375.875 34.7728C375.875 38.699 398.253 41.8819 425.858 41.8819Z" fill="white"/>
<path d="M184 10V48.9L224.2 67.3L224.4 10.2L184 10Z" fill="#8C00EF"/>
<path d="M316 10.6L272 10.4L271.6 67.6L316 48.3V10.6Z" fill="#FFE000"/>
<path d="M224.4 10.2L224.2 67.2999L247.4 78L271.6 67.5999L272 10.4L224.4 10.2Z" fill="#231F20"/>
<path d="M306.3 23.1H278.3V28.8H306.3V23.1Z" fill="white"/>
<path d="M289.4 48.9L290 26.6H295.2V48.3L289.4 48.9Z" fill="white"/>
<path d="M198.3 46.6V19.1H193.1L192.6 45.9L198.3 46.6Z" fill="white"/>
<path d="M214 21.2999L196 30.1999V35.2999L212.3 49.9999L216 45.6999L200.6 33.6999L217.1 25.1999L214 21.2999Z" fill="white"/>
<path d="M233.3 20.9L233.9 53.1L239.6 54.6L239.1 26.3H255.5V35.6L237.5 36L237.8 41.8L261.3 41.4V20.9H233.3Z" fill="white"/>
<path d="M246.3 41L257.3 56.9L263.2 54.9L251.5 39.4L246.3 41Z" fill="white"/>
</svg>
