<svg width="300" height="55" viewBox="0 0 300 55" fill="none" xmlns="http://www.w3.org/2000/svg">
<path d="M300 0H0V55H300V0Z" fill="#EBFF28"/>
<path d="M299.9 45.8C293.5 49.6 286.1 52.7 273.8 52.7C242.6 52.7 242.6 32.4 211.4 32.4C180.2 32.4 180.2 52.7 149.1 52.7C117.9 52.7 117.9 32.4 86.8 32.4C55.6 32.4 55.6 52.7 24.5 52.7C13.2 52.7 6 50 0 46.7V55H300V45.8H299.9Z" fill="#B3EA06"/>
<path d="M44.9849 28.8C58.4009 28.8 69.2768 26.6062 69.2768 23.9C69.2768 21.1938 58.4009 19 44.9849 19C31.5688 19 20.693 21.1938 20.693 23.9C20.693 26.6062 31.5688 28.8 44.9849 28.8Z" fill="white"/>
<path d="M255.515 27.1C272.078 27.1 285.505 25.0405 285.505 22.5C285.505 19.9595 272.078 17.9 255.515 17.9C238.952 17.9 225.525 19.9595 225.525 22.5C225.525 25.0405 238.952 27.1 255.515 27.1Z" fill="white"/>
</svg>
