<svg width="500" height="85" viewBox="0 0 500 85" fill="none" xmlns="http://www.w3.org/2000/svg">
<path d="M500 0H0V85H500V0Z" fill="#2D3A38"/>
<path d="M461.5 28.7455L453.333 65.8364L399.5 65.5273L392.667 46.0546H344.5L334.833 19.7819L159.833 25.191L147.167 58.8819L70.6667 50.8455L67.6666 23.6455L0 15.3V85.0001H500V17.6182L461.5 28.7455Z" fill="#5B6866"/>
<path d="M184 10V48.9L224.2 67.3L224.4 10.2L184 10Z" fill="#8C00EF"/>
<path d="M316 10.6L272 10.4L271.6 67.6L316 48.3V10.6Z" fill="#FFE000"/>
<path d="M224.4 10.2L224.2 67.2999L247.4 78L271.6 67.5999L272 10.4L224.4 10.2Z" fill="#231F20"/>
<path d="M306.3 23.1H278.3V28.8H306.3V23.1Z" fill="white"/>
<path d="M289.4 48.9L290 26.6H295.2V48.3L289.4 48.9Z" fill="white"/>
<path d="M198.3 46.6V19.1H193.1L192.6 45.9L198.3 46.6Z" fill="white"/>
<path d="M214 21.2999L196 30.1999V35.2999L212.3 49.9999L216 45.6999L200.6 33.6999L217.1 25.1999L214 21.2999Z" fill="white"/>
<path d="M233.3 20.9L233.9 53.1L239.6 54.6L239.1 26.3H255.5V35.6L237.5 36L237.8 41.8L261.3 41.4V20.9H233.3Z" fill="white"/>
<path d="M246.3 41L257.3 56.9L263.2 54.9L251.5 39.4L246.3 41Z" fill="white"/>
</svg>
