<svg width="500" height="85" viewBox="0 0 500 85" fill="none" xmlns="http://www.w3.org/2000/svg">
<path d="M500 0H0V85H500V0Z" fill="#FFC200"/>
<path d="M113 44.5091C135.368 44.5091 153.5 41.1187 153.5 36.9364C153.5 32.7541 135.368 29.3636 113 29.3636C90.6325 29.3636 72.5 32.7541 72.5 36.9364C72.5 41.1187 90.6325 44.5091 113 44.5091Z" fill="white"/>
<path d="M409 53.6273C431.368 53.6273 449.5 50.2368 449.5 46.0545C449.5 41.8722 431.368 38.4818 409 38.4818C386.633 38.4818 368.5 41.8722 368.5 46.0545C368.5 50.2368 386.633 53.6273 409 53.6273Z" fill="white"/>
<path d="M314.5 36.1637L336.833 71.2455L375.833 58.4182L387.5 29.6728L353.5 26.5819L357.667 17L397 11.5909L433.167 14.8364L434.333 27.5091L399.167 28.5909L416.167 74.3364L458.833 65.8364L480 24.2637L500 23.6455V85H0V57.0273L15.6667 36.1637L51.3333 35.0819L66.1667 73.2546L93.6667 66.9182L109.667 21.3273L133 20.2455L140.5 59.5L167.667 72.3273L187 33.0728L314.5 36.1637Z" fill="#FF9D00"/>
<path d="M184 10V48.9L224.2 67.3L224.4 10.2L184 10Z" fill="#8C00EF"/>
<path d="M316 10.6L272 10.4L271.6 67.6L316 48.3V10.6Z" fill="#FFE000"/>
<path d="M224.4 10.2L224.2 67.2999L247.4 78L271.6 67.5999L272 10.4L224.4 10.2Z" fill="#231F20"/>
<path d="M306.3 23.1H278.3V28.8H306.3V23.1Z" fill="white"/>
<path d="M289.4 48.9L290 26.6H295.2V48.3L289.4 48.9Z" fill="white"/>
<path d="M198.3 46.6V19.1H193.1L192.6 45.9L198.3 46.6Z" fill="white"/>
<path d="M214 21.2999L196 30.1999V35.2999L212.3 49.9999L216 45.6999L200.6 33.6999L217.1 25.1999L214 21.2999Z" fill="white"/>
<path d="M233.3 20.9L233.9 53.1L239.6 54.6L239.1 26.3H255.5V35.6L237.5 36L237.8 41.8L261.3 41.4V20.9H233.3Z" fill="white"/>
<path d="M246.3 41L257.3 56.9L263.2 54.9L251.5 39.4L246.3 41Z" fill="white"/>
</svg>
