<svg width="300" height="55" viewBox="0 0 300 55" fill="none" xmlns="http://www.w3.org/2000/svg">
<path d="M300 0H0V55H300V0Z" fill="#FFC200"/>
<path d="M67.8 28.8C81.2205 28.8 92.1 26.6062 92.1 23.9C92.1 21.1938 81.2205 19 67.8 19C54.3795 19 43.5 21.1938 43.5 23.9C43.5 26.6062 54.3795 28.8 67.8 28.8Z" fill="white"/>
<path d="M245.4 34.7C258.82 34.7 269.7 32.5062 269.7 29.8C269.7 27.0938 258.82 24.9 245.4 24.9C231.979 24.9 221.1 27.0938 221.1 29.8C221.1 32.5062 231.979 34.7 245.4 34.7Z" fill="white"/>
<path d="M188.7 23.4L202.1 46.1L225.5 37.8L232.5 19.2L212.1 17.2L214.6 11L238.2 7.5L259.9 9.6L260.6 17.8L239.5 18.5L249.7 48.1L275.3 42.6L288 15.7L300 15.3V55H0V36.9L9.4 23.4L30.8 22.7L39.7 47.4L56.2 43.3L65.8 13.8L79.8 13.1L84.3 38.5L100.6 46.8L112.2 21.4L188.7 23.4Z" fill="#FF9D00"/>
</svg>
