<svg width="300" height="55" viewBox="0 0 300 55" fill="none" xmlns="http://www.w3.org/2000/svg">
<path d="M300 0H0V55H300V0Z" fill="#FFFF00"/>
<path d="M300 30.5C295.2 25.7 285.8 31.4 285.8 31.4C285.8 31.4 293.2 11.3 269.4 11.6C245.6 11.9 248.5 28.3 248.5 28.3C235.4 22.6 235.6 37.1 235.6 37.1C220.2 25.5 204.1 42.7 204.1 42.7C197.4 21.8 183.2 30.6 183.2 30.6C178.6 13.6 155.6 25.2 155.6 25.2C155.6 25.2 154.5 14.1 146.2 13.9C137.9 13.7 128 39.1 128 39.1C128 39.1 127.1 29.2 113 26.7C98.9 24.2 91.4 37.5 91.4 37.5C84.3 22.8 68.6 31.2 68.6 31.2C68.6 31.2 68.4 23.6 62.8 21.3C57.2 19 53.4 24.9 53.4 24.9C53.4 24.9 50.9 3.5 36.7 3.5C22.6 3.5 17.6 17.9 17.6 17.9C9.5 13.6 7.9 23.5 7.9 23.5C7.9 23.5 7 18.4 0 17.4V55H300V30.5Z" fill="#3FD700"/>
<path d="M209.1 30.6L208.7 55H211.4L210.3 30.5L209.1 30.6Z" fill="#BC5E00"/>
<path d="M221.4 48.9L214.8 36L219.9 35.8L212.7 22.9L217.5 23L210.5 11.4L203.7 23.2L208.2 23L201 36L206 36.1L200.1 48.8L221.4 48.9Z" fill="#11AF00"/>
<path d="M237.9 30.6L237.5 55H240.2L239.1 30.5L237.9 30.6Z" fill="#BC5E00"/>
<path d="M250.2 48.9L243.6 36L248.7 35.8L241.5 22.9L246.3 23L239.3 11.4L232.5 23.2L237 23L229.8 36L234.8 36.1L228.9 48.8L250.2 48.9Z" fill="#11AF00"/>
<path d="M265.1 30.6L264.7 55H267.4L266.3 30.5L265.1 30.6Z" fill="#BC5E00"/>
<path d="M277.4 48.9L270.8 36L275.9 35.8L268.7 22.9L273.5 23L266.5 11.4L259.7 23.2L264.2 23L257 36L262 36.1L256.1 48.8L277.4 48.9Z" fill="#11AF00"/>
<path d="M120.5 30.6L120.1 55H122.8L121.7 30.5L120.5 30.6Z" fill="#BC5E00"/>
<path d="M132.8 48.9L126.2 36L131.3 35.8L124.1 22.9L128.9 23L121.9 11.4L115.1 23.2L119.6 23L112.4 36L117.4 36.1L111.5 48.8L132.8 48.9Z" fill="#11AF00"/>
<path d="M149.3 30.6L148.9 55H151.6L150.5 30.5L149.3 30.6Z" fill="#BC5E00"/>
<path d="M161.6 48.9L155 36L160.1 35.8L152.9 22.9L157.7 23L150.7 11.4L143.9 23.2L148.4 23L141.3 36L146.2 36.1L140.3 48.8L161.6 48.9Z" fill="#11AF00"/>
<path d="M176.5 30.6L176.1 55H178.8L177.7 30.5L176.5 30.6Z" fill="#BC5E00"/>
<path d="M188.8 48.9L182.2 36L187.3 35.8L180.1 22.9L184.9 23L177.9 11.4L171.1 23.2L175.6 23L168.5 36L173.4 36.1L167.5 48.8L188.8 48.9Z" fill="#11AF00"/>
<path d="M32.3 30.6L31.9 55H34.6L33.5 30.5L32.3 30.6Z" fill="#BC5E00"/>
<path d="M44.6 48.9L38 36L43.1 35.8L35.9001 22.9L40.7001 23L33.7001 11.4L26.9 23.2L31.4 23L24.2001 36L29.2001 36.1L23.3 48.8L44.6 48.9Z" fill="#11AF00"/>
<path d="M61.0999 30.6L60.7 55H63.4L62.2999 30.5L61.0999 30.6Z" fill="#BC5E00"/>
<path d="M73.4 48.9L66.8 36L71.9 35.8L64.7 22.9L69.5 23L62.5 11.4L55.7 23.2L60.2 23L53 36L58 36.1L52.1 48.8L73.4 48.9Z" fill="#11AF00"/>
<path d="M88.3 30.6L87.9 55H90.6L89.5 30.5L88.3 30.6Z" fill="#BC5E00"/>
<path d="M100.6 48.9L94 36L99.1 35.8L91.9 22.9L96.7 23L89.7 11.4L82.9 23.2L87.4 23L80.2 36L85.2 36.1L79.3 48.8L100.6 48.9Z" fill="#11AF00"/>
</svg>
