<svg width="500" height="85" viewBox="0 0 500 85" fill="none" xmlns="http://www.w3.org/2000/svg">
<path d="M500 0H0V85H500V0Z" fill="#FFFF00"/>
<path d="M500 47.1363C492 39.7182 476.333 48.5272 476.333 48.5272C476.333 48.5272 488.667 17.4636 449 17.9272C409.333 18.3909 414.167 43.7363 414.167 43.7363C392.333 34.9272 392.667 57.3363 392.667 57.3363C367 39.4091 340.167 65.9909 340.167 65.9909C329 33.6909 305.333 47.2909 305.333 47.2909C297.667 21.0182 259.333 38.9454 259.333 38.9454C259.333 38.9454 257.5 21.7909 243.667 21.4818C229.833 21.1727 213.333 60.4272 213.333 60.4272C213.333 60.4272 211.833 45.1272 188.333 41.2636C164.833 37.4 152.333 57.9545 152.333 57.9545C140.5 35.2363 114.333 48.2182 114.333 48.2182C114.333 48.2182 114 36.4727 104.667 32.9181C95.3333 29.3636 89 38.4818 89 38.4818C89 38.4818 84.8333 5.40906 61.1667 5.40906C37.6667 5.40906 29.3333 27.6636 29.3333 27.6636C15.8333 21.0181 13.1667 36.3181 13.1667 36.3181C13.1667 36.3181 11.6667 28.4363 0 26.8909V85H500V47.1363Z" fill="#3FD700"/>
<path d="M348.5 47.2909L347.834 85H352.334L350.5 47.1364L348.5 47.2909Z" fill="#BC5E00"/>
<path d="M369 75.5728L358 55.6365L366.5 55.3274L354.5 35.391L362.5 35.5456L350.834 17.6183L339.5 35.8547L347 35.5456L335 55.6365L343.334 55.791L333.5 75.4183L369 75.5728Z" fill="#11AF00"/>
<path d="M396.5 47.2909L395.833 85H400.333L398.5 47.1364L396.5 47.2909Z" fill="#BC5E00"/>
<path d="M417 75.5728L406 55.6365L414.5 55.3274L402.5 35.391L410.5 35.5456L398.833 17.6183L387.5 35.8547L395 35.5456L383 55.6365L391.333 55.791L381.5 75.4183L417 75.5728Z" fill="#11AF00"/>
<path d="M441.834 47.2909L441.167 85H445.667L443.834 47.1364L441.834 47.2909Z" fill="#BC5E00"/>
<path d="M462.333 75.5728L451.333 55.6365L459.833 55.3274L447.834 35.391L455.833 35.5456L444.167 17.6183L432.834 35.8547L440.334 35.5456L428.333 55.6365L436.667 55.791L426.833 75.4183L462.333 75.5728Z" fill="#11AF00"/>
<path d="M53.8337 47.2909L53.167 85H57.667L55.8337 47.1364L53.8337 47.2909Z" fill="#BC5E00"/>
<path d="M74.3335 75.5728L63.3335 55.6365L71.8335 55.3274L59.8335 35.391L67.8335 35.5456L56.1668 17.6183L44.8335 35.8547L52.3335 35.5456L40.3335 55.6365L48.6668 55.791L38.8335 75.4183L74.3335 75.5728Z" fill="#11AF00"/>
<path d="M101.834 47.2909L101.167 85H105.667L103.834 47.1364L101.834 47.2909Z" fill="#BC5E00"/>
<path d="M122.333 75.5728L111.334 55.6365L119.833 55.3274L107.833 35.391L115.833 35.5456L104.167 17.6183L92.8335 35.8547L100.333 35.5456L88.3335 55.6365L96.6668 55.791L86.8335 75.4183L122.333 75.5728Z" fill="#11AF00"/>
<path d="M147.167 47.2909L146.5 85H151L149.167 47.1364L147.167 47.2909Z" fill="#BC5E00"/>
<path d="M167.667 75.5728L156.667 55.6365L165.167 55.3274L153.167 35.391L161.167 35.5456L149.5 17.6183L138.167 35.8547L145.667 35.5456L133.667 55.6365L142 55.791L132.167 75.4183L167.667 75.5728Z" fill="#11AF00"/>
<path d="M184 10V48.9L224.2 67.3L224.4 10.2L184 10Z" fill="#8C00EF"/>
<path d="M316 10.6L272 10.4L271.6 67.6L316 48.3V10.6Z" fill="#FFE000"/>
<path d="M224.4 10.2L224.2 67.2999L247.4 78L271.6 67.5999L272 10.4L224.4 10.2Z" fill="#231F20"/>
<path d="M306.3 23.1H278.3V28.8H306.3V23.1Z" fill="white"/>
<path d="M289.4 48.9L290 26.6H295.2V48.3L289.4 48.9Z" fill="white"/>
<path d="M198.3 46.6V19.1H193.1L192.6 45.9L198.3 46.6Z" fill="white"/>
<path d="M214 21.2999L196 30.1999V35.2999L212.3 49.9999L216 45.6999L200.6 33.6999L217.1 25.1999L214 21.2999Z" fill="white"/>
<path d="M233.3 20.9L233.9 53.1L239.6 54.6L239.1 26.3H255.5V35.6L237.5 36L237.8 41.8L261.3 41.4V20.9H233.3Z" fill="white"/>
<path d="M246.3 41L257.3 56.9L263.2 54.9L251.5 39.4L246.3 41Z" fill="white"/>
</svg>
