<svg width="500" height="85" viewBox="0 0 500 85" fill="none" xmlns="http://www.w3.org/2000/svg">
<path d="M500 0H0V85H500V0Z" fill="#00C3F6"/>
<path d="M62.5 38.0183C84.8675 38.0183 103 34.6278 103 30.4455C103 26.2632 84.8675 22.8728 62.5 22.8728C40.1325 22.8728 22 26.2632 22 30.4455C22 34.6278 40.1325 38.0183 62.5 38.0183Z" fill="white"/>
<path d="M434 49.9181C461.614 49.9181 484 46.7353 484 42.8091C484 38.8828 461.614 35.7 434 35.7C406.386 35.7 384 38.8828 384 42.8091C384 46.7353 406.386 49.9181 434 49.9181Z" fill="white"/>
<path d="M0 85L69 26.8909L112 66.9182L143 31.9909L180 68.9273L230.333 21.6364L301 77.8909L343 26.8909L388 70.9364L427 23.9545L500 85H0Z" fill="#0091F4"/>
<path d="M184 10V48.9L224.2 67.3L224.4 10.2L184 10Z" fill="#8C00EF"/>
<path d="M316 10.6L272 10.4L271.6 67.6L316 48.3V10.6Z" fill="#FFE000"/>
<path d="M224.4 10.2L224.2 67.2999L247.4 78L271.6 67.5999L272 10.4L224.4 10.2Z" fill="#231F20"/>
<path d="M306.3 23.1H278.3V28.8H306.3V23.1Z" fill="white"/>
<path d="M289.4 48.9L290 26.6H295.2V48.3L289.4 48.9Z" fill="white"/>
<path d="M198.3 46.6V19.1H193.1L192.6 45.9L198.3 46.6Z" fill="white"/>
<path d="M214 21.2999L196 30.1999V35.2999L212.3 49.9999L216 45.6999L200.6 33.6999L217.1 25.1999L214 21.2999Z" fill="white"/>
<path d="M233.3 20.9L233.9 53.1L239.6 54.6L239.1 26.3H255.5V35.6L237.5 36L237.8 41.8L261.3 41.4V20.9H233.3Z" fill="white"/>
<path d="M246.3 41L257.3 56.9L263.2 54.9L251.5 39.4L246.3 41Z" fill="white"/>
</svg>
