<svg width="300" height="55" viewBox="0 0 300 55" fill="none" xmlns="http://www.w3.org/2000/svg">
<path d="M300 0H0V55H300V0Z" fill="#00C3F6"/>
<path d="M37.5 24.6001C50.9205 24.6001 61.7999 22.4063 61.7999 19.7001C61.7999 16.9939 50.9205 14.8 37.5 14.8C24.0794 14.8 13.2 16.9939 13.2 19.7001C13.2 22.4063 24.0794 24.6001 37.5 24.6001Z" fill="white"/>
<path d="M260.4 32.3C276.968 32.3 290.4 30.2405 290.4 27.7C290.4 25.1595 276.968 23.1 260.4 23.1C243.831 23.1 230.4 25.1595 230.4 27.7C230.4 30.2405 243.831 32.3 260.4 32.3Z" fill="white"/>
<path d="M0 55L41.4 17.4L67.2 43.3L85.8 20.7L108 44.6L138.2 14L180.6 50.4L205.8 17.4L232.8 45.9L256.2 15.5L300 55H0Z" fill="#0091F4"/>
</svg>
