<svg width="500" height="85" viewBox="0 0 500 85" fill="none" xmlns="http://www.w3.org/2000/svg">
<path d="M500 0H0V85H500V0Z" fill="#393939"/>
<path d="M481.167 32.4546L462.333 66.3L433.667 16.2273L409.167 76.8091L347.833 76.1909L313.5 22.4091H259L247 46.9818L225 25.0364L187.5 43.5L166.833 19.7818L142.833 65.5273L123.333 46.9818L109 71.8637L75.1667 27.9727L61.1667 67.2273L42.6667 40.9546L15.3333 63.6727L0 32.6091V85H500V61.8182L481.167 32.4546Z" fill="#020202"/>
<path d="M118.333 34.6183C111.667 34.6183 106.167 29.6728 106.167 23.3364C106.167 19.7819 108 16.5364 110.833 14.5273C103.333 14.6819 97.3333 20.2455 97.3333 27.2001C97.3333 34.1546 103.5 39.8728 111 39.8728C116 39.8728 120.333 37.4001 122.667 33.691C121.5 34.3092 120 34.6183 118.333 34.6183Z" fill="white"/>
<path d="M396.874 83.7636V42.0878L359.84 42.2249L360.557 83.7636H396.874Z" fill="#020202"/>
<path d="M353.811 40.991L353.667 45.1038L403.334 44.6925L403.046 40.8539H400.319L396.156 17L359.265 17.1371L356.251 40.8539L353.811 40.991Z" fill="#020202"/>
<path d="M381.658 48.6681L381.371 61.5547L390.558 61.4176L390.271 48.6681H381.658Z" fill="white"/>
<path d="M184 9V47.9L224.2 66.3L224.4 9.2L184 9Z" fill="#8C00EF"/>
<path d="M316 9.60002L272 9.40002L271.6 66.6L316 47.3V9.60002Z" fill="#FFE000"/>
<path d="M224.4 9.19995L224.2 66.2999L247.4 77L271.6 66.5999L272 9.39995L224.4 9.19995Z" fill="#231F20"/>
<path d="M306.3 22.1H278.3V27.8H306.3V22.1Z" fill="white"/>
<path d="M289.4 47.9L290 25.6H295.2V47.3L289.4 47.9Z" fill="white"/>
<path d="M198.3 45.6V18.1H193.1L192.6 44.9L198.3 45.6Z" fill="white"/>
<path d="M214 20.2999L196 29.1999V34.2999L212.3 48.9999L216 44.6999L200.6 32.6999L217.1 24.1999L214 20.2999Z" fill="white"/>
<path d="M233.3 19.9L233.9 52.1L239.6 53.6L239.1 25.3H255.5V34.6L237.5 35L237.8 40.8L261.3 40.4V19.9H233.3Z" fill="white"/>
<path d="M246.3 40L257.3 55.9L263.2 53.9L251.5 38.4L246.3 40Z" fill="white"/>
</svg>
