<svg width="300" height="55" viewBox="0 0 300 55" fill="none" xmlns="http://www.w3.org/2000/svg">
<path d="M300 0H0V55H300V0Z" fill="#393939"/>
<path d="M288.7 21L277.4 42.9L260.2 10.5L245.5 49.7L208.7 49.3L197.8 14.5L168.9 50.5L149.5 50.8L135 16.2L120.6 41.5L100.1 12.8L85.7 42.4L74 30.4L65.4 46.5L45.1 18.1L36.7 43.5L25.6 26.5L9.2 41.2L0 21.1V55H300V40L288.7 21Z" fill="#020202"/>
<path d="M70.9999 22.4C66.9999 22.4 63.6999 19.2 63.6999 15.1C63.6999 12.8 64.7999 10.7 66.4999 9.40002C61.9999 9.50002 58.3999 13.1 58.3999 17.6C58.3999 22.1 62.0999 25.8 66.5999 25.8C69.5999 25.8 72.1999 24.2 73.5999 21.8C72.8999 22.2 71.9999 22.4 70.9999 22.4Z" fill="white"/>
<path d="M166.659 51.9001L167.597 11.0938L170.317 11L170.786 51.9001H166.659Z" fill="#020202"/>
<path d="M167.972 31.0748L158.498 27.0411V19.9117L155.683 19.7241V28.6358L167.972 34.9209" fill="#020202"/>
<path d="M169.661 18.786L176.321 17.1912L176.133 11.5628L178.197 11.469L179.417 18.1293L168.723 22.4445" fill="#020202"/>
<path d="M238.125 54.2V27.2333L215.904 27.322L216.334 54.2H238.125Z" fill="#020202"/>
<path d="M212.286 26.5236L212.2 29.1848L242 28.9187L241.828 26.4349H240.191L237.694 11L215.559 11.0887L213.75 26.4349L212.286 26.5236Z" fill="#020202"/>
<path d="M228.995 31.4911L228.823 39.8295L234.335 39.7408L234.163 31.4911H228.995Z" fill="white"/>
</svg>
