<svg width="440" height="256" viewBox="0 0 440 256" fill="none" xmlns="http://www.w3.org/2000/svg">
<path d="M2.3001 62.3001L1.1001 160.3H176.9V40.6001H24.1001C18.3001 46.6001 8.2001 57.2001 2.3001 62.3001Z" fill="#0085FF"/>
<path d="M334.5 0H193L194.8 77.3L334.5 75.2V0Z" fill="#0085FF"/>
<path d="M325.4 9.30005H202.1L203.7 68L325.4 66.4001V9.30005Z" stroke="#0067DF" stroke-miterlimit="10"/>
<path d="M14.7002 76.8999V119.9L59.3002 140.4L59.5002 77.0999L14.7002 76.8999Z" fill="#0067DF"/>
<path d="M161 77.4999L112.2 77.2999L111.8 140.6L161 119.3V77.4999Z" fill="#0067DF"/>
<path d="M59.5003 77.0999L59.3003 140.4L85.0003 152.2L111.8 140.6L112.2 77.2999L59.5003 77.0999Z" fill="#005ECD"/>
<path d="M150.2 91.3999H119.2V97.6999H150.2V91.3999Z" fill="#0085FF"/>
<path d="M131.6 119.9L132.2 95.1999H137.9V119.3L131.6 119.9Z" fill="#0085FF"/>
<path d="M30.6002 117.4V86.9999H24.9002L24.2002 116.7L30.6002 117.4Z" fill="#0085FF"/>
<path d="M48.0002 89.3999L28.0002 99.1999V104.9L46.1002 121.2L50.2002 116.4L33.1002 103.1L51.5002 93.6999L48.0002 89.3999Z" fill="#0085FF"/>
<path d="M69.4001 88.8999L70.0001 124.6L76.4001 126.2L75.8001 94.8999H94.0001V105.3L74.0001 105.7L74.4001 112.1L100.4 111.7V88.8999H69.4001Z" fill="#0085FF"/>
<path d="M83.8 111.3L96 128.8L102.6 126.6L89.6 109.5L83.8 111.3Z" fill="#0085FF"/>
<path d="M43.6002 62.1999C43.6002 61.5999 43.7002 60.9999 43.7002 60.3999C42.8002 59.8999 42.2002 59.2999 41.1002 59.2999C40.0002 59.2999 38.7002 59.9999 38.7002 61.1999C38.7002 64.0999 45.5002 62.4999 45.5002 67.4999C45.5002 69.8999 43.2002 70.9999 41.1002 70.9999C40.2002 70.9999 39.4002 70.7999 38.6002 70.3999C38.6002 70.8999 38.2002 71.1999 37.7002 71.1999C37.2002 71.1999 36.9002 70.8999 36.8002 70.3999C36.7002 69.9999 36.7002 69.4999 36.7002 68.9999C36.7002 68.2999 36.7002 67.5999 36.7002 66.8999C36.7002 66.3999 37.0002 65.9999 37.5002 65.9999C38.0002 65.9999 38.4002 66.3999 38.4002 66.8999C38.4002 67.0999 38.4002 67.2999 38.4002 67.3999C38.5002 68.6999 39.5002 69.1999 40.7002 69.1999C41.7002 69.1999 43.5002 68.5999 43.5002 67.2999C43.5002 63.7999 36.8002 65.6999 36.8002 60.8999C36.8002 58.5999 38.8002 57.3999 40.9002 57.3999C42.0002 57.3999 42.9002 57.6999 43.8002 58.2999C43.9002 57.8999 44.2002 57.5999 44.7002 57.5999C45.2002 57.5999 45.6002 57.8999 45.6002 58.3999C45.6002 58.4999 45.6002 58.4999 45.6002 58.5999C45.5002 59.3999 45.4002 60.0999 45.3002 60.8999L45.2002 62.0999C45.1002 62.5999 44.8002 62.8999 44.3002 62.8999C44.0002 63.0999 43.6002 62.7999 43.6002 62.1999Z" fill="#005ECD"/>
<path d="M48.6002 59.7999C48.2002 59.7999 47.9002 59.8999 47.5002 59.8999C47.0002 59.8999 46.6002 59.4999 46.6002 58.9999C46.6002 58.4999 46.9002 58.1999 47.4002 58.0999C48.5002 57.8999 50.0002 57.7999 51.2002 57.7999C54.2002 57.7999 57.7002 58.2999 57.7002 62.0999C57.7002 66.0999 54.1002 66.7999 50.8002 66.7999C50.5002 66.7999 50.2002 66.7999 49.9002 66.7999C49.9002 67.4999 49.9002 68.3999 49.9002 69.0999V69.1999C50.2002 69.1999 50.5002 69.1999 50.8002 69.1999C51.3002 69.1999 51.7002 69.5999 51.7002 70.0999C51.7002 70.5999 51.4002 70.8999 50.9002 70.9999C50.5002 71.0999 50.0002 70.9999 49.6002 70.9999C48.9002 70.9999 48.1002 70.9999 47.3002 70.8999C46.8002 70.7999 46.5002 70.4999 46.5002 69.9999C46.5002 69.4999 46.9002 69.0999 47.4002 69.0999C47.7002 69.0999 47.9002 69.0999 48.2002 69.0999C48.1002 65.9999 48.3002 62.9999 48.6002 59.7999ZM50.0002 64.9999C50.3002 64.9999 50.6002 64.9999 50.9002 64.9999C53.2002 64.9999 56.1002 64.5999 56.1002 62.1999C56.1002 59.6999 53.3002 59.5999 51.5002 59.5999C51.2002 59.5999 50.8002 59.5999 50.5002 59.5999C50.2002 61.5999 50.1002 63.0999 50.0002 64.9999Z" fill="#005ECD"/>
<path d="M61.5002 65.0999V69.1999C62.8002 69.1999 64.2002 69.1999 65.5002 69.1999C65.5002 68.7999 65.5002 68.3999 65.5002 67.9999C65.5002 67.4999 65.9002 67.0999 66.4002 67.0999C67.4002 67.0999 67.3002 68.0999 67.3002 68.7999C67.3002 69.4999 67.3002 70.8999 66.4002 70.8999H58.6002C58.1002 70.8999 57.7002 70.4999 57.7002 69.9999C57.7002 68.8999 58.9002 69.0999 59.7002 69.0999V59.5999H58.8002C58.3002 59.5999 57.9002 59.1999 57.9002 58.6999C57.9002 57.6999 58.9002 57.7999 59.6002 57.7999C61.8002 57.7999 64.0002 57.6999 66.2002 57.6999C67.1002 57.6999 67.2002 58.8999 67.2002 59.5999C67.2002 60.2999 67.3002 61.3999 66.3002 61.3999C65.2002 61.3999 65.4002 60.2999 65.4002 59.5999L61.6002 59.6999V63.2999L64.5002 63.1999C65.0002 63.1999 65.4002 63.5999 65.4002 64.0999C65.4002 64.5999 65.0002 64.9999 64.5002 64.9999L61.5002 65.0999Z" fill="#005ECD"/>
<path d="M71.8001 65.0999V69.1999C73.1001 69.1999 74.5001 69.1999 75.8001 69.1999C75.8001 68.7999 75.8001 68.3999 75.8001 67.9999C75.8001 67.4999 76.2001 67.0999 76.7001 67.0999C77.7001 67.0999 77.6001 68.0999 77.6001 68.7999C77.6001 69.4999 77.6001 70.8999 76.7001 70.8999H69.0001C68.5001 70.8999 68.1001 70.4999 68.1001 69.9999C68.1001 68.8999 69.3001 69.0999 70.1001 69.0999V59.5999H69.2001C68.7001 59.5999 68.3001 59.1999 68.3001 58.6999C68.3001 57.6999 69.3001 57.7999 70.0001 57.7999C72.2001 57.7999 74.4001 57.6999 76.6001 57.6999C77.5001 57.6999 77.6001 58.8999 77.6001 59.5999C77.6001 60.2999 77.7001 61.3999 76.7001 61.3999C75.6001 61.3999 75.8001 60.2999 75.8001 59.5999L72.0001 59.6999V63.2999L74.9001 63.1999C75.4001 63.1999 75.8001 63.5999 75.8001 64.0999C75.8001 64.5999 75.4001 64.9999 74.9001 64.9999L71.8001 65.0999Z" fill="#005ECD"/>
<path d="M79.9001 59.6999C79.7001 59.6999 79.5001 59.6999 79.3001 59.6999C78.8001 59.6999 78.4001 59.2999 78.4001 58.7999C78.4001 58.1999 78.8001 57.8999 79.3001 57.8999C79.6001 57.8999 79.9001 57.8999 80.2001 57.8999C80.8001 57.8999 81.4001 57.7999 82.1001 57.7999C82.9001 57.7999 84.0001 57.7999 84.8001 58.0999C87.9001 59.0999 89.4001 61.2999 89.4001 64.5999C89.4001 66.6999 88.3001 69.5999 86.2001 70.4999C84.6001 71.0999 81.2001 71.0999 79.5001 71.0999C79.0001 71.0999 78.6001 70.6999 78.6001 70.1999C78.6001 69.2999 79.4001 69.2999 80.0001 69.2999C79.8001 66.0999 79.9001 62.8999 79.9001 59.6999ZM81.7001 59.5999V65.3999C81.7001 66.6999 81.7001 67.8999 81.7001 69.1999C82.7001 69.1999 84.6001 69.0999 85.4001 68.7999C85.7001 68.6999 85.9001 68.4999 86.2001 68.1999C87.1001 67.1999 87.5001 65.7999 87.5001 64.5999C87.5001 64.2999 87.5001 64.0999 87.4001 63.7999C87.0001 60.3999 84.9001 59.5999 81.8001 59.5999H81.7001Z" fill="#005ECD"/>
<path d="M102 62.1999C102 61.5999 102.1 60.9999 102.1 60.3999C101.2 59.8999 100.6 59.2999 99.5001 59.2999C98.4001 59.2999 97.1001 59.9999 97.1001 61.1999C97.1001 64.0999 103.9 62.4999 103.9 67.4999C103.9 69.8999 101.6 70.9999 99.5001 70.9999C98.6001 70.9999 97.8001 70.7999 97.0001 70.3999C97.0001 70.8999 96.6001 71.1999 96.1001 71.1999C95.6001 71.1999 95.3001 70.8999 95.2001 70.3999C95.1001 69.9999 95.1001 69.4999 95.1001 68.9999C95.1001 68.2999 95.1001 67.5999 95.1001 66.8999C95.1001 66.3999 95.4001 65.9999 95.9001 65.9999C96.4001 65.9999 96.8001 66.3999 96.8001 66.8999C96.8001 67.0999 96.8001 67.2999 96.8001 67.3999C96.9001 68.6999 97.9001 69.1999 99.1001 69.1999C100.1 69.1999 101.9 68.5999 101.9 67.2999C101.9 63.7999 95.2001 65.6999 95.2001 60.8999C95.2001 58.5999 97.2001 57.3999 99.3001 57.3999C100.4 57.3999 101.3 57.6999 102.2 58.2999C102.3 57.8999 102.6 57.5999 103.1 57.5999C103.6 57.5999 104 57.8999 104 58.3999C104 58.4999 104 58.4999 104 58.5999C103.9 59.3999 103.8 60.0999 103.7 60.8999L103.6 62.0999C103.5 62.5999 103.2 62.8999 102.7 62.8999C102.3 63.0999 102 62.7999 102 62.1999Z" fill="#005ECD"/>
<path d="M117 58.6999C117 59.5999 116.3 59.5999 115.6 59.5999C115.4 61.2999 115.4 62.9999 115.3 64.6999C115.3 66.1999 115.2 67.6999 115.1 69.1999C115.3 69.1999 115.6 69.1999 115.8 69.1999C116.3 69.1999 116.7 69.5999 116.7 70.0999C116.7 70.5999 116.4 70.9999 115.8 70.9999C114.8 71.0999 113.5 70.9999 112.5 70.9999C112 70.9999 111.6 70.5999 111.6 70.0999C111.6 69.0999 112.5 69.1999 113.2 69.1999C113.2 68.0999 113.3 66.8999 113.3 65.7999C113 65.7999 112.7 65.7999 112.4 65.7999C111 65.7999 109.6 65.7999 108.2 65.8999C108.2 67.0999 108.2 68.1999 108.2 69.2999C108.4 69.2999 108.7 69.2999 108.9 69.2999C109.4 69.2999 109.8 69.6999 109.8 70.1999C109.8 70.6999 109.5 70.9999 109 71.0999C108.6 71.0999 108.1 71.0999 107.7 71.0999C107 71.0999 106.2 71.0999 105.4 70.9999C104.9 70.8999 104.6 70.5999 104.6 70.0999C104.6 69.5999 105 69.1999 105.5 69.1999C105.8 69.1999 106.2 69.1999 106.5 69.2999C106.5 67.6999 106.5 65.9999 106.6 64.3999C106.7 62.7999 106.7 61.1999 106.8 59.5999C106.1 59.5999 104.8 59.6999 104.8 58.6999C104.8 58.1999 105.2 57.7999 105.7 57.7999H105.8C106.5 57.7999 107.1 57.8999 107.7 57.8999C108.1 57.8999 108.5 57.8999 108.9 57.8999C109.4 57.8999 109.8 58.2999 109.8 58.7999C109.8 59.5999 109.2 59.6999 108.5 59.6999L108.3 64.0999C110 63.9999 111.7 63.9999 113.5 63.9999C113.6 62.4999 113.6 61.0999 113.8 59.5999H112.6C112.1 59.5999 111.7 59.1999 111.7 58.6999C111.7 58.1999 112.1 57.7999 112.6 57.7999C113.8 57.7999 114.9 57.7999 116.1 57.7999C116.7 57.7999 117 58.1999 117 58.6999Z" fill="#005ECD"/>
<path d="M117.5 65.3999C117.3 60.9999 120.6 57.6999 123.4 57.6999C126.9 57.6999 128.8 61.7999 128.8 64.8999C128.8 69.8999 125.2 71.3999 122.9 71.3999C120.7 71.2999 117.7 69.8999 117.5 65.3999ZM127 64.7999C127 61.8999 125.3 59.3999 123.4 59.3999C121.8 59.3999 119.1 61.6999 119.3 65.2999C119.4 68.5999 121.7 69.5999 123 69.5999C124.4 69.5999 127 68.4999 127 64.7999Z" fill="#005ECD"/>
<path d="M131.5 59.7999C131.1 59.7999 130.8 59.8999 130.4 59.8999C129.9 59.8999 129.5 59.4999 129.5 58.9999C129.5 58.4999 129.8 58.1999 130.3 58.0999C131.4 57.8999 132.9 57.7999 134.1 57.7999C137.1 57.7999 140.6 58.2999 140.6 62.0999C140.6 66.0999 137 66.7999 133.7 66.7999C133.4 66.7999 133.1 66.7999 132.8 66.7999C132.8 67.4999 132.8 68.3999 132.8 69.0999V69.1999C133.1 69.1999 133.4 69.1999 133.7 69.1999C134.2 69.1999 134.6 69.5999 134.6 70.0999C134.6 70.5999 134.3 70.8999 133.8 70.9999C133.4 71.0999 132.9 70.9999 132.5 70.9999C131.8 70.9999 131 70.9999 130.2 70.8999C129.7 70.7999 129.4 70.4999 129.4 69.9999C129.4 69.4999 129.8 69.0999 130.3 69.0999C130.6 69.0999 130.8 69.0999 131.1 69.0999C131 65.9999 131.2 62.9999 131.5 59.7999ZM132.9 64.9999C133.2 64.9999 133.5 64.9999 133.8 64.9999C136.1 64.9999 139 64.5999 139 62.1999C139 59.6999 136.2 59.5999 134.4 59.5999C134.1 59.5999 133.7 59.5999 133.4 59.5999C133.1 61.5999 133 63.0999 132.9 64.9999Z" fill="#005ECD"/>
<path d="M403.7 12.7999L404.9 97.1999L422.4 86.5999L440 99.4999L438.8 10.3999L403.7 12.7999Z" fill="#0085FF"/>
<path d="M420.1 28.0001C422.696 28.0001 424.8 25.8958 424.8 23.3001C424.8 20.7044 422.696 18.6001 420.1 18.6001C417.504 18.6001 415.4 20.7044 415.4 23.3001C415.4 25.8958 417.504 28.0001 420.1 28.0001Z" fill="#0067DF"/>
<path d="M164.7 53.7C166.357 53.7 167.7 52.3568 167.7 50.7C167.7 49.0431 166.357 47.7 164.7 47.7C163.043 47.7 161.7 49.0431 161.7 50.7C161.7 52.3568 163.043 53.7 164.7 53.7Z" fill="#0067DF"/>
<path d="M10.2002 154.5C11.857 154.5 13.2002 153.157 13.2002 151.5C13.2002 149.843 11.857 148.5 10.2002 148.5C8.54334 148.5 7.2002 149.843 7.2002 151.5C7.2002 153.157 8.54334 154.5 10.2002 154.5Z" fill="#0067DF"/>
<path d="M259.1 130.2C277.767 130.2 292.9 121.022 292.9 109.7C292.9 98.3781 277.767 89.2 259.1 89.2C240.433 89.2 225.3 98.3781 225.3 109.7C225.3 121.022 240.433 130.2 259.1 130.2Z" fill="#0085FF"/>
<path d="M259.1 123.1C272.907 123.1 284.1 117.101 284.1 109.7C284.1 102.299 272.907 96.2999 259.1 96.2999C245.293 96.2999 234.1 102.299 234.1 109.7C234.1 117.101 245.293 123.1 259.1 123.1Z" stroke="#0067DF" stroke-miterlimit="10"/>
<path d="M413.4 43.2L422 37V72.9" stroke="#0067DF" stroke-miterlimit="10"/>
<path d="M411.1 72.0999L432.2 71.3999" stroke="#0067DF" stroke-miterlimit="10"/>
<path d="M2.2998 62.3001L24.0998 40.6001L25.2998 62.3001H2.2998Z" fill="#3DA1FF"/>
<path d="M435.9 138.5L333.4 140.3L336.6 253.9L437.5 255.7L435.9 138.5Z" fill="#0085FF"/>
<path d="M424.2 151.4L344.5 152.6L346.8 229L425.4 230.2L424.2 151.4Z" stroke="#0067DF" stroke-miterlimit="10"/>
<path d="M385.9 220.8C402.634 220.8 416.2 207.234 416.2 190.5C416.2 173.766 402.634 160.2 385.9 160.2C369.166 160.2 355.6 173.766 355.6 190.5C355.6 207.234 369.166 220.8 385.9 220.8Z" stroke="#0067DF" stroke-miterlimit="10"/>
<path d="M367.3 190.5C367.3 200.8 375.6 209.1 385.9 209.1C396.2 209.1 404.5 200.8 404.5 190.5C404.5 180.2 396.2 171.9 385.9 171.9C375.6 171.9 367.3 180.2 367.3 190.5ZM373.3 190.5C373.3 183.5 378.9 177.9 385.9 177.9C392.9 177.9 398.5 183.5 398.5 190.5C398.5 197.5 392.9 203.1 385.9 203.1C378.9 203.1 373.3 197.5 373.3 190.5Z" stroke="#0067DF" stroke-miterlimit="10"/>
<path d="M385.9 177.6V203.5" stroke="#0067DF" stroke-miterlimit="10"/>
<path d="M373 190.5H398.8" stroke="#0067DF" stroke-miterlimit="10"/>
<path d="M395.1 181.4L376.8 199.7" stroke="#0067DF" stroke-miterlimit="10"/>
<path d="M376.8 181.4L395.1 199.7" stroke="#0067DF" stroke-miterlimit="10"/>
<path d="M350.6 237.3L424.4 236.8" stroke="#0067DF" stroke-miterlimit="10"/>
<path d="M350.6 243.4L424.4 243.7" stroke="#0067DF" stroke-miterlimit="10"/>
<path d="M95.6999 206.8L105.3 203.7L104.9 184.2L49.3999 184.6L49.4999 252.6L106.5 252.4L105.5 211L95.6999 206.8Z" fill="#0085FF"/>
<path d="M66.1 208.3C70.6 203 79 202.3 83.7 204.3C88.4 206.3 90.9 212 89.4 217.5C87.9 223 82.6 228 77 229.2C82.3 231.6 89 229.6 94.5 225.7C94.9 230.1 92.7 235.6 88.7 238.6C86.8 240 83.8 241.2 81.6 241.7C77.2 242.5 73.6 239.6 69.3 239.4C66.5 239.2 63.5 240.3 61 242.2C61.4 237.4 62 232 65.6 228.2C67.4 226.4 69.6 225.2 71.8 224C73.6 223 75.5 222 77.3 221C78.3 220.5 79.3 219.9 80 219C81.4 217.2 80.6 214.6 78.8 213.9C77 213.2 74.6 213.9 72.7 215.2C70.8 216.5 70.5 217.6 69.1 219.4C68.6 220 67.8 221.9 66.6 221.9C64 222.9 61.6 220.5 61.8 217.8C61.9 217.7 61 215 66.1 208.3Z" fill="#005ECD"/>
<path d="M76.4 199.2C78.1673 199.2 79.6 197.767 79.6 196C79.6 194.233 78.1673 192.8 76.4 192.8C74.6326 192.8 73.2 194.233 73.2 196C73.2 197.767 74.6326 199.2 76.4 199.2Z" fill="#005ECD"/>
<path d="M36.3 180.7L0 181.7V207.3H36.3V180.7Z" fill="#0085FF"/>
<path d="M2.1 249.5L34 248.7V229.3H0L2.1 249.5Z" fill="#0085FF"/>
<path d="M6.6001 191.3H27.5001" stroke="#0067DF" stroke-miterlimit="10"/>
<path d="M6.6001 198.8H27.5001" stroke="#0067DF" stroke-miterlimit="10"/>
<path d="M347.3 31.8C347.3 31.8 346.7 38.4 351.7 39C356.7 39.6 391.4 40.6 392 37.2C392.6 33.9 393.6 27.7 389.7 28.4C388.3 28.7 389.2 33.9 387.3 34.5C381.8 36.2 352.5 36.1 352 34.7C351.5 33.2 350.5 28.6 349.2 28.4C347.9 28.3 347.3 31.8 347.3 31.8Z" fill="#0085FF"/>
<path d="M362.5 18.0999C368.9 17.4999 364.6 24.5999 369.7 24.8999C374.8 25.2999 371.8 18.7999 376 18.6999C381.6 18.4999 382.2 35.4999 382.2 35.4999L356.7 35.8999C357.5 26.2999 358.4 18.4999 362.5 18.0999Z" fill="#0085FF"/>
<path d="M260.8 48.1999L307.8 48.5999" stroke="#0067DF" stroke-miterlimit="10"/>
<path d="M260.8 30.3999L307.8 30.8999" stroke="#0067DF" stroke-miterlimit="10"/>
<path d="M308 39.1999L260.9 38.7999" stroke="#0067DF" stroke-miterlimit="10"/>
<path d="M231.9 42.5999C231.9 42.5999 241.4 54.8 248.2 46.9C255 39 233.6 22.2 231.4 22.2C229.2 22.2 206.8 42.9 216.1 49.5C225.5 56.0999 231.9 42.5999 231.9 42.5999Z" fill="#0067DF"/>
<path d="M233.8 41.5999C233.8 41.5999 233.3 52.5999 237.8 56.3999L227.2 57.0999C227.2 57.0999 232.5 49.3999 230.3 39.9999" fill="#0067DF"/>
</svg>
