<svg width="133" height="165" viewBox="0 0 133 165" fill="none" xmlns="http://www.w3.org/2000/svg">
<path d="M132.7 0H0V134H74.7L69.1 165L101 134H132.7V0Z" fill="white"/>
<mask id="path-2-inside-1" fill="white">
<path d="M73.0244 21H58.0976C37.3537 21 21 37.8692 21 58.5974V107H111V58.5974C111 37.8692 93.6585 21 73.0244 21Z"/>
</mask>
<path d="M73.0244 21H58.0976C37.3537 21 21 37.8692 21 58.5974V107H111V58.5974C111 37.8692 93.6585 21 73.0244 21Z" stroke="#B0B0B0" stroke-width="4" stroke-dasharray="2 2" mask="url(#path-2-inside-1)"/>
<path d="M54.0566 65.0527C54.0566 64.8242 54.0625 64.5225 54.0742 64.1475C54.0918 63.7666 54.1064 63.3594 54.1182 62.9258C54.1299 62.4863 54.1387 62.0352 54.1445 61.5723C54.1504 61.1094 54.1592 60.6758 54.1709 60.2715C54.1826 59.8613 54.1885 59.501 54.1885 59.1904C54.1885 58.874 54.1885 58.6455 54.1885 58.5049L54.0742 52.9766C54.2441 52.9414 54.4521 52.8975 54.6982 52.8447C54.9443 52.7861 55.1758 52.7451 55.3926 52.7217L57.124 52.5459C57.2178 52.6807 57.3438 52.8623 57.502 53.0908C57.666 53.3135 57.8301 53.542 57.9941 53.7764C58.1582 54.0107 58.3076 54.2275 58.4424 54.4268C58.583 54.626 58.6768 54.7607 58.7236 54.8311C58.7705 54.9014 58.8408 55.0068 58.9346 55.1475C59.0342 55.2822 59.1514 55.4375 59.2861 55.6133C59.4268 55.7891 59.5703 55.9736 59.7168 56.167C59.8691 56.3545 60.0244 56.5449 60.1826 56.7383C60.54 57.1953 60.9297 57.6875 61.3516 58.2148C61.3633 57.5059 61.375 56.8584 61.3867 56.2725C61.3867 56.0205 61.3896 55.7686 61.3955 55.5166C61.4014 55.2646 61.4072 55.0273 61.4131 54.8047C61.4189 54.582 61.4219 54.3857 61.4219 54.2158C61.4219 54.04 61.4219 53.9082 61.4219 53.8203C61.4219 53.5918 61.4219 53.3779 61.4219 53.1787C61.4219 52.9736 61.4102 52.7861 61.3867 52.6162L64.876 52.458C64.8525 52.6045 64.8379 52.7451 64.832 52.8799C64.8262 53.0146 64.8174 53.1553 64.8057 53.3018C64.7939 53.3838 64.7822 53.583 64.7705 53.8994C64.7588 54.21 64.7412 54.5879 64.7178 55.0332C64.6943 55.4727 64.6709 55.959 64.6475 56.4922C64.624 57.0254 64.5977 57.5527 64.5684 58.0742C64.5449 58.5898 64.5244 59.082 64.5068 59.5508C64.4893 60.0137 64.4805 60.4033 64.4805 60.7197C64.4688 61.0889 64.46 61.4785 64.4541 61.8887C64.4482 62.293 64.4424 62.6885 64.4365 63.0752C64.4307 63.4561 64.4277 63.8076 64.4277 64.1299C64.4277 64.4463 64.4277 64.7012 64.4277 64.8945C64.2578 64.9531 64.0674 65.0059 63.8564 65.0527C63.6514 65.0996 63.4814 65.1348 63.3467 65.1582L62.4326 65.3076L61.6943 64.0684C61.5889 63.8867 61.3809 63.5762 61.0703 63.1367C60.7656 62.6973 60.4053 62.1934 59.9893 61.625C59.5791 61.0566 59.1426 60.4561 58.6797 59.8232C58.2168 59.1846 57.7803 58.5811 57.3701 58.0127C57.4053 58.6221 57.4375 59.1816 57.4668 59.6914C57.4902 60.125 57.5078 60.5469 57.5195 60.957C57.5312 61.3613 57.543 61.6338 57.5547 61.7744C57.5547 61.9092 57.5605 62.0967 57.5723 62.3369C57.584 62.5771 57.5957 62.8262 57.6074 63.084C57.6191 63.3418 57.6279 63.5879 57.6338 63.8223C57.6396 64.0566 57.6426 64.2266 57.6426 64.332V64.8594C57.4258 64.8711 57.1562 64.8857 56.834 64.9033C56.5117 64.9209 56.1777 64.9385 55.832 64.9561C55.4922 64.9736 55.1641 64.9912 54.8477 65.0088C54.5371 65.0264 54.2734 65.041 54.0566 65.0527ZM66.1943 59.2607C66.1943 58.2178 66.3379 57.2744 66.625 56.4307C66.918 55.5811 67.3193 54.8545 67.8291 54.251C68.3389 53.6416 68.9482 53.1758 69.6572 52.8535C70.3721 52.5254 71.1572 52.3613 72.0127 52.3613C72.9619 52.3613 73.7676 52.5312 74.4297 52.8711C75.0977 53.2051 75.6396 53.6709 76.0557 54.2686C76.4775 54.8604 76.7822 55.5664 76.9697 56.3867C77.1572 57.207 77.251 58.1035 77.251 59.0762C77.251 59.9668 77.125 60.7842 76.873 61.5283C76.6211 62.2725 76.2461 62.9141 75.748 63.4531C75.25 63.9922 74.626 64.4111 73.876 64.71C73.126 65.0088 72.2471 65.1582 71.2393 65.1582C70.4131 65.1582 69.6865 64.9971 69.0596 64.6748C68.4326 64.3525 67.9053 63.9189 67.4775 63.374C67.0557 62.8232 66.7363 62.1963 66.5195 61.4932C66.3027 60.7842 66.1943 60.04 66.1943 59.2607ZM69.5254 58.1973C69.502 58.4082 69.4902 58.6074 69.4902 58.7949C69.4902 59.1289 69.5254 59.4307 69.5957 59.7002C69.7012 60.1279 69.8564 60.4824 70.0615 60.7637C70.2666 61.0449 70.5068 61.2588 70.7822 61.4053C71.0635 61.5459 71.3594 61.6221 71.6699 61.6338C71.7109 61.6338 71.7549 61.6338 71.8018 61.6338C72.1357 61.6396 72.4229 61.5605 72.6631 61.3965C72.9385 61.209 73.1611 60.9629 73.3311 60.6582C73.5068 60.3477 73.6357 60.002 73.7178 59.6211C73.8057 59.2402 73.8496 58.8564 73.8496 58.4697C73.8496 58.1475 73.8027 57.7959 73.709 57.415C73.6211 57.0342 73.4863 56.6826 73.3047 56.3604C73.123 56.0381 72.9033 55.7715 72.6455 55.5605C72.4111 55.373 72.1475 55.2793 71.8545 55.2793C71.8193 55.2793 71.7871 55.2793 71.7578 55.2793C71.1602 55.3145 70.6592 55.5752 70.2549 56.0615C69.8506 56.5479 69.6074 57.2598 69.5254 58.1973ZM32.0312 75.6455C32.0312 74.7197 32.2012 73.8701 32.541 73.0967C32.8809 72.3232 33.3438 71.6582 33.9297 71.1016C34.5215 70.5449 35.207 70.1113 35.9863 69.8008C36.7656 69.4844 37.5947 69.3262 38.4736 69.3262C39.0596 69.3262 39.6455 69.3789 40.2314 69.4844C40.8232 69.584 41.4062 69.6953 41.9805 69.8184C41.8984 70.3223 41.8047 70.8203 41.6992 71.3125C41.5996 71.7988 41.4766 72.2881 41.3301 72.7803C40.9316 72.6104 40.4775 72.4609 39.9678 72.332C39.4639 72.2031 39.001 72.1387 38.5791 72.1387C38.1221 72.1387 37.6885 72.2295 37.2783 72.4111C36.874 72.5869 36.5137 72.833 36.1973 73.1494C35.8867 73.46 35.6406 73.8232 35.459 74.2393C35.2832 74.6494 35.1953 75.0889 35.1953 75.5576C35.1953 76.085 35.2656 76.5801 35.4062 77.043C35.5527 77.5059 35.7695 77.9072 36.0566 78.2471C36.3438 78.5869 36.7041 78.8535 37.1377 79.0469C37.5713 79.2402 38.0752 79.3369 38.6494 79.3369C38.9365 79.3369 39.2266 79.3193 39.5195 79.2842L39.458 77.1572L37.4277 77.1396L37.4805 74.8193C37.8555 74.8135 38.2275 74.8105 38.5967 74.8105C38.9658 74.8105 39.332 74.8135 39.6953 74.8193C40.4277 74.8311 41.1602 74.8545 41.8926 74.8896L42.0508 81.1738C41.5938 81.4844 41.0605 81.7334 40.4512 81.9209C39.8418 82.1084 39.2588 82.2021 38.7021 82.2021C37.6357 82.2021 36.6865 82.0791 35.8545 81.833C35.0283 81.5869 34.334 81.2031 33.7715 80.6816C33.209 80.1543 32.7783 79.4775 32.4795 78.6514C32.1807 77.8252 32.0312 76.8232 32.0312 75.6455ZM43.2461 81.7275L45.25 76.0762C45.3555 75.7773 45.4756 75.4346 45.6104 75.0479C45.751 74.6553 45.8945 74.251 46.041 73.835C46.1934 73.4131 46.3428 72.9854 46.4893 72.5518C46.6416 72.1182 46.7881 71.7139 46.9287 71.3389C47.0693 70.958 47.1924 70.6152 47.2979 70.3105C47.4033 70.0059 47.4883 69.7686 47.5527 69.5986C47.7227 69.5986 47.9482 69.5986 48.2295 69.5986C48.5107 69.5986 48.8037 69.5986 49.1084 69.5986C49.4131 69.5986 49.7178 69.6016 50.0225 69.6074C50.3271 69.6133 50.5879 69.6221 50.8047 69.6338C50.9629 70.126 51.1475 70.6914 51.3584 71.3301C51.5693 71.9629 51.7861 72.6338 52.0088 73.3428C52.2373 74.0518 52.4746 74.7812 52.7207 75.5312C52.9668 76.2812 53.207 77.0254 53.4414 77.7637C53.6758 78.502 53.9014 79.2197 54.1182 79.917C54.335 80.6143 54.5342 81.2559 54.7158 81.8418C54.1533 81.9355 53.5908 82.0117 53.0283 82.0703C52.4717 82.1289 51.9121 82.208 51.3496 82.3076C51.3145 81.8506 51.2559 81.4434 51.1738 81.0859C51.0977 80.7227 51.0068 80.3184 50.9014 79.873L46.9902 79.8379C46.8848 80.248 46.7822 80.6201 46.6826 80.9541C46.6006 81.2412 46.5244 81.5283 46.4541 81.8154C46.3896 82.0967 46.3457 82.29 46.3223 82.3955L43.2461 81.7275ZM47.5879 77.2275H50.541L49.2578 72.1387L47.5879 77.2275ZM55.832 69.5811C56.2012 69.5459 56.6201 69.5195 57.0889 69.502C57.5576 69.4844 57.9795 69.4756 58.3545 69.4756C59.4443 69.4756 60.4258 69.5928 61.2988 69.8271C62.1777 70.0557 62.9248 70.4277 63.54 70.9434C64.1611 71.4531 64.6357 72.1094 64.9639 72.9121C65.2979 73.7148 65.4648 74.6875 65.4648 75.8301C65.4648 76.8379 65.2568 77.7344 64.8408 78.5195C64.4248 79.3047 63.8799 79.9639 63.2061 80.4971C62.5381 81.0303 61.7734 81.4375 60.9121 81.7188C60.0566 82 59.1807 82.1406 58.2842 82.1406C58.1025 82.1406 57.9092 82.1406 57.7041 82.1406C57.499 82.1406 57.2881 82.1348 57.0713 82.123C56.8604 82.1113 56.6494 82.1025 56.4385 82.0967C56.2275 82.0908 56.0371 82.0762 55.8672 82.0527C55.9023 81.3555 55.9258 80.667 55.9375 79.9873C55.9492 79.3018 55.9551 78.6104 55.9551 77.9131C55.9551 76.4951 55.9434 75.1064 55.9199 73.7471C55.8965 72.3877 55.8672 70.999 55.832 69.5811ZM59.0752 72.8242L59.1279 78.6338C60.0771 78.6338 60.8359 78.373 61.4043 77.8516C61.9727 77.3301 62.2568 76.5771 62.2568 75.5928C62.2568 74.6436 62.0459 73.9375 61.624 73.4746C61.208 73.0117 60.5137 72.7803 59.541 72.7803C59.459 72.7803 59.377 72.7832 59.2949 72.7891C59.2188 72.7949 59.1455 72.8066 59.0752 72.8242ZM66.5547 75.6455C66.5547 74.7197 66.7246 73.8701 67.0645 73.0967C67.4043 72.3232 67.8672 71.6582 68.4531 71.1016C69.0449 70.5449 69.7305 70.1113 70.5098 69.8008C71.2891 69.4844 72.1182 69.3262 72.9971 69.3262C73.583 69.3262 74.1689 69.3789 74.7549 69.4844C75.3467 69.584 75.9297 69.6953 76.5039 69.8184C76.4219 70.3223 76.3281 70.8203 76.2227 71.3125C76.123 71.7988 76 72.2881 75.8535 72.7803C75.4551 72.6104 75.001 72.4609 74.4912 72.332C73.9873 72.2031 73.5244 72.1387 73.1025 72.1387C72.6455 72.1387 72.2119 72.2295 71.8018 72.4111C71.3975 72.5869 71.0371 72.833 70.7207 73.1494C70.4102 73.46 70.1641 73.8232 69.9824 74.2393C69.8066 74.6494 69.7188 75.0889 69.7188 75.5576C69.7188 76.085 69.7891 76.5801 69.9297 77.043C70.0762 77.5059 70.293 77.9072 70.5801 78.2471C70.8672 78.5869 71.2275 78.8535 71.6611 79.0469C72.0947 79.2402 72.5986 79.3369 73.1729 79.3369C73.46 79.3369 73.75 79.3193 74.043 79.2842L73.9814 77.1572L71.9512 77.1396L72.0039 74.8193C72.3789 74.8135 72.751 74.8105 73.1201 74.8105C73.4893 74.8105 73.8555 74.8135 74.2188 74.8193C74.9512 74.8311 75.6836 74.8545 76.416 74.8896L76.5742 81.1738C76.1172 81.4844 75.584 81.7334 74.9746 81.9209C74.3652 82.1084 73.7822 82.2021 73.2256 82.2021C72.1592 82.2021 71.21 82.0791 70.3779 81.833C69.5518 81.5869 68.8574 81.2031 68.2949 80.6816C67.7324 80.1543 67.3018 79.4775 67.0029 78.6514C66.7041 77.8252 66.5547 76.8232 66.5547 75.6455ZM78.6748 69.6865C80.0576 69.6396 81.4199 69.6045 82.7617 69.5811C84.1035 69.5576 85.4629 69.5459 86.8398 69.5459V72.4199C86.6934 72.4082 86.4824 72.3994 86.207 72.3936C85.9375 72.3877 85.6533 72.3818 85.3545 72.376C85.0615 72.3701 84.7832 72.3672 84.5195 72.3672C84.2559 72.3672 84.0596 72.3672 83.9307 72.3672C83.7725 72.3789 83.5674 72.3877 83.3154 72.3936C83.0635 72.3994 82.8174 72.4082 82.5771 72.4199C82.29 72.4316 81.9912 72.4463 81.6807 72.4639L81.7158 74.4766C82.0029 74.4648 82.2725 74.4473 82.5244 74.4238C82.7412 74.4004 82.9609 74.3828 83.1836 74.3711C83.4062 74.3594 83.5762 74.3477 83.6934 74.3359C83.8633 74.3242 84.0713 74.3125 84.3174 74.3008C84.4521 74.2949 84.5811 74.2891 84.7041 74.2832C84.7979 74.2832 84.8857 74.2861 84.9678 74.292L85.0996 76.8145C84.9414 76.8496 84.7305 76.8848 84.4668 76.9199C84.2031 76.9492 83.9219 76.9697 83.623 76.9814C83.3242 76.9932 83.0195 76.999 82.709 76.999C82.4043 76.999 82.1318 76.999 81.8916 76.999V78.8359H86.9014V82.0352C86.6494 82.0352 86.2979 82.0322 85.8467 82.0264C85.3955 82.0205 84.9268 82.0146 84.4404 82.0088C83.9541 82.0029 83.4854 82 83.0342 82C82.583 82 82.2314 82 81.9795 82L78.7451 82.0527C78.7568 81.7129 78.7656 81.2266 78.7715 80.5938C78.7715 80.4648 78.7715 80.3359 78.7715 80.207C78.7715 79.6621 78.7627 79.041 78.7451 78.3438C78.7334 77.793 78.7275 77.1748 78.7275 76.4893C78.7275 75.7979 78.7246 75.0742 78.7188 74.3184C78.7129 73.5566 78.707 72.7803 78.7012 71.9893C78.6953 71.1982 78.6865 70.4307 78.6748 69.6865ZM88.0264 72.5869C88.0146 72.417 88.0088 72.2266 88.0088 72.0156C88.0088 71.7578 88.0176 71.4736 88.0352 71.1631C88.0645 70.6006 88.1143 70.0498 88.1846 69.5107C89.0635 69.5576 89.9336 69.5869 90.7949 69.5986C91.6621 69.6104 92.5322 69.6162 93.4053 69.6162C94.3779 69.6162 95.3213 69.6074 96.2354 69.5898C97.1553 69.5723 98.1074 69.5459 99.0918 69.5107V72.5342C98.4062 72.5576 97.7354 72.5752 97.0791 72.5869C96.4287 72.5986 95.7607 72.6162 95.0752 72.6396C95.0986 74.21 95.1104 75.7715 95.1104 77.3242C95.1162 78.8711 95.1426 80.4297 95.1895 82H91.9287L91.999 72.6748C91.6299 72.6748 91.2812 72.6719 90.9531 72.666C90.6309 72.6602 90.3174 72.6543 90.0127 72.6484C89.708 72.6426 89.3916 72.6338 89.0635 72.6221C88.7412 72.6104 88.3955 72.5986 88.0264 72.5869Z" fill="#8A8A8A"/>
</svg>
